<?xml version="1.0" encoding="utf-8"?>
<!-- Generator: Adobe Illustrator 23.1.1, SVG Export Plug-In . SVG Version: 6.00 Build 0)  -->
<svg version="1.1" id="Capa_1" xmlns="http://www.w3.org/2000/svg" xmlns:xlink="http://www.w3.org/1999/xlink" x="0px" y="0px"
	 viewBox="0 0 414 521.8" style="enable-background:new 0 0 414 521.8;" xml:space="preserve">
<style type="text/css">
	.st0{fill:none;}
	.st1{fill:#FFFFFF;}
	.st2{fill:none;stroke:#EAF1EE;stroke-width:300.16;stroke-linecap:round;stroke-linejoin:round;}
	.st3{opacity:0.77;}
	.st4{fill:#ECEFF1;}
	.st5{fill:#E34C7F;}
	.st6{fill:#CFD8DC;}
	.st7{fill:#EDA38F;}
	.st8{fill:#2C3A64;}
	.st9{fill:#6C301E;}
	.st10{fill:#375D4C;}
	.st11{fill:#59A491;}
	.st12{fill:#263238;}
	.st13{fill:#455A64;}
	.st14{fill:#BBDEFB;}
	.st15{fill:#FFDEDB;}
	.st16{fill:#FFB74D;}
	.st17{fill:#4E342E;}
	.st18{fill:#FFEE58;}
	.st19{fill:#D84315;}
	.st20{fill:#BF360C;}
	.st21{fill:#C0CA33;}
	.st22{fill:#FFC760;}
	.st23{fill:#D1F3F7;}
	.st24{fill:#DEF0DF;}
	.st25{clip-path:url(#SVGID_2_);}
	.st26{fill:#8AD0E3;}
	.st27{fill:#76BDCE;}
	.st28{fill:#7AD935;}
	.st29{fill:#57B442;}
	.st30{fill:#FED45C;}
	.st31{fill:#9BEA5E;}
	.st32{fill:#94DB56;}
	.st33{fill:#000400;}
	.st34{fill:#232727;}
	.st35{fill:#8C8C83;}
	.st36{fill:#F7423E;}
	.st37{fill:#E72318;}
	.st38{fill:#2EA341;}
	.st39{fill:#BAF982;}
	.st40{fill:#F76F3E;}
	.st41{fill:#A7A7A8;}
	.st42{fill:#F0F0F0;}
</style>
<title>onboarding_illustration_4</title>
<rect y="-56.3" class="st0" width="414" height="896"/>
<g>
	<g id="Onboarding_4">
		<rect y="-56.3" class="st1" width="414" height="896"/>
		<g id="Grupo_1">
			<g id="Componente_1_7">
				<path id="Trazado_95" class="st2" d="M-1025.7,271.9c0,0,183.7-267.8,509-197.9c237.5,51.1,354.5,204.1,606.2,187.6
					c93.4-6.1,137.1-32.6,137.1-32.6"/>
			</g>
		</g>
		<g id="onboarding_4-01">
			<g id="OBJECTS">
				<g id="Grupo_3" class="st3">
					<rect id="Rectángulo_9" x="300.1" y="24.3" class="st4" width="34.2" height="39.9"/>
					<path id="Trazado_389" class="st1" d="M302,26.5v16.8h30.4V26.5H302z"/>
					<path id="Trazado_390" class="st1" d="M309.9,45.4c-0.5-0.5-1.2-0.5-1.7,0c-0.2,0.2-0.4,0.5-0.4,0.9c0,0.3,0.2,0.6,0.4,0.8
						c0,0.1,0,0.3,0,0.4l0.4-0.2c0.1,0,0.2,0,0.4,0c0.3,0,0.6-0.1,0.9-0.4c0.2-0.2,0.4-0.5,0.4-0.9
						C310.2,45.8,310.1,45.5,309.9,45.4L309.9,45.4z"/>
					<path id="Trazado_391" class="st5" d="M304.1,45.7c0-0.1,0.1-0.2,0.1-0.3c0.2-0.3,0.7-0.4,1-0.2c0.2,0.1,0.3,0.3,0.3,0.5
						c0,0.2,0,0.3-0.1,0.5c-0.1,0.2-0.2,0.5-0.4,0.6c-0.3,0.3-0.6,0.6-1,0.9h0c-0.4-0.3-0.8-0.6-1.1-1c-0.1-0.2-0.2-0.4-0.3-0.6
						c-0.1-0.4,0.1-0.8,0.5-0.9c0.4-0.1,0.8,0.1,0.9,0.4c0,0,0,0,0,0C304,45.6,304,45.7,304.1,45.7L304.1,45.7z"/>
					<path id="Trazado_392" class="st1" d="M312.3,46.2c0-0.1,0.1-0.1,0.1-0.1l0.9-0.3l1.5-0.6c0,0,0.1,0,0.1,0
						c0.1,0,0.2,0.1,0.2,0.2l0,0l-0.1,0.5c-0.1,0.5-0.2,0.9-0.3,1.4v0.1c0,0.1-0.1,0.2-0.2,0.2h-0.1c-0.1,0-0.1-0.1-0.2-0.2
						l-0.2-0.2l0,0l-0.3,0.3c-0.1,0.1-0.2,0.1-0.3,0c0,0-0.1-0.1-0.1-0.1l-0.1-0.4l-0.1-0.4l-0.5-0.1c0,0-0.1,0-0.1-0.1
						c0,0,0,0,0-0.1L312.3,46.2z"/>
					<rect id="Rectángulo_10" x="302.5" y="49.6" class="st6" width="29.3" height="1"/>
					<rect id="Rectángulo_11" x="302.5" y="52" class="st6" width="29.3" height="1"/>
					<rect id="Rectángulo_12" x="302.5" y="54.4" class="st6" width="29.3" height="1"/>
					<rect id="Rectángulo_13" x="302.5" y="56.8" class="st6" width="11.4" height="1"/>
				</g>
				<path id="Trazado_393" class="st7" d="M275.7,317.1l-7.4-2.6l-8,7.3c-7.2,6.5-12.8,14.5-16.6,23.5L224,391.5l8.9,1.6l48.2-74.3
					C279.3,318.3,277.5,317.8,275.7,317.1z"/>
				<path id="Trazado_394" class="st8" d="M222.9,385.9l15,6.3l0.3,2c0.6,4.5,2.2,8.7,4.6,12.5c1.3,2,2.8,3.8,4.5,5.4
					c1.1,1,4.5,2.5,4.6,4.2c0.1,1.2-1.8,1.3-2.9,1.5c-8.6,1.6-15.6-4.2-21.8-9.3c-1.3-1-11.1-9.2-10.6-10.2L222.9,385.9z"/>
				<path id="Trazado_395" class="st7" d="M262.6,239.8l16.6,70.2l0.4,95.7l-8.4,3.6l-8.9-49.4c-1.7-9.5-1.4-19.3,1.1-28.7l3.1-12
					l-39.9-72.4L262.6,239.8z"/>
				<path id="Trazado_396" class="st8" d="M267.2,405.3l16-3l1.3,1.5c2.9,3.4,6.6,6.2,10.7,8c2.2,0.9,4.4,1.6,6.7,2
					c1.5,0.3,5.1-0.4,6.1,1c0.7,0.9-0.8,2.1-1.6,2.9c-6.3,6.1-15.4,5-23.4,4.2c-1.6-0.2-14.4-1.6-14.5-2.7L267.2,405.3z"/>
				<path id="Trazado_397" class="st9" d="M281.8,89.5c-13.6-6.9-30.2-1.4-37.1,12.2c-3.2,6.2-3.8,13.4-1.9,20.2
					c-2,6-5.6,10.3-9.1,15.5s-6.8,11.3-6.4,17.6c0.5,9,8,16,16,20.1c4.7,2.4,9.9,4.2,15.2,4s10.7-2.3,13.8-6.6
					c1.9-2.6,2.9-5.9,5.1-8.2c3-3.1,7.5-4.1,11.5-5.8s8.1-5.1,8.1-9.4s-4.1-7.8-5.9-12c-1.6-3.9-1-8.4,0.5-12.4
					c1.5-4,3.6-7.6,5.2-11.5c1.7-3.7,2.4-7.8,2.2-11.9c-0.3-4.1-2.2-8-5.4-10.6C290.5,88.3,285.3,87.4,281.8,89.5z"/>
				<path id="Trazado_398" class="st7" d="M283.9,197.8c-5.3,7.9-11.5,15.3-18.4,22l6.5,6.7c7.3-7.1,13.9-15,19.6-23.5
					c1.3-1.8,2.3-3.7,3.1-5.8c-3.1-1-6.2-1.6-9.4-1.9C284.9,196.2,284.4,197.1,283.9,197.8z"/>
				<path id="Trazado_399" class="st10" d="M295.5,191.4c-0.5-4-3-7-4.8-9.2L271,150.7l-10.9,19.2l23.3,18.2
					c1.2,1.4,2.6,3.2,2.8,4.4c0,1-0.3,2-0.9,2.9c3.2,0.2,6.4,0.9,9.4,1.9C295.5,195.4,295.7,193.4,295.5,191.4L295.5,191.4z"/>
				<path id="Trazado_400" class="st11" d="M243.8,141.1c4.1-1.1,8.3-1.4,12.5-1l1.2,0.2c12.2,2.1,19.9,19,17.7,31.8
					c-2.4,13.5-7.3,20.7-6.4,34.5c0.8,11.4,5.9,23.2,8.1,35.5c9.7,53.7,9.5,80.6,10.9,87.6c-18.6,10.9-41.3,12.4-61.2,4.1
					c-1-7-10.9-33.7-7.4-86.9c1.7-24.7,9.6-34.2,10.2-44.9C230.6,182.4,227.6,144.7,243.8,141.1z"/>
				<path id="Trazado_401" class="st12" d="M315.1,163.8l-8.2,25.2c-0.3,1-1.4,1.5-2.4,1.2c0,0,0,0,0,0l0,0l-10.7-3.5l9.4-28.7
					l10.7,3.5C314.9,161.7,315.4,162.8,315.1,163.8C315.1,163.8,315.1,163.8,315.1,163.8L315.1,163.8L315.1,163.8z"/>
				<path id="Trazado_402" class="st13" d="M302.4,157.6l0.7,0.2l-9.4,28.7l-0.7-0.2c-1-0.3-1.5-1.4-1.2-2.4l8.2-25.1
					C300.3,157.8,301.4,157.3,302.4,157.6C302.4,157.6,302.4,157.6,302.4,157.6L302.4,157.6z"/>
				<path id="Trazado_403" class="st7" d="M289.6,172.2c1.2-2.9,3.6-5.1,6.6-6c3.4-0.9,7-0.1,9.7,2.1c0.8,0.7,0.9,2,0.1,2.8
					c-0.7,0.8-2,0.9-2.8,0.2l-0.4-0.3h-0.1l-0.1-0.1c-0.2-0.2-0.5-0.3-0.8-0.4l-0.5-0.2l-0.3-0.1l-0.3-0.1l-0.4-0.1
					c-0.3-0.1-0.6-0.1-0.9-0.1h-0.7c-0.3,0-0.6,0-0.9,0.1h-0.2l-0.4,0.1c-0.3,0.1-0.5,0.2-0.8,0.3h-0.1l-0.4,0.2
					c-0.2,0.1-0.5,0.3-0.7,0.4l-0.3,0.2l-0.2,0.1c-0.4,0.4-0.8,0.8-1.1,1.2l-0.1,0.2l-0.2,0.4c-0.1,0.3-0.3,0.6-0.4,0.9
					c-0.5,0.9-1.7,1.3-2.6,0.9C289.5,174.3,289.1,173.2,289.6,172.2z"/>
				<path id="Trazado_404" class="st7" d="M290.4,177c1,0.5,2.1,0.1,2.6-0.9c-0.2,0.3,0,0,0-0.1l0.2-0.3l0.1-0.1l0.1-0.1
					c0.2-0.1,0.4-0.2,0.6-0.3l0.4-0.2l0.7-0.2c-0.4,0.1,0.2,0,0.4,0c0.2,0,0.5,0,0.7,0h0.4c1.1,0.1,2.1,0.5,3.1,1
					c1.1,0.6,2.2,1.2,3.2,1.9c1,0.5,2.1,0.1,2.6-0.9c0.5-1,0.1-2.1-0.9-2.6c-2.6-1.7-5.2-3.2-8.4-3.3c-2.7-0.1-5.3,1.2-6.8,3.5
					C289.1,175.4,289.5,176.5,290.4,177z"/>
				<path id="Trazado_406" class="st7" d="M290.2,177.4c0.4,1,1.5,1.6,2.5,1.2l0.6-0.2h0.2c0.4-0.1,0.7-0.1,1.1-0.1h0.2
					c0.2,0,0.4,0,0.6,0.1c0.2,0,0.4,0.1,0.6,0.1l0.2,0.1l0.2,0.1l0,0l0.2,0.1c0.2,0.1,0.4,0.2,0.5,0.3c0.2,0.1,0.4,0.2,0.5,0.3
					l0.2,0.1l-0.1,0h0.1c0.3,0.2,0.6,0.5,0.9,0.8l0,0l0.1,0.1l0.4,0.5c0.4,1,1.6,1.5,2.6,1.1s1.5-1.6,1.1-2.6
					c-0.1-0.2-0.2-0.5-0.4-0.7l0,0c-2.5-3.6-7-5.2-11.2-3.8C290.4,175.3,289.9,176.4,290.2,177.4L290.2,177.4L290.2,177.4z"/>
				<path id="Trazado_407" class="st7" d="M287.4,177.1c-0.2,1.1,0.5,2.1,1.5,2.3l1.1,0.3l0.2,0.1l0.5,0.2c0.3,0.2,0.7,0.3,1,0.5
					l0.5,0.3l0.1,0.1c0.3,0.2,0.6,0.5,0.9,0.8l0.4,0.4c0.1,0.1,0.4,0.3,0.4,0.4c0-0.1-0.2-0.3-0.1-0.1l0.2,0.2
					c0.1,0.2,0.2,0.3,0.4,0.5c0.2,0.3,0.4,0.6,0.6,1c0.8,0.8,2,0.8,2.8,0c0.6-0.6,0.8-1.5,0.5-2.2c-1.9-3.2-5-5.5-8.7-6.3
					C288.6,175.4,287.6,176,287.4,177.1L287.4,177.1z"/>
				<path id="Trazado_408" class="st7" d="M292.5,168.1c-2.3,1.3-4.2,3.1-5.6,5.4c-1.3,2.3-2.4,4.7-3.2,7.2
					c-0.4,0.9-0.6,1.9-0.4,2.8c0.4,1.1,1.3,1.9,2.3,2.4c1,0.8,2.3,1.3,3.6,1.5c2-0.1,3.7-1.4,4.4-3.3c0.6-1.8,0.9-3.8,0.8-5.8
					L292.5,168.1z"/>
				<path id="Trazado_409" class="st7" d="M284.8,178.8l-3.2,3.3c-7.8,8.4-16,16.9-25.9,20.2c-0.5,3.6-1.1,7.3-1.6,11
					c1-0.2,2-0.4,3-0.6c13.2-3.7,23.2-14.2,32-23.5l3.1-3.2L284.8,178.8z"/>
				<path id="Trazado_410" class="st7" d="M256.2,124.3l-5,18.1c2.4,3.5,6.9,4.7,10.7,3.1c0.2-2.4,0.6-4.9,1.1-7.3
					c0.5-2.5,1.3-4.9,2.5-7.1L256.2,124.3z"/>
				<path id="Trazado_411" class="st7" d="M254.7,129.7c0.5-1.8,1-3.6,1.5-5.4l9.2,6.8c-1.2,2.2-2,4.6-2.5,7.1
					c-0.1,0.6-0.2,1.1-0.3,1.7C258.9,137.5,256,133.9,254.7,129.7L254.7,129.7z"/>
				<path id="Trazado_412" class="st7" d="M289,117.4c-1.8,4-3.6,8-5.6,11.9c-1.2,2.7-2.8,5.1-4.7,7.4c-1.9,2.2-4.6,3.6-7.6,3.9
					c-3.2,0.1-6.2-1.4-8.7-3.4c-4.1-3.2-7.3-7.5-9.2-12.4c-1.1,0-2.4-1.5-3.1-2.4c-0.6-0.9-1.1-1.9-1.5-3c-0.3-0.8-0.5-1.7-0.5-2.6
					c0.9,0.3,1.7,0.6,2.6,0.9s2,0.6,3,0.8c10.7,2.3,22.9,0.2,30.2-7.3c0.7-0.8,1.9-0.9,2.8-0.4l0,0C289.1,112.1,290,115,289,117.4
					L289,117.4z"/>
				<rect id="Rectángulo_14" x="321.7" y="79.9" class="st4" width="52.3" height="61"/>
				<path id="Trazado_413" class="st14" d="M371.1,83.2h-46.4v20c14.5-7.7,30.3-10,46.4-11.1V83.2z"/>
				<path id="Trazado_414" class="st15" d="M324.6,103.2v5.8h46.4V92.1C354.9,93.1,339.1,95.4,324.6,103.2z"/>
				<path id="Trazado_415" class="st1" d="M336.6,112.1c-0.8-0.7-1.9-0.7-2.7,0c-0.7,0.7-0.8,1.8-0.1,2.5c0,0,0,0,0,0l0.1,0.1
					c0,0.2,0,0.5,0.1,0.7c0,0.1,0.7-0.2,0.7-0.2c0.2,0.1,0.4,0.1,0.6,0.1c0.5,0,1-0.2,1.4-0.6C337.3,114.1,337.4,112.9,336.6,112.1
					L336.6,112.1L336.6,112.1z"/>
				<path id="Trazado_416" class="st5" d="M327.8,112.6c0-0.2,0.1-0.4,0.2-0.5c0.4-0.5,1.1-0.7,1.6-0.3c0.3,0.2,0.4,0.5,0.5,0.8
					c0,0.3,0,0.5-0.1,0.8c-0.1,0.4-0.4,0.7-0.6,1c-0.4,0.5-0.9,0.9-1.5,1.3h-0.1c-0.7-0.5-1.2-1-1.7-1.6c-0.2-0.3-0.4-0.6-0.5-0.9
					c-0.1-0.6,0.3-1.2,0.9-1.4c0.6-0.1,1.1,0.2,1.3,0.7C327.8,112.4,327.8,112.4,327.8,112.6C327.8,112.5,327.8,112.6,327.8,112.6z"
					/>
				<path id="Trazado_417" class="st1" d="M340.4,113.4c0-0.1,0.1-0.2,0.2-0.2l1.4-0.5l2.2-0.9c0.1,0,0.1,0,0.2,0
					c0.2,0,0.3,0.2,0.3,0.3c0,0,0,0,0,0l0,0c0,0.2-0.1,0.5-0.1,0.8c-0.1,0.7-0.3,1.4-0.4,2.1c0,0.1,0,0.1,0,0.2
					c0,0.2-0.2,0.3-0.4,0.3c0,0,0,0,0,0c-0.1,0-0.1,0-0.2-0.1l-0.3-0.2l-0.4-0.3h-0.1l-0.4,0.4c-0.1,0.1-0.2,0.1-0.3,0.1
					c-0.1,0-0.2-0.1-0.3-0.2l-0.2-0.6l-0.2-0.6 M341.4,113.9l-0.7-0.2c-0.1,0-0.1,0-0.2-0.1c0,0,0-0.1-0.1-0.1L341.4,113.9z"/>
				<rect id="Rectángulo_15" x="325.5" y="118.5" class="st6" width="44.8" height="1.5"/>
				<rect id="Rectángulo_16" x="325.5" y="122.2" class="st6" width="44.8" height="1.5"/>
				<rect id="Rectángulo_17" x="325.5" y="125.9" class="st6" width="44.8" height="1.5"/>
				<rect id="Rectángulo_18" x="325.5" y="129.6" class="st6" width="17.4" height="1.5"/>
				<path id="Trazado_418" class="st16" d="M344.2,106.3l11.1,1.3c1.9,0.3,3.8,0.3,5.7,0.2c1.9-0.2,3.7-1.1,5-2.6
					c0.7-0.9,1-2.3,0.2-3c-0.5-0.3-1-0.5-1.6-0.4l-15.2-1.2c-2.4-0.2-10.6-2-10.4,2.6C339.1,105.5,342.3,106.1,344.2,106.3z"/>
				<path id="Trazado_419" class="st17" d="M338.5,101.2c0.5,0.6,1.2,1.1,1.9,1.3c7.7,3,16.1,3.2,23.9,0.6c1.2-0.4,2.4-1,2.8-2.1
					c0.5-1.4-0.6-2.8-1.7-3.6c-2-1.4-4.6-1.8-7-2c-3.5-0.3-7-0.3-10.5-0.1c-1.7,0-3.4,0.2-5.1,0.5c-1,0.4-1.9,0.9-2.7,1.6
					C338.8,98.1,337.6,99.7,338.5,101.2z"/>
				<path id="Trazado_420" class="st18" d="M343.9,97.9l7.6,3.1c0.9,0.3,1.7,0.8,2.5,1.3c0.8,0.6,1.3,1.4,1.4,2.4
					c0,0.6,0.1,1.5,0.7,1.5s0.7-0.7,0.9-1.2c0.5-1.7,2.2-2.6,3.9-3.1s3.5-0.8,4.8-1.9c0.6-0.4,0.9-1.1,0.7-1.8
					c-0.3-0.5-0.8-0.9-1.4-1c-6.5-2.3-13.5-2.5-20.2-0.7"/>
				<path id="Trazado_421" class="st19" d="M338.4,99.3c-0.3-0.4-0.5-0.9-0.6-1.4c-0.2,0.5-0.2,1.1,0,1.6c0.4,0.7,1,1.2,1.7,1.4
					c2.1,1,4.5,1.4,6.8,1.1c1.5,0,3-0.7,4-1.9c0.1-0.2,0.2-0.4,0.3-0.6C346.8,101.7,342.4,101.3,338.4,99.3z"/>
				<path id="Trazado_422" class="st20" d="M350.2,96.4c-0.8-1.1-2.2-1.5-3.5-1.1l-2.7-0.4c-2-0.6-4.2,0.1-5.5,1.8
					c-0.3,0.3-0.5,0.7-0.6,1.1c0,0.5,0.2,1,0.6,1.4c4,2,8.4,2.4,12.2,0.2C351,98.4,350.8,97.3,350.2,96.4z"/>
				<path id="Trazado_423" class="st21" d="M342.6,91.1c-2.1-0.4-4.3,0.4-5.7,2c0.4-0.4,1.2-0.1,1.4,0.5c0.1,0.6,0,1.2-0.3,1.6
					c-0.3,0.5-0.5,1-0.6,1.6c0,0.6,0.2,1.2,0.7,1.5c1,0.7,2.3,0.1,3.4-0.2s2.8-0.3,3.1,0.9c0.1,0.4,0,0.9,0.1,1.4
					c0.4,1,1.5,1.5,2.5,1.2c1-0.3,1.9-0.8,2.7-1.4c0.8-0.6,1.9-0.9,2.9-0.7c1.6,0.4,2.7,2.7,4.3,2.3c0.7-0.2,1.1-0.9,1.6-1.3
					s1.4-0.7,1.9-0.2c0.3,0.4,0.3,0.9,0.7,1.1c0.6,0.2,1-0.5,1.4-0.9c0.6-0.4,1.3-0.5,2-0.3c0.7,0.2,1.4,0.1,2-0.1
					c0.6-0.3,1-1.2,0.5-1.6l1.3-0.2c-1.3-2.2-3.5-3.7-6-4.2"/>
				<path id="Trazado_424" class="st16" d="M353.2,85.7c5.7,0.2,10.8,3.4,13.6,8.3c0.4,0.6,0.6,1.4,0.4,2.1c-0.4,0.6-1,1.1-1.8,1.2
					c-5.8,1.5-11.9,1.5-17.8,0c-1.9-0.5-7.1-1.5-7.9-3.5c-1-2.1,3.1-4.8,4.6-5.7C347,86.4,350.1,85.6,353.2,85.7z"/>
				<path id="Trazado_425" class="st5" d="M347.1,66.5c0-0.4,0.2-0.7,0.4-1c0.6-1,2-1.3,2.9-0.6c0,0,0,0,0,0c0.5,0.3,0.9,0.9,1,1.5
					c0.1,0.5,0,1-0.2,1.4c-0.3,0.7-0.7,1.3-1.2,1.8c-0.8,0.9-1.8,1.7-2.8,2.4c0,0-0.1,0-0.1,0l0,0c-1.2-0.8-2.3-1.8-3.2-3
					c-0.4-0.5-0.7-1.1-0.9-1.7c-0.3-1.1,0.3-2.3,1.4-2.6c1.1-0.4,2.3,0.2,2.7,1.3c0,0,0,0,0,0c0,0.1,0.1,0.2,0.1,0.4L347.1,66.5z"/>
				<path id="Trazado_426" class="st5" d="M340.9,55.2c0-0.4,0.2-0.7,0.4-1c0.6-1,2-1.3,2.9-0.6c0,0,0,0,0,0c0.5,0.3,0.9,0.9,1,1.5
					c0.1,0.5,0,1-0.2,1.4c-0.3,0.7-0.7,1.3-1.2,1.8c-0.8,0.9-1.8,1.7-2.8,2.4c0,0-0.1,0-0.1,0c-1.2-0.8-2.3-1.8-3.3-3
					c-0.4-0.5-0.7-1.1-0.9-1.7c-0.3-1.1,0.3-2.3,1.4-2.6c1.1-0.4,2.3,0.2,2.7,1.3c0,0.1,0.1,0.3,0.1,0.4L340.9,55.2z"/>
				<path id="Trazado_427" class="st5" d="M351.4,47.6c0-0.4,0.2-0.7,0.3-1c0.6-1,2-1.3,2.9-0.6c0,0,0,0,0,0c0.5,0.3,0.9,0.9,1,1.5
					c0.1,0.5,0,1-0.2,1.4c-0.3,0.7-0.7,1.3-1.2,1.8c-0.8,0.9-1.8,1.7-2.8,2.4c0,0-0.1,0-0.1,0c-1.2-0.8-2.3-1.8-3.2-3
					c-0.4-0.5-0.7-1.1-0.9-1.7c-0.3-1.1,0.3-2.3,1.3-2.7c1.1-0.4,2.3,0.2,2.7,1.3c0,0.1,0.1,0.3,0.1,0.4L351.4,47.6z"/>
				<g id="Grupo_4" class="st3">
					<rect id="Rectángulo_19" x="326.8" y="168.4" class="st4" width="34.2" height="39.9"/>
					<path id="Trazado_428" class="st1" d="M328.7,170.6v16.8h30.4v-16.8H328.7z"/>
					<path id="Trazado_429" class="st1" d="M336.6,189.5c-0.2-0.2-0.5-0.4-0.9-0.4c-0.3,0-0.6,0.1-0.9,0.4c-0.5,0.5-0.5,1.2,0,1.7
						c0,0,0,0,0,0l0,0c0,0.1,0,0.3,0,0.4l0.4-0.2c0.1,0,0.3,0.1,0.4,0c0.3,0,0.6-0.1,0.9-0.4c0.2-0.2,0.4-0.5,0.4-0.9
						C337,190,336.8,189.7,336.6,189.5L336.6,189.5z"/>
					<path id="Trazado_430" class="st5" d="M330.8,189.8c0-0.1,0.1-0.2,0.1-0.4c0.2-0.3,0.5-0.4,0.8-0.3c0.3,0.1,0.5,0.3,0.6,0.6
						c0,0.2,0,0.3-0.1,0.5c-0.1,0.2-0.2,0.5-0.4,0.6c-0.3,0.3-0.6,0.6-1,0.9l0,0c-0.4-0.3-0.8-0.6-1.1-1c-0.1-0.2-0.3-0.4-0.3-0.6
						c-0.1-0.4,0.1-0.8,0.5-0.9c0.4-0.1,0.8,0.1,1,0.5C330.8,189.6,330.8,189.7,330.8,189.8C330.8,189.7,330.8,189.8,330.8,189.8z"
						/>
					<path id="Trazado_431" class="st1" d="M339,190.3c0-0.1,0.1-0.1,0.1-0.1l0.9-0.4l1.5-0.6h0.1c0.1,0,0.2,0.1,0.2,0.2l-0.1,0.5
						c-0.1,0.5-0.2,0.9-0.3,1.4v0.1c0,0.1-0.1,0.2-0.2,0.2c0,0,0,0,0,0l-0.1,0l-0.2-0.2l-0.2-0.2l0,0l-0.3,0.3
						c-0.1,0.1-0.1,0.1-0.2,0.1c-0.1,0-0.1-0.1-0.2-0.1l-0.1-0.4c0-0.1-0.1-0.2-0.1-0.4l0,0l-0.5-0.1c0,0-0.1,0-0.1-0.1
						c0,0,0,0,0-0.1L339,190.3z"/>
					<rect id="Rectángulo_20" x="329.3" y="193.7" class="st6" width="29.3" height="1"/>
					<rect id="Rectángulo_21" x="329.3" y="196.1" class="st6" width="29.3" height="1"/>
					<rect id="Rectángulo_22" x="329.3" y="198.5" class="st6" width="29.3" height="1"/>
					<rect id="Rectángulo_23" x="329.3" y="200.9" class="st6" width="11.4" height="1"/>
				</g>
				
					<rect id="Rectángulo_24" x="136.8" y="390.4" transform="matrix(0.1203 -0.9927 0.9927 0.1203 -260.731 496.8857)" class="st7" width="26.4" height="10.3"/>
				<path id="Trazado_432" class="st11" d="M162.8,239.8L146.1,310l-4.6,88.5h15.2l7.6-48.5c0.7-4.6,0.4-9.2-0.8-13.7l-4.8-17.2
					l41.2-66.5L162.8,239.8z"/>
				
					<rect id="Rectángulo_25" x="175.4" y="345.4" transform="matrix(0.7286 -0.6849 0.6849 0.7286 -196.6468 220.9772)" class="st7" width="10.3" height="26.4"/>
				<path id="Trazado_433" class="st11" d="M174.9,362.4c-13.8-14.7-30.2-26.6-48.4-35.2c-14.7-6.9-13-17.4-12.2-20.4
					c1.1-4,54.1-74.5,54.1-74.5l35.5-3l-0.2,8.7c-0.2,7.7-4.4,14.8-11.1,18.7c0,0-46,44.8-54.4,53c19.3,9.5,32.9,21.6,46.6,43.4
					L174.9,362.4z"/>
				<path id="Trazado_434" class="st8" d="M193.3,361.6l-11.6,11.4l0.5,2c1.1,4.4,1.2,8.9,0.4,13.3c-0.5,2.3-1.2,4.6-2.2,6.7
					c-0.6,1.4-3.3,4-2.7,5.6c0.4,1.1,2.1,0.5,3.3,0.3c8.6-1.6,13-9.7,16.9-16.7c0.8-1.5,7-12.7,6.2-13.4L193.3,361.6z"/>
				<path id="Trazado_435" class="st8" d="M158.2,405.3l-16-3l-1.3,1.5c-2.9,3.4-6.6,6.2-10.7,8c-2.2,0.9-4.4,1.6-6.8,2
					c-1.5,0.3-5.1-0.4-6.1,1c-0.7,0.9,0.8,2.1,1.6,2.9c6.3,6.1,15.4,5,23.3,4.2c1.7-0.2,14.4-1.6,14.5-2.7L158.2,405.3z"/>
				<path id="Trazado_436" class="st7" d="M128.1,184.1l5.7-16.1c0.4-1.3,0.9-2.7,0.4-4c-0.7-1.7-2.8-2.2-4.6-2.4
					c-4.5-0.3-8.9,0.5-13,2.3l0.5,0.6C122.5,170,124.4,177.3,128.1,184.1z"/>
				<path id="Trazado_437" class="st7" d="M151.3,212.2c-3.7,0-7.4-1-10.6-2.8c-3.9-2.3-7.3-5.4-10-9.1c-5.1-6.7-8.7-14.4-10.7-22.5
					l9.3-2.2c1.7,6.9,4.7,13.3,9,18.9c1.8,2.7,4.2,4.9,7,6.6c2.5,1.5,5.5,1.9,8.3,1.3c2.5-0.8,4.5-2.6,5.5-4.9
					c1.3-2.6,1.8-5.7,2.2-9l2.7-18.4l9.4,1.4l-2.7,18.5c-0.5,3.7-1.1,7.9-3.1,11.9c-2.3,4.7-6.4,8.3-11.5,9.9
					C154.7,212,153,212.2,151.3,212.2L151.3,212.2z"/>
				<path id="Trazado_438" class="st22" d="M196.4,156.9c-1.9-7.5-7.5-13.5-14.9-15.8c-4-1.2-8.3-1.5-12.5-1l-1.2,0.2
					c-12.3,2.1-20.2,14.8-17.9,27.5c2.4,13.5,2.2,27.5,1.2,41.3c-1.3,18.5-4.9,36.7-8.6,54.8c18.6,10.9,41.3,12.4,61.2,4.1
					C209,231.4,205.9,192.7,196.4,156.9z"/>
				<path id="Trazado_439" class="st7" d="M169.1,124.3l5,18.1c-2.4,3.5-6.9,4.7-10.7,3.1c-0.2-2.5-0.6-4.9-1.1-7.3
					c-0.5-2.5-1.3-4.9-2.5-7.1L169.1,124.3z"/>
				<path id="Trazado_440" class="st7" d="M170.6,129.7c-0.5-1.8-1-3.6-1.5-5.4l-9.2,6.8c1.2,2.2,2,4.6,2.5,7.1
					c0.1,0.6,0.2,1.1,0.3,1.7C166.5,137.5,169.3,133.9,170.6,129.7L170.6,129.7z"/>
				<path id="Trazado_441" class="st8" d="M133.9,121.5c-3,0.8-6.1-1-6.9-4c0,0,0,0,0,0c-0.3-1-0.3-2.1,0-3.1
					c-3.9-1.1-6.6-5.8-6.4-9.8c0.4-4.2,3-7.8,6.8-9.4c3.8-1.5,8.2-1.3,11.8,0.6c2.4-3.8,6.2-6.4,10.6-7.4c1.9-0.5,3.9-0.4,5.7,0.3
					c1.9,0.7,3.1,2.5,3.2,4.5c2.6-2.1,6.3-1.8,9.1,0.1c2.7,2.1,4.4,5.1,4.9,8.4c0.5,3.3,0.6,6.6,0.2,9.9c-0.3,3.3-0.1,6.7,0.6,9.9
					C161.2,120.4,145.9,118.3,133.9,121.5z"/>
				<path id="Trazado_442" class="st7" d="M165.2,111.5c1.6,1.6,3.2,3.7,4.8,5.3c1-1.2,2.4-2,3.9-2.4c1-0.2,2,0.1,2.7,0.9
					c1,1.2,0.6,2.8,0.1,4.1c-0.3,1.1-0.8,2.1-1.5,3c-0.7,0.9-1.9,2.3-3.1,2.4c-1.9,4.9-5.1,9.2-9.2,12.4c-2.5,2-5.5,3.6-8.7,3.4
					c-2.9-0.3-5.6-1.7-7.6-3.9c-1.9-2.2-3.5-4.7-4.7-7.3c-2-3.9-3.9-7.9-5.6-12c-1.1-2.4-0.1-5.3,2.2-6.6c4.6-2.8,9.7-4.7,15-5.6
					c3.5-0.6,7,0.7,9.2,3.4C163.7,109.7,164.6,110.9,165.2,111.5z"/>
				<path id="Trazado_443" class="st12" d="M110.2,163.8l8.2,25.2c0.3,1,1.4,1.5,2.4,1.2l0,0l10.7-3.5l-9.4-28.7l-10.7,3.5
					C110.5,161.7,109.9,162.7,110.2,163.8C110.2,163.8,110.2,163.8,110.2,163.8L110.2,163.8z"/>
				<path id="Trazado_444" class="st13" d="M122.9,157.6l-0.7,0.2l9.4,28.7l0.7-0.2c1-0.3,1.5-1.4,1.2-2.4l0,0l-8.2-25.1
					C125,157.8,123.9,157.3,122.9,157.6L122.9,157.6z"/>
				<path id="Trazado_445" class="st7" d="M135.8,172.2c-1.2-2.9-3.6-5.1-6.6-6c-3.4-0.9-7-0.1-9.7,2.1c-0.6,0.9-0.4,2.1,0.5,2.8
					c0.6,0.4,1.4,0.5,2.1,0.1l0.4-0.3l0.1-0.1l0.1-0.1c0.2-0.2,0.5-0.3,0.8-0.4l0.5-0.2l0.3-0.1l0.3-0.1l0.4-0.1
					c0.3-0.1,0.6-0.1,0.9-0.1h0.7c0.3,0,0.6,0,0.9,0.1h0.2l0.4,0.1l0.8,0.3h0.1c0.1,0.1,0.3,0.1,0.4,0.2l0.7,0.4l0.3,0.2l0.1,0.1
					c0.4,0.4,0.8,0.8,1.1,1.2l0.1,0.2c0.1,0.1,0.2,0.3,0.2,0.4c0.1,0.3,0.3,0.6,0.4,0.9c0.5,1,1.7,1.3,2.6,0.9
					C135.8,174.3,136.2,173.2,135.8,172.2L135.8,172.2z"/>
				<path id="Trazado_446" class="st7" d="M135.8,174.4c-1.5-2.3-4.1-3.6-6.8-3.4c-3.1,0.1-5.8,1.7-8.4,3.3c-1,0.5-1.3,1.7-0.9,2.6
					c0.5,1,1.7,1.3,2.6,0.9c1-0.7,2.1-1.3,3.2-1.9c1-0.5,2-0.9,3.1-1h1.1c-0.8,0-1.4,0.6-1.4,1.3c0,0.8,0.6,1.4,1.3,1.4
					c0.8,0,1.4-0.6,1.4-1.3c0-0.6-0.4-1.2-1-1.3l0.7,0.2l0.4,0.2c0.2,0.1,0.4,0.2,0.6,0.3l0.1,0.1l0.1,0.1l0.2,0.3
					c0.1,0.1,0.3,0.4,0.1,0.1c0.3,1.1,1.4,1.7,2.5,1.4c1.1-0.3,1.7-1.4,1.4-2.5C136.1,174.8,136,174.6,135.8,174.4L135.8,174.4
					L135.8,174.4z"/>
				<path id="Trazado_448" class="st7" d="M133.9,174.9c-4.2-1.3-8.7,0.2-11.2,3.8c-0.5,1,0,2.2,1,2.7c0.8,0.4,1.7,0.2,2.3-0.5
					c0.1-0.2,0.2-0.3,0.3-0.5c0-0.1,0.1-0.1,0.1-0.1l0,0c0.3-0.3,0.6-0.5,0.9-0.8l0,0l-0.1,0l0.2-0.1l0.5-0.3
					c0.2-0.1,0.4-0.2,0.5-0.3l0.2-0.1l0,0l0.2-0.1l0.2-0.1l0.6-0.1c0.2,0,0.4-0.1,0.6-0.1h0.2c0.4,0,0.7,0,1.1,0.1h0.2
					c0.2,0,0.4,0.1,0.6,0.2c1,0.5,2.2,0.2,2.7-0.7c0.5-1,0.2-2.2-0.7-2.7C134.3,175.1,134.1,175,133.9,174.9L133.9,174.9
					L133.9,174.9z"/>
				<path id="Trazado_449" class="st7" d="M135.6,175.6c-3.7,0.8-6.8,3.1-8.6,6.4c-0.4,1,0.1,2.2,1.1,2.6c0.8,0.3,1.6,0.1,2.2-0.4
					c0.2-0.3,0.4-0.6,0.6-1l0.4-0.5l0.2-0.2c0.2-0.2,0,0-0.1,0.1c0-0.1,0.3-0.3,0.4-0.4l0.4-0.4c0.3-0.3,0.6-0.5,0.9-0.8l0.1-0.1
					l0.5-0.3c0.3-0.2,0.7-0.4,1-0.5l0.5-0.2l0.2-0.1c0.4-0.1,0.8-0.2,1.1-0.3c1-0.4,1.5-1.6,1.1-2.6
					C137.2,176.1,136.5,175.7,135.6,175.6L135.6,175.6z"/>
				<path id="Trazado_450" class="st7" d="M132.8,168.1c2.3,1.3,4.2,3.1,5.6,5.4c1.3,2.3,2.4,4.7,3.2,7.2c0.4,0.9,0.6,1.9,0.4,2.8
					c-0.4,1.1-1.3,1.9-2.3,2.4c-1,0.8-2.3,1.3-3.6,1.5c-2-0.1-3.7-1.4-4.4-3.3c-0.6-1.8-0.9-3.8-0.8-5.8L132.8,168.1z"/>
				<path id="Trazado_451" class="st7" d="M175.2,213.9c-2.4-0.1-4.8-0.5-7.1-1.2c-13.2-3.7-23.2-14.2-32-23.5l-3.1-3.2l7.4-7.2
					l3.2,3.3c8.2,8.7,16.8,17.7,27.3,20.7c4.6,1.3,9.1,0.5,11.6-2c1.5-1.6,2.4-3.6,2.8-5.8c2.2-9.7-2.6-19.9-6.7-28.9l14.9-6
					c1.1-0.4,5.5,17.2,5.7,18.8c1.1,7.7,0.9,16.6-2.4,23.8C192.8,211.5,184.5,214.4,175.2,213.9z"/>
				<rect id="Rectángulo_26" x="40" y="93.2" class="st4" width="52.3" height="61"/>
				<path id="Trazado_452" class="st23" d="M49,104.7c6,4.3,11.1,2.6,17.1,0c3.4-1.7,6,3.4,8.6,2.6c5.2-1.7,9.6-1.5,14.6-1.7v-9
					H42.9v9C45,104,47.2,102.9,49,104.7z"/>
				<path id="Trazado_453" class="st24" d="M74.8,107.2c-2.6,0.9-5.1-4.3-8.6-2.6c-6,2.6-11.1,4.3-17.1,0c-1.8-1.8-4.1-0.6-6.1,0.9
					v16.7h46.4v-16.7C84.4,105.7,80,105.5,74.8,107.2z"/>
				<path id="Trazado_454" class="st1" d="M54.9,125.4c-0.8-0.7-1.9-0.7-2.7,0c-0.7,0.7-0.7,1.9,0,2.6c0,0,0.1,0.1,0.1,0.1
					c0,0.2,0,0.4,0.1,0.7c0,0.1,0.7-0.2,0.7-0.2c0.2,0.1,0.4,0.1,0.6,0.1c0.5,0,1-0.2,1.4-0.5c0.7-0.7,0.8-1.8,0.1-2.6L54.9,125.4
					L54.9,125.4z"/>
				<path id="Trazado_455" class="st5" d="M46.1,125.8c0-0.2,0.1-0.4,0.2-0.5c0.3-0.5,1-0.7,1.6-0.4c0.3,0.2,0.5,0.5,0.5,0.8
					c0,0.3,0,0.5-0.1,0.8c-0.2,0.4-0.4,0.7-0.6,1c-0.4,0.5-0.9,0.9-1.5,1.3 M46.1,128.8L46.1,128.8c-0.7-0.4-1.2-1-1.7-1.6
					c-0.2-0.3-0.4-0.6-0.5-1c-0.2-0.6,0.2-1.2,0.8-1.4c0.6-0.2,1.2,0.2,1.4,0.8c0,0.1,0,0.1,0,0.2c0,0,0,0.1,0,0.2L46.1,128.8z"/>
				<path id="Trazado_456" class="st1" d="M58.7,126.6c0-0.1,0.1-0.2,0.2-0.2l1.4-0.5l2.2-0.9c0.1,0,0.1,0,0.2,0
					c0.2,0,0.3,0.2,0.3,0.3c0,0,0,0,0,0l0,0c0,0.2-0.1,0.5-0.2,0.8c-0.1,0.7-0.3,1.4-0.4,2.1v0.1c0,0.2-0.2,0.3-0.3,0.3c0,0,0,0,0,0
					c-0.1,0-0.1,0-0.2-0.1l-0.3-0.2l-0.4-0.3h-0.1l-0.4,0.4c-0.1,0.1-0.2,0.1-0.3,0.1c-0.1,0-0.2-0.1-0.3-0.2l-0.2-0.6
					c-0.1-0.2-0.1-0.4-0.2-0.6l0,0l-0.7-0.2c-0.1,0-0.1,0-0.2-0.1c0,0,0-0.1-0.1-0.1L58.7,126.6z"/>
				<rect id="Rectángulo_27" x="43.8" y="131.8" class="st6" width="44.8" height="1.5"/>
				<rect id="Rectángulo_28" x="43.8" y="135.5" class="st6" width="44.8" height="1.5"/>
				<rect id="Rectángulo_29" x="43.8" y="139.2" class="st6" width="44.8" height="1.5"/>
				<rect id="Rectángulo_30" x="43.8" y="142.8" class="st6" width="17.4" height="1.5"/>
				<path id="Trazado_457" class="st5" d="M66,79.7c0.1-0.4,0.2-0.7,0.4-1c0.6-1,1.9-1.3,2.9-0.7c0,0,0,0,0.1,0
					c0.5,0.3,0.9,0.9,1,1.5c0,0.5-0.1,1-0.4,1.4c-0.3,0.7-0.7,1.3-1.2,1.8C68,83.7,67,84.5,66,85.2c0,0-0.1,0-0.1,0
					c-1.2-0.8-2.3-1.8-3.2-3c-0.4-0.5-0.7-1.1-0.8-1.7c-0.3-1.1,0.2-2.3,1.3-2.7c1.1-0.4,2.3,0.2,2.7,1.3c0,0,0,0,0,0
					c0,0.1,0.1,0.3,0.1,0.4L66,79.7z"/>
				<path id="Trazado_458" class="st5" d="M59.8,68.4c0-0.4,0.2-0.7,0.4-1c0.7-1,2-1.3,3-0.6c0.5,0.3,0.8,0.9,0.9,1.5
					c0.1,0.5,0,1-0.2,1.4c-0.3,0.7-0.7,1.3-1.2,1.8c-0.8,0.9-1.8,1.7-2.8,2.4c0,0-0.1,0-0.1,0c0,0,0,0,0,0c-1.2-0.8-2.3-1.8-3.2-3
					c-0.4-0.5-0.7-1.1-0.9-1.7c-0.3-1.1,0.3-2.3,1.5-2.7c1.1-0.3,2.3,0.3,2.7,1.5c0,0.1,0,0.2,0,0.2V68.4z"/>
				<path id="Trazado_459" class="st5" d="M70.3,60.8c0-0.4,0.2-0.7,0.4-1c0.6-1,2-1.3,3-0.6c0.5,0.3,0.9,0.9,0.9,1.5
					c0.1,0.5,0,1-0.2,1.4c-0.3,0.7-0.7,1.3-1.2,1.8c-0.8,0.9-1.8,1.7-2.8,2.4c0,0-0.1,0-0.1,0c-1.2-0.8-2.3-1.8-3.2-3
					c-0.4-0.5-0.7-1.1-0.9-1.7c-0.3-1.1,0.3-2.3,1.3-2.7c1.1-0.4,2.3,0.2,2.7,1.3c0,0.1,0.1,0.2,0.1,0.4L70.3,60.8z"/>
				<path id="Trazado_460" class="st5" d="M60.7,51.9c0-0.4,0.2-0.7,0.4-1c0.6-1,2-1.3,3-0.6c0.5,0.3,0.9,0.9,0.9,1.5
					c0.1,0.5,0,1-0.2,1.4c-0.3,0.7-0.7,1.3-1.2,1.8c-0.8,0.9-1.8,1.7-2.8,2.4c0,0-0.1,0-0.1,0c-1.2-0.8-2.3-1.8-3.2-3
					c-0.4-0.5-0.7-1.1-0.9-1.7c-0.3-1.1,0.2-2.3,1.3-2.7c1.1-0.4,2.3,0.2,2.7,1.3c0,0.1,0.1,0.2,0.1,0.4L60.7,51.9z"/>
				<path id="Trazado_461" class="st5" d="M54.6,40.7c0-0.4,0.2-0.7,0.4-1c0.7-1,2-1.3,3-0.6c0.5,0.3,0.8,0.9,0.9,1.5
					c0.1,0.5,0,1-0.2,1.4c-0.3,0.7-0.7,1.3-1.2,1.8c-0.9,0.9-1.8,1.7-2.9,2.4c0,0-0.1,0-0.1,0c-1.2-0.8-2.3-1.8-3.2-3
					c-0.4-0.5-0.7-1.1-0.9-1.7c-0.3-1.1,0.3-2.3,1.4-2.6c1.1-0.4,2.3,0.2,2.7,1.3c0,0,0,0,0,0C54.5,40.3,54.5,40.4,54.6,40.7
					L54.6,40.7z"/>
				<path id="Trazado_462" class="st5" d="M65,33.1c0-0.4,0.2-0.7,0.4-1c0.7-1,2-1.3,3-0.6c0.5,0.3,0.8,0.9,0.9,1.5
					c0.1,0.5,0,1-0.2,1.4c-0.3,0.7-0.7,1.3-1.2,1.8c-0.8,0.9-1.8,1.7-2.8,2.4c0,0-0.1,0-0.1,0c-1.2-0.8-2.3-1.8-3.2-3
					c-0.4-0.5-0.7-1.1-0.8-1.7c-0.3-1.1,0.2-2.3,1.3-2.7c1.1-0.4,2.3,0.2,2.7,1.3c0,0.1,0.1,0.2,0.1,0.3V33.1z"/>
				<g id="Grupo_5" class="st3">
					<rect id="Rectángulo_31" x="55.8" y="193.9" class="st4" width="34.2" height="39.9"/>
					<path id="Trazado_463" class="st1" d="M57.8,196v16.8h30.3V196H57.8z"/>
					<path id="Trazado_464" class="st1" d="M65.6,214.9c-0.2-0.2-0.5-0.4-0.9-0.4c-0.3,0-0.6,0.1-0.9,0.4c-0.2,0.2-0.4,0.5-0.4,0.9
						c0,0.3,0.1,0.6,0.4,0.9c0,0.1,0,0.3,0,0.4l0.4-0.2c0.1,0,0.2,0.1,0.4,0.1c0.3,0,0.6-0.1,0.8-0.4c0.2-0.2,0.4-0.5,0.4-0.9
						C66,215.4,65.8,215.1,65.6,214.9L65.6,214.9z"/>
					<path id="Trazado_465" class="st5" d="M59.8,215.3c0-0.1,0.1-0.3,0.2-0.4c0.2-0.3,0.5-0.4,0.8-0.3c0.3,0.1,0.5,0.3,0.6,0.6
						c0,0.2,0,0.3-0.1,0.5c-0.1,0.2-0.2,0.5-0.4,0.6c-0.3,0.3-0.6,0.6-1,0.9l0,0c-0.4-0.3-0.8-0.7-1.1-1.1c-0.1-0.2-0.2-0.4-0.3-0.6
						c-0.1-0.4,0.1-0.8,0.5-1c0.4-0.1,0.8,0.1,1,0.5C59.9,215.1,59.9,215.2,59.8,215.3L59.8,215.3z"/>
					<path id="Trazado_466" class="st1" d="M68.1,215.8c0-0.1,0.1-0.1,0.1-0.1l0.9-0.3l1.5-0.6h0.2c0.1,0,0.2,0.1,0.2,0.2l0,0
						c0,0.2,0,0.3-0.1,0.5l-0.3,1.4v0.1c0,0.1-0.1,0.2-0.2,0.2c0,0,0,0,0,0c0,0-0.1,0-0.1,0l-0.2-0.1l-0.2-0.2l0,0l-0.3,0.3
						c-0.1,0-0.2,0-0.3,0c-0.1,0-0.1-0.1-0.2-0.2l-0.1-0.4l-0.1-0.4l-0.5-0.1l-0.2,0c0,0,0,0,0-0.1L68.1,215.8z"/>
					<rect id="Rectángulo_32" x="58.3" y="219.1" class="st6" width="29.3" height="1"/>
					<rect id="Rectángulo_33" x="58.3" y="221.5" class="st6" width="29.3" height="1"/>
					<rect id="Rectángulo_34" x="58.3" y="224" class="st6" width="29.3" height="1"/>
					<rect id="Rectángulo_35" x="58.3" y="226.4" class="st6" width="11.4" height="1"/>
				</g>
				<g>
					<defs>
						<rect id="SVGID_1_" x="42.9" y="96.5" width="46.4" height="25.7"/>
					</defs>
					<clipPath id="SVGID_2_">
						<use xlink:href="#SVGID_1_"  style="overflow:visible;"/>
					</clipPath>
					<g class="st25">
						<g id="Grupo_6">
							<g id="_7">
								<path id="Trazado_467" class="st26" d="M78.3,114.2c0,8.6-7,15.6-15.6,15.7c-8.6,0-15.6-7-15.7-15.6c0-8.6,7-15.6,15.6-15.7
									l0,0C71.3,98.6,78.3,105.6,78.3,114.2C78.3,114.2,78.3,114.2,78.3,114.2z"/>
								<path id="Trazado_468" class="st27" d="M76.4,114.2c0,7.6-6.1,13.8-13.7,13.8c-7.6,0-13.8-6.1-13.8-13.7
									c0-7.6,6.1-13.8,13.7-13.8h0.1C70.2,100.5,76.4,106.7,76.4,114.2z"/>
								<g id="_10">
									<path id="Trazado_469" class="st28" d="M82.2,111.8l-28,9.1v-0.2c0.1-0.4,0.2-0.7,0.3-1v-0.2l0.2-0.5
										c0.7-2,1.6-3.8,2.9-5.4c1-1.3,2.2-2.4,3.5-3.2c1.4-0.9,1.5-1.4,2.2-3.1c0.2-0.6,2.7-2.4,2.8-0.7c-0.1-1.2,0.7-2.2,1.8-2.6
										c1.2-0.1,2.3,0.5,2.8,1.6c0.5-0.9,1.5-1.4,2.6-1.2c1.1,0.4,1.9,1.3,2.2,2.4c2-1.9,3.4,1,3.6,3c1.3,0.1,2.5,0.8,3.2,2
										c0,0,0,0.1,0,0.1L82.2,111.8z"/>
									<path id="Trazado_470" class="st29" d="M72.3,125.6c1,1.4-2.1,1.4-2.7,1c-1.5-1-2-1.4-3.6-1.3c-1.6,0.1-3.2-0.1-4.7-0.5
										c-2.1-0.6-4.1-1.6-5.8-2.9c-0.4-0.3-0.9-0.6-1.2-1l28-9.1v0.1c0.1,1.3-0.4,2.6-1.4,3.5c1.1,1.7,1.6,4.9-1.1,4.6
										c0.4,1.1,0.3,2.3-0.4,3.2c-0.7,0.8-1.8,1-2.8,0.6c0.3,1.2-0.3,2.4-1.3,2.9C74.2,126.9,72.9,126.5,72.3,125.6z"/>
									<path id="Trazado_471" class="st30" d="M56.1,118.7l-1.5,0.8c0,0,0-0.1,0-0.1L56.1,118.7z"/>
									<path id="Trazado_472" class="st31" d="M80.2,112.4l-26,8.4v-0.2c0.1-0.4,0.2-0.7,0.3-1c2.1-0.5,3.9-1.6,5.4-3.2
										c1.6-1.7,3.1-3.6,4.4-5.5l-1,3.6c2.7-2.2,5-4.8,6.8-7.8l-0.7,5.6L74,108c-0.3,1.2-0.5,2.5-0.8,3.7l4.2-0.9
										c-0.4,0.5-0.9,1-1.3,1.5C77.4,111.9,78.9,111.9,80.2,112.4L80.2,112.4z"/>
									<path id="Trazado_473" class="st32" d="M80.2,112.4l-26,8.4l0.2,0.1c0.3,0.2,0.6,0.5,0.9,0.7c2-0.8,4.1-1,6.2-0.6
										c2.3,0.5,4.5,1.1,6.7,2l-3-2.3c3.5,0.2,6.9,1,10.2,2.3l-3.8-4.1l6.3,0.9l-2.8-2.6l3.9-1.7l-2-0.5
										C78.2,114.5,79.4,113.7,80.2,112.4L80.2,112.4z"/>
								</g>
								<g id="_10-2">
									<path id="Trazado_474" class="st28" d="M66.9,94l-7.2,25l-0.1-0.1l-0.6-0.7l-0.1-0.1l-0.1-0.1l-0.3-0.4
										c-1.1-1.4-2-3.1-2.6-4.8c-0.5-1.3-0.7-2.8-0.6-4.2c0.1-1.4-0.3-1.8-1.2-3.1c-0.3-0.4-0.4-3.2,0.9-2.4
										c-0.9-0.5-1.3-1.6-1-2.6c0.5-0.9,1.5-1.4,2.6-1.2c-0.5-0.8-0.3-1.8,0.4-2.4c0.8-0.6,1.9-0.8,2.9-0.4c-0.4-2.4,2.5-2,4-1.1
										c0.7-0.9,1.8-1.4,3-1.3L66.9,94z"/>
									<path id="Trazado_475" class="st29" d="M72.1,108.1c1.5,0,0,2.2-0.6,2.5c-1.5,0.6-2,0.7-2.7,2c-0.7,1.2-1.7,2.3-2.8,3.2
										c-1.5,1.2-3.2,2.1-5,2.8c-0.4,0.2-0.9,0.3-1.3,0.4l7.2-25h0.1c1,0.6,1.7,1.6,1.8,2.8c1.8,0.1,4.4,1.3,2.8,3.1
										c1,0.2,1.8,0.9,2.2,1.9c0.2,0.9-0.2,1.8-1,2.3c1,0.4,1.6,1.4,1.5,2.5C74,107.4,73.1,108.1,72.1,108.1z"/>
									<path id="Trazado_476" class="st30" d="M59,116.5l-0.2,1.5l0-0.1L59,116.5z"/>
									<path id="Trazado_477" class="st31" d="M66.3,95.8l-6.7,23.2l-0.1-0.1c-0.2-0.2-0.4-0.5-0.6-0.7c0.7-1.8,0.8-3.7,0.4-5.5
										c-0.4-2-1.1-4-1.9-5.9l2.2,2.6c-0.3-3.1-1.1-6-2.3-8.9l3.8,3.3l-0.9-5.6l2.3,2.4l1.4-3.5l0.5,1.7
										C64.6,97.5,65.3,96.5,66.3,95.8z"/>
									<path id="Trazado_478" class="st32" d="M66.3,95.8l-6.7,23.2h0.2c0.3-0.1,0.6-0.2,0.9-0.3c0.4-1.8,1.3-3.5,2.6-4.9
										c1.5-1.4,3.1-2.7,4.8-3.9l-3.2,1c1.9-2.4,4.1-4.5,6.7-6.3l-4.9,0.8l3.8-4.3l-3.3,0.9l0.7-3.7l-1.3,1.2
										C66.9,98.3,66.8,97,66.3,95.8z"/>
								</g>
								<path id="Trazado_479" class="st33" d="M64.1,102.6c-1.4-1-3.2-0.9-4,0.2s-0.3,2.9,1.1,3.9s3.2,0.9,4-0.2
									S65.5,103.6,64.1,102.6z"/>
								<path id="Trazado_480" class="st34" d="M61.3,103.6c0.4-0.5,0.9-0.9,1.5-1.2c-0.1-0.1-0.3-0.2-0.4-0.3
									c-1-0.3-2.1,0.2-2.4,1.2c-0.2,0.6-0.1,1.3,0.3,1.8c0.1,0.1,0.3,0.2,0.4,0.3C60.7,104.8,60.9,104.2,61.3,103.6L61.3,103.6z"
									/>
								<path id="Trazado_481" class="st35" d="M65.1,105.1c-0.4-0.2-0.9-0.1-1.1,0.4c-0.3,0.3-0.4,0.7-0.1,1.1
									c0.3,0.3,0.7,0.4,1.1,0.1c0.1-0.1,0.2-0.2,0.2-0.3C65.5,106,65.5,105.5,65.1,105.1C65.1,105.2,65.1,105.2,65.1,105.1
									L65.1,105.1z"/>
								<path id="Trazado_482" class="st33" d="M70.5,117.7c-1.7,0.1-3,1.4-2.9,2.8s1.6,2.4,3.3,2.2s3-1.4,2.9-2.8
									S72.2,117.6,70.5,117.7z"/>
								<path id="Trazado_483" class="st34" d="M69,120.3c-0.1-0.6,0.1-1.3,0.4-1.9c-0.2,0-0.4,0-0.5,0c-1,0.4-1.4,1.5-1.1,2.5
									c0.2,0.6,0.7,1,1.4,1.1c0.2,0,0.4,0,0.5,0C69.3,121.6,69.1,121,69,120.3z"/>
								<path id="Trazado_484" class="st35" d="M72.9,119.1c-0.5-0.1-1,0.3-1.1,0.9c-0.1,0.5,0.2,1.1,0.8,1.2
									c0.5,0.1,1.1-0.2,1.2-0.8c0-0.1,0-0.3,0-0.4C73.7,119.5,73.4,119.1,72.9,119.1C72.9,119.1,72.9,119.1,72.9,119.1z"/>
								<path id="Trazado_485" class="st36" d="M61.3,120.5c-1.1,0-2.3-0.4-3.1-1.1c-0.6-0.6-0.9-1.3-1-2.1c0-0.4,0-0.8,0.2-1.2
									c0.1-0.1,0.1-0.3,0.1-0.4c-0.2,0-0.3,0.1-0.5,0.2c-0.4,0.2-0.8,0.3-1.2,0.3c-0.1,0-0.2,0-0.3,0c-1.4-0.4-2.4-1.8-2.3-3.3
									c0.1-1.3,1-2.3,2.3-2.5c0.4,0,0.8,0.1,1.2,0.4l0.1,0.1c0-0.1,0-0.2-0.1-0.3c-0.1-0.1-0.1-0.3-0.1-0.4
									c-0.3-0.9-0.1-1.9,0.4-2.6c0.6-0.7,1.3-1.2,2.2-1.4c1.2-0.4,2.5-0.3,3.7,0.4c0.2,0.1,0.3,0.2,0.5,0.4c0.8,0.8,1.2,1.9,1.1,3
									c0,0.2-0.1,0.4-0.2,0.6c0.1,0,0.3,0,0.4,0h0.3c0.4,0,0.7,0.1,1,0.2c1.3,0.9,1.9,2.5,1.7,4.1c-0.2,1-1,1.8-2,2h-0.3
									c-0.3,0-0.6-0.1-0.8-0.3c-0.1-0.1-0.2-0.1-0.3-0.1H64c0.2,0.2,0.3,0.4,0.5,0.6c0.4,1,0.1,2.1-0.7,2.7
									C63,120.3,62.2,120.5,61.3,120.5L61.3,120.5z M57.5,114.5c0.6,0,1.1,0.5,1.1,1.1c0,0,0,0,0,0c0,0.3,0,0.7-0.2,1
									c-0.1,0.2-0.1,0.4-0.1,0.6c0.1,0.5,0.3,1,0.7,1.3c0.7,0.5,1.5,0.8,2.3,0.8c0.6,0,1.1-0.1,1.6-0.4c0.4-0.3,0.5-0.8,0.3-1.2
									c-0.1-0.1-0.1-0.1-0.2-0.2c-0.4-0.3-0.6-0.7-0.6-1.2c0.1-0.6,0.6-1.1,1.2-1c0.2,0,0.4,0,0.6,0.1c0.2,0,0.5,0.1,0.7,0.3
									c0.2,0.1,0.2,0.1,0.3,0.1c0.5-0.1,0.9-0.5,1-1c0.2-1.1-0.3-2.2-1.1-2.9c-0.1,0-0.2,0-0.3,0h-0.6c-0.3,0-0.6-0.1-0.8-0.2
									c-0.5-0.3-0.8-0.9-0.5-1.4l0,0c0-0.1,0.1-0.2,0.1-0.4c0.1-0.7-0.2-1.5-0.7-2c-0.1-0.1-0.2-0.2-0.3-0.2
									c-0.8-0.4-1.8-0.5-2.6-0.2c-0.6,0.2-1.1,0.5-1.5,1c-0.2,0.4-0.3,1-0.1,1.5c0,0.1,0.1,0.2,0.1,0.2c0.2,0.4,0.2,1,0.1,1.4
									c-0.2,0.3-0.4,0.4-0.7,0.5h-0.3c-0.3,0-0.7-0.1-0.9-0.4c-0.1-0.1-0.3-0.2-0.4-0.2c-0.7,0.1-1.1,0.7-1.1,1.3
									c-0.1,0.9,0.5,1.7,1.3,2l0,0c0.3,0,0.5-0.1,0.7-0.2C56.8,114.6,57.1,114.5,57.5,114.5L57.5,114.5z"/>
								<path id="Trazado_486" class="st37" d="M61.2,119.7c-1,0-2-0.3-2.8-1c-0.5-0.5-0.8-1.1-0.9-1.8c0-0.3,0-0.7,0.2-1
									c0-0.1,0.1-0.2,0.1-0.4c-0.1,0-0.3,0.1-0.4,0.1c-0.3,0.1-0.7,0.2-1,0.3c-0.1,0-0.2,0-0.3,0c-1.3-0.4-2.1-1.6-2-3
									c0.1-1.1,0.9-2,2-2.1c0.4,0,0.7,0.1,1,0.3l0.1,0.1c0-0.1,0-0.2-0.1-0.2c0-0.1-0.1-0.2-0.1-0.4c-0.2-0.8-0.1-1.7,0.4-2.4
									c0.5-0.6,1.1-1,1.9-1.2c1.1-0.4,2.3-0.2,3.2,0.3c0.1,0.1,0.3,0.2,0.4,0.3c0.7,0.7,1.1,1.7,1,2.7c0,0.2-0.1,0.4-0.1,0.6h0.7
									c0.3,0,0.6,0.1,0.9,0.2c1.1,0.9,1.7,2.3,1.5,3.7c-0.2,0.9-0.9,1.6-1.8,1.8h-0.2c-0.3,0-0.5-0.1-0.8-0.2
									c-0.1-0.1-0.2-0.1-0.2-0.1h-0.1c0.2,0.1,0.3,0.3,0.4,0.5c0.4,0.8,0.1,1.8-0.6,2.4C62.7,119.4,62,119.7,61.2,119.7
									L61.2,119.7z M57.8,114.3c0.5,0,1,0.4,1,0.9l0,0c0,0.3,0,0.6-0.2,0.9c-0.1,0.2-0.1,0.4-0.1,0.6c0.1,0.4,0.3,0.8,0.6,1.2
									c0.6,0.4,1.3,0.7,2,0.7c0.5,0,1-0.1,1.4-0.4c0.3-0.2,0.5-0.7,0.3-1.1l-0.2-0.2c-0.3-0.2-0.5-0.6-0.5-1
									c0.1-0.5,0.6-0.9,1.1-0.9c0.2,0,0.3,0,0.5,0c0.2,0,0.4,0.1,0.6,0.2c0.2,0.1,0.2,0.1,0.3,0.1c0.5,0,0.9-0.4,0.9-0.9
									c0.1-1-0.2-1.9-1-2.5c-0.1,0-0.2,0-0.3,0h-0.5c-0.3,0-0.5-0.1-0.8-0.2c-0.5-0.2-0.6-0.8-0.5-1.3l0,0c0-0.1,0.1-0.2,0.1-0.3
									c0.1-0.6-0.2-1.3-0.6-1.7c-0.1-0.1-0.2-0.1-0.2-0.2c-0.7-0.4-1.6-0.5-2.3-0.2c-0.5,0.1-1,0.4-1.3,0.9
									c-0.2,0.4-0.3,0.9-0.1,1.4c0,0.1,0,0.2,0.1,0.2c0.2,0.4,0.2,0.9,0.1,1.3c-0.1,0.2-0.4,0.4-0.6,0.5c-0.1,0-0.2,0-0.2,0l0,0
									c-0.3,0-0.6-0.1-0.9-0.3c-0.1-0.1-0.2-0.1-0.3-0.2c-0.6,0.1-1,0.6-1,1.1c0,0.8,0.5,1.5,1.2,1.7l0,0c0.2,0,0.4-0.1,0.6-0.2
									C57.2,114.5,57.5,114.4,57.8,114.3z"/>
								<path id="Trazado_487" class="st38" d="M58,106.6c0.1,2-1.1,3.8-2.9,4.5c-3,0.7-9-2-6.3-5.7c1.5-2.1,4-5.1,6.6-2.8
									C56.7,103.8,57.9,104.9,58,106.6z"/>
								<path id="Trazado_488" class="st39" d="M57.3,106.6c0,0.3,0,0.7-0.1,1c-0.2,1.3-1.1,2.4-2.4,2.8c-2.6,0.6-7.6-1.7-5.3-4.8
									c1.3-1.7,3.4-4.3,5.6-2.4C56.2,104,57,105.2,57.3,106.6z"/>
								<path id="Trazado_489" class="st32" d="M53.5,105.7c-0.1-0.6-0.3-1.2-0.9-1.3c-0.2,0-0.5,0-0.7,0.1
									c-0.9,0.4-1.5,1.2-1.5,2.1c0,0.2,0,0.4,0.1,0.5c0.1,0.1,0.2,0.2,0.4,0.2c0.3,0,0.7-0.1,1-0.2c0.4-0.1,0.7-0.2,1.1-0.2
									c0.2,0,0.3-0.1,0.4-0.1c0.1-0.1,0.1-0.2,0.1-0.3C53.5,106.2,53.5,105.9,53.5,105.7L53.5,105.7z"/>
								<path id="Trazado_490" class="st32" d="M54.2,104.2L54.2,104.2c-0.4,0.1-0.6,0.5-0.6,0.9c0,0.3,0,0.7,0.1,1
									c0,0.1,0,0.2,0.1,0.3c0,0,0.1,0.1,0.1,0.1c0.6,0.3,1.5,0.9,1.9,0.1c0.3-0.5,0.3-1.1,0.1-1.6
									C55.6,104.5,54.9,104.1,54.2,104.2L54.2,104.2z"/>
								<path id="Trazado_491" class="st32" d="M55,107.7c-0.2-0.3-0.6-0.2-0.9-0.5c-0.6-0.5-1-0.2-1.6,0.2c-0.3,0.2-0.9,0.2-1,0.7
									c0,0.4,0.2,0.7,0.5,0.8c0.4,0.3,0.9,0.4,1.4,0.4c0.7,0.1,1.4-0.4,1.7-1.1c0.1-0.2,0.1-0.4,0-0.5L55,107.7z"/>
								<path id="Trazado_492" class="st38" d="M73.8,110.3c0,0.4,0,0.8-0.1,1.2c-0.2,1.5-1.3,2.8-2.8,3.3c-3,0.7-9-2-6.3-5.7
									c1.5-2.1,4-5.1,6.6-2.8C72.5,107.4,73.7,108.6,73.8,110.3z"/>
								<path id="Trazado_493" class="st39" d="M73.1,110.2c0,0.3,0,0.7-0.1,1c-0.2,1.3-1.1,2.4-2.4,2.8c-2.6,0.6-7.6-1.7-5.3-4.8
									c1.3-1.7,3.4-4.3,5.6-2.3C72,107.8,73,108.9,73.1,110.2z"/>
								<path id="Trazado_494" class="st32" d="M69.3,109.3c-0.1-0.6-0.3-1.2-1-1.3c-0.2,0-0.5,0-0.7,0.1c-0.9,0.4-1.5,1.2-1.5,2.1
									c0,0.2,0,0.4,0.1,0.5c0.1,0.1,0.2,0.2,0.4,0.2c0.3,0,0.7-0.1,1-0.2c0.4-0.1,0.7-0.2,1.1-0.2c0.2,0,0.3-0.1,0.4-0.1
									c0.1-0.1,0.1-0.2,0.1-0.3C69.3,109.8,69.3,109.6,69.3,109.3L69.3,109.3z"/>
								<path id="Trazado_495" class="st32" d="M70.1,107.8L70.1,107.8c-0.4,0.1-0.6,0.5-0.6,0.9c0,0.3,0,0.7,0.1,1
									c0,0.1,0,0.2,0.1,0.3c0,0,0.1,0.1,0.1,0.1c0.6,0.3,1.5,0.9,1.9,0.1c0.3-0.5,0.3-1.1,0.1-1.6
									C71.4,108.1,70.7,107.8,70.1,107.8L70.1,107.8z"/>
								<path id="Trazado_496" class="st32" d="M70.8,111.4c-0.2-0.3-0.6-0.2-0.9-0.5c-0.6-0.5-1-0.2-1.6,0.2
									c-0.3,0.2-0.8,0.2-1,0.7c0,0.3,0.1,0.7,0.4,0.9c0.4,0.3,0.9,0.4,1.4,0.3c0.7,0.1,1.4-0.3,1.7-1
									C70.9,111.8,70.9,111.5,70.8,111.4z"/>
								<path id="Trazado_497" class="st37" d="M65.1,118c2.3,1,3.4,3.6,2.5,5.9c-1,2.3-3.6,3.4-5.9,2.5c-2.3-1-3.4-3.6-2.5-5.9
									c0.5-1.1,1.3-2,2.5-2.5C62.7,117.6,64,117.6,65.1,118z"/>
								<path id="Trazado_498" class="st40" d="M65.9,118.3c1.9,0.8,2.7,3.3,1.7,5.6s-3.3,3.6-5.1,2.8s-2.6-3.3-1.7-5.6
									S64,117.6,65.9,118.3z"/>
								<path id="Trazado_499" class="st37" d="M65.7,119.2c1.6,0.6,2.2,2.8,1.4,4.7s-2.7,3-4.3,2.4s-2.2-2.8-1.3-4.7
									S64.1,118.5,65.7,119.2z"/>
								<path id="Trazado_500" class="st40" d="M62.1,124.3c0.2,0,0.6,0.2,0.6,0.2s-0.2,0.4-0.5,0.4c-0.2,0.1-0.4,0-0.4-0.2
									c-0.1-0.2,0-0.4,0.2-0.4L62.1,124.3L62.1,124.3z"/>
								<path id="Trazado_501" class="st40" d="M61.6,123.4c0.2-0.1,0.6,0.2,0.6,0.2S62,124,61.8,124c-0.2,0.1-0.4,0-0.5-0.2l0,0
									C61.2,123.7,61.4,123.4,61.6,123.4z"/>
								<path id="Trazado_502" class="st40" d="M61.9,122.3c0.2,0.1,0.3,0.5,0.3,0.5s-0.4,0.2-0.6,0.1c-0.2-0.1-0.3-0.3-0.2-0.5
									C61.5,122.3,61.7,122.2,61.9,122.3z"/>
								<path id="Trazado_503" class="st40" d="M62.2,121.2c0.2,0.1,0.3,0.6,0.3,0.6s-0.4,0.1-0.6,0c-0.2,0-0.3-0.2-0.2-0.4
									c0,0,0,0,0,0c0-0.2,0.2-0.3,0.4-0.2C62.1,121.1,62.2,121.2,62.2,121.2z"/>
								<path id="Trazado_504" class="st40" d="M62.8,120.4c0.2,0.2,0.2,0.6,0.2,0.6c-0.2,0-0.4,0-0.6-0.1c-0.2-0.1-0.2-0.4-0.1-0.5
									C62.4,120.3,62.6,120.3,62.8,120.4L62.8,120.4z"/>
								<path id="Trazado_505" class="st40" d="M63.9,119.7c0.1,0.2,0.1,0.4,0,0.6c0,0-0.4-0.1-0.5-0.3c-0.1-0.1-0.1-0.4,0-0.5
									s0.4-0.1,0.5,0C63.9,119.7,63.9,119.7,63.9,119.7L63.9,119.7z"/>
								<path id="Trazado_506" class="st40" d="M66.4,121.2c-0.2,0-0.6-0.2-0.6-0.2s0.2-0.4,0.5-0.4c0.2-0.1,0.4,0.1,0.5,0.3
									c0,0,0,0,0,0C66.8,121,66.6,121.1,66.4,121.2C66.4,121.2,66.4,121.2,66.4,121.2z"/>
								<path id="Trazado_507" class="st40" d="M66.8,122.1c-0.2,0.1-0.6-0.2-0.6-0.2s0.2-0.4,0.5-0.4c0.2-0.1,0.4,0,0.5,0.2
									c0.1,0.2,0,0.4-0.2,0.5C66.9,122.1,66.9,122.1,66.8,122.1z"/>
								<path id="Trazado_508" class="st40" d="M66.6,123.1c-0.2-0.1-0.3-0.6-0.3-0.6s0.4-0.1,0.6,0c0.2,0.1,0.3,0.3,0.2,0.4
									c0,0,0,0,0,0l0,0C66.9,123.2,66.7,123.3,66.6,123.1z"/>
								<path id="Trazado_509" class="st40" d="M66.1,124.2c-0.2-0.1-0.3-0.6-0.3-0.6s0.4-0.1,0.6,0c0.2,0.1,0.3,0.3,0.2,0.5
									c0,0,0,0,0,0l0,0C66.5,124.3,66.3,124.3,66.1,124.2L66.1,124.2z"/>
								<path id="Trazado_510" class="st40" d="M65.5,124.9c-0.2-0.2-0.1-0.6-0.1-0.6s0.5,0,0.6,0.2c0.2,0.1,0.2,0.3,0.1,0.5
									c0,0,0,0,0,0c-0.1,0.2-0.3,0.2-0.5,0.1C65.6,125,65.6,125,65.5,124.9L65.5,124.9z"/>
								<path id="Trazado_511" class="st40" d="M64.4,125.6c0-0.2,0-0.4,0.1-0.6c0,0,0.4,0.1,0.5,0.3c0.1,0.2,0.1,0.4-0.1,0.5
									C64.7,125.9,64.5,125.8,64.4,125.6C64.4,125.7,64.4,125.6,64.4,125.6z"/>
								<path id="Trazado_512" class="st40" d="M65.8,118.9c0.6,0.2,1.1,0.7,1.5,1.2c-0.3-0.3-0.6-0.4-1-0.2c-0.6,0.2-0.8,0.8-1,1.3
									c-0.2,0.7-0.5,1.4-0.8,2c-0.4,1.1-1,2.4,0,3.4c-0.7,0.2-1.4,0.1-2-0.2c-0.3-0.1-0.6-0.3-0.8-0.5c-0.2-0.2-0.5-0.8-0.7-0.9
									c0.5,0.2,1.1,0.2,1.5-0.1c0.2-0.2,0.4-0.5,0.5-0.7c0.6-1.4,1.6-2.8,1-4.4c-0.1-0.2-0.2-0.4-0.4-0.6
									c-0.2-0.2-0.4-0.2-0.6-0.2c0.4-0.1,0.7-0.5,1.1-0.6c0.5,0,0.9,0,1.4,0.2L65.8,118.9z"/>
								<path id="Trazado_513" class="st41" d="M63,124.5c-0.7-2.2-0.6-4.6,0.3-6.8c-2.5,0.1-4.5,2.1-4.5,4.7c0,1.8,1.1,3.4,2.8,4.1
									l0.4,0.2l0.3,0.2c0.6,0.2,1.3,0.3,1.9,0.1C63.7,126.2,63.3,125.3,63,124.5z"/>
								<path id="Trazado_514" class="st37" d="M74.4,118.8c-1.7,1.3-4.1,1-5.4-0.6c-1.3-1.7-1-4.1,0.6-5.4c1.7-1.3,4.1-1,5.4,0.6
									l0,0C76.4,115,76.1,117.5,74.4,118.8C74.5,118.8,74.5,118.8,74.4,118.8z"/>
								<path id="Trazado_515" class="st40" d="M73.9,119.2c-1.4,1.1-3.6,0.6-4.9-1.1s-1.2-3.9,0.1-5s3.6-0.6,4.9,1.1
									S75.3,118.2,73.9,119.2z"/>
								<path id="Trazado_516" class="st37" d="M73.4,118.7c-1.1,0.9-2.9,0.4-4-1s-1.1-3.3,0.1-4.2s2.9-0.4,4,1
									C74.6,115.7,74.5,117.6,73.4,118.7z"/>
								<path id="Trazado_517" class="st40" d="M71.1,113.9c-0.1,0.2-0.4,0.4-0.4,0.4s-0.2-0.3-0.1-0.5c0-0.2,0.2-0.3,0.4-0.2
									C71.1,113.6,71.2,113.8,71.1,113.9z"/>
								<path id="Trazado_518" class="st40" d="M72,113.9c0,0.2-0.4,0.4-0.4,0.4s-0.2-0.3-0.1-0.5c0-0.2,0.2-0.3,0.3-0.3l0,0
									C72,113.6,72.1,113.8,72,113.9z"/>
								<path id="Trazado_519" class="st40" d="M72.7,114.6c-0.2,0-0.4,0-0.5,0c0,0,0.1-0.4,0.2-0.5c0.1-0.1,0.3-0.1,0.4,0
									C72.9,114.2,72.9,114.4,72.7,114.6L72.7,114.6z"/>
								<path id="Trazado_520" class="st40" d="M73.3,115.3c-0.2,0.1-0.5,0-0.5,0s0.1-0.4,0.2-0.5c0.1-0.1,0.3-0.1,0.4,0
									c0,0,0,0,0,0l0,0C73.5,115.1,73.5,115.2,73.3,115.3z"/>
								<path id="Trazado_521" class="st40" d="M73.7,116.1c-0.2,0-0.5-0.1-0.5-0.1s0.2-0.3,0.3-0.4c0.1-0.1,0.3,0,0.4,0.1
									c0.1,0.1,0,0.3-0.1,0.4L73.7,116.1L73.7,116.1z"/>
								<path id="Trazado_522" class="st40" d="M73.7,117.2c-0.2,0-0.4-0.3-0.4-0.3s0.3-0.3,0.4-0.3c0.2,0,0.3,0.1,0.3,0.3
									C74,117.1,73.8,117.2,73.7,117.2L73.7,117.2z"/>
								<path id="Trazado_523" class="st40" d="M71.6,118.4c0.1-0.2,0.4-0.3,0.4-0.3s0.2,0.3,0.1,0.5c0,0.2-0.2,0.3-0.4,0.2
									c0,0,0,0,0,0l0,0C71.6,118.8,71.5,118.6,71.6,118.4z"/>
								<path id="Trazado_524" class="st40" d="M70.7,118.3c0.1-0.2,0.4-0.3,0.4-0.3c0.1,0.2,0.1,0.3,0.1,0.5c0,0.2-0.2,0.3-0.3,0.2
									c0,0,0,0,0,0C70.8,118.7,70.7,118.6,70.7,118.3C70.7,118.4,70.7,118.4,70.7,118.3C70.7,118.4,70.7,118.4,70.7,118.3
									L70.7,118.3z"/>
								<path id="Trazado_525" class="st40" d="M70.1,117.7c0.2,0,0.4,0,0.5,0c0,0-0.1,0.4-0.2,0.5c-0.1,0.1-0.3,0.1-0.4,0
									s-0.1-0.3,0-0.4C70,117.7,70,117.7,70.1,117.7z"/>
								<path id="Trazado_526" class="st40" d="M69.4,116.9c0.2,0,0.4,0,0.5,0c0,0-0.1,0.4-0.2,0.5c-0.2,0.1-0.3,0.1-0.4-0.1
									C69.2,117.2,69.3,117,69.4,116.9z"/>
								<path id="Trazado_527" class="st40" d="M69.1,116.2c0.2-0.1,0.5,0.2,0.5,0.2s-0.2,0.3-0.4,0.4c-0.2,0.1-0.4,0-0.4-0.2
									C68.8,116.4,68.9,116.2,69.1,116.2z"/>
								<path id="Trazado_528" class="st40" d="M69.2,115c0.2,0,0.4,0.3,0.4,0.3s-0.3,0.3-0.5,0.3c-0.2,0-0.3-0.1-0.3-0.3
									C68.8,115.1,69,115,69.2,115z"/>
								<path id="Trazado_529" class="st40" d="M73.6,118.9c-0.4,0.3-1,0.5-1.5,0.6c0.3-0.1,0.5-0.3,0.6-0.6c0-0.5-0.2-0.9-0.5-1.2
									c-0.4-0.5-0.8-0.9-1.2-1.4c-0.6-0.8-1.4-1.7-2.5-1.5c0.2-0.6,0.5-1,1-1.4c0.2-0.2,0.4-0.3,0.7-0.4c0.2,0,0.8,0,0.9-0.2
									c-0.4,0.3-0.6,0.7-0.6,1.2c0.1,0.2,0.2,0.5,0.3,0.7c0.8,1,1.4,2.4,2.8,2.6c0.2,0,0.4,0,0.6,0c0.2-0.1,0.3-0.2,0.4-0.4
									c-0.1,0.4,0.1,0.7,0,1c-0.2,0.4-0.4,0.7-0.7,0.9L73.6,118.9z"/>
								<path id="Trazado_530" class="st41" d="M70.6,114.6c1.9,0.4,3.7,1.4,4.9,3c1-1.9,0.3-4.2-1.5-5.2c-1.5-0.8-3.3-0.6-4.5,0.6
									c-0.1,0.1-0.2,0.1-0.3,0.2c-0.4,0.4-0.7,0.8-0.9,1.4C69.1,114.3,69.8,114.4,70.6,114.6z"/>
								<path id="Trazado_531" class="st36" d="M57.3,125c-1.1,0-2.3-0.4-3.2-1.1c-0.6-0.6-0.9-1.3-1-2.1c0-0.4,0-0.8,0.2-1.2
									c0.1-0.1,0.1-0.3,0.1-0.4c-0.2,0-0.3,0.1-0.5,0.2c-0.4,0.2-0.8,0.3-1.2,0.3h-0.3c-1.4-0.4-2.4-1.8-2.2-3.3
									c0.1-1.2,1-2.3,2.3-2.4c0.4,0,0.8,0.1,1.2,0.4l0.1,0.1c0-0.1,0-0.2-0.1-0.2c-0.3-1-0.2-2.1,0.3-3c0.5-0.7,1.3-1.2,2.2-1.4
									c1.2-0.4,2.5-0.3,3.7,0.4c0.2,0.1,0.3,0.2,0.5,0.4c0.8,0.8,1.2,1.9,1.1,3c0,0.2-0.1,0.4-0.2,0.6h0.8c0.4,0,0.7,0.1,1,0.2
									c1.3,1,1.9,2.6,1.7,4.1c-0.2,1-1,1.8-2,2c-0.1,0-0.2,0-0.3,0c-0.3,0-0.6-0.1-0.9-0.3c-0.1-0.1-0.2-0.1-0.3-0.1H60
									c0.2,0.2,0.3,0.4,0.5,0.6c0.4,1,0.1,2-0.7,2.7C59,124.9,58.2,125.1,57.3,125z M53.5,119c0.6,0,1.1,0.5,1.1,1.1
									c0,0.3,0,0.7-0.2,1c-0.1,0.2-0.1,0.4-0.1,0.6c0.1,0.5,0.3,1,0.7,1.3c0.7,0.5,1.5,0.8,2.3,0.8c0.6,0,1.1-0.1,1.6-0.4
									c0.4-0.3,0.5-0.8,0.3-1.2l-0.2-0.2c-0.4-0.3-0.6-0.7-0.6-1.2c0.1-0.6,0.6-1.1,1.2-1c0.2,0,0.4,0,0.6,0.1
									c0.2,0,0.5,0.1,0.7,0.2c0.2,0.1,0.2,0.1,0.3,0.1c0.5-0.1,0.9-0.5,1-1c0.2-1.1-0.3-2.2-1.1-2.9c-0.1,0-0.2-0.1-0.3-0.1h-0.6
									c-0.3,0-0.6-0.1-0.9-0.2c-0.5-0.3-0.8-0.9-0.5-1.4l0,0c0-0.1,0.1-0.3,0.1-0.4c0.1-0.7-0.2-1.5-0.7-2
									c-0.1-0.1-0.2-0.2-0.3-0.2c-0.8-0.4-1.8-0.5-2.6-0.2c-0.6,0.1-1.1,0.5-1.5,0.9c-0.3,0.5-0.4,1.1-0.2,1.6
									c0,0.1,0,0.2,0.1,0.3c0.2,0.4,0.2,1,0.1,1.4c-0.1,0.3-0.4,0.5-0.7,0.5c-0.1,0-0.2,0-0.3,0l0,0c-0.3,0-0.7-0.1-0.9-0.3
									c-0.1-0.1-0.3-0.2-0.4-0.2c-0.6,0.1-1.1,0.6-1.2,1.3c-0.1,0.9,0.5,1.7,1.3,2l0,0c0.3,0,0.5-0.1,0.7-0.2
									C52.7,119.1,53.1,119,53.5,119L53.5,119z"/>
								<path id="Trazado_532" class="st37" d="M57.2,124.2c-1,0-2-0.3-2.8-1c-0.5-0.5-0.8-1.1-0.9-1.8c0-0.3,0-0.7,0.2-1
									c0-0.1,0.1-0.2,0.1-0.4c-0.1,0-0.3,0.1-0.4,0.1c-0.3,0.1-0.7,0.2-1,0.3H52c-1.3-0.4-2.1-1.6-2-2.9c0.1-1.1,0.9-2,2-2.2
									c0.4,0,0.7,0.1,1,0.3l0.1,0.1c0-0.1,0-0.2-0.1-0.2c0-0.1-0.1-0.2-0.1-0.4c-0.2-0.8-0.1-1.6,0.4-2.3c0.5-0.6,1.2-1.1,1.9-1.2
									c1.1-0.4,2.2-0.2,3.2,0.3c0.1,0.1,0.3,0.2,0.4,0.3c0.7,0.7,1.1,1.7,1,2.7c0,0.2-0.1,0.4-0.1,0.6h0.7c0.3,0,0.6,0.1,0.9,0.2
									c1.1,0.9,1.7,2.3,1.5,3.7c-0.2,0.9-0.9,1.6-1.8,1.8h-0.2c-0.3,0-0.5-0.1-0.8-0.2c-0.1-0.1-0.2-0.1-0.2-0.1h-0.1
									c0.2,0.1,0.3,0.3,0.4,0.5c0.4,0.8,0.1,1.8-0.6,2.4C58.6,124,57.9,124.2,57.2,124.2L57.2,124.2z M53.8,118.8
									c0.5,0,1,0.4,1,0.9c0,0.3,0,0.6-0.2,0.9c-0.1,0.2-0.1,0.4-0.1,0.5c0,0.4,0.3,0.9,0.6,1.2c0.6,0.5,1.3,0.7,2,0.7
									c0.5,0,1-0.1,1.4-0.4c0.3-0.2,0.5-0.7,0.3-1.1c0-0.1-0.1-0.1-0.2-0.2c-0.3-0.2-0.5-0.6-0.5-1c0.1-0.5,0.5-0.9,1.1-0.9
									c0.2,0,0.3,0,0.5,0c0.2,0,0.4,0.1,0.6,0.2c0.2,0.1,0.2,0.1,0.3,0.1c0.5,0,0.9-0.4,0.9-0.9c0.1-1-0.2-1.9-1-2.5
									c-0.1,0-0.2,0-0.3,0h-0.5c-0.3,0-0.5-0.1-0.8-0.2c-0.5-0.2-0.7-0.8-0.5-1.2c0,0,0,0,0,0l0,0c0-0.1,0.1-0.2,0.1-0.3
									c0.1-0.6-0.2-1.3-0.6-1.7c-0.1-0.1-0.2-0.1-0.3-0.2c-0.7-0.4-1.6-0.5-2.3-0.2c-0.5,0.1-1,0.4-1.3,0.9
									c-0.2,0.4-0.3,0.9-0.1,1.4c0,0.1,0,0.2,0.1,0.2c0.2,0.4,0.2,0.8,0.1,1.2c-0.1,0.2-0.4,0.4-0.6,0.5c-0.1,0-0.2,0-0.2,0l0,0
									c-0.3,0-0.6-0.1-0.9-0.3c-0.1-0.1-0.2-0.1-0.4-0.2c-0.6,0.1-1,0.6-1,1.1c-0.1,0.8,0.4,1.5,1.2,1.8l0,0
									c0.2,0,0.4-0.1,0.7-0.2C53.2,119,53.5,118.9,53.8,118.8L53.8,118.8z"/>
								<path id="Trazado_533" class="st42" d="M66.9,97.8c-1.7,0-3.1,1.4-3.1,3.1c0,1.7,1.4,3.1,3.1,3.1c1.7,0,3.1-1.4,3.1-3.1l0,0
									C70,99.1,68.6,97.8,66.9,97.8C66.9,97.8,66.9,97.8,66.9,97.8z M67.1,103.4c-1.4,0.1-2.6-1-2.7-2.5c-0.1-1.4,1-2.6,2.5-2.7
									c1.4-0.1,2.6,1,2.7,2.5c0,0,0,0,0,0v0.1C69.6,102.2,68.5,103.4,67.1,103.4C67.1,103.4,67.1,103.4,67.1,103.4L67.1,103.4z"/>
								<path id="Trazado_534" class="st42" d="M58.8,123.4c-1.7,0-3.1,1.4-3.1,3.1c0,1.7,1.4,3.1,3.1,3.1c1.7,0,3.1-1.4,3.1-3.1
									l0,0C61.8,124.8,60.5,123.4,58.8,123.4C58.8,123.4,58.8,123.4,58.8,123.4z M59,129c-1.4,0.1-2.6-1-2.7-2.5s1-2.6,2.5-2.7
									c1.4-0.1,2.6,1,2.7,2.5c0,0,0,0,0,0c0,0,0,0.1,0,0.1C61.5,127.8,60.4,129,59,129L59,129z"/>
							</g>
						</g>
					</g>
				</g>
			</g>
		</g>
	</g>
</g>
</svg>
