<svg id="Capa_1" data-name="Capa 1" xmlns="http://www.w3.org/2000/svg" xmlns:xlink="http://www.w3.org/1999/xlink" viewBox="0 0 414 573.36"><defs><style>.cls-1,.cls-4{fill:none;}.cls-2{clip-path:url(#clip-path);}.cls-3{fill:#fff;}.cls-4{stroke:#eaf1ee;stroke-linecap:round;stroke-linejoin:round;stroke-width:300.16px;}.cls-5{opacity:0.77;}.cls-6{fill:#eceff1;}.cls-7{fill:#e34c7f;}.cls-8{fill:#cfd8dc;}.cls-9{fill:#eda38f;}.cls-10{fill:#2c3a64;}.cls-11{fill:#6c301e;}.cls-12{fill:#375d4c;}.cls-13{fill:#59a491;}.cls-14{fill:#263238;}.cls-15{fill:#455a64;}.cls-16{fill:#bbdefb;}.cls-17{fill:#ffdedb;}.cls-18{fill:#ffb74d;}.cls-19{fill:#4e342e;}.cls-20{fill:#ffee58;}.cls-21{fill:#d84315;}.cls-22{fill:#bf360c;}.cls-23{fill:#c0ca33;}.cls-24{fill:#ffc760;}.cls-25{fill:#d1f3f7;}.cls-26{fill:#def0df;}.cls-27{clip-path:url(#clip-path-2);}.cls-28{fill:#8ad0e3;}.cls-29{fill:#76bdce;}.cls-30{fill:#7ad935;}.cls-31{fill:#57b442;}.cls-32{fill:#fed45c;}.cls-33{fill:#9bea5e;}.cls-34{fill:#94db56;}.cls-35{fill:#000400;}.cls-36{fill:#232727;}.cls-37{fill:#8c8c83;}.cls-38{fill:#f7423e;}.cls-39{fill:#e72318;}.cls-40{fill:#2ea341;}.cls-41{fill:#baf982;}.cls-42{fill:#f76f3e;}.cls-43{fill:#a7a7a8;}.cls-44{fill:#f0f0f0;}</style><clipPath id="clip-path"><rect class="cls-1" width="414" height="896"/></clipPath><clipPath id="clip-path-2"><rect class="cls-1" x="42.93" y="175.55" width="46.41" height="25.73"/></clipPath></defs><title>onboarding_illustration_4</title><g class="cls-2"><g id="Onboarding_4" data-name="Onboarding 4"><rect class="cls-3" width="414" height="896"/><g id="Grupo_1" data-name="Grupo 1"><g id="Componente_1_7" data-name="Componente 1 7"><path id="Trazado_95" data-name="Trazado 95" class="cls-4" d="M-1041.18,424s183.73-267.8,509-197.88C-294.72,277.18-177.71,430.19,74,413.69c93.43-6.13,137.07-32.63,137.07-32.63"/></g></g><g id="onboarding_4-01" data-name="onboarding 4-01"><g id="OBJECTS"><g id="Grupo_3" data-name="Grupo 3" class="cls-5"><rect id="Rectángulo_9" data-name="Rectángulo 9" class="cls-6" x="300.08" y="103.38" width="34.18" height="39.88"/><path id="Trazado_389" data-name="Trazado 389" class="cls-3" d="M302,105.53v16.83h30.35V105.53Z"/><path id="Trazado_390" data-name="Trazado 390" class="cls-3" d="M309.85,124.45a1.23,1.23,0,0,0-1.72,0,1.26,1.26,0,0,0-.36.86,1.21,1.21,0,0,0,.39.85,2.12,2.12,0,0,0,0,.44s.44-.15.44-.15a1.57,1.57,0,0,0,.37,0,1.31,1.31,0,0,0,.86-.36,1.16,1.16,0,0,0,.37-.86,1.19,1.19,0,0,0-.37-.85Z"/><path id="Trazado_391" data-name="Trazado 391" class="cls-7" d="M304.08,124.74a.93.93,0,0,1,.13-.35.75.75,0,0,1,1.37.3,1,1,0,0,1-.08.5,2,2,0,0,1-.42.64,5.64,5.64,0,0,1-1,.86h-.05a5.16,5.16,0,0,1-1.15-1,1.72,1.72,0,0,1-.31-.6.77.77,0,0,1,.48-.93.74.74,0,0,1,.95.46.58.58,0,0,1,0,.14Z"/><path id="Trazado_392" data-name="Trazado 392" class="cls-3" d="M312.34,125.24a.25.25,0,0,1,.14-.13l.88-.31,1.47-.57a.33.33,0,0,1,.14,0,.19.19,0,0,1,.17.2,0,0,0,0,0,0,0l-.1.5c-.09.46-.18.93-.28,1.39v.1a.22.22,0,0,1-.25.17l-.09,0a1.12,1.12,0,0,1-.2-.17l-.25-.2h0l-.28.26a.24.24,0,0,1-.33,0,.24.24,0,0,1-.07-.12l-.13-.36-.12-.38-.48-.14a.34.34,0,0,1-.12-.06.43.43,0,0,1,0-.07Z"/><rect id="Rectángulo_10" data-name="Rectángulo 10" class="cls-8" x="302.54" y="128.63" width="29.27" height="1.01"/><rect id="Rectángulo_11" data-name="Rectángulo 11" class="cls-8" x="302.54" y="131.04" width="29.27" height="1.01"/><rect id="Rectángulo_12" data-name="Rectángulo 12" class="cls-8" x="302.54" y="133.44" width="29.27" height="1.01"/><rect id="Rectángulo_13" data-name="Rectángulo 13" class="cls-8" x="302.54" y="135.85" width="11.42" height="1.01"/></g><path id="Trazado_393" data-name="Trazado 393" class="cls-9" d="M275.66,396.18l-7.37-2.57-8,7.28a67.3,67.3,0,0,0-16.64,23.46L224,470.52l8.94,1.62,48.22-74.26Q278.39,397.16,275.66,396.18Z"/><path id="Trazado_394" data-name="Trazado 394" class="cls-10" d="M222.86,464.93l15,6.3.26,2a30.82,30.82,0,0,0,4.59,12.53,29.63,29.63,0,0,0,4.53,5.4c1.08,1,4.5,2.46,4.59,4.2.07,1.16-1.79,1.31-2.91,1.52-8.56,1.65-15.62-4.23-21.81-9.31-1.29-1.05-11.13-9.23-10.65-10.16Z"/><path id="Trazado_395" data-name="Trazado 395" class="cls-9" d="M262.57,318.89l16.61,70.22.42,95.72-8.37,3.57L262.32,439a67.17,67.17,0,0,1,1.07-28.74l3.1-12-39.93-72.4Z"/><path id="Trazado_396" data-name="Trazado 396" class="cls-10" d="M267.18,484.34l16-2.95,1.31,1.52a30.56,30.56,0,0,0,10.71,8,28.94,28.94,0,0,0,6.74,2c1.47.26,5.14-.41,6.15,1,.69.93-.79,2.07-1.6,2.87-6.27,6.07-15.41,5-23.35,4.17-1.65-.18-14.37-1.62-14.48-2.66Z"/><path id="Trazado_397" data-name="Trazado 397" class="cls-11" d="M281.81,168.59a27.59,27.59,0,0,0-38.93,32.34c-2,6-5.55,10.28-9.14,15.51s-6.77,11.28-6.38,17.64c.54,9,8,16,16,20.12,4.71,2.41,9.89,4.16,15.18,4.05s10.71-2.32,13.84-6.59c1.92-2.57,2.93-5.85,5.14-8.2,3-3.12,7.48-4.08,11.45-5.77s8.1-5.05,8.11-9.42-4.15-7.84-5.86-12c-1.61-3.9-1-8.39.45-12.37s3.62-7.62,5.22-11.52a26,26,0,0,0,2.2-11.93,14.88,14.88,0,0,0-5.39-10.58C290.5,167.37,285.31,166.5,281.81,168.59Z"/><path id="Trazado_398" data-name="Trazado 398" class="cls-9" d="M283.86,276.9a138.24,138.24,0,0,1-18.36,22l6.54,6.71a145.42,145.42,0,0,0,19.61-23.55,25.49,25.49,0,0,0,3.09-5.75,39.32,39.32,0,0,0-9.42-1.86A22.85,22.85,0,0,1,283.86,276.9Z"/><path id="Trazado_399" data-name="Trazado 399" class="cls-12" d="M295.47,270.43c-.48-4-3-7-4.82-9.24L271,229.77,260.1,249l23.34,18.18c1.16,1.41,2.57,3.17,2.76,4.44a5.32,5.32,0,0,1-.86,2.9,39.23,39.23,0,0,1,9.42,1.86,13,13,0,0,0,.72-5.92Z"/><path id="Trazado_400" data-name="Trazado 400" class="cls-13" d="M243.83,220.2a35.59,35.59,0,0,1,12.46-1l1.2.19c12.25,2.13,19.94,19,17.67,31.76-2.39,13.48-7.34,20.7-6.39,34.55.78,11.36,5.87,23.24,8.08,35.52,9.68,53.68,9.49,80.61,10.88,87.6a68.82,68.82,0,0,1-61.19,4.13c-1-7-10.95-33.72-7.39-86.85,1.66-24.7,9.55-34.2,10.19-44.91C230.55,261.51,227.55,223.81,243.83,220.2Z"/><path id="Trazado_401" data-name="Trazado 401" class="cls-14" d="M315.07,242.82,306.82,268a1.88,1.88,0,0,1-2.38,1.22h0l-10.71-3.51,9.42-28.74,10.71,3.51a1.9,1.9,0,0,1,1.23,2.39h0Z"/><path id="Trazado_402" data-name="Trazado 402" class="cls-15" d="M302.42,236.67l.72.25-9.42,28.74-.72-.24a1.91,1.91,0,0,1-1.22-2.4L300,237.89a1.89,1.89,0,0,1,2.39-1.22Z"/><path id="Trazado_403" data-name="Trazado 403" class="cls-9" d="M289.57,251.23a10.45,10.45,0,0,1,6.61-6,10.59,10.59,0,0,1,9.67,2.11,2,2,0,0,1,.15,2.77,2,2,0,0,1-2.77.16l-.39-.32-.07,0-.08-.06c-.25-.16-.52-.3-.78-.44l-.45-.2-.34-.12-.3-.09-.39-.09a7.06,7.06,0,0,0-.92-.15h-.73a6,6,0,0,0-.85.09h-.18l-.44.12c-.27.09-.52.19-.76.29h-.1l-.39.22c-.23.14-.46.29-.68.45l-.3.23-.16.13a7.87,7.87,0,0,0-1.07,1.24l-.11.18-.23.39a8.19,8.19,0,0,0-.36.86,2,2,0,0,1-2.64.85A2,2,0,0,1,289.57,251.23Z"/><path id="Trazado_404" data-name="Trazado 404" class="cls-9" d="M290.37,256.08a2,2,0,0,0,2.64-.85c-.21.32,0,0,.05-.06l.22-.26.12-.11.13-.11a4.65,4.65,0,0,1,.56-.34l.42-.18.66-.19c-.35.1.22,0,.36,0a2.66,2.66,0,0,1,.69,0h.35a8.52,8.52,0,0,1,3.1,1,35.4,35.4,0,0,1,3.23,1.94,2,2,0,0,0,2.63-.86,2,2,0,0,0-.85-2.64c-2.57-1.72-5.23-3.23-8.36-3.33a7.7,7.7,0,0,0-6.8,3.46A2,2,0,0,0,290.37,256.08Z"/><path id="Trazado_406" data-name="Trazado 406" class="cls-9" d="M290.23,256.5a2,2,0,0,0,2.48,1.23l.64-.18h.22a7,7,0,0,1,1.12-.07h.2a3.81,3.81,0,0,1,.59.08,2.4,2.4,0,0,1,.59.13l.25.07.17.06h0l.24.1a4.49,4.49,0,0,1,.54.26c.18.09.36.2.53.3l.22.14-.09-.05H298a7.6,7.6,0,0,1,.85.75h0l.13.13.35.49a2,2,0,1,0,3.3-2.12l0,0A9.91,9.91,0,0,0,291.45,254a2,2,0,0,0-1.23,2.52v0Z"/><path id="Trazado_407" data-name="Trazado 407" class="cls-9" d="M287.36,256.16a2,2,0,0,0,1.54,2.31l1.13.3.2.08.49.21c.33.16.66.33,1,.52l.48.29.14.11c.32.24.63.49.92.75l.38.37c.1.11.37.3.4.44,0-.08-.24-.3-.07-.09l.17.21c.12.16.24.31.35.48a10.1,10.1,0,0,1,.59.95,2,2,0,0,0,3.28-2.17,13.21,13.21,0,0,0-8.67-6.3,2,2,0,0,0-2.32,1.54Z"/><path id="Trazado_408" data-name="Trazado 408" class="cls-9" d="M292.48,247.19a14.18,14.18,0,0,0-5.56,5.41,42.73,42.73,0,0,0-3.25,7.16,4.59,4.59,0,0,0-.44,2.82,4.65,4.65,0,0,0,2.31,2.43,7.26,7.26,0,0,0,3.59,1.47,5,5,0,0,0,4.39-3.28,14.77,14.77,0,0,0,.76-5.75Z"/><path id="Trazado_409" data-name="Trazado 409" class="cls-9" d="M284.8,257.85l-3.16,3.32c-7.84,8.36-16,16.92-25.9,20.23-.54,3.64-1.11,7.34-1.62,11a28.32,28.32,0,0,0,3-.65c13.25-3.74,23.21-14.24,32-23.5l3.1-3.25Z"/><path id="Trazado_410" data-name="Trazado 410" class="cls-9" d="M256.2,203.37l-5,18.11a8.71,8.71,0,0,0,10.7,3.05c.24-2.45.6-4.89,1.08-7.3a25.36,25.36,0,0,1,2.5-7.07Z"/><path id="Trazado_411" data-name="Trazado 411" class="cls-9" d="M254.69,208.79c.51-1.81,1-3.61,1.51-5.42l9.23,6.79a25.77,25.77,0,0,0-2.49,7.07c-.11.56-.21,1.1-.32,1.66a18.52,18.52,0,0,1-7.93-10.1Z"/><path id="Trazado_412" data-name="Trazado 412" class="cls-9" d="M289,196.45q-2.64,6-5.62,11.94a31.12,31.12,0,0,1-4.69,7.35,11.54,11.54,0,0,1-7.57,3.91c-3.17.15-6.18-1.43-8.68-3.43a29.35,29.35,0,0,1-9.21-12.4c-1.13,0-2.38-1.47-3.07-2.37a11.68,11.68,0,0,1-1.46-3,7,7,0,0,1-.53-2.57c.85.32,1.7.6,2.56.86s2,.55,3,.75c10.7,2.26,22.85.18,30.24-7.28a2.32,2.32,0,0,1,2.81-.39h0a5.26,5.26,0,0,1,2.19,6.67Z"/><rect id="Rectángulo_14" data-name="Rectángulo 14" class="cls-6" x="321.72" y="158.99" width="52.27" height="60.97"/><path id="Trazado_413" data-name="Trazado 413" class="cls-16" d="M371.06,162.28H324.65v20c14.46-7.71,30.28-10,46.41-11.07Z"/><path id="Trazado_414" data-name="Trazado 414" class="cls-17" d="M324.65,182.24V188h46.41V171.17C354.93,172.21,339.11,174.51,324.65,182.24Z"/><path id="Trazado_415" data-name="Trazado 415" class="cls-3" d="M336.65,191.21a1.94,1.94,0,0,0-2.7,0,1.79,1.79,0,0,0-.11,2.55l.11.11a3.08,3.08,0,0,0,.07.68c.05.06.66-.25.66-.25a2.8,2.8,0,0,0,.58.09,2,2,0,0,0,1.35-.55,1.83,1.83,0,0,0,.06-2.57l-.06-.06Z"/><path id="Trazado_416" data-name="Trazado 416" class="cls-7" d="M327.84,191.65a1.31,1.31,0,0,1,.2-.54,1.15,1.15,0,0,1,2.09.46,1.29,1.29,0,0,1-.11.75,3.24,3.24,0,0,1-.64,1,8.85,8.85,0,0,1-1.49,1.31h-.07A8,8,0,0,1,326.1,193a2.6,2.6,0,0,1-.47-.94,1.15,1.15,0,0,1,2.2-.65.83.83,0,0,1,0,.15A.16.16,0,0,0,327.84,191.65Z"/><path id="Trazado_417" data-name="Trazado 417" class="cls-3" d="M340.4,192.45a.35.35,0,0,1,.22-.21l1.4-.53,2.24-.85a.41.41,0,0,1,.22,0,.29.29,0,0,1,.25.33v0c0,.25-.09.5-.14.76-.15.7-.29,1.4-.43,2.11a.43.43,0,0,0,0,.16.32.32,0,0,1-.37.27.29.29,0,0,1-.16-.07l-.32-.25-.37-.3h-.06l-.43.4a.37.37,0,0,1-.33.11.32.32,0,0,1-.26-.25l-.21-.57-.2-.57a0,0,0,0,0-.05,0l-.72-.21a.51.51,0,0,1-.18-.09.41.41,0,0,1-.06-.11Z"/><rect id="Rectángulo_15" data-name="Rectángulo 15" class="cls-8" x="325.48" y="197.6" width="44.76" height="1.54"/><rect id="Rectángulo_16" data-name="Rectángulo 16" class="cls-8" x="325.48" y="201.27" width="44.76" height="1.54"/><rect id="Rectángulo_17" data-name="Rectángulo 17" class="cls-8" x="325.48" y="204.95" width="44.76" height="1.54"/><rect id="Rectángulo_18" data-name="Rectángulo 18" class="cls-8" x="325.48" y="208.64" width="17.44" height="1.54"/><path id="Trazado_418" data-name="Trazado 418" class="cls-18" d="M344.23,185.34l11.13,1.27a22.84,22.84,0,0,0,5.72.16,7.52,7.52,0,0,0,4.95-2.61c.68-.86,1-2.3.16-3a2.81,2.81,0,0,0-1.57-.45l-15.23-1.21c-2.38-.19-10.64-2-10.42,2.64C339.06,184.61,342.31,185.13,344.23,185.34Z"/><path id="Trazado_419" data-name="Trazado 419" class="cls-19" d="M338.5,180.23a3.68,3.68,0,0,0,1.91,1.3,35.38,35.38,0,0,0,23.93.58c1.16-.38,2.42-1,2.8-2.1.45-1.35-.57-2.77-1.71-3.57-2-1.4-4.58-1.76-7-2a73.59,73.59,0,0,0-10.5-.13,24.59,24.59,0,0,0-5.13.51,10.59,10.59,0,0,0-2.74,1.55C338.82,177.16,337.6,178.75,338.5,180.23Z"/><path id="Trazado_420" data-name="Trazado 420" class="cls-20" d="M343.89,176.94l7.56,3.15a10.52,10.52,0,0,1,2.52,1.34,3.55,3.55,0,0,1,1.43,2.39c.05.61.09,1.49.7,1.5s.73-.71.86-1.24c.46-1.71,2.25-2.64,3.93-3.12s3.52-.78,4.84-1.93a1.72,1.72,0,0,0,.71-1.77,2,2,0,0,0-1.35-1,33.67,33.67,0,0,0-20.16-.68"/><path id="Trazado_421" data-name="Trazado 421" class="cls-21" d="M338.42,178.35a2.6,2.6,0,0,1-.58-1.4,2.19,2.19,0,0,0,.05,1.61,3.32,3.32,0,0,0,1.72,1.41,13,13,0,0,0,6.77,1.12,5.19,5.19,0,0,0,3.95-1.91,3.44,3.44,0,0,0,.31-.64C346.83,180.78,342.37,180.33,338.42,178.35Z"/><path id="Trazado_422" data-name="Trazado 422" class="cls-22" d="M350.2,175.5a3.27,3.27,0,0,0-3.51-1.1L344,174a5.21,5.21,0,0,0-5.55,1.8,3.61,3.61,0,0,0-.58,1.14,2.53,2.53,0,0,0,.58,1.4c3.95,2,8.41,2.42,12.2.18A3.24,3.24,0,0,0,350.2,175.5Z"/><path id="Trazado_423" data-name="Trazado 423" class="cls-23" d="M342.56,170.12a6.15,6.15,0,0,0-5.71,2c.39-.41,1.17-.09,1.36.46a2.12,2.12,0,0,1-.32,1.64,4.26,4.26,0,0,0-.65,1.57,1.73,1.73,0,0,0,.74,1.53c1,.67,2.31.12,3.43-.24s2.76-.3,3.1.85c.12.45,0,.93.1,1.38a2.06,2.06,0,0,0,2.49,1.25,8.71,8.71,0,0,0,2.7-1.45,3.69,3.69,0,0,1,2.9-.73c1.62.45,2.68,2.74,4.29,2.27.67-.18,1.11-.85,1.64-1.27s1.44-.7,1.88-.16c.27.35.28.86.67,1.08.56.24,1-.52,1.42-.91a2.49,2.49,0,0,1,1.95-.34,3.62,3.62,0,0,0,2-.06c.62-.28,1-1.18.51-1.65l1.26-.24a9.23,9.23,0,0,0-6-4.23"/><path id="Trazado_424" data-name="Trazado 424" class="cls-18" d="M353.24,164.72a16.43,16.43,0,0,1,13.61,8.33,2.42,2.42,0,0,1,.37,2.1,2.57,2.57,0,0,1-1.79,1.19,35.19,35.19,0,0,1-17.77,0c-1.92-.48-7.06-1.51-7.92-3.46-1-2.15,3.11-4.83,4.58-5.73A16.23,16.23,0,0,1,353.24,164.72Z"/><path id="Trazado_425" data-name="Trazado 425" class="cls-7" d="M347.11,145.55a2.33,2.33,0,0,1,.37-1,2.13,2.13,0,0,1,2.95-.61,2.16,2.16,0,0,1,.95,1.48,2.83,2.83,0,0,1-.21,1.41,6.42,6.42,0,0,1-1.2,1.84,16,16,0,0,1-2.78,2.43.11.11,0,0,1-.14,0h0a14.71,14.71,0,0,1-3.25-3,5,5,0,0,1-.85-1.72,2.16,2.16,0,0,1,1.37-2.64,2.12,2.12,0,0,1,2.7,1.33,1.64,1.64,0,0,1,.1.38Z"/><path id="Trazado_426" data-name="Trazado 426" class="cls-7" d="M340.89,134.22a2.41,2.41,0,0,1,.37-1,2.13,2.13,0,0,1,2.95-.63,2.11,2.11,0,0,1,1,1.48,2.72,2.72,0,0,1-.2,1.41,6.64,6.64,0,0,1-1.2,1.84,15.75,15.75,0,0,1-2.79,2.43.09.09,0,0,1-.12,0,14.39,14.39,0,0,1-3.26-3,4.58,4.58,0,0,1-.85-1.71,2.15,2.15,0,0,1,1.37-2.64,2.13,2.13,0,0,1,2.7,1.32,1.86,1.86,0,0,1,.1.39Z"/><path id="Trazado_427" data-name="Trazado 427" class="cls-7" d="M351.39,126.7a2.45,2.45,0,0,1,.34-1,2.13,2.13,0,0,1,2.95-.64,2.16,2.16,0,0,1,1,1.5,2.83,2.83,0,0,1-.21,1.41,6.24,6.24,0,0,1-1.2,1.83,15.74,15.74,0,0,1-2.78,2.44.1.1,0,0,1-.14,0,14.75,14.75,0,0,1-3.25-3,4.82,4.82,0,0,1-.85-1.71,2.19,2.19,0,0,1,1.34-2.68,2.15,2.15,0,0,1,2.72,1.34,2.34,2.34,0,0,1,.09.38Z"/><g id="Grupo_4" data-name="Grupo 4" class="cls-5"><rect id="Rectángulo_19" data-name="Rectángulo 19" class="cls-6" x="326.82" y="247.49" width="34.18" height="39.88"/><path id="Trazado_428" data-name="Trazado 428" class="cls-3" d="M328.73,249.64v16.83h30.36V249.64Z"/><path id="Trazado_429" data-name="Trazado 429" class="cls-3" d="M336.58,268.57a1.2,1.2,0,0,0-.85-.36,1.26,1.26,0,0,0-.86.36,1.18,1.18,0,0,0,0,1.67l0,0a2.2,2.2,0,0,0,.05.44s.44-.16.44-.16a1,1,0,0,0,.38.05,1.25,1.25,0,0,0,.85-.35,1.19,1.19,0,0,0,.37-.85,1.16,1.16,0,0,0-.37-.86Z"/><path id="Trazado_430" data-name="Trazado 430" class="cls-7" d="M330.82,268.85a.93.93,0,0,1,.13-.35.73.73,0,0,1,.78-.32.76.76,0,0,1,.59.62,1,1,0,0,1-.08.5,2.29,2.29,0,0,1-.42.64,5.35,5.35,0,0,1-1,.86h0a5.69,5.69,0,0,1-1.14-1.05,1.93,1.93,0,0,1-.32-.62.79.79,0,0,1,.48-.93.75.75,0,0,1,.95.46.74.74,0,0,1,0,.14S330.82,268.83,330.82,268.85Z"/><path id="Trazado_431" data-name="Trazado 431" class="cls-3" d="M339,269.35a.22.22,0,0,1,.15-.13l.92-.35,1.47-.57h.13a.22.22,0,0,1,.17.23l-.1.5c-.1.47-.19.93-.28,1.39v.1a.21.21,0,0,1-.24.18l-.11-.05-.2-.16-.25-.2h0l-.28.26a.26.26,0,0,1-.22.07.24.24,0,0,1-.17-.15l-.13-.38c0-.13-.1-.25-.14-.38h0l-.47-.13a.27.27,0,0,1-.12-.06.25.25,0,0,1,0-.07Z"/><rect id="Rectángulo_20" data-name="Rectángulo 20" class="cls-8" x="329.27" y="272.74" width="29.27" height="1.01"/><rect id="Rectángulo_21" data-name="Rectángulo 21" class="cls-8" x="329.27" y="275.15" width="29.27" height="1.01"/><rect id="Rectángulo_22" data-name="Rectángulo 22" class="cls-8" x="329.27" y="277.55" width="29.27" height="1.01"/><rect id="Rectángulo_23" data-name="Rectángulo 23" class="cls-8" x="329.27" y="279.97" width="11.42" height="1.01"/></g><rect id="Rectángulo_24" data-name="Rectángulo 24" class="cls-9" x="136.78" y="469.46" width="26.44" height="10.33" transform="translate(-339.22 566.43) rotate(-83.09)"/><path id="Trazado_432" data-name="Trazado 432" class="cls-13" d="M162.76,318.89l-16.62,70.22-4.57,88.52h15.24l7.57-48.47a32.67,32.67,0,0,0-.78-13.7l-4.76-17.25L200,331.69Z"/><rect id="Rectángulo_25" data-name="Rectángulo 25" class="cls-9" x="175.36" y="424.48" width="10.33" height="26.44" transform="translate(-250.8 242.43) rotate(-43.23)"/><path id="Trazado_433" data-name="Trazado 433" class="cls-13" d="M174.92,441.42a161,161,0,0,0-48.42-35.19c-14.7-6.91-13-17.35-12.16-20.39,1.13-3.95,54.09-74.5,54.09-74.5l35.49-3-.19,8.68A22.14,22.14,0,0,1,192.6,335.7s-46,44.77-54.41,53c19.31,9.51,32.87,21.61,46.57,43.44Z"/><path id="Trazado_434" data-name="Trazado 434" class="cls-10" d="M193.34,440.65,181.73,452l.48,2a30.8,30.8,0,0,1,.35,13.34,29,29,0,0,1-2.23,6.68c-.63,1.35-3.28,3.95-2.72,5.6.37,1.1,2.14.55,3.26.34,8.56-1.63,13-9.68,16.86-16.68.81-1.46,7-12.69,6.17-13.37Z"/><path id="Trazado_435" data-name="Trazado 435" class="cls-10" d="M158.18,484.34l-16-2.95-1.31,1.52a30.56,30.56,0,0,1-10.71,8,29,29,0,0,1-6.75,2c-1.46.26-5.14-.41-6.14,1-.68.93.78,2.07,1.6,2.87,6.27,6.07,15.42,5,23.35,4.17,1.66-.18,14.38-1.62,14.48-2.66Z"/><path id="Trazado_436" data-name="Trazado 436" class="cls-9" d="M128.08,263.18l5.73-16.13c.45-1.28.91-2.7.39-4-.7-1.71-2.82-2.24-4.65-2.38a27.1,27.1,0,0,0-13,2.27l.54.56C122.51,249.07,124.37,256.34,128.08,263.18Z"/><path id="Trazado_437" data-name="Trazado 437" class="cls-9" d="M151.27,291.25a22.07,22.07,0,0,1-10.59-2.83,33.05,33.05,0,0,1-10-9.15A60.68,60.68,0,0,1,120,256.74l9.32-2.19a51,51,0,0,0,9,18.93,22.69,22.69,0,0,0,7,6.56,11.43,11.43,0,0,0,8.34,1.3,9.26,9.26,0,0,0,5.54-4.92c1.31-2.61,1.77-5.7,2.24-9L164.18,249l9.42,1.38-2.71,18.49c-.54,3.69-1.15,7.88-3.15,11.87a18.83,18.83,0,0,1-11.46,9.85,18.41,18.41,0,0,1-5,.69Z"/><path id="Trazado_438" data-name="Trazado 438" class="cls-24" d="M196.4,236a22.28,22.28,0,0,0-14.91-15.84,30,30,0,0,0-12.46-1l-1.2.19c-12.26,2.13-20.18,14.75-17.91,27.53,2.4,13.48,2.19,27.46,1.23,41.31-1.26,18.46-4.9,36.67-8.56,54.81a68.85,68.85,0,0,0,61.2,4.13C209,310.43,205.9,271.79,196.4,236Z"/><path id="Trazado_439" data-name="Trazado 439" class="cls-9" d="M169.12,203.37l5,18.11a8.71,8.71,0,0,1-10.69,3.05,69.08,69.08,0,0,0-1.09-7.3,25,25,0,0,0-2.49-7.07Z"/><path id="Trazado_440" data-name="Trazado 440" class="cls-9" d="M170.63,208.79q-.75-2.72-1.51-5.42l-9.22,6.79a25,25,0,0,1,2.49,7.07c.12.56.22,1.1.32,1.66a18.54,18.54,0,0,0,7.92-10.1Z"/><path id="Trazado_441" data-name="Trazado 441" class="cls-10" d="M133.9,200.6a5.66,5.66,0,0,1-6.94-4,5.75,5.75,0,0,1,0-3.08c-3.93-1.06-6.6-5.75-6.38-9.82a11.19,11.19,0,0,1,6.85-9.36,14.26,14.26,0,0,1,11.81.63,16.73,16.73,0,0,1,10.56-7.4,9.4,9.4,0,0,1,5.72.29,5,5,0,0,1,3.17,4.49c2.57-2.13,6.33-1.8,9.06.11a13.08,13.08,0,0,1,4.89,8.41,42.48,42.48,0,0,1,.24,9.95,33,33,0,0,0,.61,9.92C161.17,199.49,145.89,197.38,133.9,200.6Z"/><path id="Trazado_442" data-name="Trazado 442" class="cls-9" d="M165.22,190.52c1.55,1.6,3.22,3.73,4.76,5.33a7.62,7.62,0,0,1,3.94-2.43,2.89,2.89,0,0,1,2.66.85c1,1.18.56,2.79.06,4.15a11.07,11.07,0,0,1-1.46,3c-.67.86-1.94,2.33-3.06,2.37a29.54,29.54,0,0,1-9.24,12.44c-2.5,2-5.52,3.55-8.69,3.42a11.5,11.5,0,0,1-7.57-3.91,31.26,31.26,0,0,1-4.69-7.34q-3-5.9-5.61-12a5.23,5.23,0,0,1,2.18-6.63,44.9,44.9,0,0,1,15-5.65,9.76,9.76,0,0,1,9.23,3.42C163.7,188.81,164.65,189.92,165.22,190.52Z"/><path id="Trazado_443" data-name="Trazado 443" class="cls-14" d="M110.23,242.82,118.46,268a1.91,1.91,0,0,0,2.4,1.22h0l10.71-3.51-9.37-28.74-10.73,3.49a1.89,1.89,0,0,0-1.27,2.36Z"/><path id="Trazado_444" data-name="Trazado 444" class="cls-15" d="M122.91,236.67l-.73.25,9.42,28.74.72-.24a1.91,1.91,0,0,0,1.22-2.4h0l-8.24-25.13a1.9,1.9,0,0,0-2.39-1.22Z"/><path id="Trazado_445" data-name="Trazado 445" class="cls-9" d="M135.75,251.23a10.41,10.41,0,0,0-6.6-6,10.55,10.55,0,0,0-9.67,2.12,2,2,0,0,0,2.57,2.93l.39-.32.06-.05.09-.06c.25-.16.51-.3.78-.44l.46-.21.32-.12.31-.08.39-.1a9.27,9.27,0,0,1,.92-.14h.73a6.27,6.27,0,0,1,.86.09h.18l.44.12.76.29h.09a3,3,0,0,1,.39.22l.69.44.3.23.15.14a7.8,7.8,0,0,1,1.07,1.23l.11.18c.08.13.16.26.23.4a9.1,9.1,0,0,1,.37.85,2,2,0,0,0,2.64.86,2,2,0,0,0,1-2.59Z"/><path id="Trazado_446" data-name="Trazado 446" class="cls-9" d="M135.82,253.44A7.7,7.7,0,0,0,129,250c-3.14.1-5.8,1.66-8.36,3.33a2,2,0,0,0-.86,2.64,2,2,0,0,0,2.64.86,36.33,36.33,0,0,1,3.23-1.94,8.66,8.66,0,0,1,3.09-1h1.05a1.36,1.36,0,1,0,.35.05l.66.19.42.18a3.87,3.87,0,0,1,.55.34l.14.11.11.11.22.26c.06.06.27.39.06.06a2,2,0,1,0,3.52-1.74l0,0Z"/><path id="Trazado_448" data-name="Trazado 448" class="cls-9" d="M133.88,254a9.94,9.94,0,0,0-11.18,3.82A2,2,0,0,0,126,260c.11-.16.22-.32.35-.48a.87.87,0,0,1,.12-.14h0a6.17,6.17,0,0,1,.86-.75h0l-.09.05.22-.14.52-.3a4.49,4.49,0,0,1,.54-.26l.25-.1h0l.17-.06.25-.07.59-.13a3.81,3.81,0,0,1,.59-.08h.2a8.42,8.42,0,0,1,1.12.07h.22c.22,0,.42.11.64.18a2,2,0,1,0,1.26-3.72h0Z"/><path id="Trazado_449" data-name="Trazado 449" class="cls-9" d="M135.64,254.63A13.15,13.15,0,0,0,127,261a2,2,0,0,0,3.27,2.17c.19-.33.38-.64.6-.95l.35-.48.16-.21c.17-.21,0,0-.07.09,0-.14.3-.33.41-.44l.38-.37c.29-.26.6-.51.92-.75l.14-.11.48-.29a10.47,10.47,0,0,1,1-.52l.48-.21.2-.08c.37-.11.75-.21,1.13-.3a2,2,0,0,0-.78-3.84Z"/><path id="Trazado_450" data-name="Trazado 450" class="cls-9" d="M132.84,247.19a14.24,14.24,0,0,1,5.56,5.41,42.73,42.73,0,0,1,3.25,7.16,4.74,4.74,0,0,1,.45,2.82,4.67,4.67,0,0,1-2.32,2.43,7.36,7.36,0,0,1-3.58,1.47,5,5,0,0,1-4.4-3.28,14.58,14.58,0,0,1-.75-5.75Z"/><path id="Trazado_451" data-name="Trazado 451" class="cls-9" d="M175.25,293a34.78,34.78,0,0,1-7.09-1.18c-13.25-3.74-23.2-14.24-32-23.5l-3.1-3.25,7.44-7.18,3.16,3.32c8.24,8.7,16.77,17.7,27.29,20.66,4.55,1.28,9.1.5,11.56-2a11.8,11.8,0,0,0,2.84-5.78c2.19-9.7-2.57-19.9-6.69-28.93l14.95-6c1.14-.45,5.51,17.25,5.72,18.84,1.08,7.71.94,16.56-2.45,23.84C192.83,290.59,184.48,293.51,175.25,293Z"/><rect id="Rectángulo_26" data-name="Rectángulo 26" class="cls-6" x="40" y="172.26" width="52.27" height="60.97"/><path id="Trazado_452" data-name="Trazado 452" class="cls-25" d="M49.05,183.73c6,4.28,11.14,2.57,17.13,0,3.43-1.71,6,3.43,8.56,2.57,5.21-1.71,9.64-1.52,14.56-1.71v-9H42.93v9C45,183.09,47.24,181.92,49.05,183.73Z"/><path id="Trazado_453" data-name="Trazado 453" class="cls-26" d="M74.75,186.3c-2.57.86-5.14-4.28-8.57-2.57-6,2.57-11.13,4.28-17.13,0-1.81-1.81-4.06-.64-6.12.86v16.68H89.34v-16.7C84.38,184.74,80,184.57,74.75,186.3Z"/><path id="Trazado_454" data-name="Trazado 454" class="cls-3" d="M54.93,204.44a2,2,0,0,0-2.71,0,1.83,1.83,0,0,0,0,2.58.6.6,0,0,0,.08.08,3.72,3.72,0,0,0,.08.67c0,.06.67-.24.67-.24a2.1,2.1,0,0,0,.56.08,2,2,0,0,0,1.36-.54,1.82,1.82,0,0,0,.07-2.56l-.07-.07Z"/><path id="Trazado_455" data-name="Trazado 455" class="cls-7" d="M46.12,204.91a1.29,1.29,0,0,1,.19-.54,1.15,1.15,0,0,1,1.58-.35,1.13,1.13,0,0,1,.51.81,1.33,1.33,0,0,1-.11.76,3.32,3.32,0,0,1-.64,1,7.64,7.64,0,0,1-1.49,1.29,0,0,0,0,1-.06,0h0a7.52,7.52,0,0,1-1.71-1.62,2.43,2.43,0,0,1-.51-1,1.15,1.15,0,0,1,2.2-.67.85.85,0,0,1,0,.17S46.12,204.89,46.12,204.91Z"/><path id="Trazado_456" data-name="Trazado 456" class="cls-3" d="M58.68,205.67a.34.34,0,0,1,.22-.2l1.4-.54,2.24-.86a.41.41,0,0,1,.22,0,.29.29,0,0,1,.25.33v0c0,.25-.1.5-.15.75-.14.71-.29,1.42-.43,2.12v.15a.31.31,0,0,1-.36.27.28.28,0,0,1-.17-.07l-.31-.25-.37-.3h-.06l-.43.4a.4.4,0,0,1-.33.12.36.36,0,0,1-.27-.25l-.2-.57c-.07-.19-.13-.39-.2-.58l0,0L59,206a.31.31,0,0,1-.18-.09.21.21,0,0,1-.06-.1Z"/><rect id="Rectángulo_27" data-name="Rectángulo 27" class="cls-8" x="43.75" y="210.85" width="44.76" height="1.54"/><rect id="Rectángulo_28" data-name="Rectángulo 28" class="cls-8" x="43.75" y="214.54" width="44.76" height="1.54"/><rect id="Rectángulo_29" data-name="Rectángulo 29" class="cls-8" x="43.75" y="218.22" width="44.76" height="1.54"/><rect id="Rectángulo_30" data-name="Rectángulo 30" class="cls-8" x="43.75" y="221.9" width="17.44" height="1.54"/><path id="Trazado_457" data-name="Trazado 457" class="cls-7" d="M66,158.74a2.61,2.61,0,0,1,.36-1,2.13,2.13,0,0,1,3-.64,2.16,2.16,0,0,1,1,1.5A2.83,2.83,0,0,1,70,160a6.24,6.24,0,0,1-1.2,1.83,16.11,16.11,0,0,1-2.78,2.44s-.09,0-.14,0a14.75,14.75,0,0,1-3.25-3,4.66,4.66,0,0,1-.85-1.71,2.16,2.16,0,0,1,1.3-2.67,2.14,2.14,0,0,1,2.72,1.33,2.34,2.34,0,0,1,.09.38Z"/><path id="Trazado_458" data-name="Trazado 458" class="cls-7" d="M59.77,147.43a2.36,2.36,0,0,1,.36-1,2.14,2.14,0,0,1,3.9.86,2.77,2.77,0,0,1-.2,1.42,6.82,6.82,0,0,1-1.2,1.8,16.11,16.11,0,0,1-2.79,2.43.09.09,0,0,1-.13,0,14.77,14.77,0,0,1-3.25-3,4.8,4.8,0,0,1-.86-1.72A2.14,2.14,0,0,1,59.72,147a2.21,2.21,0,0,1,.05.25Z"/><path id="Trazado_459" data-name="Trazado 459" class="cls-7" d="M70.26,139.88a2.55,2.55,0,0,1,.36-1,2.14,2.14,0,0,1,3.91.85,2.72,2.72,0,0,1-.21,1.41,6.42,6.42,0,0,1-1.2,1.84,16.42,16.42,0,0,1-2.77,2.43.12.12,0,0,1-.14,0,14.8,14.8,0,0,1-3.25-3,4.76,4.76,0,0,1-.9-1.71A2.19,2.19,0,0,1,67.41,138a2.14,2.14,0,0,1,2.71,1.34,1.64,1.64,0,0,1,.1.38Z"/><path id="Trazado_460" data-name="Trazado 460" class="cls-7" d="M60.73,131a2.55,2.55,0,0,1,.36-1,2.14,2.14,0,0,1,3.91.85,2.75,2.75,0,0,1-.17,1.42,6.3,6.3,0,0,1-1.2,1.83,15.74,15.74,0,0,1-2.78,2.44.1.1,0,0,1-.14,0,14.48,14.48,0,0,1-3.24-3,4.8,4.8,0,0,1-.86-1.72,2.17,2.17,0,0,1,1.29-2.67,2.14,2.14,0,0,1,2.71,1.34,1.18,1.18,0,0,1,.09.37Z"/><path id="Trazado_461" data-name="Trazado 461" class="cls-7" d="M54.56,119.72a2.45,2.45,0,0,1,.36-1,2.14,2.14,0,0,1,3.9.85,2.79,2.79,0,0,1-.2,1.43,6.74,6.74,0,0,1-1.2,1.83,16.14,16.14,0,0,1-2.86,2.43.1.1,0,0,1-.14,0,14.8,14.8,0,0,1-3.21-3,4.84,4.84,0,0,1-.86-1.71,2.17,2.17,0,0,1,1.37-2.64,2.13,2.13,0,0,1,2.71,1.33,1.31,1.31,0,0,1,.09.38Z"/><path id="Trazado_462" data-name="Trazado 462" class="cls-7" d="M65,112.17a2.36,2.36,0,0,1,.36-1,2.14,2.14,0,0,1,3.9.86,2.62,2.62,0,0,1-.21,1.41,6.21,6.21,0,0,1-1.19,1.83,16.16,16.16,0,0,1-2.78,2.44.12.12,0,0,1-.14,0,15,15,0,0,1-3.25-3,4.66,4.66,0,0,1-.85-1.71,2.17,2.17,0,0,1,1.32-2.66,2.15,2.15,0,0,1,2.72,1.34A2.34,2.34,0,0,1,65,112Z"/><g id="Grupo_5" data-name="Grupo 5" class="cls-5"><rect id="Rectángulo_31" data-name="Rectángulo 31" class="cls-6" x="55.84" y="272.95" width="34.18" height="39.88"/><path id="Trazado_463" data-name="Trazado 463" class="cls-3" d="M57.75,275.1v16.83H88.1V275.1Z"/><path id="Trazado_464" data-name="Trazado 464" class="cls-3" d="M65.61,294a1.26,1.26,0,0,0-.86-.36,1.22,1.22,0,0,0-.86.36,1.18,1.18,0,0,0-.36.85,1.21,1.21,0,0,0,.39.86,2.2,2.2,0,0,0,0,.44l.44-.17a1.15,1.15,0,0,0,.37.06,1.29,1.29,0,0,0,.85-.36,1.19,1.19,0,0,0,.37-.85,1.17,1.17,0,0,0-.37-.86Z"/><path id="Trazado_465" data-name="Trazado 465" class="cls-7" d="M59.84,294.36A.92.92,0,0,1,60,294a.74.74,0,0,1,.79-.32.76.76,0,0,1,.57.62.94.94,0,0,1-.07.5,2,2,0,0,1-.42.64,5.64,5.64,0,0,1-1,.86h0a5.08,5.08,0,0,1-1.14-1.08,1.72,1.72,0,0,1-.31-.62.75.75,0,1,1,1.43-.47.4.4,0,0,1,0,.15Z"/><path id="Trazado_466" data-name="Trazado 466" class="cls-3" d="M68.06,294.82a.2.2,0,0,1,.14-.14l.92-.32,1.46-.56h.15a.2.2,0,0,1,.16.22v0a2.1,2.1,0,0,1-.09.5l-.29,1.38v.1a.2.2,0,0,1-.24.18.22.22,0,0,1-.11-.05L70,296l-.24-.2h0l-.29.26a.27.27,0,0,1-.26,0,.22.22,0,0,1-.17-.16l-.14-.38-.13-.38-.46-.12L68.1,295s0-.05,0-.08Z"/><rect id="Rectángulo_32" data-name="Rectángulo 32" class="cls-8" x="58.29" y="298.21" width="29.27" height="1.01"/><rect id="Rectángulo_33" data-name="Rectángulo 33" class="cls-8" x="58.29" y="300.61" width="29.27" height="1.01"/><rect id="Rectángulo_34" data-name="Rectángulo 34" class="cls-8" x="58.29" y="303.02" width="29.27" height="1.01"/><rect id="Rectángulo_35" data-name="Rectángulo 35" class="cls-8" x="58.29" y="305.43" width="11.42" height="1.01"/></g><g class="cls-27"><g id="Grupo_6" data-name="Grupo 6"><g id="_7" data-name=" 7"><path id="Trazado_467" data-name="Trazado 467" class="cls-28" d="M78.29,193.31a15.63,15.63,0,1,1-15.66-15.6h0A15.63,15.63,0,0,1,78.29,193.31Z"/><path id="Trazado_468" data-name="Trazado 468" class="cls-29" d="M76.43,193.31a13.77,13.77,0,1,1-13.84-13.7h.07A13.76,13.76,0,0,1,76.43,193.31Z"/><g id="_10" data-name=" 10"><path id="Trazado_469" data-name="Trazado 469" class="cls-30" d="M82.17,190.82l-28,9.08,0-.2c.09-.35.18-.69.28-1v-.22l.16-.49a18.91,18.91,0,0,1,2.86-5.42,12.71,12.71,0,0,1,3.52-3.22c1.39-.85,1.49-1.4,2.15-3.13.22-.6,2.74-2.39,2.76-.74a2.51,2.51,0,0,1,1.79-2.57,2.76,2.76,0,0,1,2.79,1.63,2.25,2.25,0,0,1,2.57-1.18,3.3,3.3,0,0,1,2.2,2.39c2-1.89,3.43,1,3.57,3a4.08,4.08,0,0,1,3.22,2,.3.3,0,0,1,0,.08Z"/><path id="Trazado_470" data-name="Trazado 470" class="cls-31" d="M72.28,204.62c1,1.36-2.13,1.39-2.67,1-1.54-1-2-1.4-3.58-1.27a12.87,12.87,0,0,1-4.74-.53,19.08,19.08,0,0,1-5.83-2.95c-.42-.31-.86-.64-1.25-1l28-9.09v.07a4.11,4.11,0,0,1-1.4,3.48c1.06,1.71,1.58,4.92-1.11,4.55a3.32,3.32,0,0,1-.38,3.22,2.28,2.28,0,0,1-2.76.55,2.71,2.71,0,0,1-1.3,2.94A2.5,2.5,0,0,1,72.28,204.62Z"/><path id="Trazado_471" data-name="Trazado 471" class="cls-32" d="M56.12,197.79l-1.54.76a.17.17,0,0,1,0-.1Z"/><path id="Trazado_472" data-name="Trazado 472" class="cls-33" d="M80.17,191.47l-26,8.43,0-.2c.09-.35.18-.69.28-1a11,11,0,0,0,5.4-3.16A36.23,36.23,0,0,0,64.22,190l-1,3.64a33,33,0,0,0,6.85-7.77l-.7,5.6,4.67-4.4c-.27,1.25-.54,2.49-.8,3.74l4.2-.86c-.44.51-.86,1-1.32,1.53a5.68,5.68,0,0,1,4.06,0Z"/><path id="Trazado_473" data-name="Trazado 473" class="cls-34" d="M80.17,191.48l-26,8.42.16.13a9.42,9.42,0,0,0,.86.67,11,11,0,0,1,6.18-.63,36.93,36.93,0,0,1,6.69,2l-3-2.33A33,33,0,0,1,75.22,202l-3.84-4.12,6.35.85-2.84-2.57,3.92-1.71-2-.46a5.78,5.78,0,0,0,3.32-2.49Z"/></g><g id="_10-2" data-name=" 10-2"><path id="Trazado_474" data-name="Trazado 474" class="cls-30" d="M66.86,173.05l-7.23,25-.13-.13-.61-.71-.07-.09-.06-.07-.28-.36a16.79,16.79,0,0,1-2.57-4.79,11.4,11.4,0,0,1-.61-4.18c.07-1.44-.28-1.79-1.23-3.13-.32-.45-.38-3.19.86-2.39a2.21,2.21,0,0,1-1-2.57,2.43,2.43,0,0,1,2.57-1.23,2,2,0,0,1,.39-2.45,3,3,0,0,1,2.86-.43c-.42-2.37,2.45-2,4-1.12a3.67,3.67,0,0,1,3-1.34Z"/><path id="Trazado_475" data-name="Trazado 475" class="cls-31" d="M72.05,187.15c1.47,0,0,2.25-.56,2.47-1.52.62-2,.73-2.72,2A11.15,11.15,0,0,1,66,194.82,17,17,0,0,1,61,197.59c-.44.16-.9.3-1.35.42l7.23-25h.06a3.65,3.65,0,0,1,1.85,2.75c1.76.07,4.39,1.29,2.77,3.07a3,3,0,0,1,2.18,1.89,2,2,0,0,1-1,2.28,2.42,2.42,0,0,1,1.51,2.48A2.22,2.22,0,0,1,72.05,187.15Z"/><path id="Trazado_476" data-name="Trazado 476" class="cls-32" d="M59,195.6l-.18,1.51-.05-.07Z"/><path id="Trazado_477" data-name="Trazado 477" class="cls-33" d="M66.34,174.84,59.63,198l-.13-.13c-.21-.23-.41-.47-.61-.71a9.66,9.66,0,0,0,.37-5.53,32,32,0,0,0-1.92-5.87l2.15,2.57a28.9,28.9,0,0,0-2.3-8.86L61,182.8l-.9-5.6,2.34,2.4,1.43-3.51.47,1.71A5.09,5.09,0,0,1,66.34,174.84Z"/><path id="Trazado_478" data-name="Trazado 478" class="cls-34" d="M66.34,174.84,59.63,198h.17c.31-.08.6-.18.9-.28a9.57,9.57,0,0,1,2.64-4.87A32,32,0,0,1,68.1,189l-3.19,1a28.8,28.8,0,0,1,6.68-6.26l-4.93.77,3.75-4.28-3.28.85.66-3.74-1.31,1.2A5.11,5.11,0,0,0,66.34,174.84Z"/></g><path id="Trazado_479" data-name="Trazado 479" class="cls-35" d="M64.12,181.63c-1.41-1-3.21-.93-4,.2s-.31,2.85,1.1,3.86,3.21.92,4-.2S65.54,182.64,64.12,181.63Z"/><path id="Trazado_480" data-name="Trazado 480" class="cls-36" d="M61.32,182.69a3.4,3.4,0,0,1,1.5-1.18,1.25,1.25,0,0,0-.44-.29,1.9,1.9,0,0,0-2.12,2.95,1.61,1.61,0,0,0,.42.32,3.41,3.41,0,0,1,.64-1.8Z"/><path id="Trazado_481" data-name="Trazado 481" class="cls-37" d="M65.08,184.21a.85.85,0,0,0-1.14.35.76.76,0,0,0,.94,1.2.84.84,0,0,0,.25-.34.85.85,0,0,0,0-1.21Z"/><path id="Trazado_482" data-name="Trazado 482" class="cls-35" d="M70.48,196.78c-1.71.15-3,1.38-2.93,2.76s1.62,2.37,3.35,2.22,3-1.38,2.93-2.76S72.21,196.63,70.48,196.78Z"/><path id="Trazado_483" data-name="Trazado 483" class="cls-36" d="M69,199.41a3.26,3.26,0,0,1,.38-1.86,1.35,1.35,0,0,0-.53,0,1.9,1.9,0,0,0,.31,3.62,1.19,1.19,0,0,0,.53,0A3.39,3.39,0,0,1,69,199.41Z"/><path id="Trazado_484" data-name="Trazado 484" class="cls-37" d="M72.89,198.13a1,1,0,0,0-1.1.86,1,1,0,1,0,1.95,0,.85.85,0,0,0-.85-.86Z"/><path id="Trazado_485" data-name="Trazado 485" class="cls-38" d="M61.28,199.6a4.8,4.8,0,0,1-3.14-1.1,3.5,3.5,0,0,1-1-2.08,2.59,2.59,0,0,1,.18-1.17,3.17,3.17,0,0,0,.12-.44,1.68,1.68,0,0,0-.49.17,3.21,3.21,0,0,1-1.18.3,1,1,0,0,1-.34,0A3.2,3.2,0,0,1,53.16,192a2.65,2.65,0,0,1,2.26-2.46,1.89,1.89,0,0,1,1.16.37l.12.08a.79.79,0,0,0-.08-.26,2.64,2.64,0,0,1-.12-.4,3.14,3.14,0,0,1,.4-2.63,4.19,4.19,0,0,1,2.16-1.4,4.51,4.51,0,0,1,3.66.37,3.32,3.32,0,0,1,.47.37,3.67,3.67,0,0,1,1.06,3,3.32,3.32,0,0,1-.16.62,1.48,1.48,0,0,0,.42,0h.33a1.79,1.79,0,0,1,1,.25A4.31,4.31,0,0,1,67.53,194a2.41,2.41,0,0,1-2,2h-.27a1.71,1.71,0,0,1-.85-.27,1,1,0,0,0-.28-.13h-.16a1.85,1.85,0,0,1,.46.58,2.28,2.28,0,0,1-.73,2.69,3.8,3.8,0,0,1-2.38.69Zm-3.77-6a1.08,1.08,0,0,1,1.1,1.06,2.14,2.14,0,0,1-.17,1,1.72,1.72,0,0,0-.12.63,2.19,2.19,0,0,0,.65,1.31,3.57,3.57,0,0,0,2.3.77,2.7,2.7,0,0,0,1.59-.44,1,1,0,0,0,.35-1.21,1.53,1.53,0,0,0-.18-.18,1.46,1.46,0,0,1-.58-1.17,1.15,1.15,0,0,1,1.24-1,3.7,3.7,0,0,1,.57.07,1.92,1.92,0,0,1,.66.27c.19.1.24.12.33.11a1.18,1.18,0,0,0,1-1,3.12,3.12,0,0,0-1.12-2.86.7.7,0,0,0-.32,0h-.6a1.57,1.57,0,0,1-.85-.2,1.07,1.07,0,0,1-.51-1.42l0,0a1.64,1.64,0,0,0,.1-.38,2.47,2.47,0,0,0-.7-2,1.58,1.58,0,0,0-.29-.22,3.28,3.28,0,0,0-2.62-.2,2.94,2.94,0,0,0-1.51,1A1.9,1.9,0,0,0,57.7,189a1.25,1.25,0,0,0,.09.25,1.87,1.87,0,0,1,.06,1.43,1.16,1.16,0,0,1-.72.52h-.29a1.69,1.69,0,0,1-.93-.35,1,1,0,0,0-.4-.18A1.38,1.38,0,0,0,54.36,192a2,2,0,0,0,1.33,2h0a3.06,3.06,0,0,0,.73-.21,3,3,0,0,1,1.09-.23Z"/><path id="Trazado_486" data-name="Trazado 486" class="cls-39" d="M61.18,198.75a4.2,4.2,0,0,1-2.78-1,3,3,0,0,1-.94-1.82,2.31,2.31,0,0,1,.17-1c0-.13.07-.25.1-.38a3.12,3.12,0,0,0-.43.15,3,3,0,0,1-1,.26.76.76,0,0,1-.3,0A2.82,2.82,0,0,1,54,192a2.35,2.35,0,0,1,2-2.15,1.73,1.73,0,0,1,1,.33l.1.07a.57.57,0,0,0-.07-.22c0-.12-.08-.24-.11-.36a2.82,2.82,0,0,1,.36-2.38,3.59,3.59,0,0,1,1.9-1.24,4,4,0,0,1,3.24.33,2.51,2.51,0,0,1,.41.32,3.23,3.23,0,0,1,1,2.66,2.61,2.61,0,0,1-.14.55h.68a1.62,1.62,0,0,1,.86.22,3.84,3.84,0,0,1,1.48,3.66,2.15,2.15,0,0,1-1.83,1.77h-.24a1.62,1.62,0,0,1-.78-.24.64.64,0,0,0-.25-.12h-.13a1.72,1.72,0,0,1,.41.52,2,2,0,0,1-.64,2.37,3.42,3.42,0,0,1-2,.64Zm-3.33-5.35a1,1,0,0,1,1,.94h0a2,2,0,0,1-.15.91,1.56,1.56,0,0,0-.12.56,2,2,0,0,0,.59,1.16,3.19,3.19,0,0,0,2,.67,2.23,2.23,0,0,0,1.39-.39.86.86,0,0,0,.3-1.06l-.15-.16a1.23,1.23,0,0,1-.51-1,1,1,0,0,1,1.08-.85,2.94,2.94,0,0,1,.51,0,2,2,0,0,1,.59.24c.16.09.21.11.28.09a1,1,0,0,0,.93-.85,2.71,2.71,0,0,0-1-2.52.49.49,0,0,0-.27,0h-.54a1.63,1.63,0,0,1-.75-.18,1,1,0,0,1-.45-1.26l0,0a1.16,1.16,0,0,0,.08-.32,2.08,2.08,0,0,0-.61-1.71,1.16,1.16,0,0,0-.25-.2,2.89,2.89,0,0,0-2.32-.2,2.56,2.56,0,0,0-1.34.85A1.66,1.66,0,0,0,58,189.5a.33.33,0,0,0,.07.23,1.54,1.54,0,0,1,.06,1.26.94.94,0,0,1-.64.46.49.49,0,0,1-.24,0h0a1.65,1.65,0,0,1-.86-.3.88.88,0,0,0-.35-.17,1.23,1.23,0,0,0-1,1.14,1.7,1.7,0,0,0,1.24,1.71h0a2.34,2.34,0,0,0,.64-.18A2.85,2.85,0,0,1,57.85,193.4Z"/><path id="Trazado_487" data-name="Trazado 487" class="cls-40" d="M58,185.67a4.46,4.46,0,0,1-2.9,4.46c-3,.73-9-2-6.28-5.7,1.5-2.05,4-5.07,6.56-2.75C56.67,182.83,57.88,184,58,185.67Z"/><path id="Trazado_488" data-name="Trazado 488" class="cls-41" d="M57.28,185.65a3.18,3.18,0,0,1-.07,1,3.49,3.49,0,0,1-2.38,2.77c-2.57.61-7.61-1.72-5.34-4.83,1.27-1.72,3.42-4.29,5.57-2.35A5.71,5.71,0,0,1,57.28,185.65Z"/><path id="Trazado_489" data-name="Trazado 489" class="cls-34" d="M53.45,184.74c-.06-.61-.29-1.23-.94-1.31a1.37,1.37,0,0,0-.69.15,2.48,2.48,0,0,0-1.54,2.1.83.83,0,0,0,.14.5.64.64,0,0,0,.39.2,2.29,2.29,0,0,0,1-.2,5.32,5.32,0,0,1,1.12-.24.66.66,0,0,0,.43-.15.52.52,0,0,0,.09-.34,4.09,4.09,0,0,0,0-.7Z"/><path id="Trazado_490" data-name="Trazado 490" class="cls-34" d="M54.21,183.25h0a.86.86,0,0,0-.57.94,5.49,5.49,0,0,0,.06,1,.65.65,0,0,0,.11.32.37.37,0,0,0,.14.07c.56.28,1.48.86,1.92.12a1.66,1.66,0,0,0,.06-1.59,1.76,1.76,0,0,0-1.72-.85Z"/><path id="Trazado_491" data-name="Trazado 491" class="cls-34" d="M55,186.77c-.2-.27-.63-.25-.86-.48-.56-.51-1-.18-1.62.19-.33.21-.86.21-1,.68A.84.84,0,0,0,52,188a2.29,2.29,0,0,0,1.42.35,1.66,1.66,0,0,0,1.71-1.06.59.59,0,0,0,0-.53Z"/><path id="Trazado_492" data-name="Trazado 492" class="cls-40" d="M73.85,189.33a3.72,3.72,0,0,1-.08,1.2,4.11,4.11,0,0,1-2.8,3.26c-3,.72-9-2-6.29-5.7,1.5-2.07,4-5.07,6.56-2.76C72.54,186.46,73.72,187.7,73.85,189.33Z"/><path id="Trazado_493" data-name="Trazado 493" class="cls-41" d="M73.12,189.31a3.2,3.2,0,0,1-.08,1,3.48,3.48,0,0,1-2.38,2.76c-2.57.62-7.61-1.71-5.34-4.84,1.28-1.71,3.43-4.28,5.58-2.33C72,186.89,73,187.93,73.12,189.31Z"/><path id="Trazado_494" data-name="Trazado 494" class="cls-34" d="M69.29,188.37c-.07-.61-.29-1.23-1-1.3a1.26,1.26,0,0,0-.69.14,2.51,2.51,0,0,0-1.52,2.13.77.77,0,0,0,.14.5.74.74,0,0,0,.38.2,2.27,2.27,0,0,0,1-.2,5.55,5.55,0,0,1,1.13-.24.66.66,0,0,0,.42-.15.52.52,0,0,0,.1-.34,4.58,4.58,0,0,0,0-.74Z"/><path id="Trazado_495" data-name="Trazado 495" class="cls-34" d="M70.05,186.91h0a.85.85,0,0,0-.57.93,5.54,5.54,0,0,0,.06,1,.41.41,0,0,0,.11.31.35.35,0,0,0,.13.08c.56.27,1.49.86,1.92.12a1.69,1.69,0,0,0,.07-1.59,1.77,1.77,0,0,0-1.72-.85Z"/><path id="Trazado_496" data-name="Trazado 496" class="cls-34" d="M70.83,190.43c-.21-.28-.63-.25-.86-.48-.56-.52-1-.18-1.62.19-.33.2-.85.21-1,.67a.91.91,0,0,0,.38.86,2.22,2.22,0,0,0,1.42.34,1.64,1.64,0,0,0,1.71-1A.62.62,0,0,0,70.83,190.43Z"/><path id="Trazado_497" data-name="Trazado 497" class="cls-39" d="M65.09,197.09a4.55,4.55,0,1,1-3.48,0A4.56,4.56,0,0,1,65.09,197.09Z"/><path id="Trazado_498" data-name="Trazado 498" class="cls-42" d="M65.88,197.41c1.89.78,2.65,3.3,1.71,5.63s-3.27,3.57-5.14,2.79-2.64-3.3-1.71-5.62S64,196.63,65.88,197.41Z"/><path id="Trazado_499" data-name="Trazado 499" class="cls-39" d="M65.69,198.26c1.55.64,2.16,2.75,1.36,4.7s-2.72,3-4.29,2.37-2.21-2.75-1.35-4.7S64.09,197.59,65.69,198.26Z"/><path id="Trazado_500" data-name="Trazado 500" class="cls-42" d="M62.06,203.35c.22,0,.59.21.59.21s-.23.39-.45.44a.34.34,0,0,1-.44-.18.34.34,0,0,1,.18-.44l.12,0Z"/><path id="Trazado_501" data-name="Trazado 501" class="cls-42" d="M61.61,202.45c.21-.06.59.2.59.2s-.22.39-.43.44a.38.38,0,0,1-.48-.21h0C61.24,202.73,61.41,202.51,61.61,202.45Z"/><path id="Trazado_502" data-name="Trazado 502" class="cls-42" d="M61.87,201.37c.2.1.33.54.33.54s-.42.16-.62.06a.39.39,0,0,1-.23-.48.39.39,0,0,1,.52-.12Z"/><path id="Trazado_503" data-name="Trazado 503" class="cls-42" d="M62.21,200.26c.2.11.31.55.31.55s-.43.15-.63,0a.32.32,0,0,1-.23-.4.33.33,0,0,1,.4-.24A.46.46,0,0,1,62.21,200.26Z"/><path id="Trazado_504" data-name="Trazado 504" class="cls-42" d="M62.76,199.51c.17.16.16.61.16.61a1.44,1.44,0,0,1-.62-.13.38.38,0,0,1-.07-.52.39.39,0,0,1,.53,0Z"/><path id="Trazado_505" data-name="Trazado 505" class="cls-42" d="M63.89,198.81a1.12,1.12,0,0,1,0,.63s-.43-.1-.54-.3a.34.34,0,1,1,.5-.47.39.39,0,0,1,.08.14Z"/><path id="Trazado_506" data-name="Trazado 506" class="cls-42" d="M66.4,200.22c-.23,0-.58-.23-.58-.23s.24-.38.46-.42a.37.37,0,0,1,.46.26.36.36,0,0,1-.34.39Z"/><path id="Trazado_507" data-name="Trazado 507" class="cls-42" d="M66.81,201.14c-.22.05-.59-.21-.59-.21s.23-.39.46-.44a.34.34,0,1,1,.3.62A.32.32,0,0,1,66.81,201.14Z"/><path id="Trazado_508" data-name="Trazado 508" class="cls-42" d="M66.55,202.21c-.21-.12-.32-.55-.32-.55s.43-.15.63,0a.35.35,0,0,1,.2.47h0A.39.39,0,0,1,66.55,202.21Z"/><path id="Trazado_509" data-name="Trazado 509" class="cls-42" d="M66.11,203.3c-.19-.12-.28-.56-.28-.56s.44-.12.62,0a.36.36,0,0,1,.19.48v0a.38.38,0,0,1-.52.07Z"/><path id="Trazado_510" data-name="Trazado 510" class="cls-42" d="M65.53,204c-.15-.16-.13-.62-.13-.62s.46,0,.61.16a.34.34,0,0,1,.11.47.36.36,0,0,1-.48.11.43.43,0,0,1-.11-.12Z"/><path id="Trazado_511" data-name="Trazado 511" class="cls-42" d="M64.37,204.67a1.1,1.1,0,0,1,.06-.62s.43.13.54.33a.35.35,0,0,1-.09.47.35.35,0,0,1-.47-.09A.18.18,0,0,1,64.37,204.67Z"/><path id="Trazado_512" data-name="Trazado 512" class="cls-42" d="M65.79,197.92a3.27,3.27,0,0,1,1.5,1.2,1,1,0,0,0-1-.24c-.58.17-.78.77-1,1.27-.24.69-.5,1.38-.78,2-.44,1.08-1,2.4,0,3.42a3,3,0,0,1-2-.18,2.41,2.41,0,0,1-.8-.48c-.17-.17-.48-.76-.7-.86a1.82,1.82,0,0,0,1.53-.08,1.94,1.94,0,0,0,.5-.73c.62-1.38,1.62-2.8,1-4.36a1.4,1.4,0,0,0-.38-.57.66.66,0,0,0-.63-.16c.4-.12.66-.52,1.08-.58a3.72,3.72,0,0,1,1.37.17Z"/><path id="Trazado_513" data-name="Trazado 513" class="cls-43" d="M63,203.52a9.63,9.63,0,0,1,.26-6.79,4.56,4.56,0,0,0-1.67,8.76l.44.17.34.16a3.2,3.2,0,0,0,1.93.15A8.25,8.25,0,0,1,63,203.52Z"/><path id="Trazado_514" data-name="Trazado 514" class="cls-39" d="M74.45,197.86a3.87,3.87,0,1,1,.63-5.44l0,0A3.87,3.87,0,0,1,74.45,197.86Z"/><path id="Trazado_515" data-name="Trazado 515" class="cls-42" d="M73.88,198.3c-1.38,1.06-3.55.55-4.86-1.14s-1.25-3.92.12-5,3.56-.58,4.86,1.13S75.26,197.23,73.88,198.3Z"/><path id="Trazado_516" data-name="Trazado 516" class="cls-39" d="M73.4,197.77c-1.13.86-2.94.43-4-1s-1.07-3.28.06-4.16,2.94-.43,4,1A3,3,0,0,1,73.4,197.77Z"/><path id="Trazado_517" data-name="Trazado 517" class="cls-42" d="M71.12,193c-.06.18-.4.35-.4.35s-.2-.34-.14-.53a.34.34,0,0,1,.38-.24.32.32,0,0,1,.16.42Z"/><path id="Trazado_518" data-name="Trazado 518" class="cls-42" d="M72,193c0,.18-.4.36-.4.36s-.2-.33-.14-.52a.31.31,0,0,1,.35-.26h0A.33.33,0,0,1,72,193Z"/><path id="Trazado_519" data-name="Trazado 519" class="cls-42" d="M72.66,193.67a1,1,0,0,1-.54,0s.06-.38.22-.49a.3.3,0,0,1,.42,0,.31.31,0,0,1,0,.43Z"/><path id="Trazado_520" data-name="Trazado 520" class="cls-42" d="M73.33,194.39c-.16.1-.53,0-.53,0s.07-.38.24-.47a.31.31,0,0,1,.44.05h0A.34.34,0,0,1,73.33,194.39Z"/><path id="Trazado_521" data-name="Trazado 521" class="cls-42" d="M73.66,195.12c-.19,0-.52-.15-.52-.15s.17-.34.35-.4a.3.3,0,0,1,.4.12.31.31,0,0,1-.13.4l-.1,0Z"/><path id="Trazado_522" data-name="Trazado 522" class="cls-42" d="M73.68,196.25c-.19,0-.44-.3-.44-.3s.26-.28.45-.27A.32.32,0,0,1,74,196a.33.33,0,0,1-.36.29Z"/><path id="Trazado_523" data-name="Trazado 523" class="cls-42" d="M71.58,197.49c.07-.18.42-.33.42-.33s.18.34.11.52a.31.31,0,0,1-.38.23h0A.32.32,0,0,1,71.58,197.49Z"/><path id="Trazado_524" data-name="Trazado 524" class="cls-42" d="M70.74,197.4c.06-.18.41-.34.41-.34a1,1,0,0,1,.12.52.28.28,0,0,1-.33.22.27.27,0,0,1-.23-.33s0-.05,0-.07Z"/><path id="Trazado_525" data-name="Trazado 525" class="cls-42" d="M70.08,196.73a1,1,0,0,1,.54,0s-.07.38-.24.48a.29.29,0,1,1-.3-.48Z"/><path id="Trazado_526" data-name="Trazado 526" class="cls-42" d="M69.44,196a1,1,0,0,1,.53,0s-.09.38-.25.47a.34.34,0,0,1-.45-.09A.32.32,0,0,1,69.44,196Z"/><path id="Trazado_527" data-name="Trazado 527" class="cls-42" d="M69.12,195.24c.19-.05.5.17.5.17s-.18.33-.36.38a.33.33,0,0,1-.42-.2.32.32,0,0,1,.28-.35Z"/><path id="Trazado_528" data-name="Trazado 528" class="cls-42" d="M69.17,194.11c.19,0,.43.31.43.31s-.27.27-.46.26a.35.35,0,0,1-.34-.31.32.32,0,0,1,.37-.26Z"/><path id="Trazado_529" data-name="Trazado 529" class="cls-42" d="M73.55,198a2.83,2.83,0,0,1-1.53.59.92.92,0,0,0,.61-.63,1.5,1.5,0,0,0-.53-1.25c-.41-.46-.81-.94-1.19-1.44-.6-.77-1.36-1.71-2.49-1.47a2.62,2.62,0,0,1,1-1.37,2.17,2.17,0,0,1,.7-.38c.19,0,.76,0,.86-.17a1.56,1.56,0,0,0-.58,1.16,1.6,1.6,0,0,0,.33.68c.76,1,1.38,2.39,2.79,2.57a1.42,1.42,0,0,0,.58,0,.62.62,0,0,0,.38-.41c-.07.35.1.7,0,1a3,3,0,0,1-.71.94Z"/><path id="Trazado_530" data-name="Trazado 530" class="cls-43" d="M70.59,193.62a8,8,0,0,1,4.87,3,3.85,3.85,0,0,0-6-4.67,1.67,1.67,0,0,0-.28.18,2.73,2.73,0,0,0-.88,1.35A7,7,0,0,1,70.59,193.62Z"/><path id="Trazado_531" data-name="Trazado 531" class="cls-38" d="M57.29,204.1a4.8,4.8,0,0,1-3.15-1.1,3.45,3.45,0,0,1-1-2.07,2.66,2.66,0,0,1,.18-1.18,3,3,0,0,0,.12-.43,4.09,4.09,0,0,0-.49.18,3.8,3.8,0,0,1-1.18.3h-.35a3.22,3.22,0,0,1-2.25-3.33,2.62,2.62,0,0,1,2.28-2.41,1.85,1.85,0,0,1,1.16.37l.13.06a.54.54,0,0,0-.09-.24,3.62,3.62,0,0,1,.28-3,4.07,4.07,0,0,1,2.16-1.4,4.47,4.47,0,0,1,3.66.37,2.84,2.84,0,0,1,.47.37,3.62,3.62,0,0,1,1.07,3,2.67,2.67,0,0,1-.15.62h.76a1.81,1.81,0,0,1,1,.25,4.35,4.35,0,0,1,1.71,4.14,2.44,2.44,0,0,1-2,2,1.13,1.13,0,0,1-.26,0,1.65,1.65,0,0,1-.86-.27.77.77,0,0,0-.28-.12h-.17a2.18,2.18,0,0,1,.47.58,2.27,2.27,0,0,1-.73,2.67A3.8,3.8,0,0,1,57.29,204.1Zm-3.78-6a1.09,1.09,0,0,1,1.1,1.06,2.12,2.12,0,0,1-.17,1,1.91,1.91,0,0,0-.13.63,2.3,2.3,0,0,0,.67,1.32,3.62,3.62,0,0,0,2.3.76,2.54,2.54,0,0,0,1.58-.45,1,1,0,0,0,.35-1.2L59,201a1.42,1.42,0,0,1-.57-1.16,1.13,1.13,0,0,1,1.24-1,2.78,2.78,0,0,1,.57.07,1.88,1.88,0,0,1,.66.25c.19.1.24.13.33.12a1.18,1.18,0,0,0,1-1,3.12,3.12,0,0,0-1.12-2.86.59.59,0,0,0-.32-.06h-.6a1.61,1.61,0,0,1-.86-.2,1.07,1.07,0,0,1-.5-1.42l0,0a2.36,2.36,0,0,0,.1-.38,2.44,2.44,0,0,0-.71-2,1.24,1.24,0,0,0-.28-.22,3.26,3.26,0,0,0-2.63-.22,2.86,2.86,0,0,0-1.5.95,1.86,1.86,0,0,0-.19,1.62,2.76,2.76,0,0,0,.08.27,1.76,1.76,0,0,1,.06,1.42,1,1,0,0,1-.71.52.71.71,0,0,1-.29,0h0a1.83,1.83,0,0,1-.93-.33,1.23,1.23,0,0,0-.4-.19,1.38,1.38,0,0,0-1.15,1.29,2,2,0,0,0,1.33,2h0a2.68,2.68,0,0,0,.73-.22,3.09,3.09,0,0,1,1.12-.21Z"/><path id="Trazado_532" data-name="Trazado 532" class="cls-39" d="M57.18,203.24a4.21,4.21,0,0,1-2.78-1,3,3,0,0,1-.94-1.82,2.31,2.31,0,0,1,.17-1c0-.13.07-.25.1-.38a3.12,3.12,0,0,0-.43.15,3,3,0,0,1-1,.26H52a2.85,2.85,0,0,1-2-2.94,2.33,2.33,0,0,1,2-2.16,1.66,1.66,0,0,1,1,.32l.1.07a.57.57,0,0,0-.07-.22c0-.12-.08-.24-.11-.36a2.76,2.76,0,0,1,.36-2.32,3.57,3.57,0,0,1,1.91-1.25,4,4,0,0,1,3.23.33,2.51,2.51,0,0,1,.41.32,3.21,3.21,0,0,1,.95,2.66,2.3,2.3,0,0,1-.14.56h.68a1.53,1.53,0,0,1,.86.21,3.84,3.84,0,0,1,1.48,3.66,2.13,2.13,0,0,1-1.81,1.76h-.24a1.69,1.69,0,0,1-.78-.24.74.74,0,0,0-.24-.11h-.14a1.68,1.68,0,0,1,.41.51,2,2,0,0,1-.64,2.38,3.3,3.3,0,0,1-2.06.62Zm-3.33-5.33a1,1,0,0,1,1,.93,2.07,2.07,0,0,1-.15.92,1.27,1.27,0,0,0-.11.54,1.87,1.87,0,0,0,.58,1.17,3.14,3.14,0,0,0,2,.68,2.3,2.3,0,0,0,1.39-.4.86.86,0,0,0,.3-1.06,1.14,1.14,0,0,0-.15-.16,1.22,1.22,0,0,1-.51-1,1,1,0,0,1,1.08-.86,2.94,2.94,0,0,1,.51,0,2,2,0,0,1,.59.23c.16.1.21.12.28.1a1,1,0,0,0,.93-.85,2.71,2.71,0,0,0-1-2.52.49.49,0,0,0-.27,0h-.54a1.41,1.41,0,0,1-.75-.18.93.93,0,0,1-.45-1.24l0,0a1.23,1.23,0,0,0,.08-.33,2.09,2.09,0,0,0-.6-1.71,1.21,1.21,0,0,0-.26-.2,2.81,2.81,0,0,0-2.32-.2,2.52,2.52,0,0,0-1.34.85A1.73,1.73,0,0,0,54,194a1.55,1.55,0,0,0,.07.23,1.52,1.52,0,0,1,.06,1.25.91.91,0,0,1-.64.47,1,1,0,0,1-.24,0h0a1.56,1.56,0,0,1-.86-.29,1,1,0,0,0-.36-.17,1.23,1.23,0,0,0-1,1.14,1.72,1.72,0,0,0,1.18,1.77h0a2.41,2.41,0,0,0,.65-.18,2.73,2.73,0,0,1,1-.32Z"/><path id="Trazado_533" data-name="Trazado 533" class="cls-44" d="M66.88,176.82A3.09,3.09,0,1,0,70,179.9h0A3.08,3.08,0,0,0,66.88,176.82Zm.22,5.64a2.57,2.57,0,1,1,2.46-2.67v.1a2.51,2.51,0,0,1-2.45,2.57Z"/><path id="Trazado_534" data-name="Trazado 534" class="cls-44" d="M58.75,202.43a3.09,3.09,0,1,0,3.08,3.1h0A3.09,3.09,0,0,0,58.75,202.43Zm.21,5.64a2.57,2.57,0,1,1,2.46-2.67.38.38,0,0,1,0,.1A2.51,2.51,0,0,1,59,208.07Z"/></g></g></g></g></g></g></g></svg>