<svg xmlns="http://www.w3.org/2000/svg" viewBox="0 0 2891.18 3089.36"><defs><style>.cls-1,.cls-4{fill:#eaf1ee;}.cls-2{fill:#59a491;}.cls-3{fill:#fff;}.cls-4{opacity:0.65;}.cls-5,.cls-7{fill:#565656;}.cls-5,.cls-6{opacity:0.75;}.cls-8{fill:#2c3a64;}.cls-9{fill:#913c39;}.cls-10{fill:#903c38;}.cls-11{fill:#007cff;}.cls-12,.cls-16{fill:#2c3b64;}.cls-13{fill:#5aa190;}.cls-14{fill:#1a2e35;}.cls-15{fill:#fdc560;}.cls-16{opacity:0.5;}</style></defs><title>signup</title><g id="Illustration"><path class="cls-1" d="M360.25,2464.94c58.79,61.14,114.41,100.57,158.35,131.72,516.57,366.15,1127.81,259.42,1257.72,233.35,191.83-38.49,562.63-112.89,830.71-424.33,405.59-471.18,342.43-1213.53,27.83-1703.55C2577.32,612.49,2273.34,115,1655.52,35.22,1281.62-13.07,845.78,84.31,530.15,345.54-132.38,893.89-85.22,2001.65,360.25,2464.94Z"/><path class="cls-2" d="M626.29,170.41c-9.28,438-39.39,1949-25,2484.46,1.53,56.73,40.4,102.25,88.89,104.11,239.81,9.18,1119,32.45,1511.24,13.2,81.7-4,146.67-81.43,148.36-177.07,8.16-459.79,26.14-1753-16.6-2345.39-5.13-71-52.75-127.5-113.34-134.59C1958.65,84.56,1075.71,9.85,736.82,35.57,675.7,40.21,627.81,98.78,626.29,170.41Z"/><path class="cls-3" d="M733.3,304.8c-12.91,353.57-53.63,1529.8-40.71,1964.75,1.89,63.57,44.72,115,99,118.69,223.5,15.3,986,49,1313.84,18.33,59-5.53,105.34-61.38,108.53-130.56,16.61-360.71,64.31-1455.94,51.92-1886-2-68.61-47.4-124.64-105.85-130.78-241.79-25.4-1052-85.83-1330.62-68.05C777.12,194.51,735.53,243.59,733.3,304.8Z"/><path class="cls-3" d="M1332.81,122.46h0c0,13.45,9,24.53,20.43,25.23,56.64,3.47,216.21,13.29,287.52,18.13,14.06,1,25.1-13.83,22.43-30l-.45-2.76c-1.82-11-9.65-19.35-19.22-20.37-48.2-5.17-193.66-19.5-290-15.47C1341.92,97.69,1332.81,108.91,1332.81,122.46Z"/><circle class="cls-2" cx="1444.27" cy="711.86" r="334.5"/><path class="cls-3" d="M1546.68,585.46c0,56.64-45.91,117.79-102.55,117.79s-102.56-61.15-102.56-117.79,45.92-96.82,102.56-96.82S1546.68,528.82,1546.68,585.46Z"/><path class="cls-3" d="M1316.85,921.32h250.36a60.61,60.61,0,0,0,57.72-42.14l13.47-42.1c9.86-30.83-6.17-64.21-36.57-75.33-101.89-37.25-207.24-32.47-315.17,3.44-30.23,10.06-47,42.4-38.67,73.15l10.38,38.24A60.6,60.6,0,0,0,1316.85,921.32Z"/><rect class="cls-4" x="858.27" y="1390.68" width="1234.32" height="189.9" rx="6.75"/><rect class="cls-4" x="851.61" y="1700.51" width="1234.32" height="189.9" rx="6.75"/><rect class="cls-4" x="1051.78" y="2017.84" width="797.38" height="242.1" rx="8.33"/><rect class="cls-5" x="912.95" y="1433.69" width="735.19" height="105.5" rx="12"/><g class="cls-6"><circle class="cls-7" cx="938.49" cy="1790.17" r="43.31" transform="translate(-613.63 495.41) rotate(-22.5)"/><circle class="cls-7" cx="1057.32" cy="1792.39" r="43.31"/><circle class="cls-7" cx="1171.7" cy="1797.94" r="43.31" transform="translate(-847.35 2525.21) rotate(-76.72)"/><circle class="cls-7" cx="1290.54" cy="1800.17" r="43.31"/><circle class="cls-7" cx="1409.36" cy="1799.05" r="43.31"/><circle class="cls-7" cx="1528.2" cy="1801.27" r="43.31"/></g><path class="cls-8" d="M516.4,257.65C516.4,115.33,395.85,0,251.19,0,110.8,0,0,109.3,0,244.08S110.8,494,251.19,501.36C395.85,509,516.4,400,516.4,257.65Z"/><path class="cls-3" d="M337.11,241.51h23.77V146.79A73.74,73.74,0,0,0,296.1,73.66l-48.6-5.9A73.66,73.66,0,0,0,165,140.88v82.69h23.77V140.88a49.89,49.89,0,0,1,55.91-49.53l48.6,5.91a49.94,49.94,0,0,1,43.88,49.53Z"/><path class="cls-3" d="M367.9,220.24,159.55,208.7A14.77,14.77,0,0,0,144,223.44V388.5a14.76,14.76,0,0,0,14.77,14.76H362.08A14.76,14.76,0,0,0,376.84,389l5-153.51A14.76,14.76,0,0,0,367.9,220.24Z"/><path class="cls-8" d="M229,356l12.61-36.26a12.15,12.15,0,0,0-2.76-12.51,34.33,34.33,0,1,1,46.05,2.56,12.25,12.25,0,0,0-4,13.52L292.24,356a12.23,12.23,0,0,1-11.55,16.25H240.5A12.23,12.23,0,0,1,229,356Z"/><path class="cls-8" d="M1894.77,2360.37a5.18,5.18,0,0,0,5.24,3.18l63.26-6.32a281.66,281.66,0,0,0,65.37,64.3l-1.83,66.66a5.46,5.46,0,0,0,3.37,5.28l71.3,28.08a5.08,5.08,0,0,0,5.86-1.64l40.56-51.41a263.51,263.51,0,0,0,89.61-3.25l43.61,48.41a5,5,0,0,0,6,1.22l69.44-33.14a5.55,5.55,0,0,0,3-5.51l-5.87-66.43a286.58,286.58,0,0,0,61.38-68.8l63.46,1.76a5.23,5.23,0,0,0,5-3.56l26.91-74.95a5.64,5.64,0,0,0-1.55-6.15l-48.85-42.47a304.84,304.84,0,0,0-2.88-94.12l46.2-45.92a5.68,5.68,0,0,0,1.17-6.25l-31.38-72.85a5.19,5.19,0,0,0-5.24-3.19l-63.26,6.32a281.86,281.86,0,0,0-65.37-64.3l1.83-66.66a5.46,5.46,0,0,0-3.37-5.28l-71.3-28.08a5.08,5.08,0,0,0-5.86,1.64l-40.56,51.41a263.76,263.76,0,0,0-89.61,3.25l-43.61-48.41a5,5,0,0,0-5.95-1.22l-69.44,33.14a5.55,5.55,0,0,0-3,5.51l5.87,66.43a286.44,286.44,0,0,0-61.38,68.81l-63.46-1.77a5.26,5.26,0,0,0-5,3.56l-26.9,74.95a5.64,5.64,0,0,0,1.55,6.15l48.84,42.48a304.78,304.78,0,0,0,2.89,94.11l-46.2,45.92a5.71,5.71,0,0,0-1.18,6.25Z"/><path class="cls-3" d="M2121.11,2132.62c24.13-36.47,72-45.59,106.63-20.33a80.12,80.12,0,0,1,31.64,51.76,83.23,83.23,0,0,1-12.54,60.18c-24.13,36.47-72,45.59-106.63,20.33-31.54-23-41.48-66.61-24.84-101.77A82,82,0,0,1,2121.11,2132.62Z"/><path class="cls-8" d="M1516.31,2680.54a3.46,3.46,0,0,0,3.5,2.13l42.33-4.23a188.67,188.67,0,0,0,43.74,43l-1.22,44.61a3.65,3.65,0,0,0,2.26,3.53l47.71,18.79a3.38,3.38,0,0,0,3.92-1.09l27.14-34.4a176.37,176.37,0,0,0,60-2.18l29.19,32.4a3.36,3.36,0,0,0,4,.81l46.47-22.17a3.71,3.71,0,0,0,2-3.69l-3.93-44.45a191.85,191.85,0,0,0,41.07-46l42.47,1.18a3.52,3.52,0,0,0,3.37-2.38l18-50.16a3.8,3.8,0,0,0-1-4.11l-32.69-28.43a203.8,203.8,0,0,0-1.93-63l30.92-30.72a3.8,3.8,0,0,0,.78-4.18l-21-48.75a3.46,3.46,0,0,0-3.51-2.14l-42.33,4.23a188.28,188.28,0,0,0-43.74-43l1.23-44.61a3.68,3.68,0,0,0-2.26-3.53L1765,2329.19a3.39,3.39,0,0,0-3.92,1.1L1734,2364.68a176.67,176.67,0,0,0-60,2.18l-29.18-32.39a3.36,3.36,0,0,0-4-.82l-46.46,22.18a3.7,3.7,0,0,0-2,3.68l3.92,44.45a191.92,191.92,0,0,0-41.07,46.05l-42.47-1.18a3.5,3.5,0,0,0-3.36,2.38l-18,50.15a3.8,3.8,0,0,0,1,4.12l32.68,28.42a204.42,204.42,0,0,0,1.93,63l-30.91,30.72a3.82,3.82,0,0,0-.79,4.18Z"/><path class="cls-3" d="M1667,2527.59a51.83,51.83,0,0,1,33.63-22.72,49.77,49.77,0,0,1,39,8.87c23.61,17.2,29.43,51.35,13,76.26s-49,31.05-72.63,13.84a54.57,54.57,0,0,1-21.55-35.26,56.85,56.85,0,0,1,4.59-34A57.46,57.46,0,0,1,1667,2527.59Z"/><path class="cls-9" d="M432.58,1245.25c-1.92,2.85-2.9,4.42-4.17,6.48l-3.44,5.75c-2.24,3.81-4.19,7.61-6.16,11.42-3.84,7.6-7.48,15.22-10.74,22.92a422.62,422.62,0,0,0-16.67,46.91,491.11,491.11,0,0,0-18.25,96.44l-.6,6.08c-.1.86-.18,2.24-.24,3.67l-.17,4.14a97.51,97.51,0,0,0,.93,16,128.18,128.18,0,0,0,7.63,28.65c6.91,17.54,16.42,32.45,26.61,46,20.87,27,44.56,48.63,71.62,67.79l21.19-24.82c-19-22-37.44-46.36-51.08-70.7a164.24,164.24,0,0,1-15.6-36.31,71.69,71.69,0,0,1-2.52-16.5,38.77,38.77,0,0,1,.25-7.15l.24-1.65a20.7,20.7,0,0,1,.31-2.09l1-5.42a601.5,601.5,0,0,1,20.91-84.65c4.42-13.74,9.89-27,15.44-40.07,2.75-6.55,5.78-12.89,8.89-19.09l4.77-9,2.37-4.28,2-3.36Z"/><path class="cls-10" d="M504.4,1608l-27.86,58.82-22.09-49.74S474,1574,500.53,1577.93Z"/><polygon class="cls-10" points="456.58 1669.73 434.46 1633.46 454.45 1617.08 476.54 1666.82 456.58 1669.73"/><path class="cls-11" d="M594.09,3023.67c2.16-2,3-4.7,2.53-8.11a5.2,5.2,0,0,0-3-4.29c-7.5-3.4-27.07,9.24-29.28,10.69a1.53,1.53,0,0,0,.49,2.76,78.06,78.06,0,0,0,17,2.31C586.77,3027,591.35,3026.17,594.09,3023.67Zm-1.76-9.62a2.16,2.16,0,0,1,1.27,1.94c.34,2.38-.17,4.16-1.56,5.42-3.27,3-11.7,3.37-22.92,1.13C577.09,3017.71,588.37,3012.23,592.33,3014.05Z"/><path class="cls-11" d="M565.9,3024.56c6.15-3.48,17.87-17.39,16.42-24.65-.28-1.39-1.32-3.8-5.14-4.26a7.92,7.92,0,0,0-6.46,2c-7,6.2-7.1,24.75-7.1,25.54a1.53,1.53,0,0,0,.76,1.32,1.51,1.51,0,0,0,.77.21A1.53,1.53,0,0,0,565.9,3024.56Zm10.91-25.88c2,.24,2.37,1.1,2.51,1.83.89,4.42-6.42,14.87-12.55,19.76.35-6.18,1.79-16.59,6-20.29a4.92,4.92,0,0,1,3.38-1.34A5.53,5.53,0,0,1,576.81,2998.68Z"/><path class="cls-10" d="M569.77,1019.87c7.5,38.24,24.34,121.66-2.41,147.18,0,0,10.45,38.79,81.5,38.79,78.14,0,37.34-38.79,37.34-38.79-42.64-10.18-41.54-41.82-34.11-71.53Z"/><polygon class="cls-10" points="586.57 2981.02 649.33 2995.67 687.46 2851.32 624.71 2836.67 586.57 2981.02"/><polygon class="cls-10" points="490.21 3023.24 554.65 3023.24 549.6 2874 485.15 2874 490.21 3023.24"/><path class="cls-12" d="M559.76,3015.77h-72.4a5.11,5.11,0,0,0-5.15,4.4L474,3077.46c-.86,5.94,4.25,11.56,10.33,11.46,25.24-.44,37.4-1.92,69.24-1.92,19.59,0,48.21,2,75.26,2,26.45,0,28.49-26.75,17.22-29.17-50.5-10.87-58.48-25.84-75.49-40.13A16.83,16.83,0,0,0,559.76,3015.77Z"/><path class="cls-12" d="M654.89,2986.06l-65.77-30.26a5.11,5.11,0,0,0-6.52,1.85l-31.43,48.59c-3.26,5-1,12.29,4.6,14.73,23.11,10.16,34.78,13.89,63.71,27.2,17.79,8.18,53.75,27,78.32,38.27,24,11.06,37.06-12.39,27.84-19.3-41.34-31-53.14-52.89-62.62-73A16.84,16.84,0,0,0,654.89,2986.06Z"/><path class="cls-13" d="M456.21,1181.69c-26.77,5.87-55.36,102.18-55.36,102.18l75.69,80.48s62.81-90.45,50-123.71C513.23,1206,487.85,1174.76,456.21,1181.69Z"/><path class="cls-13" d="M498.65,1243c13.54-12.39,22.69-8.7,28.92,1.15,6.16,28.62-30.31,88.55-45,111.25C475.8,1328.31,468,1271.15,498.65,1243Z"/><path class="cls-13" d="M795.14,1183.56s30.7,10.81-30.8,389H502.61c4.39-106.53,4.52-172.21-46.4-390.82,0,0,54.84-11.93,111.15-14.64,44-2.13,80.12-3.53,118.84,0C737.25,1171.71,795.14,1183.56,795.14,1183.56Z"/><path class="cls-13" d="M797.46,1328.69c-1.69,18.39-3.92,39.08-6.84,62.47-21.43-19.31-39-74.21-32.55-106.24C773.08,1296.07,786.92,1313.3,797.46,1328.69Z"/><path class="cls-9" d="M769.53,1271.36a1136.26,1136.26,0,0,0,47.57,104.29c17.62,34.09,36.43,67.59,61.44,100l4.92,6.06,2.46,3a43.5,43.5,0,0,0,2.86,3.31,95.27,95.27,0,0,0,15.2,13.52c10.59,7.55,21.55,12.36,32.16,16.06,21.27,7.16,41.82,9.69,61.86,10.9a458.67,458.67,0,0,0,116.63-10.35l-4.27-32.36c-17.68.09-36.23-.3-54.11-1.43a429.14,429.14,0,0,1-52.83-5.91c-17-2.85-33.49-7.19-47.23-13.16a72.23,72.23,0,0,1-17-10.37,34.6,34.6,0,0,1-5.26-5.5,23.35,23.35,0,0,1-1.57-2.1l-1.79-2.54-3.6-5.06c-19-28-35.6-60.62-51.49-93.19-15.62-32.72-30.68-66.64-44.81-99.74Z"/><path class="cls-13" d="M795.14,1183.56c32,7.81,71.44,95.74,71.44,95.74L800.1,1377s-88.51-111.43-78-145.48C733.07,1196,756.28,1174.08,795.14,1183.56Z"/><path class="cls-10" d="M1091.92,1490.58l55.46-25.6,5.57,55.13s-46.35,13.64-69.2-.34Z"/><polygon class="cls-10" points="1180.59 1459.41 1185.88 1501.39 1152.95 1520.11 1147.38 1464.98 1180.59 1459.41"/><path class="cls-10" d="M541.93,958.56c11.73,62.88,15.35,89.74,51.37,118.3,54.18,43,128.84,14.8,136.14-50.31C736,968,715.72,875,650.58,857.43,586.41,840.15,530.2,895.69,541.93,958.56Z"/><path class="cls-14" d="M680,971.81c3.59,32.06,5,115.35-65.45,118-86.31,3.21-112.14-70.52-104.45-100-44.88-36.54-51.37-99.37-.91-147.46S670.79,821.1,701.83,868C740.3,926,680,971.81,680,971.81Z"/><path class="cls-15" d="M593.61,861c4.17-33.81.93-57.14-30.69-57.14S488,815.33,472.14,847.73s-17.15,83,27.09,77.92S588.62,901.46,593.61,861Z"/><path class="cls-14" d="M544.55,852.86c7.54-40.34-28.39-153.84-116.06-161.22-40.6-3.42-59.41,40.28-38.14,47.48-38.37-.47-63.09,50.38-27.21,58-28.37,18.12-21.31,55.4,19.08,73.67C412,884.3,534.13,908.68,544.55,852.86Z"/><path class="cls-10" d="M699.66,963.31a47.92,47.92,0,0,1,8.25,34.74c-2.57,16.13-18.3,17.21-29.69,6.86C668,995.6,657,976,665.35,962.61,673.62,949.43,690.83,951.08,699.66,963.31Z"/><path class="cls-15" d="M695.22,1572.51s-37.4,442.31-76.2,691.58c-31.34,201.35-56.06,672-56.06,672H475.08s-31.26-456.57-15.35-655.71c40.26-503.91-49.52-545,42.88-707.85Z"/><path class="cls-15" d="M584.59,1739.68c35.47,36.24,62.47,79.55,83,125.25-10.24,99.41-22.39,209.73-35.32,306.36C592.29,2070.27,558.05,1914.86,584.59,1739.68Z"/><path class="cls-15" d="M756.73,1569.71s81.13,483.07,94,700.82c-31.87,201.35-162.21,626.92-162.21,626.92l-79.94-29s44.22-464.07,92.58-591.12c-108.25-364.46-187.8-456.57-164.66-704.86C591.67,1572.51,756.73,1569.71,756.73,1569.71Z"/><polygon class="cls-12" points="699.21 2918.71 591.19 2889.39 597.31 2846.33 712.96 2877.6 699.21 2918.71"/><polygon class="cls-12" points="574.98 2937.81 463.06 2937.81 457.18 2898.54 575.63 2894.53 574.98 2937.81"/><path class="cls-12" d="M498.69,1557.15l-11.8,23.43c-.92,1.81,1.24,3.67,4.26,3.67H765.63c2.36,0,4.32-1.16,4.47-2.64l2.36-23.43c.16-1.62-1.88-3-4.47-3H503C501,1555.18,499.28,1556,498.69,1557.15Z"/><path class="cls-16" d="M498.69,1557.15l-11.8,23.43c-.92,1.81,1.24,3.67,4.26,3.67H765.63c2.36,0,4.32-1.16,4.47-2.64l2.36-23.43c.16-1.62-1.88-3-4.47-3H503C501,1555.18,499.28,1556,498.69,1557.15Z"/></g></svg>