<svg id="Capa_1" data-name="Capa 1" xmlns="http://www.w3.org/2000/svg" viewBox="0 0 400 300"><defs><style>.cls-1{fill:#68a390;}.cls-1,.cls-10,.cls-11,.cls-12,.cls-13,.cls-14,.cls-15,.cls-16,.cls-17,.cls-18,.cls-19,.cls-2,.cls-20,.cls-21,.cls-22,.cls-23,.cls-24,.cls-25,.cls-26,.cls-27,.cls-28,.cls-29,.cls-3,.cls-30,.cls-31,.cls-32,.cls-33,.cls-34,.cls-35,.cls-36,.cls-37,.cls-38,.cls-39,.cls-4,.cls-40,.cls-41,.cls-5,.cls-6,.cls-7,.cls-8,.cls-9{fill-rule:evenodd;}.cls-2{fill:#e9f1ed;}.cls-3{fill:#492413;}.cls-4{fill:#279347;}.cls-5{fill:#97b455;}.cls-6{fill:#c98b75;}.cls-7{fill:#f4e1d4;}.cls-8{fill:#a0783d;}.cls-9{fill:#e4ae91;}.cls-10{fill:#b67a65;}.cls-11{fill:#65842f;}.cls-12{fill:#9eb037;}.cls-13{fill:#b1c049;}.cls-14{fill:#cad466;}.cls-15{fill:#dfe3a4;}.cls-16{fill:#fff;}.cls-17{fill:#734434;}.cls-18{fill:#526525;}.cls-19{fill:#c5c5c4;}.cls-20{fill:#5b5a5a;}.cls-21{fill:#7c913e;}.cls-22{fill:#647d2a;}.cls-23{fill:#94a764;}.cls-24{fill:#586f28;}.cls-25{fill:#647a31;}.cls-26{fill:#c1c9a2;}.cls-27{fill:#90a06b;}.cls-28{fill:#edefe9;}.cls-29{fill:#6b832d;}.cls-30{fill:#afba94;}.cls-31{fill:#c2171a;}.cls-32{fill:#931c1b;}.cls-33{fill:#c7402d;}.cls-34{fill:#6f6f6e;}.cls-35{fill:#bb5f1c;}.cls-36{fill:#d57b18;}.cls-37{fill:#db9117;}.cls-38{fill:#8fc2e2;}.cls-39{fill:#78849c;}.cls-40{fill:#727b8c;}.cls-41{fill:#94a0b3;}</style></defs><title>new_recipe_final_illustration_4</title><path class="cls-1" d="M57.67,300H335.12a6.51,6.51,0,0,0,6.49-6.49h0a6.51,6.51,0,0,0-6.49-6.49h-7.37a3,3,0,0,1-3-3h0a3,3,0,0,1,3-3h32.86a6.51,6.51,0,0,0,6.49-6.49h0a6.51,6.51,0,0,0-6.49-6.49H38.73a6.51,6.51,0,0,0-6.49,6.49h0a6.51,6.51,0,0,0,6.49,6.49H62a3,3,0,0,1,3,3h0a3,3,0,0,1-3,3H57.67a6.51,6.51,0,0,0-6.49,6.49h0A6.51,6.51,0,0,0,57.67,300Z"/><path class="cls-1" d="M349.36,280.15a6,6,0,0,0,6-6h0a6,6,0,0,0-6-6h-277a6,6,0,0,0-6,6h0a6,6,0,0,0,6,6Z"/><path class="cls-2" d="M323.53,268.09a44.36,44.36,0,0,0,44.23-44.23h0a44.36,44.36,0,0,0-44.23-44.23h0a18.75,18.75,0,0,1-18.7-18.7h0a18.75,18.75,0,0,1,18.7-18.7h2.22a19.5,19.5,0,0,0,19.45-19.44h0a19.5,19.5,0,0,0-19.45-19.45H285a7.59,7.59,0,0,1-7.57-7.57h0A7.6,7.6,0,0,1,285,88.2h5A5.24,5.24,0,0,0,295.25,83h0A5.24,5.24,0,0,0,290,77.76H257.11c-6.94,0-7.71,8.19-25.23,8.19H104.26a6.83,6.83,0,0,0-6.82,6.81h0a6.84,6.84,0,0,0,6.82,6.82h6.55a9.91,9.91,0,0,1,9.87,9.88h0a9.91,9.91,0,0,1-9.87,9.88h-35a25.44,25.44,0,0,0-25.37,25.37h0a25.45,25.45,0,0,0,25.37,25.37h.81a24.47,24.47,0,0,1,24.41,24.4h0a24.47,24.47,0,0,1-24.41,24.4H66.57A24.68,24.68,0,0,0,42,243.49h0a24.67,24.67,0,0,0,24.61,24.6ZM304.69,88.2A5.22,5.22,0,1,1,309.91,83,5.23,5.23,0,0,1,304.69,88.2Z"/><path class="cls-3" d="M220.59,13.77c3.53,20.49-16.35,22-16.35,22S185.76,43,177.75,24.36C165-5.27,217.06-6.72,220.59,13.77Z"/><path class="cls-4" d="M213.31,23c2.37,13.78-11,14.8-11,14.8s-12.43,4.83-17.81-7.68C175.93,10.2,210.93,9.22,213.31,23Z"/><path class="cls-5" d="M222.65,128.89c17.2,4.75,33.44,13.52,44.72,25.19a58.86,58.86,0,0,1,14.17,23,49.53,49.53,0,0,1,.38,28.64c-3.07,11.12-10,22.63-21.9,34.11L241.71,220c14.11-13.65,20.1-30.15,4.87-45.9C239,166.2,227.47,160.13,215,156.68Z"/><path class="cls-5" d="M185.37,155.79C171,158.2,160,162.87,153,169.08a24.13,24.13,0,0,0-6.75,9.29,19.89,19.89,0,0,0-.89,10.48c1.12,6.64,5.05,14.12,12.17,22.17L136,230.11c-10.91-12.32-17.08-24.7-19.07-36.52a48.17,48.17,0,0,1,2.36-25.38,52.65,52.65,0,0,1,14.66-20.7c11-9.76,27-16.86,46.72-20.19Z"/><path class="cls-5" d="M158,252.34c-.12-.29,6.44-65.85,7-77.28.8-15.52,2.3-30.45,2.91-31.37,17-25,48.41-22.26,62.45-3.49,1.51,2,3.63,23.44,6.2,47.76,1.37,12.92-9.39-1.52.16,49.46,1.84,9.8,3.9,15.1,3.08,15.81C239.66,253.37,158.77,254.27,158,252.34Z"/><path class="cls-6" d="M215.33,129.88c0,.07-.59,4.66-.83,6.55-1.45,11.36-10.2,16.56-15.3,17.12-10.19,1.12-17.32-21.73-19.61-30.6Z"/><path class="cls-7" d="M166.49,130.51c3.31,15.92,6.41,31.68,3.62,40.56A62.4,62.4,0,0,1,163.23,186l-10.52,68.68h93.44L235.63,186s-4.09-4.28-6.88-13.16.31-24.64,3.62-40.55l-10.11-2.91-6.65,29c-1.4,6.5-8.85,6.75-16.18,6.81s-14.78-2.05-16.18-8.55l-6.65-28.95Z"/><path class="cls-8" d="M166.58,254.64h71.94a2.51,2.51,0,0,0,2.37-2.62h0a2.51,2.51,0,0,0-2.37-2.62H166.58a2.51,2.51,0,0,0-2.37,2.62h0A2.51,2.51,0,0,0,166.58,254.64Z"/><path class="cls-9" d="M199.43,141.24a33.27,33.27,0,0,0,6.49-.64c7.46-1.58,29.31-10.17,32.25-28.91,1.91-12.23,3.74-36.48,3.17-51.86-1.64-44-82.19-43.49-83.8-.33-.58,15.35,1.81,39.87,3.73,52.19,2.94,18.74,24.21,27.33,31.67,28.91A33.27,33.27,0,0,0,199.43,141.24Z"/><path class="cls-10" d="M159.5,49.61a30.78,30.78,0,0,0-2,9.89c-.12,3.11-.12,6.6,0,10.3a41.09,41.09,0,0,0,2.55,5.9,37.18,37.18,0,0,1,8.11-8.8L168,61.55l7.19,3-2.68-6.73,11.86,4.51-1.76-7.11L189.37,62l-.08-6.28,9,8.8,6.81-9L207.12,62l4.67-7,2.83,7.43,7.27-4.82.38,5.81,5.66-4.05.38,7.49a37.34,37.34,0,0,1,8.12,8.8c12-23-6.35-32.52-6.35-32.52L198.25,49l-31.83-5.82A21.4,21.4,0,0,0,159.5,49.61Z"/><path class="cls-11" d="M199.91,232.81a8.8,8.8,0,1,1-8.8,8.8A8.8,8.8,0,0,1,199.91,232.81Z"/><path class="cls-12" d="M199.91,233.38a8.23,8.23,0,1,1-8.23,8.23A8.23,8.23,0,0,1,199.91,233.38Z"/><path class="cls-13" d="M199.91,234a7.66,7.66,0,1,1-7.67,7.66A7.67,7.67,0,0,1,199.91,234Z"/><path class="cls-14" d="M200.23,235.33c-2.33,0-4.22.93-4.22,2.09s3.26,3.8,4.44,3.77,4-2.61,4-3.77S202.56,235.33,200.23,235.33Z"/><path class="cls-14" d="M205,245.69c-1.63,1.63-3.56,2.36-4.31,1.61s-.4-4.94.37-5.54,4.82-1.13,5.56-.39S206.67,244.05,205,245.69Z"/><path class="cls-14" d="M194.68,245.15c1.44,1.64,3.22,2.44,4,1.78s.68-4.63,0-5.25-4.47-1.35-5.22-.7S193.23,243.51,194.68,245.15Z"/><path class="cls-15" d="M200.12,240.23c-.32,0-.57-1.68-.57-2.86s.25-1.43.57-1.43.57.24.57,1.43S200.43,240.23,200.12,240.23Z"/><path class="cls-15" d="M200.83,240.12c-.28-.07-.09-1.64.21-2.7s.58-1.21.87-1.13.45.36.15,1.42S201.12,240.2,200.83,240.12Z"/><path class="cls-15" d="M201.7,239.89c-.19-.13.35-1.22.84-1.91s.73-.74.92-.61.23.38-.25,1.07S201.88,240,201.7,239.89Z"/><path class="cls-15" d="M199.33,240.06c.28-.08.09-1.64-.2-2.7s-.58-1.21-.87-1.13-.45.35-.15,1.41S199.05,240.14,199.33,240.06Z"/><path class="cls-15" d="M198.47,239.83c.18-.13-.35-1.22-.84-1.92s-.74-.73-.92-.6-.24.37.25,1.07S198.28,240,198.47,239.83Z"/><path class="cls-14" d="M203.54,239.79c-2.28,1.31-2.7,1.67-3.53,1.61s-3.74-2-3.74-2,2.92,1.92,3.23,2.68a14.05,14.05,0,0,1,.43,3s.06-2.59.53-3S203.54,239.79,203.54,239.79Z"/><path class="cls-15" d="M201.51,242.56c.23-.22,1.58.82,2.4,1.68s.8,1.2.58,1.42-.58.22-1.4-.63S201.28,242.78,201.51,242.56Z"/><path class="cls-15" d="M201.07,243.14c.26-.14,1.2,1.12,1.72,2.09s.42,1.28.16,1.42-.57,0-1.09-.92S200.81,243.28,201.07,243.14Z"/><path class="cls-15" d="M200.61,243.9c.22,0,.59,1.13.72,2s0,1-.25,1.07-.43-.11-.56-.95S200.39,243.94,200.61,243.9Z"/><path class="cls-15" d="M202.2,242.14c-.15.25,1.07,1.25,2,1.81s1.26.47,1.41.22.07-.57-.87-1.13S202.35,241.89,202.2,242.14Z"/><path class="cls-15" d="M203,241.71c0,.23,1.1.64,1.93.81s1,0,1.09-.21-.09-.43-.93-.6S203,241.49,203,241.71Z"/><path class="cls-15" d="M198,242.21c.21.24-.91,1.53-1.81,2.3s-1.25.73-1.45.49-.19-.59.71-1.36S197.77,242,198,242.21Z"/><path class="cls-15" d="M197.42,241.74c.12.26-1.19,1.13-2.19,1.6s-1.3.34-1.42.08,0-.58,1-1S197.3,241.47,197.42,241.74Z"/><path class="cls-15" d="M196.68,241.23c0,.23-1.16.53-2,.61s-1-.08-1.06-.31.14-.42,1-.5S196.66,241,196.68,241.23Z"/><path class="cls-15" d="M198.35,242.92c-.25-.16-1.31,1-1.92,1.91s-.54,1.23-.3,1.4.56.11,1.18-.81S198.59,243.08,198.35,242.92Z"/><path class="cls-15" d="M198.73,243.73c-.22-.06-.7,1.06-.91,1.88s-.07,1,.14,1.09.44-.06.65-.89S199,243.78,198.73,243.73Z"/><path class="cls-3" d="M183.69,71.05c-9.27-1.62-14.48.6-14.48.6l16.71,6.29S188.07,71.36,183.69,71.05Z"/><path class="cls-3" d="M216,70.12c8.71-.38,13.17,2.53,13.17,2.53l-16.15,4S212,69.84,216,70.12Z"/><path class="cls-3" d="M179,81.76c3.09,0,5.59,3.22,5.59,7.19s-2.5,7.18-5.59,7.18-5.59-3.21-5.59-7.18S175.88,81.76,179,81.76Z"/><path class="cls-16" d="M180.35,84a1.63,1.63,0,1,1-1.63,1.62A1.63,1.63,0,0,1,180.35,84Z"/><path class="cls-3" d="M219.61,81.76c3.09,0,5.59,3.22,5.59,7.19s-2.5,7.18-5.59,7.18S214,92.92,214,89,216.52,81.76,219.61,81.76Z"/><path class="cls-16" d="M221.5,83.73a1.63,1.63,0,1,1-1.62,1.63A1.63,1.63,0,0,1,221.5,83.73Z"/><path class="cls-9" d="M157.91,87.07c-1.95-3.08-4.46-5.37-6.77-5.9-5.93-1.39-8.2,3.94-6.73,10,2.14,8.74,11.38,17.33,16.77,10.41C164.34,97.46,157.91,87.07,157.91,87.07Z"/><path class="cls-10" d="M156,89.2c-1.19-1.87-2.71-3.26-4.11-3.58-3.6-.84-5,2.39-4.09,6C149.09,97,154.7,102.18,158,98,159.89,95.51,156,89.2,156,89.2Z"/><path class="cls-9" d="M240,87a14.08,14.08,0,0,1,7.68-5.83c5.93-1.39,8.2,3.94,6.73,10-2.14,8.74-11.38,17.33-16.77,10.41C234.52,97.46,240,87,240,87Z"/><path class="cls-10" d="M243.62,89.37c1.19-1.87,2.71-3.26,4.12-3.58,3.59-.84,5,2.39,4.08,6-1.3,5.31-6.91,10.52-10.18,6.32C239.72,95.68,243.62,89.37,243.62,89.37Z"/><path class="cls-10" d="M192.55,106.57h13.77S200,115.76,192.55,106.57Z"/><path class="cls-17" d="M192.55,129.87h13.77S200,139.06,192.55,129.87Z"/><path class="cls-16" d="M184.81,114.59c7.2,1.07,28.31.31,28.31.31s-3.43,12.75-17.08,11A13.89,13.89,0,0,1,184.81,114.59Z"/><path class="cls-18" d="M218.27,232.91c1.2,0,6.71.11,8.1.37,4.23.81,8.59,3.11,8.59,8.48,0,5.62-4.27,8-8.46,8.76-1.13.21-6.39.3-7.42.3-4.86,0-5.86-4.06-5.86-9.06S213.4,232.91,218.27,232.91Z"/><path class="cls-11" d="M217.66,233a8.8,8.8,0,1,1-8.8,8.8A8.8,8.8,0,0,1,217.66,233Z"/><path class="cls-12" d="M217.66,233.53a8.23,8.23,0,1,1-8.23,8.23A8.24,8.24,0,0,1,217.66,233.53Z"/><path class="cls-13" d="M217.66,234.1a7.66,7.66,0,1,1-7.66,7.66A7.66,7.66,0,0,1,217.66,234.1Z"/><path class="cls-14" d="M218,235.48c-2.33,0-4.22.94-4.22,2.09s3.26,3.8,4.44,3.77,4-2.61,4-3.77S220.32,235.48,218,235.48Z"/><path class="cls-14" d="M222.78,245.84c-1.63,1.64-3.56,2.36-4.31,1.62s-.4-4.94.37-5.55,4.82-1.13,5.56-.38S224.42,244.2,222.78,245.84Z"/><path class="cls-14" d="M212.43,245.3c1.44,1.64,3.22,2.44,4,1.78s.67-4.63,0-5.25-4.47-1.35-5.22-.69S211,243.66,212.43,245.3Z"/><path class="cls-15" d="M217.87,240.39c-.32,0-.57-1.68-.57-2.87s.25-1.43.57-1.43.57.24.57,1.43S218.18,240.39,217.87,240.39Z"/><path class="cls-15" d="M218.59,240.28c-.29-.08-.09-1.65.2-2.7s.59-1.22.87-1.14.45.36.15,1.42S218.87,240.36,218.59,240.28Z"/><path class="cls-15" d="M219.45,240c-.19-.13.35-1.22.84-1.91s.74-.73.92-.6.23.37-.25,1.07S219.63,240.17,219.45,240Z"/><path class="cls-15" d="M217.08,240.21c.28-.07.1-1.64-.2-2.7s-.58-1.21-.87-1.13-.45.36-.15,1.42S216.8,240.29,217.08,240.21Z"/><path class="cls-15" d="M216.22,240c.19-.13-.35-1.22-.84-1.92s-.73-.73-.92-.6-.24.38.25,1.07S216,240.11,216.22,240Z"/><path class="cls-14" d="M221.3,239.94c-2.29,1.31-2.71,1.67-3.54,1.61s-3.74-2-3.74-2,2.92,1.92,3.23,2.69a14,14,0,0,1,.43,3s.06-2.58.53-3S221.3,239.94,221.3,239.94Z"/><path class="cls-15" d="M219.26,242.71c.23-.21,1.58.82,2.4,1.68s.8,1.21.58,1.42-.58.23-1.4-.63S219,242.93,219.26,242.71Z"/><path class="cls-15" d="M218.82,243.29c.26-.14,1.2,1.12,1.72,2.09s.42,1.28.16,1.42-.57,0-1.09-.92S218.56,243.43,218.82,243.29Z"/><path class="cls-15" d="M218.36,244.06c.22,0,.59,1.12.72,2s0,1-.25,1.07-.43-.11-.56-.94S218.14,244.09,218.36,244.06Z"/><path class="cls-15" d="M220,242.3c-.15.25,1.07,1.25,2,1.81s1.26.47,1.4.21.08-.57-.86-1.13S220.1,242,220,242.3Z"/><path class="cls-15" d="M220.73,241.87c0,.22,1.1.63,1.94.8s1,0,1.08-.2-.09-.44-.93-.6S220.78,241.65,220.73,241.87Z"/><path class="cls-15" d="M215.72,242.36c.21.24-.91,1.53-1.81,2.3s-1.25.74-1.45.5-.19-.59.71-1.37S215.52,242.13,215.72,242.36Z"/><path class="cls-15" d="M215.17,241.89c.12.27-1.19,1.14-2.18,1.6s-1.3.35-1.43.08,0-.57,1-1S215.05,241.62,215.17,241.89Z"/><path class="cls-15" d="M214.43,241.39c0,.22-1.16.52-2,.6s-1-.08-1.06-.3.14-.43,1-.51S214.41,241.16,214.43,241.39Z"/><path class="cls-15" d="M216.1,243.07c-.24-.16-1.31,1-1.92,1.92s-.54,1.23-.3,1.39.56.11,1.18-.8S216.34,243.24,216.1,243.07Z"/><path class="cls-15" d="M216.48,243.88c-.22-.06-.7,1.06-.9,1.89s-.08,1,.13,1.09.44-.07.65-.89S216.7,243.94,216.48,243.88Z"/><path class="cls-11" d="M188.89,232.81a8.8,8.8,0,1,1-8.8,8.8A8.8,8.8,0,0,1,188.89,232.81Z"/><path class="cls-12" d="M188.89,233.38a8.23,8.23,0,1,1-8.23,8.23A8.23,8.23,0,0,1,188.89,233.38Z"/><path class="cls-13" d="M188.89,234a7.66,7.66,0,1,1-7.66,7.66A7.66,7.66,0,0,1,188.89,234Z"/><path class="cls-14" d="M189.21,235.33c-2.33,0-4.22.93-4.22,2.09s3.26,3.8,4.44,3.77,4-2.61,4-3.77S191.55,235.33,189.21,235.33Z"/><path class="cls-14" d="M194,245.69c-1.64,1.63-3.57,2.36-4.31,1.61s-.41-4.94.36-5.54,4.82-1.13,5.56-.39S195.65,244.05,194,245.69Z"/><path class="cls-14" d="M183.66,245.15c1.44,1.64,3.22,2.44,4,1.78s.68-4.63,0-5.25-4.47-1.35-5.22-.7S182.21,243.51,183.66,245.15Z"/><path class="cls-15" d="M189.1,240.23c-.32,0-.57-1.68-.57-2.86s.25-1.43.57-1.43.57.24.57,1.43S189.42,240.23,189.1,240.23Z"/><path class="cls-15" d="M189.82,240.12c-.28-.07-.1-1.64.2-2.7s.58-1.21.87-1.13.44.36.15,1.42S190.1,240.2,189.82,240.12Z"/><path class="cls-15" d="M190.68,239.89c-.19-.13.35-1.22.84-1.91s.73-.74.92-.61.24.38-.25,1.07S190.86,240,190.68,239.89Z"/><path class="cls-15" d="M188.31,240.06c.29-.08.09-1.64-.2-2.7s-.58-1.21-.87-1.13-.45.35-.15,1.41S188,240.14,188.31,240.06Z"/><path class="cls-15" d="M187.45,239.83c.19-.13-.35-1.22-.84-1.92s-.74-.73-.92-.6-.23.37.25,1.07S187.27,240,187.45,239.83Z"/><path class="cls-14" d="M192.53,239.79c-2.29,1.31-2.71,1.67-3.54,1.61s-3.74-2-3.74-2,2.92,1.92,3.23,2.68a14.05,14.05,0,0,1,.43,3s.06-2.59.53-3S192.53,239.79,192.53,239.79Z"/><path class="cls-15" d="M190.49,242.56c.23-.22,1.58.82,2.4,1.68s.81,1.2.58,1.42-.58.22-1.4-.63S190.27,242.78,190.49,242.56Z"/><path class="cls-15" d="M190.05,243.14c.26-.14,1.21,1.12,1.72,2.09s.42,1.28.16,1.42-.57,0-1.09-.92S189.79,243.28,190.05,243.14Z"/><path class="cls-15" d="M189.59,243.9c.23,0,.59,1.13.72,2s0,1-.25,1.07-.43-.11-.56-.95S189.37,243.94,189.59,243.9Z"/><path class="cls-15" d="M191.18,242.14c-.15.25,1.07,1.25,2,1.81s1.26.47,1.41.22.08-.57-.87-1.13S191.33,241.89,191.18,242.14Z"/><path class="cls-15" d="M192,241.71c0,.23,1.1.64,1.94.81s1,0,1.08-.21-.09-.43-.92-.6S192,241.49,192,241.71Z"/><path class="cls-15" d="M187,242.21c.2.24-.9,1.53-1.81,2.3s-1.25.73-1.45.49-.19-.59.71-1.36S186.74,242,187,242.21Z"/><path class="cls-15" d="M186.4,241.74c.12.26-1.19,1.13-2.19,1.6s-1.3.34-1.42.08,0-.58,1-1S186.28,241.47,186.4,241.74Z"/><path class="cls-15" d="M185.66,241.23c0,.23-1.15.53-2,.61s-1-.08-1.06-.31.14-.42,1-.5S185.64,241,185.66,241.23Z"/><path class="cls-15" d="M187.33,242.92c-.25-.16-1.31,1-1.92,1.91s-.54,1.23-.3,1.4.57.11,1.18-.81S187.57,243.08,187.33,242.92Z"/><path class="cls-15" d="M187.71,243.73c-.22-.06-.69,1.06-.91,1.88s-.08,1,.15,1.09.43-.06.64-.89S187.93,243.78,187.71,243.73Z"/><path class="cls-9" d="M245.09,223.63a21.77,21.77,0,0,1-9.28,2c-8.27-.16-10.27-.56-10.27-.56l-6.29,3.79c.37,4.6,4.72,3.13,6.71,2.3,1.09-.46-.54-.07,4.06.63,0,0-4.56,1.1-5.89,5s-1.19,5.53-1.19,5.53a3.64,3.64,0,0,0,4.54.23c1.3-.83,1.3-3,2.36-3.67l4.37-2.67c-2.87,3.4-2.94,3.21-4.05,6.67a5.76,5.76,0,0,0-.4,2.86c.53,1.75,2.86,1.68,4.26.3s1.61-3.21,2.76-4.65c.86-1.09,1.43-1.88,1-.09A16.68,16.68,0,0,0,237,246c.15,2,3.32,2.14,4.2.26s2-4.57,3.81-5.08c7.59-2.2,8.74-3.86,10.3-6.39Z"/><path class="cls-16" d="M162.87,219.2c17.68,21.58,22.57,27.7,22.57,27.7-5.18,6.88-18.36-8.22-17.52-14,0,0-4.59-4.82-4.82-5.35S160,221.79,162.87,219.2Z"/><path class="cls-19" d="M169.53,227.33c12.28,15,15.91,19.57,15.91,19.57a.48.48,0,0,1-.09.11,5,5,0,0,0-1.18.05,2.67,2.67,0,0,1-3-2.45c-.07-1.76-.72-1.84-1.87-2s-1.42-1.07-1.57-2.83-1.37-.73-2.83-1.57,0-2.49-1.15-3.37-2.37.12-2.41-1.76a2.12,2.12,0,0,0-2.45-2.1C167.86,230.49,168.76,228.64,169.53,227.33Z"/><path class="cls-20" d="M162.87,219.2l8.59,10.5c-2.14,1.29-2.83,2.18-3.48,4.78a5.11,5.11,0,0,1-.06-1.59s-4.59-4.82-4.82-5.35S160,221.79,162.87,219.2Z"/><path class="cls-9" d="M156.55,211.88c4.62,4.29,9.12,2.72,13.28,6,1.87,1.46,2,1.46,3.54,4.42,1.68,3.35.5,6,.44,9.81,0,.51-3.59-4.2-3.59-4.2-4.09-3.24-5.53,1.11-4.82,2.52a28.45,28.45,0,0,0,2.45,2.6l1.53,5.43c-4.48,2.16-6.91.62-16.32-3.47-4.38-1.9-5.71-9.53-8.23-12.7Z"/><path class="cls-3" d="M159.42,100.69c-4-12.77-11.63-39.9-3.36-61.23,5-12.84,21.82-21.1,39.78-21.77,11.87-.44,24.23,2.43,34,9.48,24.48,17.71,10.1,75.55,10.1,75.55s-.23-15.38-3.47-27.18c-.71-2.62-6.52-4.48-6.94-6.62A43.24,43.24,0,0,1,229,56.38c-6.14,4-6.22,4.38-6.07,3.8.09-.38,1.07-4.08,2-7.61l-9.18,8.22-2-10.65c-7.5,8.07-7.51,8.62-7.51,7.93,0-.36,0-3.71.08-7.12l-8,10.92L187.65,50.59c0,3.53.08,7.11.08,7.48,0,.66,0,.19-6.38-6.71l1.18,9.07-11.95-5.17c.89,3.35,1.78,6.7,1.87,7.06.15.6.06.23-6.65-4.17l.66,8.42-5.1,6.6Z"/><path class="cls-17" d="M156.94,37.48A27.78,27.78,0,0,1,163.71,29c22,6.27,38.89,8.26,66.69-1.38a30,30,0,0,1,9.1,12.29c-17.45,8.6-46.78,7.24-66.62,3A63.43,63.43,0,0,1,156.94,37.48Z"/><path class="cls-17" d="M158.35,98.09c1.22,15.61,4.9,23.87,14.38,32.59,8.05,7.4,16.82,11.54,27.32,11.31,15.81-.35,32.37-10.9,37.2-26.25,3.19-10.12,3.58-22.09,3.58-22.09-8.78,25.92-19.93,38.27-39.41,38.38-26.07.15-31.55-9.78-37.42-23.25-1.86-4.27-2-9.16-4.53-14.27C157.85,91.16,157.51,94.65,158.35,98.09Z"/><path class="cls-21" d="M291.56,207.91c6.77-4.13,13.09-5.8,18-1s-8.87,16-13.73,16S288.78,210.31,291.56,207.91Z"/><path class="cls-22" d="M310.34,208.06c2.11,5.23-10,14.83-14.52,14.85-1.34,0-2.47-.95-3.36-2.39-2-3.89-2.39-10.25-.5-11.89,6.77-4.12,13.09-5.8,18-1A3.16,3.16,0,0,1,310.34,208.06Z"/><path class="cls-18" d="M305.92,204.56a10.09,10.09,0,0,1,3.63,2.34c3.23,3.15-1.64,9.08-6.73,12.77l0,0-.44.32-.06,0-.1.06h0c-2.43,1.68-4.84,2.79-6.37,2.8-4.85,0-7-12.6-4.26-15l.45-.27c3.12.34,4.08,1.9,2.69,4s-1.11,1.85,1.74,1.57a8.21,8.21,0,0,1,5.45,1.24,2.69,2.69,0,0,1,1.51-1l.24-3.14A10.26,10.26,0,0,1,305.92,204.56Z"/><path class="cls-22" d="M294.14,217c-1.21-3.06-2-2.75-2.56-3.44s3.88-2.55,3.05-4.6-7.31-3.16-10.56,1.58c-2.63,3.85-4.49,10.34-2.72,15.42h16.27A70.88,70.88,0,0,0,294.14,217Z"/><path class="cls-21" d="M294,211.05a2,2,0,0,0,.65-2.07c-.83-2-7.31-3.16-10.56,1.58a19.12,19.12,0,0,0-2,3.83,12.91,12.91,0,0,1,5.45-5.69C290.48,207.19,294,208.11,294,211.05Z"/><path class="cls-18" d="M294.14,217c-1.21-3.06-2-2.75-2.56-3.44s3.38-2.34,3.14-4.24a9.64,9.64,0,0,1-3.29,3.17,2.49,2.49,0,0,0-.78,2.73c.08.52-1,1.4-1.87,2.81a5.9,5.9,0,0,0-.72,3.73c.42,4.66-.63,4.95-3.67,2.93a6.8,6.8,0,0,0-3.62-1.24,12.38,12.38,0,0,0,.58,2.51h16.27A70.88,70.88,0,0,0,294.14,217Z"/><path class="cls-23" d="M281.42,226a10.51,10.51,0,0,1,.14-3.66,9.87,9.87,0,0,0,4.54.39h.15c0-.17-.41-.2-.53-.22a12.23,12.23,0,0,1-4-1,2.7,2.7,0,0,1,1.69-2c1.46-.75,3.51-.9,4.94-1.25-1.47-.33-4.36.37-6,1.23.32-.9.74-2,1.16-2.89.78-1.64,8.43-1.17,4.82-1.65a11.18,11.18,0,0,0-1.62-.09c-.76,0-1.73.2-2.35.25a8.26,8.26,0,0,1,.87-1.11,17.53,17.53,0,0,1,5.49-3.94.43.43,0,0,0,.17-.13.6.6,0,0,0-.19.06h0a15,15,0,0,0-6.69,4.67,9.61,9.61,0,0,1,.61-3.59,6.41,6.41,0,0,0-1.23,4.43c0,.1-1.29,2.59-1.42,2.92a6.36,6.36,0,0,1-.17-2.47,9,9,0,0,0-.33,3.86c0,.65-.91,3-.42,6.12Z"/><path class="cls-22" d="M284.78,226c-1-1.08-2.06-2.15-2.91-2.33s-1.93.68-2,2.33Z"/><path class="cls-21" d="M284.78,226c-1-1.08-2.06-2.15-2.91-2.33s-1.93.68-2,2.33h.08c.34-1.56,1-2.25,3.2,0Z"/><path class="cls-23" d="M309.26,209.71a23.07,23.07,0,0,0-2.93-1.12,37.51,37.51,0,0,0-3.91-3.59,18.94,18.94,0,0,0,2.82,3.31,14,14,0,0,0-2.54-.34,37.37,37.37,0,0,0-5.54-1.18c.53.25,2.84.77,4.12,1.21a12.93,12.93,0,0,0-7.08,3.05l1-.57a13.91,13.91,0,0,1,6.64-2,14.46,14.46,0,0,0-4.21,5.08c1.36-1.52,3.5-4.08,5.12-5.06a13.13,13.13,0,0,1,3,.58,15.26,15.26,0,0,0-5.06,4.76h0a.19.19,0,0,0,0,.1.16.16,0,0,0,.11-.05,22.14,22.14,0,0,1,5.65-4.57,25.1,25.1,0,0,1,2.48,1.05.4.4,0,0,0,.52-.17A.33.33,0,0,0,309.26,209.71Z"/><path class="cls-22" d="M320,226a13.85,13.85,0,0,0,1.24-3.76c.55-3.89-.37-2.9-.37-2.9s0-4.73-1.94-6.54l-2.19-2s-1.25-5.69-5.1-6.64-6,3.93-6.21,7.08l-.24,3.14s-2.43.4-2.05,3.49a22.39,22.39,0,0,0,3.35,8.16Z"/><path class="cls-21" d="M312.59,204.47a4.19,4.19,0,0,0-1-.36c-3.86-1-6,3.93-6.21,7.08l-.24,3.14s-2.43.4-2.05,3.49a13.05,13.05,0,0,0,.69,2.75,5.44,5.44,0,0,0,.47-2.12c-.2-2.67,2.93-3,2.52-4.19a11.05,11.05,0,0,1,.79-6.75A4.54,4.54,0,0,1,312.59,204.47Z"/><path class="cls-24" d="M316.08,226c-.73-1.7-1.47-3.65-3.26-3.91-3.38-.5-3.46-.52-4.9-3.14s-2.85-3.65-4.39-3.46a3.5,3.5,0,0,0-.41,2.35,22.39,22.39,0,0,0,3.35,8.16Z"/><path class="cls-23" d="M316.84,226a26.37,26.37,0,0,0,2.62-7.26c.15-.65.51-2.32.17-2.88a.24.24,0,0,0-.07.13,15.25,15.25,0,0,1-.61,2.66c-.55,1.64-1.68,5.56-2.86,7-.22-1.39-.48-2.83-.78-4.26,1-.69,3-8.46,2.34-9.1l0,.07a62.69,62.69,0,0,1-2.6,7.73c-.3-1.34-.62-2.65-1-3.88.77-1.76.86-6.53.41-8.27a30.68,30.68,0,0,1-.7,7.27,25.56,25.56,0,0,0-2.56-6l-.72-.82.54.93a38.83,38.83,0,0,1,2,6,23.15,23.15,0,0,1-6.31-3.38c-.06.82,5.67,4.17,6.58,4.43.33,1.32.65,2.71.94,4.11a48.42,48.42,0,0,1-7.11-2.7c1.67,1.69,3.08,2,5.28,2.88a18.21,18.21,0,0,0,2,.84c.27,1.38.5,2.75.71,4.09a45.82,45.82,0,0,1-7.39-2.48,18.74,18.74,0,0,0,5.71,2.91Z"/><path class="cls-25" d="M316.08,226a14.42,14.42,0,0,0-1.23-2.49c.12.69.23,1.38.34,2.06a45.82,45.82,0,0,1-7.39-2.48,18.74,18.74,0,0,0,5.71,2.91Zm-8.89-8.24h0l0,0Z"/><path class="cls-22" d="M315,226c-1.71-3.51-4.81-3.31-5.58-2.48s-3.31-7.93-5.72-7.41l-2.42.53s-3.61-3.6-7.55-2.1-5.22,6.56-4.62,8.78l.6,2.21a1.43,1.43,0,0,0-.22.47Z"/><path class="cls-21" d="M307.7,221c-1.12-2.29-2.55-5.26-4-4.95l-2.42.53s-3.61-3.6-7.55-2.1-5.22,6.56-4.62,8.78l.6,2.21a1.43,1.43,0,0,0-.22.47h1.3a.44.44,0,0,0,0-.32,11.28,11.28,0,0,1-.12-6.51c.94-2.59,2.37-3.92,5.48-3.58s3.9,2.65,6.26,1.79C304.41,216.64,306.32,218.82,307.7,221Z"/><path class="cls-18" d="M315,226c-1.13-2.32-2.88-3-4.15-3a5.83,5.83,0,0,1,2.5,3Z"/><path class="cls-23" d="M306.82,226c0-.27,0-.54,0-.8l-.21.8Zm-4.2,0a10,10,0,0,0,.38-4.45,33,33,0,0,1-1.08,4.45Zm-4.36,0c.58-1.44.69-6.29.55-7-.57,1.7-.74,4.48-1.22,6.19a31.27,31.27,0,0,1-3.46-5.38l-.41-1,.22,1.08a21.25,21.25,0,0,0,2.91,5.27,54.79,54.79,0,0,1-5.78-3.24l.57.72A45.27,45.27,0,0,0,297,226Z"/><path class="cls-18" d="M262.52,207.64c12.36,7.72,20.76,14.4,24,21s5.77,8.65.25,8.52-5.42,3.54-12.23-3.9-10.25-11.38-13.07-15.36S262.52,207.64,262.52,207.64Z"/><path class="cls-18" d="M266.81,204.56c-4.79-4.45-7.38-4.67-8.44-3.38s-.94.95-2.2.9-2.61,1.48-1.41,4.29,5.3,5.78,6.38,6.14,1.42,1.79,3.24,1S266.81,204.56,266.81,204.56Z"/><path class="cls-22" d="M264.9,203.29a8.56,8.56,0,0,1,4.86.87,5.77,5.77,0,0,1,5.63,1.64c2.86,2.64,3.54,4.29,5,5.09a5.94,5.94,0,0,1,3.12,3.42,14.41,14.41,0,0,0,1.18,2.9s3.89,2.06,4.83,5.58.61,5.71-.9,6.05-6.13.22-8.29-2.46-1.51-5-4.68-5.19-5.11-.24-5.83-3-.55-4.46-3.57-5.57-1.79-2.59-1.91-4.61S259.8,203.33,264.9,203.29Z"/><path class="cls-22" d="M278.81,232.33c.82-2.89,0-8.4-3.05-9.28s-5.33-1.26-6.84-5.39-3.36-2.16-5.22-4.66-1.34-3.61-4.43-4.24-1.66-3.64-4-3.69-3,1.78-1.7,4.62-2.33,2.84.05,7,4.15,2.17,4.93,7.06,5.52,2.33,6.67,5.27a11,11,0,0,0,7.24,6.81C276.14,236.81,281.92,236.18,278.81,232.33Z"/><path class="cls-26" d="M270.47,209.06c2.49,2.55,6.4,4.22,12.58,8.55s10.19,7.47,11.48,14.39-2.78,9.2-9.86,9.51-10-4.6-14.35-9.65-9.65-10.23-11.59-14.13a23.87,23.87,0,0,1-2.2-5.35s6.4,7,14.22,14.3,13.26,8.43,14.75,8.4,1-6.07-6.72-14.52S269,209.41,270.47,209.06Z"/><path class="cls-27" d="M291.55,240.93c-1.94,1-3-1.57.29-3.57C294.29,235.87,295.92,238.56,291.55,240.93Z"/><path class="cls-28" d="M272.47,212.41c.21.26.45.52.7.8a.37.37,0,0,1,.37.08c5.4,4.82,17.84,12.09,16.12,21.56-1.22-9.41-5-12.53-12.49-17.84a40.51,40.51,0,0,1,6,6.48c3.67,5.29,6.41,11.21,4.45,12.64s-7.31.77-13.94-5.32c-1.69-1.55-3.47-3.32-5.17-5.07,3.34,4.4,8,9.53,11.55,10.91a23.08,23.08,0,0,0,6.34,1.65c-1.63.25-4.83-.77-6.45-1.37-5.6-2.06-20.83-21.68-20.9-20.41-.05,1,16,22.2,20.38,23.17,2.71.61,8.09,2,9.7-.58a6.66,6.66,0,0,1,1.29-1.49,9.9,9.9,0,0,1,1.24-.94c1.71-1.09,1.6-.07,1.52-2.4a15,15,0,0,0-2.83-8.57c-3.26-4.17-8.19-7.74-16.93-13.69C272.69,211.55,271.28,211,272.47,212.41Z"/><path class="cls-29" d="M276.58,220.49c-2.22-.83-4.69.17-5.34-1.93s-.34-4.89-2.83-6.19-3.52-.42-2.92-2.65.45-2.81-.2-4.11,1.33-1.5,3.39-.55,3.85-.58,5.74,1.3,1.39,3.38,2.7,4.1,4.54,1.41,5.07,2.59a8.16,8.16,0,0,1,.65,2.34,7.18,7.18,0,0,0-3.36-2.24c-2.53-1-3.63-1.86-5.66-4.56s-4.89-2.63-5.34-.62,1.58,2.79,2.38,5.19-.08,3.83,1.73,4.22,3.88,1.44,4.14,2.38S276.58,220.49,276.58,220.49Z"/><path class="cls-29" d="M277.21,230.09c.25-2.29-.17-4.38-1.4-5.55-.91-.87-2.8-1.07-4.2-1.71s-2.47-1.06-3.16-2.65c-.77-1.78-.76-3.69-2.51-4.69s-3.49-1-3.7-2.75c-.29-2.27-1.86-2.77-3.38-3.09-1.92-.41-1.53.07-2.67-1.63.77,1.94.71,2.48,2.62,3,1.29.35,2.23,1.08,2.11,2.32-.24,2.33,2,1.7,3.9,2.88,1.53.93,2.56,3.6,3.29,5.16,1.11,2.38,2.34,2,5.08,2.81C276.47,225.18,276.38,227,277.21,230.09Z"/><path class="cls-30" d="M291.88,240.57c-1.44.78-2.22-1.17.22-2.65C293.92,236.81,295.12,238.81,291.88,240.57Z"/><path class="cls-18" d="M291.79,213.22c.41-2.62-1.82-5.92-2.62-6.31s-2.3.44-1.44,1.33,2.44,1.44,3.22,3.67S291.37,213.7,291.79,213.22Z"/><path class="cls-22" d="M291.28,213.58a4.28,4.28,0,0,0-3.63-1.55,6.11,6.11,0,0,1-3-.64,5.52,5.52,0,0,0,4.22,3.65C292.33,215.78,291.28,213.58,291.28,213.58Z"/><path class="cls-18" d="M285,212.13a5.63,5.63,0,0,0,3.92,2.91,3.78,3.78,0,0,0,1.91.06,1.37,1.37,0,0,0-.06-.27,4.25,4.25,0,0,0-3.4-2A6.37,6.37,0,0,1,285,212.13Z"/><path class="cls-22" d="M292.44,213.58a4.28,4.28,0,0,1,3.63-1.55,6.11,6.11,0,0,0,3-.64,5.52,5.52,0,0,1-4.22,3.65C291.39,215.78,292.44,213.58,292.44,213.58Z"/><path class="cls-18" d="M298.76,212.11a5.62,5.62,0,0,1-3.93,2.93,4.62,4.62,0,0,1-1.65.12,0,0,0,0,0,0,0,4.25,4.25,0,0,1,3.28-2.2A6.42,6.42,0,0,0,298.76,212.11Z"/><path class="cls-22" d="M289.94,213.66c-.76-1.72.41-2.57,2.76-2.62s2.64-1.75,2.64-1.75a4.27,4.27,0,0,1-.06,2.15C294.4,214.41,289.68,214.67,289.94,213.66Z"/><path class="cls-18" d="M295.44,210.31a4,4,0,0,1-.16,1.13c-.77,2.6-4.49,3.12-5.22,2.53-.49-1.5.68-2.25,2.88-2.3A2.52,2.52,0,0,0,295.44,210.31Z"/><path class="cls-31" d="M288,214.6c-2.22-1.47-7.77-1.57-7.71,5.53s3.67,14.55,7.45,14.78a9.28,9.28,0,0,0,4.34-.52,9.25,9.25,0,0,0,4.33.52c3.79-.23,7.41-7.69,7.47-14.78s-5.5-7-7.72-5.53l-4-.53Z"/><path class="cls-32" d="M288.34,214.6a4.52,4.52,0,0,0-1.13-.46c-1.47,1.4-2.33,2.74-2.33,7.24s1.5,11.47,4.7,13.56a7.87,7.87,0,0,0,2.52-.55,8,8,0,0,0,2.52.55c3.2-2.09,4.7-9.06,4.7-13.56s-.77-5.88-2.25-7.27a5.18,5.18,0,0,0-1.22.49l-3.7-.53Z"/><path class="cls-31" d="M292.1,212.34c-3.18,0-5.75,2.36-5.75,9s1.81,14.31,5.75,14.31,5.75-7.63,5.75-14.31S295.28,212.34,292.1,212.34Z"/><path class="cls-33" d="M290.8,213.66c-1.68,0-3.15,1.42-3.44,5.44s.34,8.62,2.43,8.62,3.37-4.6,3.66-8.62S292.48,213.66,290.8,213.66Z"/><path class="cls-33" d="M284,214.68c-1.63,0-2.55,1.57-2.76,4.53s.21,6.57,1.35,6.38.09-3.19.3-6.15S285.68,214.72,284,214.68Z"/><path class="cls-33" d="M300.2,214.68c1.63,0,2.55,1.57,2.76,4.53s-.21,6.57-1.34,6.38-.1-3.19-.31-6.15S298.56,214.72,300.2,214.68Z"/><path class="cls-34" d="M256.43,223.27a32.22,32.22,0,0,0,24.89,31.37H296a32.22,32.22,0,0,0,24.89-31.37Z"/><path class="cls-20" d="M307.68,223.27C305.2,237.9,291,250.11,270,249.55a32,32,0,0,0,11.31,5.09H296a32.22,32.22,0,0,0,24.89-31.37Z"/><path class="cls-20" d="M256.67,223.27h64.42a1.76,1.76,0,0,1,1.76,1.76h0a1.76,1.76,0,0,1-1.76,1.76H256.67a1.76,1.76,0,0,1-1.76-1.76h0A1.76,1.76,0,0,1,256.67,223.27Z"/><path class="cls-21" d="M132.16,239.55c-8.14-5-15.75-7-21.65-1.23S121.18,257.56,127,257.6,135.51,242.44,132.16,239.55Z"/><path class="cls-22" d="M109.55,239.73C107,246,121.62,257.57,127,257.6c1.61,0,3-1.14,4.05-2.87,2.38-4.69,2.87-12.35.6-14.31-8.15-5-15.76-7-21.66-1.23C109.85,239.37,109.69,239.55,109.55,239.73Z"/><path class="cls-18" d="M114.88,235.51a12.29,12.29,0,0,0-4.37,2.81c-3.88,3.8,2,10.94,8.1,15.38l0,0,.54.39.06,0,.12.08h0c2.93,2,5.83,3.36,7.67,3.37,5.84,0,8.48-15.16,5.13-18.05l-.54-.33c-3.76.41-4.91,2.29-3.24,4.75s1.33,2.23-2.09,1.89a9.94,9.94,0,0,0-6.57,1.49,3.18,3.18,0,0,0-1.81-1.14l-.28-3.78A12.53,12.53,0,0,0,114.88,235.51Z"/><path class="cls-22" d="M129.05,250.51c1.46-3.68,2.4-3.31,3.09-4.14s-4.68-3.08-3.67-5.54,8.8-3.81,12.7,1.9c3.17,4.63,5.41,12.44,3.28,18.57H124.86A85.74,85.74,0,0,1,129.05,250.51Z"/><path class="cls-21" d="M129.25,243.32a2.36,2.36,0,0,1-.78-2.49c1-2.46,8.8-3.81,12.7,1.9a23.21,23.21,0,0,1,2.4,4.61c-1.42-2.45-3-5-6.56-6.84S129.29,239.78,129.25,243.32Z"/><path class="cls-18" d="M129.05,250.51c1.46-3.68,2.4-3.31,3.09-4.14s-4.07-2.82-3.79-5.11c.43.87,1.5,2.11,4,3.83a3,3,0,0,1,.93,3.28c-.09.62,1.21,1.68,2.26,3.37a7.08,7.08,0,0,1,.86,4.49c-.5,5.61.76,6,4.42,3.54a8.12,8.12,0,0,1,4.36-1.5,14.82,14.82,0,0,1-.7,3H124.86A85.74,85.74,0,0,1,129.05,250.51Z"/><path class="cls-23" d="M144.36,261.3a12.48,12.48,0,0,0-.17-4.42,11.83,11.83,0,0,1-5.46.48,1.24,1.24,0,0,1-.18,0c0-.2.5-.24.63-.26a14.51,14.51,0,0,0,4.81-1.16,3.21,3.21,0,0,0-2-2.35c-1.76-.91-4.22-1.09-6-1.51,1.76-.39,5.25.44,7.21,1.49-.38-1.09-.89-2.42-1.39-3.48-.94-2-10.15-1.41-5.81-2a12.92,12.92,0,0,1,2-.1c.91,0,2.07.24,2.83.3a10.43,10.43,0,0,0-1.05-1.34,21,21,0,0,0-6.62-4.73A1.46,1.46,0,0,1,133,242a.68.68,0,0,1,.23.07h0a18,18,0,0,1,8,5.62,11.1,11.1,0,0,0-.72-4.32,7.72,7.72,0,0,1,1.48,5.32c0,.12,1.55,3.13,1.71,3.53a7.76,7.76,0,0,0,.2-3,10.75,10.75,0,0,1,.39,4.64c0,.78,1.1,3.65.51,7.37Z"/><path class="cls-22" d="M140.32,261.3c1.2-1.31,2.48-2.6,3.5-2.81,1.2-.24,2.33.82,2.46,2.81Z"/><path class="cls-21" d="M140.32,261.3c1.2-1.31,2.48-2.6,3.5-2.81,1.2-.24,2.33.82,2.46,2.81h-.1c-.4-1.89-1.16-2.72-3.84,0Z"/><path class="cls-23" d="M110.85,241.71a26.56,26.56,0,0,1,3.54-1.34,45.24,45.24,0,0,1,4.7-4.33,22.73,22.73,0,0,1-3.39,4,16.92,16.92,0,0,1,3-.41,46.2,46.2,0,0,1,6.68-1.41c-.65.3-3.43.92-5,1.45a15.53,15.53,0,0,1,8.51,3.67l-1.2-.68a16.76,16.76,0,0,0-8-2.4,17.53,17.53,0,0,1,5.08,6.11c-1.64-1.82-4.22-4.91-6.17-6.08a15.15,15.15,0,0,0-3.56.7,18.21,18.21,0,0,1,6.09,5.73v0c0,.08,0,0,0,.13s-.09,0-.13-.07a27.27,27.27,0,0,0-6.8-5.5,28.41,28.41,0,0,0-3,1.27.5.5,0,0,1-.63-.21A.41.41,0,0,1,110.85,241.71Z"/><path class="cls-22" d="M98,261.3a17.25,17.25,0,0,1-1.49-4.54c-.67-4.68.45-3.48.45-3.48s0-5.69,2.34-7.88l2.63-2.44s1.51-6.84,6.14-8,7.19,4.74,7.47,8.53l.28,3.78s2.93.49,2.48,4.21c-.25,2.09-1.44,5.59-4,9.82Z"/><path class="cls-21" d="M106.86,235.4A6.18,6.18,0,0,1,108,235c4.64-1.15,7.19,4.74,7.47,8.53l.28,3.78s2.93.49,2.48,4.21a15.31,15.31,0,0,1-.84,3.3,6.77,6.77,0,0,1-.56-2.55c.25-3.22-3.52-3.67-3-5s.44-4.84-.95-8.12C111.72,236.36,109.44,235,106.86,235.4Z"/><path class="cls-24" d="M102.65,261.3c.87-2.06,1.77-4.4,3.93-4.72,4.06-.59,4.16-.62,5.9-3.77s3.42-4.4,5.28-4.16a4.21,4.21,0,0,1,.49,2.83c-.25,2.09-1.44,5.59-4,9.82Z"/><path class="cls-23" d="M101.74,261.3c-1.58-2.53-2.53-6.18-3.15-8.75-.19-.77-.62-2.79-.21-3.46a.25.25,0,0,1,.08.16,18.16,18.16,0,0,0,.74,3.19c.66,2,2,6.7,3.44,8.43.26-1.67.58-3.4.93-5.12-1.19-.83-3.59-10.19-2.81-11l0,.09a73.46,73.46,0,0,0,3.12,9.29c.36-1.6.75-3.18,1.18-4.67-.93-2.11-1-7.85-.51-9.94a38,38,0,0,0,.85,8.75,31.05,31.05,0,0,1,3.08-7.27l.86-1-.65,1.13a46,46,0,0,0-2.44,7.24,27.84,27.84,0,0,0,7.59-4.07c.08,1-6.83,5-7.92,5.34-.4,1.58-.78,3.25-1.13,4.95a59.76,59.76,0,0,0,8.55-3.26c-2,2-3.69,2.43-6.35,3.47a19.9,19.9,0,0,1-2.44,1c-.33,1.66-.61,3.32-.85,4.92a54.6,54.6,0,0,0,8.89-3,22.74,22.74,0,0,1-6.88,3.51Z"/><path class="cls-25" d="M102.65,261.3a17.18,17.18,0,0,1,1.48-3c-.15.84-.28,1.67-.4,2.48a54.6,54.6,0,0,0,8.89-3,22.74,22.74,0,0,1-6.88,3.51Zm10.7-9.92h0l0,0Z"/><path class="cls-22" d="M103.91,261.3c2-4.23,5.79-4,6.71-3,1.07,1.16,4-9.55,6.9-8.92l2.91.63s4.34-4.32,9.08-2.52,6.28,7.89,5.56,10.56l-.72,2.66a2.09,2.09,0,0,1,.27.58Z"/><path class="cls-21" d="M112.74,255.35c1.34-2.76,3.06-6.33,4.78-6l2.91.63s4.34-4.32,9.08-2.52,6.28,7.89,5.56,10.56l-.72,2.66a2.09,2.09,0,0,1,.27.58h-1.57a.58.58,0,0,1,0-.39,13.56,13.56,0,0,0,.15-7.84c-1.13-3.12-2.86-4.71-6.6-4.3s-4.69,3.19-7.53,2.14C116.7,250.05,114.4,252.67,112.74,255.35Z"/><path class="cls-18" d="M103.91,261.3c1.36-2.8,3.45-3.64,5-3.6a7,7,0,0,0-3,3.6Z"/><path class="cls-23" d="M113.8,261.3c0-.33,0-.66,0-1,.09.33.17.65.25,1Zm5.06,0a12.11,12.11,0,0,1-.47-5.37,41.88,41.88,0,0,0,1.3,5.37Zm5.24,0c-.7-1.74-.83-7.58-.66-8.4.68,2,.89,5.39,1.46,7.46a37.22,37.22,0,0,0,4.17-6.48l.49-1.21-.27,1.31a25.17,25.17,0,0,1-3.49,6.33,66,66,0,0,0,7-3.89l-.68.87c-.7.74-4.1,2.62-6.48,4Z"/><path class="cls-22" d="M128.43,242.61A33.31,33.31,0,0,0,130,230.17c-.25-1.91-2.13-.42-1.92,1.38s-1.88,1.49-.95,3.73.27,2,0,3.57S128.43,242.61,128.43,242.61Z"/><path class="cls-21" d="M129,236.23a16.22,16.22,0,0,0,.23-6.92,2.16,2.16,0,0,0-1.08,2.24c.21,1.8-1.88,1.49-.95,3.73s.27,2,0,3.57a2.55,2.55,0,0,0,0,.87C127.92,239.49,128.52,237.91,129,236.23Z"/><path class="cls-22" d="M128.77,243a46.67,46.67,0,0,0,8.06-15.7c.58-2.63-2.61-1.57-3.2.91s-3.2,1.07-3,4.47-.6,2.79-1.7,4.73S128.77,243,128.77,243Z"/><path class="cls-24" d="M128.35,243.15c4.85-8.21,8.16-12.37,11.28-13.66s.81,2.09-.44,3.5,0,1.22-.56,2.86-3.55,1.64-4,2.27,1.27.89-.62,2.21A36.56,36.56,0,0,1,128.35,243.15Z"/><path class="cls-24" d="M127.83,241.63c3.07-1.74,9.07-4.46,13-4.64s-.69,1.42-1.42,1.68-.32,2.21-1.43,2.4-1.36-.49-2.35.54S127.83,241.63,127.83,241.63Z"/><path class="cls-21" d="M132.51,234.83a22.77,22.77,0,0,0,3.62-9,3,3,0,0,0-2.5,2.44c-.58,2.49-3.2,1.07-3,4.47s-.6,2.79-1.7,4.73a4.19,4.19,0,0,0-.41,1.16C129.6,238.64,131.14,236.84,132.51,234.83Z"/><path class="cls-21" d="M139.63,229.49c-2.07.86-4.23,3-6.87,6.72-.85,1.2-1.74,2.56-2.69,4.1a2.28,2.28,0,0,0,.35-.13c.82-.43,2.23-1.64,3.26-2.36,1.62-1.12,3.83-1.89,4-2.62s.06-2.54,1.38-3.89a6.41,6.41,0,0,0,1.55-2.11A3.71,3.71,0,0,0,139.63,229.49Z"/><path class="cls-21" d="M130.65,240.74a6.27,6.27,0,0,0,2.4.06c2.06-.1,1.86-.74,2.82-1.22s1.81.42,2.37-.2,1.4-1.32,3.8-1.83c.56-.36.53-.64-1.23-.56a24.61,24.61,0,0,0-7.16,1.87c-1.11.44-2.19.92-3.18,1.39A.44.44,0,0,0,130.65,240.74Z"/><path class="cls-35" d="M125.64,238.78c-4.43,2.22-8.08,8.3-13,15.37-6,8.75-3,7.29,2.62,3.73s14.7-12,15.53-14.95C131.84,239.27,129.4,236.89,125.64,238.78Z"/><path class="cls-36" d="M125.64,238.78c-4.43,2.22-8.08,8.3-13,15.37a32.87,32.87,0,0,0-3,5c.66,1.07,1.8-.45,5.38-2.72s13.3-11.62,14.12-14.56a4.31,4.31,0,0,0-.37-3.7A5,5,0,0,0,125.64,238.78Z"/><path class="cls-37" d="M125.48,240a31.18,31.18,0,0,0-8.54,9.34c-1.86,3.13,1.47.25,4.45-2.84,1.2-1.25,3.5-3,4.89-5.15C127.31,239.71,127.39,238.7,125.48,240Z"/><path class="cls-35" d="M124.65,240.05a5.8,5.8,0,0,1,3.27,1.52,4.16,4.16,0,0,1,1.55,2.31A24.53,24.53,0,0,0,124.65,240.05Z"/><path class="cls-35" d="M122,243.08a5,5,0,0,1,3.91,1.81,3.73,3.73,0,0,1,.91,2A10.78,10.78,0,0,0,122,243.08Z"/><path class="cls-35" d="M119,246.34a5,5,0,0,1,3.92,1.81,3.79,3.79,0,0,1,.9,2A10.78,10.78,0,0,0,119,246.34Z"/><path class="cls-35" d="M116.63,249.6a5.57,5.57,0,0,1,4.1,2.08c.57.66,0,.93.16,1.75A8.84,8.84,0,0,0,116.63,249.6Z"/><path class="cls-35" d="M115,252.46a3.06,3.06,0,0,1,3.22,1.58c.32.48-.37.45-.45,1C117.14,253.74,116.07,253.2,115,252.46Z"/><path class="cls-35" d="M112.64,255.59a2.74,2.74,0,0,1,2.6,1.22c.31.49-.62.54-.7,1.07C114.88,256.82,113.75,256.07,112.64,255.59Z"/><path class="cls-18" d="M138,242.29c.41-2.61-1.82-5.92-2.63-6.3s-2.3.43-1.44,1.32,2.45,1.45,3.22,3.68S137.58,242.77,138,242.29Z"/><path class="cls-22" d="M137.49,242.66a4.3,4.3,0,0,0-3.63-1.55,6.11,6.11,0,0,1-3-.65,5.55,5.55,0,0,0,4.23,3.66C138.54,244.86,137.49,242.66,137.49,242.66Z"/><path class="cls-18" d="M131.18,241.2a5.62,5.62,0,0,0,3.92,2.92,3.85,3.85,0,0,0,1.9.06,1.37,1.37,0,0,0-.06-.28,4.27,4.27,0,0,0-3.4-2A6.19,6.19,0,0,1,131.18,241.2Z"/><path class="cls-22" d="M138.65,242.66a4.28,4.28,0,0,1,3.63-1.55,6,6,0,0,0,3-.65,5.55,5.55,0,0,1-4.22,3.66C137.6,244.86,138.65,242.66,138.65,242.66Z"/><path class="cls-18" d="M145,241.18a5.61,5.61,0,0,1-3.92,2.94,4.62,4.62,0,0,1-1.65.12,0,0,0,0,1,0,0,4.27,4.27,0,0,1,3.27-2.2A6.1,6.1,0,0,0,145,241.18Z"/><path class="cls-22" d="M136.15,242.73c-.77-1.72.4-2.57,2.76-2.62s2.64-1.74,2.64-1.74a4.27,4.27,0,0,1-.06,2.15C140.61,243.48,135.89,243.74,136.15,242.73Z"/><path class="cls-18" d="M141.65,239.39a4,4,0,0,1-.16,1.13c-.77,2.6-4.5,3.12-5.23,2.53-.48-1.51.69-2.26,2.89-2.3A2.55,2.55,0,0,0,141.65,239.39Z"/><path class="cls-31" d="M134.23,243.68c-2.23-1.48-7.77-1.57-7.72,5.52S130.19,263.76,134,264a9.22,9.22,0,0,0,4.34-.53,9.19,9.19,0,0,0,4.33.53c3.78-.23,7.41-7.7,7.46-14.79s-5.49-7-7.72-5.52l-4-.54Z"/><path class="cls-32" d="M134.55,243.68a4.45,4.45,0,0,0-1.13-.46c-1.47,1.4-2.33,2.74-2.33,7.24s1.5,11.46,4.7,13.55a7.41,7.41,0,0,0,2.52-.55,7.33,7.33,0,0,0,2.51.55c3.21-2.09,4.7-9.06,4.7-13.55s-.76-5.88-2.24-7.28a5.19,5.19,0,0,0-1.22.5l-3.71-.54Z"/><path class="cls-31" d="M138.31,241.42c-3.18,0-5.76,2.36-5.76,9s1.82,14.31,5.76,14.31,5.75-7.64,5.75-14.31S141.48,241.42,138.31,241.42Z"/><path class="cls-33" d="M137,242.74c-1.68,0-3.14,1.42-3.43,5.44s.34,8.62,2.43,8.62,3.37-4.6,3.66-8.62S138.69,242.74,137,242.74Z"/><path class="cls-33" d="M130.25,243.76c-1.63,0-2.55,1.56-2.76,4.52s.21,6.58,1.35,6.38.09-3.18.3-6.14S131.88,243.8,130.25,243.76Z"/><path class="cls-33" d="M146.4,243.76c1.64,0,2.56,1.56,2.77,4.52s-.21,6.58-1.35,6.38-.09-3.18-.3-6.14S144.77,243.8,146.4,243.76Z"/><path class="cls-38" d="M117.26,205.33a2.17,2.17,0,1,1,4.33,0v31.06a2.17,2.17,0,1,1-4.33,0Z"/><path class="cls-39" d="M76.12,239.45A7.58,7.58,0,1,0,83.85,247,7.66,7.66,0,0,0,76.12,239.45Z"/><path class="cls-39" d="M76.72,254.72c0-3-.11-6.4-.21-10-.69-24.47-1.63-58,21-62.61,1-.2,1.89-.34,2.61-.43,7.62-.89,13.16,1.39,17.15,5.4,3.68,3.7,5.73,8.77,6.79,14,.28,1.4.48,2.67.62,3.83a5.78,5.78,0,0,1-11.48,1.31c-.12-1.08-.27-2.06-.43-2.88-.66-3.24-1.79-6.23-3.68-8.14-1.59-1.59-4-2.47-7.66-2.05-.64.07-1.2.16-1.66.25C86.67,196,87.46,224,88,244.37c.1,3.71.2,7.19.2,10.35Z"/><path class="cls-40" d="M118.91,211.32a5.78,5.78,0,0,1-5.66-5.12c-.12-1.08-.27-2.06-.43-2.88-.66-3.24-1.79-6.23-3.68-8.14-1.59-1.59-4-2.47-7.66-2.05-.64.07-1.2.16-1.66.25C86.67,196,87.46,224,88,244.37c.07,2.52.13,4.94.17,7.23A4.44,4.44,0,0,1,84.09,247c0-2.71,0-6-.15-9.6-.51-19.33-1.21-45.86,15.65-49.47.75-.16,1.4-.28,1.94-.34,5.66-.71,9.77,1.09,12.74,4.26,2.62,2.81,4.25,13.26,4.74,17.77A5.68,5.68,0,0,1,118.91,211.32Z"/><path class="cls-39" d="M89.51,239.45c-.44,0-2.48,0-2.91.09-4.07.56-7.19,3.7-7.19,7.49a7.78,7.78,0,0,0,6.24,7.31,28.76,28.76,0,0,0,3.86.26c4.69,0,6.89-3.39,6.89-7.57S94.2,239.45,89.51,239.45Z"/><path class="cls-39" d="M168.43,254.72a2.63,2.63,0,0,0,1.92-2.52h0a2.62,2.62,0,0,0-2.62-2.62H88.06a2.63,2.63,0,0,0-2.62,2.62h0a2.64,2.64,0,0,0,1.92,2.52Z"/><path class="cls-41" d="M90.2,241.29c-2.37,0-4.29,2.57-4.29,5.74s1.92,5.74,4.29,5.74,4.28-2.57,4.28-5.74S92.56,241.29,90.2,241.29Z"/><path class="cls-38" d="M108.89,233.68c1.2,1.53,5.6,2.68,5.6,2.68C110.6,228.28,108.2,232.82,108.89,233.68Z"/><path class="cls-38" d="M128.68,230.16c-1.21,1.53-5.6,2.68-5.6,2.68C127,224.76,129.36,229.3,128.68,230.16Z"/><path class="cls-38" d="M114.53,229.56c.8,1.24.57,4.67.57,4.67C110.24,229.47,114.08,228.85,114.53,229.56Z"/><path class="cls-17" d="M334.36,254.64H65.64a6.75,6.75,0,0,0-6.73,6.74h0a6.75,6.75,0,0,0,6.73,6.73H334.36a6.75,6.75,0,0,0,6.73-6.73h0A6.75,6.75,0,0,0,334.36,254.64Z"/></svg>