<?xml version="1.0" encoding="utf-8"?>
<!-- Generator: Adobe Illustrator 23.1.1, SVG Export Plug-In . SVG Version: 6.00 Build 0)  -->
<svg version="1.1" id="Capa_1" xmlns="http://www.w3.org/2000/svg" xmlns:xlink="http://www.w3.org/1999/xlink" x="0px" y="0px"
	 viewBox="0 0 414 521.8" style="enable-background:new 0 0 414 521.8;" xml:space="preserve">
<style type="text/css">
	.st0{fill:none;}
	.st1{fill:#FFFFFF;}
	.st2{fill:none;stroke:#EAF1EE;stroke-width:300.16;stroke-linecap:round;stroke-linejoin:round;}
	.st3{fill:#59A491;}
	.st4{fill:#204C3F;}
	.st5{fill:#EAF1EE;}
	.st6{opacity:0.72;fill:#FFFFFF;enable-background:new    ;}
	.st7{fill:#79B5A4;}
	.st8{fill:#EDA38F;}
	.st9{fill:#FFC760;}
	.st10{fill:#2C3A64;}
	.st11{fill:url(#Trazado_232_1_);}
	.st12{fill-rule:evenodd;clip-rule:evenodd;fill:#FFFFFF;}
	.st13{fill:url(#Trazado_235_1_);}
	.st14{fill:#9ECC53;}
	.st15{fill:#FBAE17;}
	.st16{fill:#F26B21;}
	.st17{fill:#FFD846;}
	.st18{fill:#D5E27E;}
	.st19{fill:#6BA348;}
	.st20{fill:#EEDBAD;}
	.st21{fill:#D08C3C;}
	.st22{fill:#ECB266;}
	.st23{fill:#DAC9A0;}
	.st24{fill:#FFCA11;}
	.st25{fill:#7CA935;}
	.st26{fill:#C3D831;}
	.st27{fill:#93C840;}
	.st28{fill:#F79821;}
	.st29{fill:#FFF100;}
	.st30{fill:#EC1B34;}
	.st31{fill:#C7142B;}
	.st32{fill:#EF4846;}
	.st33{fill:#FFD140;}
	.st34{fill:#EC1B32;}
	.st35{fill:#D1E183;}
	.st36{fill:#760003;}
	.st37{fill:#C5DD85;}
	.st38{fill:#43B65C;}
	.st39{fill:#369B4F;}
	.st40{fill:#89C877;}
	.st41{fill:#904B9C;}
	.st42{fill:#81C574;}
	.st43{fill:#7E3F88;}
	.st44{fill:#B86DAB;}
	.st45{fill:#C5DB69;}
	.st46{fill:#7DA342;}
	.st47{fill:none;stroke:#FDFCFF;stroke-width:1.78;stroke-miterlimit:10;}
	.st48{fill:#ACD1C2;}
</style>
<title>onboarding_illustration_2</title>
<rect y="-48.3" class="st0" width="414" height="896"/>
<rect y="-48.3" class="st1" width="414" height="896"/>
<path class="st2" d="M196.8,392c0,0,49.1-25.9,51.9-74.1c2.9-48.2-6.4-32.2-38.4-48.2s-64.7-55.7-24.4-90.4"/>
<g id="Illustration">
	<path id="Trazado_174" class="st3" d="M22,343.4c5.2-52.9,18.4-184.3,21.2-203.5c3.6-24.1,33.2-18.8,33.2-18.8l6.3,244.3H41.5
		c-5.6,0-10.9-2.4-14.5-6.6C23.3,354.6,21.4,349,22,343.4z"/>
	<path id="Trazado_175" class="st3" d="M355.7,371.5c12.9-0.3,23.1-10.9,22.8-23.8l0,0l-4.2-198.3c-0.2-10.9-9-19.8-19.9-20.1
		l-287.8-8.6c-8.4-0.3-15.3,6.3-15.6,14.7c0,0.2,0,0.4,0,0.5l0.7,227.4c0,7.9,6.5,14.4,14.4,14.3h0.3L355.7,371.5z"/>
	<path id="Trazado_176" class="st4" d="M374.2,354.8c3.7,0,6.7-3.1,6.7-6.9c0,0,0,0,0,0c0-0.3,0-0.6-0.1-0.9
		c-4.2-27-17.6-119.9-13.3-197c0.2-3.5-2.4-6.4-5.9-6.6c0,0,0,0,0,0h-0.2l-289.1-9.2c-4-0.1-7.3,3-7.5,6.9
		c-1.2,32.4-5.8,166,0.2,213.4c0.4,2.9,2.8,5.1,5.8,5L374.2,354.8z"/>
	<path id="Trazado_177" class="st5" d="M366.9,351.8c3.6-0.1,6.5-3,6.4-6.6c0,0,0,0,0,0c0-0.3,0-0.6-0.1-0.9
		c-4.1-26-16.9-115.4-12.8-189.6c0.2-3.3-2.3-6.1-5.7-6.3c0,0,0,0,0,0h-0.1l-278.2-8.9c-3.8-0.1-7,2.9-7.2,6.7
		c-1.2,31.2-5.6,159.7,0.2,205.4c0.4,2.8,2.7,4.8,5.6,4.8L366.9,351.8z"/>
	<path id="Trazado_178" class="st6" d="M195.9,195.5l0.4,20c0.1,3-2.3,5.5-5.3,5.6c0,0,0,0,0,0h-0.1l-20.6,0.1c-3,0-5.4-2.4-5.5-5.4
		l-0.4-21.1c-0.1-3,2.3-5.5,5.3-5.6c0,0,0,0,0,0c0.1,0,0.2,0,0.4,0l20.6,0.9C193.6,190.2,195.9,192.5,195.9,195.5L195.9,195.5z"/>
	<path id="Trazado_179" class="st6" d="M267.8,220.9l-20.6,0.1c-3,0-5.4-2.4-5.5-5.4l-0.4-17.9c-0.1-3,2.3-5.5,5.4-5.6h0.3l20.6,0.8
		c2.9,0.1,5.2,2.5,5.3,5.4l0.4,17.1C273.3,218.4,270.8,220.9,267.8,220.9C267.8,220.9,267.8,220.9,267.8,220.9L267.8,220.9z"/>
	<path id="Trazado_180" class="st6" d="M249.8,310.2l19.5-0.2c3.3,0,5.9,2.6,6,5.9l0.4,18.3c0.1,3.2-2.5,5.9-5.7,6.1l-19.5,0.8
		c-3.3,0.1-6.1-2.4-6.2-5.7v-0.1l-0.4-18.9C243.8,313,246.4,310.3,249.8,310.2L249.8,310.2L249.8,310.2z"/>
	<path id="Trazado_181" class="st6" d="M282.7,333.7l-0.4-17.9c-0.1-3.2,2.5-5.9,5.7-6c0,0,0,0,0,0h0.1l19.8-0.2
		c3.2,0,5.9,2.5,5.9,5.8l0.4,17.3c0.1,3.2-2.4,5.9-5.6,6l-19.8,0.8c-3.2,0.1-6-2.4-6.1-5.6V333.7z"/>
	<path id="Trazado_182" class="st6" d="M281,252.9l-0.3-14.7c-0.1-3.5,2.7-6.4,6.2-6.5c0,0,0,0,0,0h0.1h18.9c3.4,0,6.3,2.8,6.3,6.2
		l0.3,14c0.1,3.5-2.7,6.3-6.1,6.5l-18.9,0.6C284,259.1,281.1,256.4,281,252.9L281,252.9L281,252.9z"/>
	<path id="Trazado_183" class="st6" d="M281.9,295.6l-0.5-22.5c-0.1-3.2,2.5-5.9,5.7-6l19.3-0.6c3.5-0.1,6.4,2.7,6.5,6.2l0,0
		l0.5,22.7c0.1,3.2-2.5,5.9-5.8,6c0,0,0,0,0,0h-19.9C284.6,301.3,282,298.7,281.9,295.6L281.9,295.6z"/>
	<path id="Trazado_184" class="st3" d="M229.4,221.1l-20.6,0.1c-3,0-5.4-2.4-5.5-5.4l-0.4-19.5c-0.1-3,2.3-5.5,5.4-5.6
		c0.1,0,0.2,0,0.3,0l20.6,0.7c2.9,0.1,5.2,2.5,5.3,5.4l0.4,18.7c0.1,3-2.3,5.5-5.4,5.6L229.4,221.1L229.4,221.1z"/>
	<path id="Trazado_185" class="st6" d="M243.4,295.5l-0.4-21c-0.1-3.3,2.5-6,5.8-6.1l19.5-0.6c3.3-0.1,6.1,2.5,6.2,5.8v0.1l0.5,21.7
		c0.1,3.3-2.6,6-5.9,6.1h-19.7C246.1,301.4,243.5,298.8,243.4,295.5L243.4,295.5z"/>
	<path id="Trazado_186" class="st6" d="M208.3,231.6l22.4,0c2.5,0,4.5,2,4.5,4.4l0.4,20.2c0.1,2.5-1.9,4.5-4.4,4.6l-22.4,0.7
		c-2.5,0.1-4.6-1.9-4.7-4.4c0,0,0,0,0,0v-0.1l-0.4-21C203.7,233.8,205.7,231.7,208.3,231.6L208.3,231.6z"/>
	<path id="Trazado_187" class="st6" d="M196.8,237.1l0.4,19.2c0.1,3.1-2.4,5.7-5.5,5.8l-20.1,0.6c-3.2,0.1-5.8-2.4-5.9-5.5l0,0
		l-0.4-20c-0.1-3.1,2.5-5.7,5.6-5.8h20.2C194.2,231.6,196.8,234.1,196.8,237.1L196.8,237.1z"/>
	<path id="Trazado_188" class="st6" d="M269.7,259.7l-22.4,0.7c-2.5,0.1-4.6-1.9-4.7-4.4v0l-0.4-19.7c-0.1-2.5,1.9-4.6,4.4-4.6
		c0,0,0,0,0,0h0.1h22.4c2.5,0,4.5,2,4.5,4.4l0.4,18.9C274.2,257.5,272.2,259.6,269.7,259.7C269.7,259.7,269.7,259.7,269.7,259.7z"/>
	<path id="Trazado_189" class="st6" d="M210.3,269.6l19.5-0.6c3.3-0.1,6,2.5,6.2,5.8v0.1l0.4,20.4c0.1,3.3-2.6,6-5.9,6.1H211
		c-3.3,0-5.9-2.6-6-5.9l-0.4-19.8C204.5,272.5,207.1,269.8,210.3,269.6z"/>
	<path id="Trazado_190" class="st6" d="M171.2,270.9l20.9-0.7c2.9-0.1,5.4,2.2,5.5,5.1c0,0,0,0,0,0v0.1l0.4,20.5
		c0.1,2.9-2.2,5.3-5.2,5.4c0,0,0,0,0,0h-21.1c-2.9,0-5.2-2.3-5.3-5.2l-0.4-19.9C166.1,273.4,168.3,271,171.2,270.9z"/>
	<path id="Trazado_191" class="st6" d="M303.4,220.5l-15.6,0.1c-4.1,0-7.5-3.3-7.6-7.4l-0.3-12.9c-0.1-3.7,2.9-6.8,6.6-6.9h0.4
		l17.4,0.6c3.9,0.1,7.1,3.3,7.2,7.3l0.2,10.8c0.1,4.6-3.5,8.4-8.1,8.5c0,0,0,0,0,0L303.4,220.5L303.4,220.5z"/>
	<path id="Trazado_192" class="st6" d="M320.7,315.9c-0.1-3.5,2.7-6.4,6.2-6.4c0,0,0,0,0,0l0,0l6.8-0.1c5.2,0,9.4,3.4,9.5,7.7
		l0.3,12.4c0.1,4.3-3.9,7.8-9,8.1l-7.3,0.3c-3.2,0.1-6-2.4-6.1-5.6v-0.1L320.7,315.9z"/>
	<path id="Trazado_193" class="st6" d="M102.2,311.6l13.4-0.1c3.3,0,5.9,2.6,6,5.9l0.5,23.3c0.1,3.2-2.5,5.9-5.7,6.1l-13.3,0.6
		c-5.3,0.2-9.8-3.2-9.8-7.6l-0.4-20C92.7,315.3,97,311.7,102.2,311.6z"/>
	<path id="Trazado_194" class="st6" d="M333.2,301.3h-6.6c-3.4,0-6.3-2.7-6.4-6.2l-0.5-22.8c-0.1-3.5,2.7-6.3,6.1-6.5l6.7-0.2
		c5.3-0.2,9.6,3.3,9.7,7.7l0.4,20C342.9,297.7,338.6,301.3,333.2,301.3z"/>
	<path id="Trazado_195" class="st6" d="M332.7,257.6l-8.4,0.3c-2.6,0.1-4.8-2-4.9-4.6v-0.1l-0.4-16.5c-0.1-2.6,2-4.8,4.7-4.9
		c0,0,0,0,0,0h8.5c5.1,0,9.2,3.4,9.4,7.6l0.2,10.1C341.9,253.8,337.9,257.4,332.7,257.6z"/>
	<path id="Trazado_196" class="st3" d="M100.1,186.6l13.4,0.5c3,0.1,5.5,2.6,5.5,5.6l0.5,23c0.1,3.2-2.4,5.8-5.6,5.8c0,0,0,0,0,0
		h-0.1l-13.8,0.1c-5.2,0-9.3-3.4-9.4-7.7l-0.4-19.2C90.1,190.1,94.6,186.4,100.1,186.6z"/>
	<path id="Trazado_197" class="st6" d="M211.4,310.6l19.6-0.2c3.3,0,5.9,2.6,6,5.9l0.4,19.6c0.1,3.2-2.5,5.9-5.7,6.1l-19.5,0.8
		c-3.3,0.1-6.1-2.4-6.2-5.7v-0.1l-0.4-20.2C205.4,313.4,208,310.6,211.4,310.6L211.4,310.6L211.4,310.6z"/>
	<path id="Trazado_198" class="st6" d="M100.7,231.4h13.6c3.1,0,5.6,2.5,5.7,5.6l0.5,21.9c0.1,3.1-2.4,5.7-5.5,5.8l-13.6,0.4
		c-5.3,0.2-9.7-3.3-9.7-7.7l-0.4-18C91,235,95.3,231.4,100.7,231.4z"/>
	<path id="Trazado_199" class="st6" d="M101.1,273.2l14.2-0.5c2.9-0.1,5.4,2.2,5.5,5.1v0.1l0.4,18c0.1,2.9-2.3,5.3-5.2,5.4h-14.3
		c-5.1,0-9.3-3.4-9.4-7.7L92,281.3C91.9,277,96,273.4,101.1,273.2z"/>
	<path id="Trazado_200" class="st6" d="M159.2,276.7l0.4,19.3c0.1,2.9-2.3,5.3-5.2,5.4h-21c-2.9,0-5.2-2.3-5.3-5.2l-0.4-18.6
		c-0.1-2.9,2.2-5.3,5.1-5.4l20.9-0.7C156.7,271.4,159.1,273.7,159.2,276.7L159.2,276.7L159.2,276.7z"/>
	<path id="Trazado_201" class="st6" d="M134.5,311.3l19.5-0.2c3.3,0,5.9,2.6,6,5.9l0.5,22.1c0.1,3.2-2.5,5.9-5.7,6.1l-19.5,0.8
		c-3.3,0.1-6.1-2.4-6.2-5.7v-0.1l-0.5-22.7C128.5,314.1,131.1,311.4,134.5,311.3L134.5,311.3z"/>
	<path id="Trazado_202" class="st6" d="M331.6,220.3l-8.2,0c-2.6,0-4.8-2.1-4.8-4.7l-0.3-16.1c-0.1-2.6,2-4.8,4.7-4.9c0,0,0,0,0,0
		h0.3l8.7,0.3c5,0.2,8.9,3.5,9,7.6l0.2,9.6C341.1,216.6,336.9,220.3,331.6,220.3z"/>
	<path id="Trazado_203" class="st6" d="M172.9,310.9l19.2-0.2c3.5,0,6.3,2.7,6.4,6.2l0.4,20.5c0.1,3.2-2.5,5.9-5.7,6.1l-19.5,0.8
		c-3.3,0.1-6.1-2.4-6.2-5.7c0,0,0-0.1,0-0.1l-0.5-21.4C166.9,313.8,169.6,311,172.9,310.9L172.9,310.9z"/>
	<path id="Trazado_204" class="st6" d="M157.5,194.1l0.4,21.4c0.1,3.1-2.5,5.7-5.6,5.8h-0.1l-20.1,0.1c-3.1,0-5.6-2.5-5.7-5.6
		l-0.5-22.3c-0.1-3.2,2.4-5.8,5.6-5.8h0.3l20.1,0.8C155,188.6,157.4,191,157.5,194.1z"/>
	<path id="Trazado_205" class="st6" d="M158.4,237.1l0.4,20.6c0.1,3.1-2.4,5.7-5.5,5.8l-20.1,0.6c-3.2,0.1-5.8-2.4-5.9-5.5l0,0
		l-0.4-21.3c-0.1-3.1,2.5-5.7,5.6-5.8h0.1h20.1C155.8,231.5,158.3,234,158.4,237.1L158.4,237.1z"/>
	<path id="Trazado_206" class="st1" d="M333.8,177.6l-0.9,6.8c-0.3,2.2-2.1,3.8-4.3,3.9h-0.3c-2.5,0.1-4.5-1.9-4.5-4.3c0,0,0,0,0,0
		l0,0l-0.1-6.9c-0.1-2.5,1.9-4.5,4.3-4.6h0.6l1.4,0.2c2.4,0.2,4.2,2.4,4,4.9c0,0,0,0,0,0C333.9,177.5,333.9,177.6,333.8,177.6
		L333.8,177.6z"/>
	<path id="Trazado_207" class="st1" d="M302.3,175.8l-0.9,6.8c-0.3,2.2-2.1,3.8-4.3,3.9h-0.3c-2.5,0.1-4.5-1.9-4.5-4.3c0,0,0,0,0,0
		l0,0l-0.2-7c-0.1-2.5,1.9-4.5,4.3-4.5c0,0,0,0,0,0c0.2,0,0.4,0,0.6,0l1.4,0.1c2.4,0.2,4.2,2.4,4,4.8c0,0,0,0,0,0
		C302.4,175.7,302.4,175.8,302.3,175.8L302.3,175.8z"/>
	<path id="Trazado_208" class="st1" d="M263.6,176.4l-0.9,6.8c-0.3,2.2-2.1,3.8-4.3,3.9H258c-2.4,0.1-4.5-1.9-4.5-4.3l0,0l-0.1-6.9
		c-0.1-2.5,1.9-4.5,4.3-4.5c0,0,0,0,0,0c0.2,0,0.4,0,0.6,0l1.4,0.1c2.4,0.3,4.2,2.5,3.9,4.9c0,0,0,0,0,0
		C263.6,176.3,263.6,176.3,263.6,176.4L263.6,176.4z"/>
	<path id="Trazado_209" class="st1" d="M225.8,174.7l-0.9,6.8c-0.3,2.2-2.1,3.8-4.3,3.9h-0.3c-2.4,0.1-4.5-1.9-4.5-4.3l0,0l-0.1-7
		c-0.1-2.5,1.9-4.5,4.3-4.5c0,0,0,0,0,0c0.2,0,0.4,0,0.6,0l1.4,0.2c2.4,0.3,4.2,2.4,3.9,4.9C225.9,174.6,225.9,174.6,225.8,174.7
		L225.8,174.7z"/>
	<path id="Trazado_210" class="st1" d="M187.1,169.8l-0.9,6.8c-0.3,2.2-2.1,3.8-4.3,3.9h-0.3c-2.5,0.1-4.5-1.9-4.5-4.3c0,0,0,0,0,0
		l0,0l-0.1-7c-0.1-2.5,1.9-4.5,4.3-4.5c0,0,0,0,0,0h0.6l1.4,0.1c2.4,0.3,4.2,2.4,3.9,4.9C187.1,169.6,187.1,169.7,187.1,169.8
		L187.1,169.8z"/>
	<path id="Trazado_211" class="st1" d="M146,170.6l-0.9,6.8c-0.3,2.2-2.1,3.8-4.3,3.9h-0.3c-2.4,0.1-4.5-1.9-4.5-4.3c0,0,0,0,0,0
		l0,0l-0.1-6.9c-0.1-2.4,1.8-4.5,4.3-4.6c0.2,0,0.4,0,0.6,0l1.4,0.1c2.4,0.2,4.2,2.4,4,4.9c0,0,0,0,0,0
		C146,170.4,146,170.5,146,170.6L146,170.6z"/>
	<path id="Trazado_212" class="st1" d="M111.3,169.9l-0.9,6.8c-0.3,2.2-2.1,3.8-4.3,3.9h-0.3c-2.4,0.1-4.5-1.9-4.5-4.3l0,0l-0.1-6.9
		c-0.1-2.5,1.9-4.5,4.3-4.6c0.2,0,0.4,0,0.6,0l1.4,0.2c2.4,0.3,4.2,2.5,3.9,4.9c0,0,0,0,0,0C111.3,169.8,111.3,169.9,111.3,169.9
		L111.3,169.9z"/>
	<circle id="Elipse_8" class="st4" cx="326.1" cy="158.8" r="7.8"/>
	
		<ellipse id="Elipse_9" transform="matrix(0.1602 -0.9871 0.9871 0.1602 64.0125 391.5973)" class="st4" cx="262.1" cy="158.2" rx="7.8" ry="7.8"/>
	<circle id="Elipse_10" class="st4" cx="197.6" cy="156.1" r="7.8"/>
	<circle id="Elipse_11" class="st4" cx="133.7" cy="153.1" r="7.8"/>
	<path id="Trazado_213" class="st7" d="M127.8,99c13.1,2.9,11.9,37.4,10.8,51.4c-0.3,3.3-3,5.8-6.3,5.8c-1.8,0-3.2-1.4-3.2-3.2
		c0,0,0,0,0,0c0-0.1,0-0.2,0-0.4c1.1-10.6,3.6-41.1-6.1-42.8c0,0-6.9-1.2-8.1,12.2h-7.5C107.4,122.1,111.3,95.4,127.8,99z"/>
	<path id="Trazado_214" class="st7" d="M191.7,100.8c13.1,2.9,11.9,37.4,10.8,51.4c-0.3,3.3-3,5.8-6.3,5.9c-1.8,0-3.2-1.4-3.2-3.2
		c0-0.1,0-0.2,0-0.4c1.1-10.6,3.6-41.1-6.1-42.8c0,0-6.9-1-8.1,12.2h-7.5C171.3,123.9,175.2,97.2,191.7,100.8z"/>
	<path id="Trazado_215" class="st7" d="M255.6,102.6c13.1,2.9,11.9,37.4,10.8,51.4c-0.3,3.3-3,5.8-6.3,5.9c-1.8,0-3.2-1.4-3.2-3.2
		l0,0c0-0.1,0-0.2,0-0.4c1.1-10.6,3.5-41.1-6.1-42.8c0,0-6.9-0.8-8.1,12.4l-7.5-0.2C235.2,125.7,239.1,99,255.6,102.6z"/>
	<path id="Trazado_216" class="st7" d="M319.5,104.7c13.1,2.9,11.9,37.4,10.8,51.5c-0.3,3.3-3,5.9-6.3,5.9c-1.8,0-3.2-1.4-3.2-3.2
		c0-0.1,0-0.2,0-0.4c1.1-10.6,3.5-41.2-6.1-42.8c0,0-6.9-1-8.1,12.1h-7.5C299.1,127.8,303,101.1,319.5,104.7z"/>
	<path id="Trazado_217" class="st8" d="M306.7,237.7l-7.2,22.8c0,0-8.3,6.1-19,0.3c-1.8-1-3.5-2.2-5-3.6
		c-12.9-11.5-4.4-28.3-4.4-28.3s-9.9-4-5.5-12.3c0.2-0.4,0.6-0.5,0.9-0.3c0,0,0,0,0.1,0c0.2,0.1,0.3,0.3,0.4,0.5
		c0.6,2.3,2.2,6.4,5.5,7.8c0.2,0.1,0.3,0.1,0.5,0.2c0.2-0.5,0.1-1.1-0.2-1.5c-1-1.5,0.8-3.7,0.8-3.7c0.1,1.2,0.7,2.2,1.5,3
		c1.4,1.3,1.8,3.3,1,5.1c-1.8,6.9-4.4,15.9,5.9,22.5c1,0.6,2.1,1.1,3.3,1.3C295.1,253.1,306.7,237.7,306.7,237.7z"/>
	<path id="Trazado_218" class="st9" d="M306.7,237.7l-7.2,22.8c0,0-8.3,6.1-19,0.3l4.7-9.3C295.1,253.1,306.7,237.7,306.7,237.7z"/>
	<path id="Trazado_219" class="st10" d="M308.9,209.7c0,0-4.1-14.2,11.2-10.3c0,0,7.5-1,7.7,6c2,3.3,3.2,7,3.4,10.9
		c0,0,14.7,3.8,17,9.7s1.1,15.6-5,17.2c2.8,1.6,3.9,5.1,2.4,8c-2.4,5.5-14.1,9-20.8,2.2c0,0-19.6,2.1-18.9-11.7
		c0,0-8.9-6.1,0.9-17.2S308.9,209.7,308.9,209.7z"/>
	<path id="Trazado_220" class="st9" d="M307.7,235.2c3.1-0.9,12.1-2.6,20.6,5.2c1.4,1.3,2,3.4,1.5,5.3c-2.3,8.4-8.3,33.3-3,44.1
		c0,0-9.3,10.3-19.5,2c0,0-4.6-19.9-10.5-28.7c-4.1-6,6.6-22.7,9.3-26.7C306.4,235.8,307,235.4,307.7,235.2z"/>
	<path id="Trazado_221" class="st8" d="M316.2,218.4c0,0,4.5,12.9,4.9,18.6c-3.3,1.3-7,0.7-9.8-1.5c0,0-0.5-12.9-1.2-15.2
		L316.2,218.4z"/>
	<path id="Trazado_222" class="st8" d="M308.9,205.7c0,0-12.3,16.4-5.3,21.4s15.7-6.6,15.7-6.6s3-9.1,0.2-12.2
		S308.9,205.7,308.9,205.7z"/>
	<path id="Trazado_223" class="st10" d="M314.5,201.9c0,0-5.5,1.2-6.3,3.6s7.6,5,10,5.1l1.7,10c0,0,5.9-9.3,3.8-14.7
		S314.5,201.9,314.5,201.9z"/>
	<path id="Trazado_224" class="st8" d="M317.1,219.2c0,0,4.8-5.3,6.5-1.7s-4.3,6-6.3,4.3L317.1,219.2z"/>
	<path id="Trazado_225" class="st8" d="M295.3,333.6c0,0.9-1.5,8.1-2.4,11.9c-0.4,1.5-0.1,3.2,0.7,4.5l29.9,50.4
		c0.4,0.6,0.6,1.3,0.8,2c1.1,4.4,1.4,8.9,1.1,13.4l-1.5,3.2l6.7-1.5l1.5-18l-1.9-1.2c-1.6-1-2.9-2.5-3.6-4.3
		c-2.7-6.6-9.4-23.3-11.1-31.5c-2-9.3-12.3-16.8-12.3-16.8l1.8-4.3L295.3,333.6z"/>
	<path id="Trazado_226" class="st10" d="M338,411.3c0,0-3.6-5.7-4-8s-1.6-6.2-3.8-5c0,0-1,10.8-0.7,15.1s-4.8,4.1-4.8,4.1
		c-0.9,0.2-1.8,0.6-2.5,1.3c-0.5,0.5-0.4,1.2,0,1.7c0,0,0,0,0,0c0.2,0.2,0.5,0.3,0.8,0.3c2.4,0.2,4.8,0,7.2-0.4c1-0.2,1.7-1,1.8-2
		l0.7-12.5l4.6,5.8L338,411.3z"/>
	<path id="Trazado_227" class="st8" d="M313.2,341.6c0,0,1.1,45,1.2,51.4s-1,20.6-7.4,24.8l2.8,2.1c2.7-2.5,5-5.5,6.9-8.7
		c3.8-6.4,5-7.6,5-7.6l-1.3-2.6c-0.6-1.1-0.7-2.4-0.5-3.7c1.4-6.7,6-29,7.3-33.8c1.5-5.7,1.6-13.2-3.6-19.6S313.2,341.6,313.2,341.6
		z"/>
	<path id="Trazado_228" class="st10" d="M319.1,422c0.2,0,0.4-0.2,0.4-0.4c0.2-1.5,1.1-7.5,1.8-9.1c0.8-1.8,3.6-9.3,0-9.9
		c0,0-8.8,12.9-10.5,14.6c-1,1-2.6,1.3-3.8,0.6c-1.1,0.4-2.1,1.1-2.9,2.1c-0.4,0.5-0.3,1.2,0.2,1.6c0.2,0.2,0.5,0.3,0.8,0.2l6,0.1
		c1.7,0,3.3-1.1,3.9-2.7c1-2.6,2.9-6.5,5-8.1l-1.1,10.4C318.8,421.8,318.9,421.9,319.1,422C319.1,422,319.1,422,319.1,422L319.1,422
		L319.1,422z"/>
	<path id="Trazado_229" class="st3" d="M305.8,286.9c0,0,1.4,4.3-0.7,11.3l-12.8,44.6c-0.2,0.7,0.2,1.4,0.9,1.7
		c3.8,1.4,16.4,5.2,33.5,4.1c0.9-0.1,1.6-0.7,1.8-1.5c1.1-5.1,5-22.5,5.8-26c3-13.6,6.4-28.2-8.5-37.1
		C319,286.9,312.6,288.6,305.8,286.9z"/>
	<path id="Trazado_230" class="st9" d="M347.1,269.7h0.1c-1.6-1.3-10.1-1.3-10.1-1.3s-6.2-9-8.3-11.2l-0.2-0.2
		c0-0.1-0.1-0.1-0.2-0.1c-0.8-0.7-1.6-1.4-2.5-2.2c-1-0.8-1.7-1.8-2.2-3c-3.3-8.3-0.7-13.7,5.3-10.2c0,0,12.6,10.5,17.5,25.4
		c0,0.2,0.1,0.4,0.2,0.5c0.2,0.7,0.4,1.4,0.6,2c0,0,0,0.1,0,0.2S347.1,269.6,347.1,269.7z"/>
	<path id="Trazado_231" class="st8" d="M315.9,275.1c0,0,14.7,8.3,19.7,1.2c1-1.5,1.8-6.5,1.5-7.9c4.4-2.2,7.7,1,10.2,0.9
		c0.6,3.4,1,6.7-1,10.4c-8.7,15.9-32.3-0.9-32.3-0.9L315.9,275.1z"/>
	
		<linearGradient id="Trazado_232_1_" gradientUnits="userSpaceOnUse" x1="-553.5551" y1="-153.0638" x2="-552.7651" y2="-150.5139" gradientTransform="matrix(20.31 0 0 26.4 12035 6357.1719)">
		<stop  offset="0" style="stop-color:#09005D"/>
		<stop  offset="1" style="stop-color:#1A0F91"/>
	</linearGradient>
	<path id="Trazado_232" class="st11" d="M315.2,285l-5.2-24.5c-0.1-0.2-0.2-0.4-0.5-0.5c-1.4-0.7-4.2-0.2-6.6,0.1
		c-3.8,0.5-4.8,0.4-7.5,0.7c-0.4,0-0.6,0.6-0.4,1c1.5,4.1,4.1,18.5,7.2,23.9c0.1,0.2,0.2,0.3,0.4,0.3l12.1-0.1
		C315.1,285.9,315.3,285.5,315.2,285z"/>
	<path id="Trazado_233" class="st12" d="M304.1,270.2c0.1-0.1,0.1-0.3,0.2-0.4c0.1-0.1,0.3-0.1,0.5,0c0.1,0.1,0.1,0.2,0.1,0.3
		c0,0.1-0.1,0.2-0.1,0.3v0.1c-0.1,0.2-0.3,0.2-0.5,0.1C304.2,270.6,304.1,270.4,304.1,270.2L304.1,270.2z"/>
	<path id="Trazado_234" class="st12" d="M304.6,271.2c0.2,0,0.5-0.4,0.9-0.5c0.3-0.1,0.6-0.1,0.8,0c0.2,0.1,0.3,0.3,0.2,0.4
		c0,0,0,0,0,0l0,0c-0.2,0.3-0.2,0.7-0.1,1c0.1,0.4,0.4,0.7,0.8,0.8c0.2,0.1,0.3,0.2,0.2,0.4c0,0.5-0.2,1.4-0.7,1.5
		c-0.3,0.1-0.6,0-1,0s-0.6,0.4-0.8,0.5c-0.6,0.2-1.9-0.9-2.2-2c-0.3-0.8,0-1.6,0.7-2h0.1C303.9,271.2,304.3,271.2,304.6,271.2z"/>
	
		<linearGradient id="Trazado_235_1_" gradientUnits="userSpaceOnUse" x1="-29.8756" y1="-209.7139" x2="-28.8758" y2="-209.7139" gradientTransform="matrix(10.68 0 0 9.6 6192.52 2287.3254)">
		<stop  offset="0" style="stop-color:#FEBBBA"/>
		<stop  offset="1" style="stop-color:#FF928E"/>
	</linearGradient>
	<path id="Trazado_235" class="st13" d="M315.7,278.8c0,0,1.1-4.6,0.7-6.2s-1.3-3.7-4.2-3.3c-2.2,0.4-4.3,1-6.3,1.7
		c0,0.9,0.8,1.6,1.7,1.6c0,0,0,0,0,0c0.2,0,0.4-0.1,0.6-0.2l-1.4,1c0,0,0.2,1.7,2.1,0.8l-1.3,1.5c0.4,0.7,1.3,1,2,0.6l0.2-0.1
		C311.2,275.3,311.8,279.4,315.7,278.8z"/>
	<path id="Trazado_236" class="st14" d="M386.8,98.2c8.3-14.9,25.9-13.6,26.8-7.8S403,99.8,403,99.8s23,5.2,16.4,19.3
		s-22.8-10.3-22.8-10.3s10.2,16-1,17.8S380.2,109.9,386.8,98.2z"/>
	<path id="Trazado_237" class="st15" d="M394.4,77.7c10.2,9.5-9.7,34.4-21.8,32.8s-53.9-43-48.4-56.2S382.6,66.6,394.4,77.7z"/>
	<path id="Trazado_238" class="st16" d="M366.2,100.9c8-1.9,16.2-12.9,17-20.9c0-0.5-0.3-0.9-0.8-0.9c-0.3,0-0.7,0.1-0.8,0.4
		c-2.2,3.8-3.8,7.6-6.8,11c-2.8,3.2-6.3,5.7-10.2,7.4c-0.5,0.2-0.8,0.8-0.6,1.3c0,0,0,0,0,0.1c0,0.1,0.1,0.1,0.1,0.2l0.4,0.7
		C364.9,100.7,365.6,101,366.2,100.9z"/>
	<path id="Trazado_239" class="st16" d="M351.3,87.2c3-0.9,6-4.3,8-6.7c2.2-2.6,3.7-5.8,4.4-9.1c0.3-1.3-1.7-1.5-2-0.3
		c-1.1,3.4-3,6.5-5.7,8.9c-2,2-4.7,3.5-6.1,5.9C349.5,86.6,350.5,87.4,351.3,87.2z"/>
	<path id="Trazado_240" class="st16" d="M337.2,72.5c3.5-0.6,6.3-4.6,8.1-7.4c0.8-1.3-1.3-2.5-2.2-1.3c-1,1.3-2.2,2.5-3.5,3.5
		c-1.2,1-2.7,1.6-3.8,2.8c-0.5,0.7-0.4,1.7,0.3,2.2C336.4,72.4,336.8,72.6,337.2,72.5L337.2,72.5z"/>
	<path id="Trazado_241" class="st17" d="M392.8,84.4c0.8,0.3,2-0.1,1.8-1.3c-0.6-3.4-4.4-5.9-7-7.9c-2.1-1.6-6.2-5.3-9-3.8
		c-0.5,0.2-0.7,0.7-0.7,1.2c0.4,2.9,4.4,4.1,6.6,5.6C387.1,80,389.7,83.5,392.8,84.4C392.8,84.4,392.8,84.4,392.8,84.4z"/>
	<path id="Trazado_242" class="st17" d="M375.2,69.5c-1.3-0.6-2.4-1.3-3.5-2.2c-0.9-0.6-2-0.4-2.6,0.5c-0.4,0.6-0.5,1.5-0.1,2.1
		c1.1,1.7,3.3,2.6,5.2,3.1S377.1,70.2,375.2,69.5z"/>
	<path id="Trazado_243" class="st18" d="M408.9,91.4c1.3,0,1.4-2.3,0-2.4c-0.6,0-1.2-0.2-1.7-0.6c-1.3-1-3,1.1-1.6,2
		C406.6,91.1,407.7,91.5,408.9,91.4z"/>
	<path id="Trazado_244" class="st18" d="M417.1,114.6c0.4-0.8,0.4-1.7,0-2.4c-0.2-0.6-0.5-1.3-0.8-2c-0.6-1.4-1.7-2.7-3.4-2.5
		c-0.7,0.1-1.3,0.7-1.4,1.4c-0.1,0.7,0.3,1.5,1,1.8l0.2,0.1l0.2,0.1c0.1,0.2,0.3,0.4,0.4,0.6c0.7,1.3,1,3,2.6,3.5
		C416.3,115.3,416.9,115.1,417.1,114.6z"/>
	<path id="Trazado_245" class="st18" d="M411.2,105.7c-0.5-0.4-1.1-0.7-1.7-1c-0.7-0.3-1.4,0-1.7,0.7c-0.2,0.5-0.1,1.2,0.4,1.5
		c0.5,0.4,1.1,0.7,1.7,1C411.2,108.5,412.5,106.5,411.2,105.7z"/>
	<path id="Trazado_246" class="st18" d="M397.6,122.9c0.7-0.4,1-1.3,0.7-2c-0.1-0.6-0.4-1.2-0.7-1.7c-0.5-0.6-1.3-0.8-2-0.6
		c-0.7,0.3-1.1,1-1,1.8c0.2,0.8,0.5,1.5,1,2.1C396.1,123.1,396.9,123.3,397.6,122.9L397.6,122.9z"/>
	<path id="Trazado_247" class="st19" d="M393.4,109.2c-0.1-1.3-0.1-2.5,0-3.8c0.7,0.5,1.4,0.9,2.2,1.4c1.3,0.7,2.4,1.5,4,1
		c0.9-0.4,1.4-1.4,1-2.4c-0.2-0.4-0.5-0.8-0.9-1c-0.3-0.3-0.5-0.6-0.8-0.9c-0.5-0.4-0.9-0.9-1.4-1.3c-0.1-0.1-0.2-0.2-0.4-0.3
		c1.1-0.6,2.1-1.3,3.2-2c0.7-0.5,0.9-1.4,0.5-2.2c-0.4-0.7-1.3-1.1-2.1-0.8c-1.8,0.5-3.7,1.1-5.4,1.8c-0.4,0.2-0.8,0.5-1,0.9
		c-0.9,0.4-1.5,1.2-1.7,2.1l0,0c-1,2.5-1.4,5.3-1.4,8C389.2,112.5,393.6,112,393.4,109.2z"/>
	<path id="Trazado_248" class="st20" d="M405.5,385.2c0,0,0.5,14.1-1.7,25.1s13.6,14.5,22.5,2.9s-3-25.4-8.1-30.8
		S406.5,381.9,405.5,385.2z"/>
	<path id="Trazado_249" class="st21" d="M413.6,388.7c-27.9,7.4-45-1-33.6-25.7s40.8-24.7,51.9-9.5S443,380.8,413.6,388.7z"/>
	<path id="Trazado_250" class="st22" d="M437.4,363.3c-2.1,4.1-6.6,6.3-11.1,5.5c-5.6-1-4.3,0.3-7.4,4.8s-10.4,3.2-16.5,0.3
		s-5.3,1.5-14.1,5.2c-5.4,2.3-9.4-1.6-11.7-4.9c-1.9,16,13.9,20.8,37,14.6C436.4,382.6,441.5,373.9,437.4,363.3z"/>
	<path id="Trazado_251" class="st23" d="M419.4,403.5c-1.6,2.5-3.7,8.9-7.2,9.4c-1.3,0.2-1.9,2.2-0.5,2.7c6.1,2,11.2-4.5,12.9-9.6
		c0.6-1.5-0.1-3.2-1.6-3.7C421.7,401.7,420.1,402.3,419.4,403.5z"/>
	<path id="Trazado_253" class="st22" d="M400.8,351c-0.1-1.2-1.2-2.1-2.4-2c-1.4,0.1-2.4,1.1-3.4,2c-0.8,0.8-1.6,1.6-2.3,2.5
		c-1.1,1.1-1,3,0.1,4c1.1,1.1,3,1,4-0.1c0.1-0.1,0.1-0.1,0.2-0.2l0,0C398.6,355.7,400.9,353.5,400.8,351z"/>
	<path id="Trazado_254" class="st22" d="M405.2,356.1c0-0.1,0-0.1-0.1-0.2c-0.3-0.9-1.3-1.4-2.1-1.1s-1.4,1.3-1.1,2.1
		c0,0.1,0,0.1,0.1,0.2c0.1,0.3,0.3,0.5,0.5,0.7l0.1,0.1c0.7,0.6,1.8,0.4,2.3-0.3c0,0,0,0,0,0C405.3,357.2,405.4,356.6,405.2,356.1z"
		/>
	<path id="Trazado_255" class="st22" d="M409.5,349.6l-0.9-0.5c-0.9-0.4-1.9-0.1-2.3,0.8c-0.3,0.7-0.2,1.6,0.4,2.1l0.8,0.7
		c0.8,0.6,1.9,0.5,2.6-0.3s0.5-1.9-0.3-2.6C409.7,349.8,409.6,349.7,409.5,349.6L409.5,349.6z"/>
	<path id="Trazado_256" class="st22" d="M420.6,347.1c-1.4-1.4-3.8-1.5-5.7-1.3c-2.2,0.1-2.9,3.6-0.8,4.4c1.4,0.5,2.7,1.5,4.2,1.8
		c1.2,0.2,2.5-0.4,3-1.5C421.9,349.3,421.6,348,420.6,347.1L420.6,347.1z"/>
	<path id="Trazado_257" class="st21" d="M390.2,383.1c-0.2-0.6-0.7-1.1-1.3-1.4c-1.2-0.8-2.7,0.6-2.4,1.9c0,0.2,0,0.4,0,0.6
		c0.1,0.7,0.6,1.4,1.3,1.6c0.7,0.2,1.5,0,2-0.6C390.3,384.7,390.4,383.9,390.2,383.1L390.2,383.1z"/>
	<path id="Trazado_258" class="st21" d="M400.3,378.9c0.3-1.1-0.4-2.3-1.6-2.5c-1.1-0.3-2.3,0.4-2.5,1.6c0,0.1,0,0.2,0,0.2
		c-0.4,1-0.5,2.1-0.5,3.2c0.2,1.2,1.2,2,2.4,1.8c0,0,0,0,0,0c0.7-0.1,1.3-0.5,1.6-1.1C400.1,381.1,400.3,380,400.3,378.9z"/>
	<path id="Trazado_259" class="st21" d="M406.8,382.2l-0.4-0.1c-0.6-0.3-1.3-0.1-1.8,0.4c-0.4,0.5-0.5,1.3-0.1,1.8l0.2,0.3
		c0.5,0.7,1.5,0.9,2.3,0.4c0.7-0.5,0.9-1.5,0.4-2.3l0,0C407.3,382.5,407,382.4,406.8,382.2L406.8,382.2z"/>
	<g>
		<path id="Trazado_262" class="st24" d="M65.7,70.1c0,0,9.6-30.4-0.2-37.3S34.7,47.6,29.8,55.4S28.7,91,28.7,91l14.5,5.7l17.2-12
			L65.7,70.1z"/>
		<path id="Trazado_263" class="st25" d="M36,101.3c0,0-0.8,6.2-2.4,9s-13.9-3.5-13.3-6.8c0.6-3.3,5.8-6.9,5.8-6.9L36,101.3z"/>
		<path id="Trazado_264" class="st26" d="M39.5,91.6c0,0,1.8-31.3-8.7-42.2c0,0-28.4,29.6-4.8,52.5L39.5,91.6z"/>
		<path id="Trazado_265" class="st27" d="M25.9,101.9c0,0,17.8-28.6,44.1-36.8C70,65.1,63.8,117.7,25.9,101.9z"/>
		<path id="Trazado_266" class="st27" d="M27,91.1c0.1-4.1-2.5-8.1-2.8-12.3c-0.4-5.9,1-11.8,3.9-16.9c0.4-0.7-0.5-1.3-1-0.7
			c-3.1,4.9-4.9,10.5-5,16.3C22,81.7,22.3,88.8,26,91.6c0.3,0.2,0.7,0.1,0.9-0.2C27,91.3,27,91.2,27,91.1L27,91.1z"/>
		<path id="Trazado_267" class="st27" d="M35,84.9c0.5-2.5-1-5.4-1.6-7.8c-0.8-3.2-1-6.4-0.8-9.6c0-0.5-0.8-0.8-0.9-0.2
			c-0.7,3-0.8,6.1-0.4,9.1c0.4,2.8,0.6,6.9,2.6,8.9c0.3,0.3,0.7,0.3,1,0.1C35,85.2,35.1,85.1,35,84.9L35,84.9z"/>
		<path id="Trazado_268" class="st26" d="M47,87.6c2.3-1.7,4.4-3.5,6.6-5.3c0.2-0.2,0.3-0.6,0.1-0.8c0,0,0,0,0,0
			c-0.2-0.2-0.6-0.3-0.8-0.1c-2.1,1.6-4.2,3.2-6.4,4.7c-2.1,1.5-4.7,2.6-6.4,4.6c-0.3,0.2-0.3,0.6,0,0.9c0.2,0.2,0.5,0.3,0.7,0.2
			C43,90.9,45,89.1,47,87.6z"/>
		<path id="Trazado_269" class="st26" d="M61.5,81.5c0.2-0.3,0.1-0.6-0.2-0.8c-0.2-0.1-0.5-0.1-0.7,0.1c-6.6,8.8-13.5,17-24.9,19.2
			c-0.5,0.1-0.8,0.5-0.7,1c0.1,0.5,0.5,0.8,1,0.7l0,0C47.8,100.8,55.3,90.5,61.5,81.5z"/>
		<path id="Trazado_270" class="st28" d="M58.7,42c-0.6-0.5-1.3-0.7-1.8-1.2c-0.5-0.5-0.9-1.1-1-1.8c-0.1-0.4-0.5-0.7-1-0.6
			c-0.3,0.1-0.6,0.3-0.6,0.7c-0.3,2.2,1.3,5.1,3.7,5c0.6-0.1,1-0.7,0.9-1.4C58.9,42.4,58.8,42.2,58.7,42z"/>
		<path id="Trazado_271" class="st28" d="M62.9,43c0.3-0.4,0.1-0.9-0.2-1.2c-0.5-0.4-1.2-0.3-1.6-0.8c-0.6-0.8-2.1,0.1-1.5,1
			C60.2,43.1,61.8,44.2,62.9,43z"/>
		<path id="Trazado_272" class="st28" d="M66.2,48.9c0.4-0.3,0.4-0.9,0.1-1.2c0,0,0,0,0,0c-0.1-0.2-0.3-0.3-0.5-0.3
			c-0.4-0.1-0.8,0.1-1.2,0c-0.4,0-0.7-0.2-0.9-0.4c-0.3-0.2-0.7-0.1-0.9,0.1c-0.2,0.3-0.2,0.7,0,0.9C63.3,49,65.1,49.9,66.2,48.9z"
			/>
		<path id="Trazado_273" class="st28" d="M57.1,48.4c0.1-0.4,0-0.9-0.4-1.2c-0.7-0.6-1.9-0.8-2.8-1.1c-0.4-0.2-0.9,0.1-1.1,0.5
			c-0.1,0.4,0,0.8,0.3,1C54,48.1,55,48.9,56,49C56.5,49.1,56.9,48.8,57.1,48.4z"/>
		<path id="Trazado_274" class="st28" d="M49,49.4c-0.7-0.8-1.2-1.8-1.4-2.9c-0.1-0.7-1.2-0.6-1.3,0.1c-0.3,1.6,0.3,3.2,1.5,4.2
			C48.7,51.4,49.7,50.2,49,49.4z"/>
		<path id="Trazado_275" class="st28" d="M56.9,55.5c0.2-0.2,0.2-0.5,0.1-0.8c-0.5-0.9-1.7-0.9-2.3-1.8c-0.2-0.5-0.9-0.7-1.4-0.5
			c-0.5,0.2-0.7,0.9-0.5,1.4C53.4,55.1,55.6,57.1,56.9,55.5z"/>
		<path id="Trazado_276" class="st28" d="M64,55.1c-0.5-0.1-0.9-0.4-1.2-0.7c-0.8-0.9-2.3,0.4-1.5,1.3c0.6,0.7,1.4,1.1,2.3,1.2
			c0.5,0,1-0.3,1-0.8C64.7,55.6,64.4,55.2,64,55.1L64,55.1z"/>
		<path id="Trazado_277" class="st28" d="M59,59.5c-0.5-0.3-1-0.7-1.5-1.1c-0.4-0.4-1.1-0.4-1.5-0.1c-0.4,0.4-0.4,1-0.1,1.4
			c0.5,0.8,1.2,1.4,2.1,1.8C59.2,62,60,60.2,59,59.5z"/>
		<path id="Trazado_278" class="st28" d="M49.7,58.8c-0.1-0.6-0.5-0.9-0.9-1.3c-0.3-0.3-0.5-0.6-0.6-1c-0.1-0.6-0.7-1-1.2-0.9
			c-0.6,0.1-1,0.7-0.9,1.2c0.2,1.2,1.3,3.6,2.8,3.1C49.4,59.9,49.8,59.4,49.7,58.8z"/>
		<path id="Trazado_279" class="st28" d="M50.7,65.2c0.2-0.5,0.1-1-0.3-1.3c-0.4-0.2-0.8-0.5-1-0.9c-0.4-1-1.9-0.5-1.7,0.5
			c0.2,1,0.9,1.8,1.8,2.2C50,65.8,50.5,65.6,50.7,65.2z"/>
		<path id="Trazado_280" class="st28" d="M40.1,57.2l-1.2-1.7c-0.5-0.7-1.7,0.1-1.3,0.8l1,1.9c0.2,0.4,0.7,0.6,1.2,0.5
			c0.4-0.2,0.7-0.7,0.4-1.2c0,0,0,0,0,0C40.2,57.4,40.1,57.3,40.1,57.2z"/>
		<path id="Trazado_281" class="st28" d="M41.4,65.3c-0.1-0.2-0.2-0.4-0.3-0.6c-0.3-0.9-1.9-0.4-1.6,0.5c0.1,0.5,0.4,1,0.7,1.4
			c0.3,0.4,0.9,0.4,1.3,0c0.4-0.3,0.4-0.9,0-1.3C41.5,65.4,41.5,65.3,41.4,65.3L41.4,65.3z"/>
		<path id="Trazado_282" class="st28" d="M46.7,73c-0.3-0.7-1-0.8-1.6-1.1c-0.4-0.2-0.8-0.5-1.1-0.8c-0.3-0.4-0.9-0.5-1.4-0.2
			c-0.5,0.3-0.6,0.9-0.4,1.4c0.4,0.7,0.9,1.2,1.5,1.7c0.6,0.5,1.7,1,2.4,0.5C46.7,74.2,46.9,73.6,46.7,73z"/>
		<path id="Trazado_283" class="st28" d="M56.3,68.6c0.3-0.2,0.4-0.6,0.2-1c-0.4-0.6-1-0.9-1.6-1c-0.6,0-1.1,0.4-1.2,1
			c0,0.6,0.4,1.1,1,1.2C55.2,69,55.8,68.9,56.3,68.6L56.3,68.6z"/>
		<path id="Trazado_284" class="st28" d="M64.7,63.7c-0.8-0.4-1.7-0.7-2.5-0.9c-0.5-0.2-1.1,0.1-1.3,0.6c-0.2,0.5,0.1,1.1,0.6,1.3
			l0,0c0.8,0.4,1.7,0.7,2.5,0.9c0.6,0,1.1-0.4,1.1-1c0,0,0,0,0,0C65.1,64.3,64.9,63.9,64.7,63.7L64.7,63.7z"/>
		<path id="Trazado_285" class="st29" d="M66.4,37.2c0.9-1.4-1.1-3-2.2-3.5c-1.4-0.7-3.3-0.7-4.5,0.3c-0.4,0.4-0.5,1.1-0.1,1.5
			c0.2,0.3,0.6,0.4,0.9,0.3c0.9-0.2,1.9-0.2,2.8,0.1c0.9,0.4,1.4,1.4,2.3,1.6C65.9,37.6,66.2,37.5,66.4,37.2z"/>
		<path id="Trazado_286" class="st29" d="M57.3,35.3c-0.8,0-2.7,0.4-2.4,1.5c0.1,0.4,0.6,0.6,1,0.5c0,0,0,0,0,0c0,0,0.1,0,0.1-0.1
			c0.2-0.1,0.4-0.3,0.6-0.4c0.2-0.1,0.5-0.2,0.7-0.2C58.2,36.7,58.1,35.4,57.3,35.3z"/>
		<path id="Trazado_287" class="st29" d="M48.9,42.6c0-0.5-0.3-0.9-0.8-0.9c-1,0.1-1.9,0.8-2.3,1.7c-0.2,0.5,0.1,1.1,0.6,1.3
			c0,0,0,0,0,0c0.2,0.1,0.3,0.1,0.5,0C47.9,44.5,48.7,43.7,48.9,42.6z"/>
		<path id="Trazado_288" class="st29" d="M69,46.2c0.1-0.7,0.1-1.4,0.1-2.1c-0.1-0.4-0.4-0.7-0.8-0.6c0,0,0,0-0.1,0
			c-0.1,0-0.2,0.1-0.3,0.2c-0.7,0.7-1,1.7-0.8,2.7c0.1,0.5,0.6,0.9,1.1,0.8C68.6,47,69,46.6,69,46.2z"/>
		<path id="Trazado_289" class="st29" d="M67.8,58.9c0-0.4-0.3-0.8-0.7-0.8c0,0,0,0,0,0c-0.4,0-0.8,0.3-0.8,0.7l0,0
			c-0.1,0.8-0.6,2,0.2,2.5c0.2,0.1,0.4,0.1,0.6,0C67.9,60.9,67.7,59.6,67.8,58.9z"/>
	</g>
	<path id="Trazado_290" class="st14" d="M189.5,49.9c-8.5,3.1-14.3,2.2-16.1-1c1.6-2.2,4.3-3.2,7-2.7c0,0-3.9-3.6-2.8-6.6
		c2.6-0.5,5.2-0.4,7.7,0.2c0,0-2.5-5,1.8-8.7c0,0,5.9,1.3,7.9,5.9c0,0,1.5-5.4,5.4-3.9c0,0,1,4,0.4,5.6c0,0,3-2.3,6-0.6
		C206.8,38,203.4,44.8,189.5,49.9z"/>
	<path id="Trazado_291" class="st30" d="M177.1,58.5c-0.5-10.9,21.7-20.2,31.2-13.5s9,31.5-3.3,35.4S177.5,66.2,177.1,58.5z"/>
	<path id="Trazado_292" class="st18" d="M179.3,47.3c-0.5,0-1,0.1-1.5,0.2c-1.5,0.3-0.8,2.5,0.6,2.3c0.5,0,1-0.2,1.5-0.4
		c0.5-0.3,0.7-1,0.4-1.6C180,47.5,179.7,47.3,179.3,47.3z"/>
	<path id="Trazado_293" class="st18" d="M184.9,44.2c-0.3-0.5-0.8-0.9-1.3-1.2c-1-0.7-2.3,1-1.3,1.7c0.4,0.4,0.9,0.8,1.5,1
		c0.5,0.2,1.1-0.1,1.3-0.6C185.1,44.8,185.1,44.5,184.9,44.2L184.9,44.2z"/>
	<path id="Trazado_294" class="st18" d="M191.8,39c-0.1-0.7-0.5-1.3-1.1-1.7c-1.2-0.9-2.5,1.2-1.2,2c0.1,0.1,0.1,0.1,0.1,0.2
		c0.2,0.6,0.8,1,1.4,0.8C191.6,40.2,192,39.6,191.8,39z"/>
	<path id="Trazado_295" class="st18" d="M198.1,37.8c-0.1,0.2-0.1,0.4-0.2,0.6c-0.4,1.5,1.8,2,2.3,0.6l0.2-0.6
		C200.9,37,198.5,36.2,198.1,37.8z"/>
	<path id="Trazado_296" class="st18" d="M201.6,40c-0.1,0.2-0.2,0.5-0.3,0.7c-0.3,1.2,1.2,2.2,2.1,1.2c0.2-0.2,0.3-0.4,0.4-0.6
		C204.6,39.9,202.4,38.5,201.6,40z"/>
	<path id="Trazado_297" class="st31" d="M200.8,74.5c-3.6-0.8-6.9-2.1-9.4-4.8c-0.7-0.8-2.1,0.3-1.5,1.2c2.4,3.5,5.7,6.3,9.9,7.3
		C202.2,78.6,203.2,75,200.8,74.5z"/>
	<path id="Trazado_298" class="st31" d="M207.7,71.7c-1-0.3-1.9,0.6-2.7,1.2c-0.5,0.5-0.5,1.3,0,1.8c0.4,0.4,1.1,0.5,1.6,0.2
		c0.7-0.6,1.8-1.3,1.7-2.3C208.3,72.1,208.1,71.8,207.7,71.7z"/>
	<path id="Trazado_299" class="st32" d="M208.7,48.7c-1.5-1.3-3.2-2.5-5-3.3c-1.3-0.7-3.1,1.2-1.7,2.3c1.4,1.1,2.6,2.3,3.6,3.7
		c1,1.4,1.7,3.7,3.5,4.1c1.1,0.3,2.1-0.3,2.4-1.4C212.2,52.1,210.1,49.9,208.7,48.7z"/>
	<path id="Trazado_300" class="st32" d="M212.2,58.5l-0.5-0.9c-0.4-0.7-1.3-0.9-1.9-0.5c-0.7,0.4-0.9,1.3-0.5,1.9
		c0.1,0.3,0.3,0.6,0.4,1c0.4,0.7,1.3,1,2,0.6s1-1.3,0.6-2L212.2,58.5L212.2,58.5z"/>
	<path id="Trazado_301" class="st33" d="M184.3,56.6c-0.2-0.8-1-1.3-1.8-1.3c-0.7,0-1.3,0.6-1.3,1.2c0,0,0,0,0,0l0,0
		c0,0.5,0.3,1,0.9,1.2C182.9,58.7,184.8,58,184.3,56.6z"/>
	<path id="Trazado_302" class="st33" d="M192.2,59.9c-0.2-0.3-0.4-0.5-0.6-0.7c-0.5-0.5-1.3-0.5-1.8,0s-0.5,1.3,0,1.8l0,0
		c0.2,0.2,0.4,0.4,0.7,0.6C191.5,62.4,193,60.9,192.2,59.9z"/>
	<path id="Trazado_303" class="st33" d="M195.1,50.2c-0.4-1.1-2.2-0.6-1.8,0.5c0.1,0.4,0.3,0.7,0.5,1c0.5,0.6,1.4,0.1,1.4-0.6
		C195.3,50.8,195.2,50.5,195.1,50.2z"/>
	<path id="Trazado_304" class="st33" d="M201.8,57l-0.5-0.6c-0.8-1.1-2.5-0.1-1.8,1.1L200,58C200.7,59.2,202.6,58.1,201.8,57z"/>
	<path id="Trazado_305" class="st33" d="M207.3,49.9c-0.1-0.6-0.3-1.2-0.5-1.7c-0.1-0.3-0.4-0.5-0.7-0.4c-0.2,0.1-0.4,0.3-0.4,0.5
		c0,0.6,0,1.2,0,1.8c0,0.4,0.2,0.7,0.6,0.8c0.2,0.1,0.5,0.1,0.6-0.1C207.2,50.7,207.4,50.3,207.3,49.9z"/>
	<path id="Trazado_306" class="st33" d="M207.9,62.5c-0.1-0.3-0.4-0.5-0.6-0.9c-0.2-0.6-0.7-0.9-1.3-0.8c-0.6,0.2-0.9,0.7-0.8,1.3
		l0,0c0.1,0.7,0.7,1.3,1.4,1.5c0.5,0.1,1-0.2,1.2-0.7C207.9,62.8,207.9,62.6,207.9,62.5z"/>
	<path id="Trazado_307" class="st33" d="M199.9,67.2c-0.6-1.4-2.7-0.4-1.9,0.8c0.3,0.6,0.7,1,1.3,1.2c0.3,0.1,0.6-0.1,0.7-0.4
		C200.2,68.3,200.2,67.7,199.9,67.2z"/>
	<path id="Trazado_308" class="st33" d="M191.6,70.4c-0.3,0.3-0.3,0.9,0,1.3c0,0,0,0,0,0c0.2,0.2,0.4,0.3,0.6,0.2h0.3
		c0.3,0,0.6-0.3,0.6-0.6V71c0-0.5-0.4-0.9-0.9-0.9C191.9,70.1,191.7,70.2,191.6,70.4z"/>
	<path id="Trazado_309" class="st33" d="M202.3,74c-0.2-0.2-0.5-0.4-0.8-0.6c-0.5-0.4-1.3-0.4-1.7,0.2c-0.4,0.5-0.4,1.2,0,1.6
		c0.1,0.1,0.3,0.2,0.5,0.3c0.3,0.1,0.7,0.2,1,0.2C202.3,75.8,203.1,74.7,202.3,74z"/>
	<path id="Trazado_310" class="st33" d="M207.8,71.1c0-0.2-0.1-0.3-0.1-0.5c-0.1-0.1-0.2-0.2-0.2-0.3c0-0.6-0.5-1.1-1.1-1.1
		c0,0,0,0,0,0h-0.1c-0.6,0.1-1.1,0.6-1,1.2c0,0,0,0,0,0c0,0.1,0,0.1,0,0.2c0.4,1,1.4,2,2.4,1.1C207.8,71.6,207.9,71.4,207.8,71.1z"
		/>
	<path id="Trazado_311" class="st33" d="M184.5,63.3c-1.1-0.8-2.2,1.1-1.1,1.9c0.5,0.4,2.1,1.6,2.7,0.6S185.1,63.7,184.5,63.3z"/>
	<path id="Trazado_312" class="st33" d="M213,55.1c-0.4-1.1-2.3-1.1-2.2,0.3c0,0.6,0.1,1.3,0.4,1.8c0.5,0.8,2,0.8,2.2-0.3
		C213.4,56.3,213.3,55.7,213,55.1z"/>
	<path id="Trazado_313" class="st34" d="M91.8,392.7c0,0-113.5-3.2-116.9-1s7,26.6,7.6,27.7S8,436.2,8,436.2l22.8,7.6l30-6.2
		L89.6,409l7.1-11.9L91.8,392.7z"/>
	<path id="Trazado_314" class="st14" d="M91.8,392.7c0.6-2.5,8.4-2.6,9.2,1.6s-17.2,53.5-66.2,56.5s-67.8-50.6-66.2-55.5
		s7.6-6,8.7-1.4s20.7,45.5,52.8,41.7S88.6,405.4,91.8,392.7z"/>
	<path id="Trazado_315" class="st35" d="M91.8,392.7c-3.2,12.7-29.5,39.1-61.6,42.9s-51.7-37.1-52.8-41.7c-0.3-1.9-2-3.1-3.9-2.9
		c0.3,3.4,1.9,7.4,2.5,9.4c2.2,7.8,5.9,15,11.1,21.2c11.2,13.1,30.5,23.3,48,22.1c8.6-0.6,17.1-4.4,25.2-7.2c8.6-3,14-7.4,19.7-14.4
		c5.9-7.2,11.7-14.6,15.4-23.2c1.1-2.4,2.1-4.9,2.9-7.4C95.8,390.4,92.2,391,91.8,392.7z"/>
	<path id="Trazado_317" class="st36" d="M3.8,411.3c-0.8,0.1-1.4,0.8-1.5,1.7c-0.1,1.4-0.4,3.1,1,3.9c0.5,0.3,1.1,0.3,1.6,0
		c0.8-0.5,1.2-1.5,1-2.4c-0.1-0.6-0.2-1.3-0.3-2C5.4,411.7,4.6,411.2,3.8,411.3z"/>
	<path id="Trazado_318" class="st36" d="M13.2,399.2c-1.1,0-2,0.9-2,2c0,0,0,0,0,0.1c0,0.2,0,0.3,0.1,0.5l0.1,0.4
		c0.3,1,1.3,1.6,2.3,1.3c0,0,0,0,0,0c0.7-0.1,1.2-0.7,1.4-1.3c0.1-0.1,0.1-0.3,0.1-0.4c0.3-1.1-0.4-2.1-1.4-2.4
		C13.5,399.3,13.4,399.2,13.2,399.2z"/>
	<path id="Trazado_319" class="st36" d="M19.5,413.6c-0.7,1-0.8,2.3-0.3,3.3c0.4,1,1.6,1.4,2.5,0.9c1-0.4,1.4-1.6,0.9-2.5l0,0
		c-0.1-0.1-0.1-0.2-0.2-0.3c-0.2-0.2-0.4-0.5-0.6-0.7v-0.1c0-0.7-0.5-1.3-1.2-1.3C20.2,412.9,19.7,413.2,19.5,413.6L19.5,413.6z"/>
	<path id="Trazado_320" class="st36" d="M27,423.3c-0.7,0.5-1.1,1.3-0.9,2.1c0-0.3,0,0.4,0,0.4c0,0.3,0.1,0.6,0.2,0.9
		c0.2,0.9,1,1.4,1.9,1.5c0.9,0,1.7-0.6,1.9-1.5c0.3-1.1,0-2.3-0.8-3.1C28.7,423,27.8,422.9,27,423.3L27,423.3z"/>
	<path id="Trazado_321" class="st36" d="M31.4,402c0,0.6,0.3,1.3,0.7,1.7c0.7,0.7,1.9,0.7,2.7,0c0.3-0.2,0.4-0.6,0.5-0.9
		c0.2-0.6,0.1-1.3-0.2-1.9C34.3,399.2,31.2,400.1,31.4,402z"/>
	<path id="Trazado_322" class="st36" d="M43.9,412.1c-1.1,0.3-1.7,1.4-1.5,2.5c0.2,1.2,0.4,2.2,1.6,2.9c0.6,0.4,1.4,0.3,2-0.2
		c0.5-0.5,0.8-1.2,0.8-1.9c0-0.6-0.1-1.2-0.2-1.8C46.1,412.4,45,411.8,43.9,412.1z"/>
	<path id="Trazado_323" class="st36" d="M55,399.2c-1.1,0.3-1.7,1.4-1.4,2.4c0.1,0.8,0.6,1.5,1.3,1.9c0.8,0.4,1.8,0.1,2.3-0.6
		c0.4-0.7,0.5-1.6,0.2-2.3C57.2,399.6,56.1,399,55,399.2L55,399.2z"/>
	<path id="Trazado_324" class="st36" d="M64,409.1c-0.8,0.3-1.3,1.3-1.1,2.1c0.3,1,0.7,2,1.3,2.9c0.6,0.6,1.6,0.8,2.3,0.3
		c0.7-0.5,1.1-1.3,0.9-2.2c-0.3-0.9-0.7-1.7-1.2-2.5C65.8,409.1,64.8,408.7,64,409.1z"/>
	<path id="Trazado_325" class="st36" d="M77.5,400.6c-1.2,0.5-1.8,1.9-1.3,3.1c0,0,0,0,0,0.1c0,0.1,0.1,0.2,0.1,0.2
		c0.3,0.7,0.9,1.3,1.6,1.7c1,0.5,2.2,0.2,2.7-0.8c0,0,0,0,0,0c0.1-0.1,0.1-0.3,0.2-0.4c0.2-0.7,0.1-1.5-0.2-2.2
		c-0.4-1.3-1.7-2-2.9-1.6L77.5,400.6L77.5,400.6z"/>
	<path id="Trazado_326" class="st37" d="M191.4,378.8c0,0.1,0,0.2,0,0.2c0.2,1.7,1.6,12.2,1.6,18.1c0,6.5-3.4,13.6-3.1,15.3
		s3.7,2.4,6,3s7.3-9.3,11.3-10.9s12.8-5.2,12.8-5.2l-4.7-2.5c0,0-9,2.7-9.8,2.9s1.8-7.2,1.8-7.2l-3.8-6.6l-4.1,9.5
		c0,0-2.8-10.6-3.2-12.1"/>
	<path id="Trazado_327" class="st38" d="M183.6,369.9c0,0-3.8,4.5,0.1,11.4s11.1,3.4,11.1,3.4s-1.4,7.3,9.3,4.1
		c0,0,0,11.8,11.4,10.4c0,0,2.3,5.6,9,3.6c0,0,8.6,8.8,17.5-0.3s1.8-14.8,1.8-14.8s5.3-8.1-1.3-10.2c0,0,3.3-9.5-1.9-14.8
		s-9.1-3.2-9.1-3.2s1-5.8-3.5-8.4s-10.4,0.9-10.4,0.9s-5.5-5.8-12.6-2.6s-6.1,7.9-6.1,7.9s-4.5-5-7.2-3c-1.5,1.1-2.1,3.1-1.5,4.8
		c0,0-6.8-2.9-9.3,1.2S183.6,369.9,183.6,369.9z"/>
	<path id="Trazado_328" class="st39" d="M199.5,375.4c-0.7,0.1-1.5,0-2.1-0.3c-0.6-0.5-0.9-1.3-0.8-2.2c0.1-1-1.4-1-1.6-0.2
		c-0.2,0.7-0.3,1.4-0.1,2.1c-1,0.4-2.2,0.3-3.1-0.4c-1.4-1.1-0.8-2.6-0.1-3.9c0.6-1-0.6-1.8-1.5-1.4c-2.5,1.1-2.3,5-0.7,6.8
		c1.7,1.8,4.4,2.3,6.6,1.3c1,1.1,2.5,1.6,3.9,1.1c0.8-0.3,1.3-1.1,1-2C200.9,375.9,200.2,375.4,199.5,375.4L199.5,375.4z"/>
	<path id="Trazado_329" class="st39" d="M228.5,394.9c0.5-0.3,0.7-1,0.3-1.6c-0.3-0.4-0.8-0.6-1.3-0.5c-1.1,0.5-2.3,0.6-3.5,0.4
		c-0.2-0.1-0.5-0.1-0.7-0.2c-0.2-0.2-0.5-0.4-0.8-0.5c-0.7-0.5-1.3-1.2-1.7-2c-0.4-0.7-1.4-0.2-1.2,0.5c0.2,0.8,0.6,1.6,1.1,2.3
		c-0.7,0.3-1.5,0.2-2.2-0.2c-1-0.4-4.3-1.8-2.9-3.4c0.1-0.2,0.1-0.4-0.1-0.6c-0.1-0.1-0.3-0.1-0.4,0c-2.7,1.5-0.2,4.4,1.3,5.6
		c1.8,1.4,5.1,2.5,6.7,0.5C225,396.2,227,396,228.5,394.9z"/>
	<path id="Trazado_330" class="st39" d="M240.6,394.3c-0.3-0.4-0.7-0.5-1.1-0.3c-0.8,0.4-0.9,1.6-1.8,2c-0.9,0.4-2,0.2-2.7-0.5
		c-0.2-0.1-0.4-0.1-0.5,0c-0.1,0.1-0.1,0.3,0,0.4c0.7,1.4,2.1,2.1,3.6,1.8C239.3,397.5,241.8,395.7,240.6,394.3z"/>
	<path id="Trazado_331" class="st40" d="M226.4,364.9c0.2-2.6-1.7-4-3.9-4.9l-0.2-0.1c0-2.4-1.7-4.4-3.9-5c-2-0.5-5.7,0.2-6.2,2.6
		c-0.1,0.5,0.2,1.1,0.8,1.2c0,0,0,0,0,0h0.2c1.4,0,2.4-1.1,3.9-1c1,0.1,1.9,0.7,2.3,1.6c-1,0.1-2,0.6-2.6,1.4
		c-0.6,0.8,0.3,2.2,1.2,1.5c1.1-0.9,2.3-0.5,3.4,0c1,0.4,2.5,1.1,2.5,2.4C223.8,366.1,226.3,366.4,226.4,364.9z"/>
	<path id="Trazado_332" class="st40" d="M238.9,372.2c-0.8-1.5-3.5-3.3-5.1-2c-0.4,0.3-0.5,0.8-0.3,1.3c0,0.1,0.1,0.1,0.1,0.2
		c0.9,0.7,2.1,0.7,2.8,1.7s0.3,2.2-0.3,3.2c-0.8,1.3,1.1,2.5,2.1,1.5C239.6,376.5,239.9,374.1,238.9,372.2z"/>
	<path id="Trazado_333" class="st40" d="M204,362.2c0.9-2.5-3.2-2.7-4.6-2.3s-5,2.4-3.1,4.2c0.4,0.4,1,0.4,1.4-0.1c0,0,0,0,0,0
		c0.1-0.1,0.1-0.1,0.1-0.2c0.3-0.8,0.9-1.4,1.7-1.6c0.5-0.2,1-0.3,1.4-0.2c0.2,0,0.4,0,0.7,0.1c0.1,0,0.3,0.1,0.4,0.1
		c0.1,0.5,0.6,0.9,1.2,0.8C203.6,362.8,203.9,362.5,204,362.2L204,362.2z"/>
	<path id="Trazado_334" class="st40" d="M224.6,379.8c0.1-1.6-2.1-3-3.5-3.6c0.1-2.4-1.5-4.4-3.8-5c-2.3-0.6-4.7,0.4-5.8,2.5
		c-0.5,0.9,0.7,1.6,1.4,1c1-0.9,2.5-1.2,3.8-0.8c0.7,0.3,1.3,0.9,1.7,1.6c-0.8,0.1-1.5,0.3-2.2,0.7c-0.7,0.4-0.2,1.7,0.6,1.4
		c1.4-0.4,3-0.1,4.1,0.8c1,0.7,1.7,2,3,1.9C224.3,380.5,224.6,380.2,224.6,379.8z"/>
	<path id="Trazado_335" class="st39" d="M208.3,384.5c-0.4,0-1,0.2-1.4-0.1c-0.4-0.2-0.6-0.7-0.6-1.1c0-1-1.3-1-1.6-0.1
		c-0.4,1.1,0,2.4,0.9,3.2c1,1,2.5,1,3.6,0.1C210,385.6,209.3,384.5,208.3,384.5z"/>
	<path id="Trazado_337" class="st41" d="M16.2,223.6c0,0-2.3,17.5,7.3,31s29.3,35.1,3.6,50.3s-44.7-8.1-49.9-33.6s2.5-43.7,6.2-47.9
		s17.3-7.6,17.3-7.6L16.2,223.6z"/>
	<path id="Trazado_338" class="st38" d="M-4.5,211.5c19.2-4.3,24,12.1,23,15.6c-3.8,0.1-7.6-1.1-10.8-3.2c-1.6,3.7-4.1,7-7.2,9.5
		c0,0-8.6-0.8-11.9-6.6c0,0-6,7-10.9,6.4C-22.3,233.2-20.9,215.1-4.5,211.5z"/>
	<path id="Trazado_339" class="st42" d="M11.9,217.9c-0.8-3-3.7-4.9-6.7-4.7c-1.1,0.2-1.8,1.2-1.6,2.2c0.1,0.3,0.2,0.6,0.4,0.9
		c0.6,0.7,1.4,1.4,2.1,2.1c0.6,0.7,1.3,1.3,2,1.8c0.8,0.6,1.8,0.6,2.7,0.1C11.5,219.8,12,218.9,11.9,217.9L11.9,217.9z"/>
	<path id="Trazado_340" class="st42" d="M14.4,222.7v-0.2c0.1-0.5-0.2-1-0.6-1.3l-0.4-0.3c-0.6-0.4-1.4-0.3-1.8,0.3c0,0,0,0,0,0
		c-0.2,0.3-0.3,0.8-0.1,1.2c0.1,0.2,0.1,0.3,0.2,0.5c0.2,0.5,0.6,0.8,1.1,0.8h0.2C13.7,223.8,14.3,223.4,14.4,222.7L14.4,222.7z"/>
	<path id="Trazado_341" class="st43" d="M3.5,295.1c-5.8-9.9-17-17.2-17-30c0-1.9-3-3.1-3.5-0.9c-1.8,6.6-1.1,13.7,1.8,19.9
		c2.8,6,7.7,15.4,15.1,15.6C2.2,299.9,5,297.5,3.5,295.1z"/>
	<path id="Trazado_342" class="st43" d="M15.3,302.5c0.2-1.6-0.9-3-2.5-3.2c-1.5-0.1-3-0.4-4.3-0.9C6,297.4,4,301,6.2,302.6
		c1.8,1.3,3.8,2.1,5.9,2.4C13.7,305.2,15.1,304.1,15.3,302.5z"/>
	<path id="Trazado_343" class="st44" d="M35.2,287.5c2.3-4.1-0.5-8.5-2.5-12.4c-2.4-4.7-5.6-8.9-9.4-12.4c-1.2-1.1-3.4,0.6-2.5,2
		c2.5,4.1,4.7,8.3,6.6,12.7c1.5,3.5,1.8,8.5,5.3,10.5C33.5,288.5,34.6,288.3,35.2,287.5z"/>
	<path id="Trazado_344" class="st44" d="M18.9,256.6c0-0.9-0.7-1.3-1.1-1.9c-0.4-0.6-0.7-1.3-1-2c-0.3-0.8-0.5-1.6-1.3-2
		c-0.5-0.2-1-0.1-1.4,0.2c-1.3,1-0.5,3.2,0.2,4.3s2.3,3.1,3.8,2.6C18.5,257.8,19,257.2,18.9,256.6z"/>
	<path id="Trazado_345" class="st14" d="M366.3,240.7c0,0-5.7-26.6,16.1-29C382.4,211.8,396.6,234.6,366.3,240.7z"/>
	<path id="Trazado_346" class="st45" d="M379,213.3c-1.3,0.4-2.6,1-3.7,1.7c-1.1,0.6-2.4,1.1-3,2.1c-0.1,0.2,0,0.5,0.2,0.6
		c0,0,0,0,0,0c0.1,0,0.1,0,0.2,0c1.2,0,2.4-0.9,3.4-1.5c1.2-0.6,2.4-1.3,3.4-2.3c0.2-0.2,0.2-0.5,0-0.6
		C379.3,213.3,379.2,213.2,379,213.3L379,213.3z"/>
	<path id="Trazado_347" class="st45" d="M371.1,219.4c-0.5,0.5-0.9,1.1-1.1,1.7c-0.1,0.3,0.1,0.5,0.3,0.7c0.1,0.1,0.2,0.1,0.3,0.1
		c0.3,0,0.5-0.2,0.6-0.4c0.2-0.5,0.4-0.9,0.8-1.2c0.2-0.3,0.1-0.7-0.2-0.8c0,0,0,0,0,0C371.5,219.3,371.3,219.3,371.1,219.4z"/>
	<path id="Trazado_348" class="st45" d="M383.8,224.2c-0.3-0.1-0.6,0.1-0.6,0.4c0,0.1,0,0.2,0,0.3c0.1,0.4,0.1,0.8-0.1,1.1
		c-0.8,0.8,0.5,2.1,1.3,1.3c0.4-0.5,0.7-1.1,0.6-1.7C384.9,224.9,384.5,224.4,383.8,224.2L383.8,224.2z"/>
	<path id="Trazado_349" class="st46" d="M383.8,221.2c-0.8,0.2-1.6,0.6-2.3,1c-0.6,0.2-1.3,0.4-2,0.5c0.3-0.7,0.6-1.5,0.9-2.2
		c0.2,0,0.3-0.2,0.3-0.4v-0.1V220c0.2-0.6,0.4-1.2,0.6-1.8c0.1,0,0.2,0,0.2-0.1c0.3-0.3,0.6-0.5,1-0.7c0.3-0.1,0.7-0.3,1-0.5
		c0.2-0.1,0.2-0.5-0.1-0.5c-0.7,0-1.4,0.2-1.9,0.7c0.1-0.3,0.2-0.6,0.3-0.9c0.1-0.5-0.6-0.7-0.8-0.3c-0.4,0.8-0.8,1.6-1.2,2.5
		l-0.3-0.5c-0.3-0.6-0.5-1.3-1.1-1.6c-0.1,0-0.3,0-0.3,0.1c0,0.6,0.2,1.3,0.6,1.8c0.2,0.4,0.4,0.7,0.6,1.1c-0.9,1.9-1.8,3.8-2.8,5.7
		v-0.2c0-1-0.2-2.1-0.7-3c-0.1-0.1-0.2-0.2-0.4-0.1c0,0,0,0,0,0c-0.1,0-0.1,0.1-0.1,0.2c-0.2,1-0.2,2,0.1,3c0.1,0.6,0.1,1.2,0.2,1.7
		c-0.5,0.9-1,1.8-1.5,2.7c-1,1.6-2.1,3.2-3.2,4.7c0-0.5-0.1-0.9-0.1-1.4c-0.3-2.1-0.4-4.2-0.4-6.3c0-0.2-0.2-0.4-0.4-0.4l0,0
		c-0.2,0-0.3,0.1-0.4,0.2c-1.9,2.5,0,6.2,0.4,9.3c-0.2,0.2-0.3,0.5-0.5,0.7c-1.4,1.8-3.1,3.3-4.1,5.3c-0.3,0.5,0.4,1,0.8,0.7
		c3-2,5.4-5.6,7.5-8.9c2.4-0.2,4.9-0.6,7.2-1.2c0.2-0.1,0.3-0.3,0.3-0.5c-0.1-0.2-0.2-0.3-0.4-0.3c-1.3,0-2.6,0.2-3.9,0.5
		c-0.9,0.2-1.8,0.3-2.6,0.5l1.2-1.9c0.4-0.7,0.8-1.4,1.3-2.1c0.1,0,0.1-0.1,0.1-0.2V228c0.9-1.5,1.6-3,2.4-4.6
		c0.9-0.1,1.8-0.3,2.7-0.6c0.8-0.2,1.6-0.6,2.2-1.3c0.1-0.1,0-0.3-0.1-0.3C384,221.2,383.9,221.2,383.8,221.2L383.8,221.2z"/>
	<path id="Trazado_350" class="st14" d="M115.6,65.4c0,0-26-7.9-17.5-28.2C98.1,37.3,125,35.9,115.6,65.4z"/>
	<path id="Trazado_351" class="st45" d="M97.8,41c-0.3,1.3-0.4,2.7-0.3,4.1c0,1.2-0.2,2.6,0.4,3.7c0.1,0.2,0.4,0.3,0.6,0.2
		c0.1,0,0.1-0.1,0.2-0.2c0.6-1.1,0.3-2.5,0.3-3.7c0.1-1.4,0-2.7-0.3-4.1c-0.1-0.2-0.3-0.4-0.6-0.3C98,40.7,97.9,40.8,97.8,41z"/>
	<path id="Trazado_352" class="st45" d="M99.3,50.9c0.2,0.7,0.5,1.3,1,1.8c0.2,0.2,0.5,0.2,0.7,0.1c0.1-0.1,0.2-0.1,0.2-0.2
		c0.1-0.2,0.1-0.5-0.1-0.7c-0.3-0.4-0.5-0.8-0.6-1.3c-0.2-0.3-0.6-0.4-0.9-0.2C99.5,50.5,99.4,50.7,99.3,50.9L99.3,50.9z"/>
	<path id="Trazado_353" class="st45" d="M108.7,40.1c-0.2,0.2-0.2,0.6,0,0.8c0,0,0,0,0,0c0.1,0.1,0.1,0.1,0.2,0.1
		c0.4,0.1,0.7,0.3,0.9,0.6c0.3,1.1,2.1,0.6,1.7-0.5c-0.2-0.6-0.6-1.1-1.2-1.4C109.8,39.6,109.1,39.7,108.7,40.1L108.7,40.1z"/>
	<path id="Trazado_354" class="st46" d="M107.1,40.6c-0.2,0.8-0.3,1.7-0.3,2.5c-0.1,0.7-0.3,1.3-0.5,2c-0.5-0.6-1-1.3-1.5-1.9
		c0.1-0.2,0-0.4-0.2-0.4h-0.1h-0.1c-0.4-0.5-0.8-1-1.3-1.4c0-0.1,0-0.2,0-0.2c-0.1-0.4-0.1-0.8-0.1-1.2c0-0.4,0.1-0.8,0.1-1.1
		c0-0.2-0.3-0.4-0.5-0.2c-0.4,0.6-0.5,1.3-0.3,2c-0.2-0.2-0.4-0.4-0.6-0.6s-0.9,0.2-0.6,0.6l1.6,2.2h-0.6c-0.6,0-1.4-0.2-1.9,0.2
		c-0.1,0.1-0.1,0.2-0.1,0.3c0,0,0,0,0,0l0,0c0.6,0.3,1.3,0.4,1.9,0.3h1.3c1.2,1.7,2.4,3.4,3.6,5.2l-0.2-0.1c-0.9-0.5-1.9-0.8-3-0.8
		c-0.2,0-0.3,0.1-0.3,0.3c0,0.1,0,0.1,0.1,0.2c0.8,0.7,1.7,1.2,2.7,1.4c0.5,0.2,1.1,0.4,1.6,0.6c0.5,0.9,1.1,1.7,1.6,2.6
		c0.9,1.7,1.8,3.4,2.6,5.1c-0.4-0.2-0.8-0.4-1.3-0.5c-2-0.8-3.9-1.7-5.8-2.7c-0.2-0.2-0.5-0.1-0.6,0.1c-0.1,0.2-0.1,0.4,0,0.6
		c1.3,2.8,5.4,3,8.3,4.2c0.1,0.2,0.2,0.5,0.3,0.8c0.9,2,1.4,4.3,2.6,6.2c0.2,0.2,0.6,0.3,0.8,0.1c0.1-0.1,0.2-0.3,0.2-0.4
		c-0.3-3.6-2.2-7.4-4.1-10.9c0.5-0.9,0.9-1.9,1.2-2.9c0.6-1.3,1-2.6,1.3-3.9c0-0.2-0.1-0.4-0.3-0.5c-0.2,0-0.3,0-0.4,0.2
		c-0.6,1.2-1.1,2.4-1.4,3.7c-0.3,0.8-0.6,1.7-0.8,2.5l-1-1.9c-0.3-0.6-0.8-1.4-1.2-2.1c0-0.1,0-0.2-0.1-0.2l-0.1-0.1
		c-0.9-1.5-1.8-2.9-2.8-4.3c0.4-0.9,0.7-1.8,0.9-2.8c0.2-0.8,0.2-1.7-0.1-2.5c-0.1-0.1-0.2-0.2-0.3-0.1
		C107.2,40.5,107.2,40.6,107.1,40.6L107.1,40.6z"/>
	<path id="Trazado_355" class="st14" d="M52.5,174.5c0,0-16.1-21.9,2.8-33.1C55.4,141.5,77.7,156.4,52.5,174.5z"/>
	<path id="Trazado_356" class="st45" d="M52.9,144.2c-1.1,0.9-2,1.9-2.7,3.1c-0.8,1.1-1.8,2-1.9,3.2c0,0.2,0.2,0.5,0.4,0.5
		c0.1,0,0.2,0,0.2,0c1.1-0.5,1.8-1.8,2.5-2.8c0.9-1,1.7-2.2,2.2-3.5c0.1-0.2-0.1-0.5-0.3-0.6C53.1,144.1,53,144.1,52.9,144.2
		L52.9,144.2z"/>
	<path id="Trazado_357" class="st45" d="M48.2,153.1c-0.2,0.6-0.3,1.3-0.3,2c0,0.3,0.3,0.5,0.5,0.5c0.1,0,0.2,0,0.3,0
		c0.2-0.1,0.4-0.4,0.3-0.6c0-0.5,0.1-1,0.2-1.4c0-0.4-0.2-0.7-0.6-0.7C48.5,152.9,48.3,153,48.2,153.1L48.2,153.1z"/>
	<path id="Trazado_358" class="st45" d="M61.8,152.2c-0.3,0.1-0.5,0.3-0.5,0.6c0,0.1,0.1,0.2,0.1,0.3c0.2,0.3,0.4,0.6,0.3,1
		c-0.4,1.1,1.3,1.7,1.7,0.6c0.2-0.6,0.2-1.2-0.1-1.8C63,152.4,62.4,152.1,61.8,152.2z"/>
	<path id="Trazado_359" class="st46" d="M60.5,149.5c-0.7,0.4-1.1,1.3-1.7,1.9c-0.5,0.5-1.1,0.9-1.6,1.3c0-0.8,0-1.6-0.1-2.4
		c0.1-0.1,0.2-0.3,0.1-0.5l-0.1-0.1h-0.1c0-0.6-0.1-1.3-0.2-1.9c0.1,0,0.1-0.1,0.2-0.2c0.2-0.4,0.4-0.7,0.6-1.1
		c0.3-0.3,0.5-0.6,0.7-0.9c0.1-0.2,0-0.5-0.3-0.4c-0.6,0.2-1.2,0.8-1.4,1.4c0-0.3-0.1-0.6-0.1-0.9c-0.1-0.2-0.3-0.4-0.5-0.3
		c0,0,0,0,0,0c-0.2,0.1-0.3,0.2-0.3,0.4c0,0.9,0,1.8-0.1,2.7l-0.5-0.4c-0.5-0.4-1-1-1.7-1c-0.1,0-0.3,0.1-0.2,0.2
		c0.2,0.6,0.8,1,1.3,1.3l1,0.7c0,2.1-0.1,4.2-0.2,6.3l-0.1-0.1c-0.4-1-1.1-1.8-1.9-2.4c-0.1-0.1-0.3-0.1-0.4,0.1c0,0,0,0,0,0
		c0,0.1-0.1,0.1,0,0.2c0.2,1,0.7,2,1.3,2.7l0.9,1.5c-0.1,1-0.2,2-0.3,3.1c-0.2,1.9-0.6,3.8-1,5.6c-0.2-0.4-0.4-0.8-0.7-1.2
		c-1.1-1.8-2.1-3.7-3-5.6c-0.1-0.2-0.4-0.3-0.6-0.2c-0.1,0.1-0.2,0.2-0.3,0.4c-0.6,3.1,2.5,5.6,4.2,8.3c-0.1,0.3-0.1,0.6-0.2,0.8
		c-0.5,2.2-1.4,4.3-1.6,6.5c0,0.3,0.3,0.6,0.6,0.6c0.2,0,0.4-0.1,0.5-0.3c1.9-3.1,2.7-7.3,3.2-11.2c1-0.5,1.9-1,2.7-1.6
		c1.2-0.7,2.4-1.4,3.4-2.4c0.2-0.2,0.2-0.4,0-0.6c0,0,0,0,0,0c-0.1-0.1-0.3-0.2-0.5-0.1c-1.2,0.6-2.3,1.3-3.3,2.1
		c-0.7,0.5-1.5,1-2.2,1.5l0.3-2.2c0.1-0.8,0.2-1.6,0.3-2.4c0.1-0.1,0.1-0.1,0.1-0.2c0,0,0-0.1,0-0.1c0.2-1.7,0.3-3.4,0.3-5.2
		c0.8-0.4,1.6-1,2.2-1.6c0.7-0.5,1.2-1.3,1.5-2.1C60.9,149.6,60.7,149.4,60.5,149.5z"/>
	<path id="Trazado_360" class="st26" d="M392,210.5c-0.2-0.5-0.4-0.9-0.7-1.3l-0.1-0.1c0,0,0-0.1,0-0.1c0-0.1-0.1-0.7-0.1-0.3
		c0.1-1-0.6-1.8-1.6-1.9c-1-0.1-1.8,0.6-1.9,1.6c0,0.1,0,0.2,0,0.3l0,0c0,1.4,0.5,3.2,1.9,3.8c0.6,0.3,1.3,0.3,1.9-0.1
		C392,211.8,392.2,211.1,392,210.5z"/>
	<path id="Trazado_361" class="st1" d="M229.2,90.8c-0.9,0-1.6,0.6-1.6,1.5c0,0.9,0.6,1.6,1.5,1.6c0.9,0,1.6-0.6,1.6-1.5
		c0,0,0-0.1,0-0.1C230.7,91.5,230,90.9,229.2,90.8z"/>
	<path id="Trazado_362" class="st1" d="M121,77.4c-0.8-1.3-2.5-1.8-3.8-1c0,0,0,0,0,0c-0.2,0.1-0.3,0.2-0.5,0.4l-0.4,0.6
		c-0.4,0.8-0.4,0.9-0.1,0.1c-0.4,0.8-0.4,1.7,0,2.5c-0.3-0.7-0.3-0.7,0.1,0.1c0.2,0.4,0.6,0.8,1,1c0.6,0.4,1.4,0.5,2.1,0.3
		c1.5-0.4,2.3-2,1.9-3.5C121.2,77.8,121.1,77.6,121,77.4L121,77.4z"/>
</g>
<circle id="Elipse_6" class="st47" cx="287.9" cy="34.6" r="6.6"/>
<path id="Trazado_103" class="st48" d="M25.2,151.9c0,3.2-2.6,5.7-5.7,5.7s-5.7-2.6-5.7-5.7c0-3.2,2.6-5.7,5.7-5.7
	S25.2,148.7,25.2,151.9L25.2,151.9z"/>
<path id="Trazado_106" class="st48" d="M389.2,38.9c0,2.4-2,4.4-4.4,4.4s-4.4-2-4.4-4.4c0-2.4,2-4.4,4.4-4.4c0,0,0,0,0,0
	C387.2,34.5,389.2,36.5,389.2,38.9z"/>
</svg>
