<svg id="Capa_1" data-name="Capa 1" xmlns="http://www.w3.org/2000/svg" xmlns:xlink="http://www.w3.org/1999/xlink" viewBox="0 0 414 505.63"><defs><style>.cls-1,.cls-3,.cls-48{fill:none;}.cls-13,.cls-2,.cls-7{fill:#fff;}.cls-3{stroke:#eaf1ee;stroke-linecap:round;stroke-linejoin:round;stroke-width:300.16px;}.cls-4{fill:#59a491;}.cls-5{fill:#204c3f;}.cls-6{fill:#eaf1ee;}.cls-7{opacity:0.72;isolation:isolate;}.cls-8{fill:#79b5a4;}.cls-9{fill:#eda38f;}.cls-10{fill:#ffc760;}.cls-11{fill:#2c3a64;}.cls-12{fill:url(#Degradado_sin_nombre);}.cls-13{fill-rule:evenodd;}.cls-14{fill:url(#Degradado_sin_nombre_2);}.cls-15{fill:#9ecc53;}.cls-16{fill:#fbae17;}.cls-17{fill:#f26b21;}.cls-18{fill:#ffd846;}.cls-19{fill:#d5e27e;}.cls-20{fill:#6ba348;}.cls-21{fill:#eedbad;}.cls-22{fill:#d08c3c;}.cls-23{fill:#ecb266;}.cls-24{fill:#dac9a0;}.cls-25{fill:#ffca11;}.cls-26{fill:#7ca935;}.cls-27{fill:#c3d831;}.cls-28{fill:#93c840;}.cls-29{fill:#f79821;}.cls-30{fill:#fff100;}.cls-31{fill:#ec1b34;}.cls-32{fill:#c7142b;}.cls-33{fill:#ef4846;}.cls-34{fill:#ffd140;}.cls-35{fill:#ec1b32;}.cls-36{fill:#d1e183;}.cls-37{fill:#760003;}.cls-38{fill:#c5dd85;}.cls-39{fill:#43b65c;}.cls-40{fill:#369b4f;}.cls-41{fill:#89c877;}.cls-42{fill:#904b9c;}.cls-43{fill:#81c574;}.cls-44{fill:#7e3f88;}.cls-45{fill:#b86dab;}.cls-46{fill:#c5db69;}.cls-47{fill:#7da342;}.cls-48{stroke:#fdfcff;stroke-miterlimit:10;stroke-width:1.78px;}.cls-49{fill:#acd1c2;}</style><linearGradient id="Degradado_sin_nombre" x1="-264.35" y1="880.6" x2="-263.56" y2="878.05" gradientTransform="matrix(20.31, 0, 0, -26.4, 6164.76, 25611)" gradientUnits="userSpaceOnUse"><stop offset="0" stop-color="#09005d"/><stop offset="1" stop-color="#1a0f91"/></linearGradient><linearGradient id="Degradado_sin_nombre_2" x1="245.66" y1="953.94" x2="246.66" y2="953.94" gradientTransform="matrix(10.68, 0, 0, -9.6, 3249.8, 9483.63)" gradientUnits="userSpaceOnUse"><stop offset="0" stop-color="#febbba"/><stop offset="1" stop-color="#ff928e"/></linearGradient></defs><title>onboarding_illustration_2</title><rect class="cls-1" width="414" height="896"/><g id="Onboarding_2" data-name="Onboarding 2"><rect class="cls-2" width="414" height="896"/><g id="Grupo_1" data-name="Grupo 1"><g id="Componente_1_5" data-name="Componente 1 5"><path id="Trazado_95" data-name="Trazado 95" class="cls-3" d="M-211.18,424s183.73-267.8,509-197.88S722.37,557.32,1252.07,312"/></g></g><g id="Illustration"><path id="Trazado_174" data-name="Trazado 174" class="cls-4" d="M22,391.67c5.24-52.91,18.37-184.31,21.23-203.52,3.6-24.11,33.18-18.81,33.18-18.81l6.35,244.29H41.54A19.46,19.46,0,0,1,27,407.05,20.17,20.17,0,0,1,22,391.67Z"/><path id="Trazado_175" data-name="Trazado 175" class="cls-4" d="M355.69,419.78A23.32,23.32,0,0,0,378.53,396h0l-4.2-198.32a20.57,20.57,0,0,0-19.94-20.11L66.55,169a15.15,15.15,0,0,0-15.61,14.67c0,.18,0,.35,0,.52l.7,227.38a14.4,14.4,0,0,0,14.43,14.34h.26Z"/><path id="Trazado_176" data-name="Trazado 176" class="cls-5" d="M374.24,403.13a6.77,6.77,0,0,0,6.68-6.88c0-.31,0-.63-.08-.94-4.25-27-17.59-119.93-13.33-197a6.26,6.26,0,0,0-5.89-6.61h-.16L72.35,182.45a7.21,7.21,0,0,0-7.46,6.93c-1.23,32.43-5.8,166,.19,213.41a5.7,5.7,0,0,0,5.76,5Z"/><path id="Trazado_177" data-name="Trazado 177" class="cls-6" d="M366.92,400.1a6.52,6.52,0,0,0,6.42-6.62,6.84,6.84,0,0,0-.07-.91c-4.09-26-16.93-115.38-12.8-189.6a6,6,0,0,0-5.7-6.33h-.13L76.41,187.75a6.92,6.92,0,0,0-7.16,6.67c-1.19,31.2-5.59,159.69.17,205.37a5.51,5.51,0,0,0,5.55,4.8Z"/><path id="Trazado_178" data-name="Trazado 178" class="cls-7" d="M195.93,243.75l.42,20a5.47,5.47,0,0,1-5.36,5.6h-.08l-20.56.12a5.49,5.49,0,0,1-5.51-5.36l-.44-21.07a5.47,5.47,0,0,1,5.35-5.59,2.16,2.16,0,0,1,.36,0l20.57.91a5.5,5.5,0,0,1,5.25,5.36Z"/><path id="Trazado_179" data-name="Trazado 179" class="cls-7" d="M267.78,269.22l-20.55.11a5.48,5.48,0,0,1-5.51-5.36l-.38-17.92a5.48,5.48,0,0,1,5.36-5.59H247l20.57.76a5.47,5.47,0,0,1,5.28,5.36l.36,17.06a5.49,5.49,0,0,1-5.4,5.58Z"/><path id="Trazado_180" data-name="Trazado 180" class="cls-7" d="M249.78,358.47l19.55-.19a6,6,0,0,1,6,5.86l.38,18.31a6,6,0,0,1-5.71,6.1l-19.54.82a6,6,0,0,1-6.23-5.73v-.12l-.4-18.94a6,6,0,0,1,5.85-6.1h.06Z"/><path id="Trazado_181" data-name="Trazado 181" class="cls-7" d="M282.67,382l-.38-17.91a5.86,5.86,0,0,1,5.75-6h.07l19.76-.2a5.9,5.9,0,0,1,5.93,5.76l.36,17.26a5.88,5.88,0,0,1-5.62,6l-19.75.83a5.88,5.88,0,0,1-6.12-5.62Z"/><path id="Trazado_182" data-name="Trazado 182" class="cls-7" d="M281,301.19l-.33-14.7a6.34,6.34,0,0,1,6.23-6.46H287l18.87,0a6.35,6.35,0,0,1,6.34,6.2l.3,14a6.34,6.34,0,0,1-6.12,6.45l-18.85.64a6.35,6.35,0,0,1-6.55-6.13v-.07Z"/><path id="Trazado_183" data-name="Trazado 183" class="cls-7" d="M281.9,343.89l-.48-22.48a5.88,5.88,0,0,1,5.68-6l19.3-.63a6.35,6.35,0,0,1,6.53,6.16v0l.48,22.66a5.88,5.88,0,0,1-5.76,6H287.74a5.87,5.87,0,0,1-5.84-5.74Z"/><path id="Trazado_184" data-name="Trazado 184" class="cls-4" d="M229.35,269.43l-20.56.13a5.48,5.48,0,0,1-5.5-5.37l-.42-19.52a5.48,5.48,0,0,1,5.36-5.59c.11,0,.21,0,.32,0l20.57.74a5.48,5.48,0,0,1,5.28,5.36l.4,18.66a5.49,5.49,0,0,1-5.35,5.6h-.1Z"/><path id="Trazado_185" data-name="Trazado 185" class="cls-7" d="M243.42,343.8l-.45-21a6,6,0,0,1,5.79-6.1l19.53-.64a6,6,0,0,1,6.17,5.78v.07l.46,21.66a6,6,0,0,1-5.85,6.11H249.4a6,6,0,0,1-6-5.86Z"/><path id="Trazado_186" data-name="Trazado 186" class="cls-7" d="M208.29,279.92l22.45.05a4.52,4.52,0,0,1,4.52,4.44l.43,20.21a4.53,4.53,0,0,1-4.38,4.63l-22.43.74a4.53,4.53,0,0,1-4.68-4.38v-.06l-.44-21a4.55,4.55,0,0,1,4.44-4.64Z"/><path id="Trazado_187" data-name="Trazado 187" class="cls-7" d="M196.81,285.44l.41,19.25a5.72,5.72,0,0,1-5.51,5.82l-20.1.64a5.73,5.73,0,0,1-5.89-5.54v0l-.42-19.95a5.71,5.71,0,0,1,5.6-5.81h20.22a5.7,5.7,0,0,1,5.69,5.62Z"/><path id="Trazado_188" data-name="Trazado 188" class="cls-7" d="M269.68,308l-22.43.74a4.54,4.54,0,0,1-4.68-4.39v-.05l-.41-19.67A4.53,4.53,0,0,1,246.6,280h.1l22.44,0a4.53,4.53,0,0,1,4.53,4.44l.4,18.89A4.52,4.52,0,0,1,269.68,308Z"/><path id="Trazado_189" data-name="Trazado 189" class="cls-7" d="M210.34,317.93l19.54-.63a6,6,0,0,1,6.17,5.77v.08l.44,20.4a6,6,0,0,1-5.86,6.1H211a6,6,0,0,1-6-5.85L204.56,324A6,6,0,0,1,210.34,317.93Z"/><path id="Trazado_190" data-name="Trazado 190" class="cls-7" d="M171.24,319.21l20.94-.68a5.28,5.28,0,0,1,5.46,5.11v.06l.43,20.55a5.29,5.29,0,0,1-5.17,5.41H171.85a5.29,5.29,0,0,1-5.29-5.18l-.42-19.87A5.29,5.29,0,0,1,171.24,319.21Z"/><path id="Trazado_191" data-name="Trazado 191" class="cls-7" d="M303.35,268.76l-15.6.08a7.6,7.6,0,0,1-7.61-7.43l-.28-12.87a6.77,6.77,0,0,1,6.62-6.91h.39l17.36.63a7.43,7.43,0,0,1,7.17,7.27l.22,10.75a8.29,8.29,0,0,1-8.13,8.47h-.14Z"/><path id="Trazado_192" data-name="Trazado 192" class="cls-7" d="M320.73,364.18a6.34,6.34,0,0,1,6.23-6.45h0l6.8-.07c5.16-.05,9.39,3.37,9.48,7.66l.26,12.44c.1,4.27-3.92,7.84-9,8.06l-7.3.3a5.88,5.88,0,0,1-6.12-5.62v-.12Z"/><path id="Trazado_193" data-name="Trazado 193" class="cls-7" d="M102.22,359.91l13.37-.13a6,6,0,0,1,6,5.85l.49,23.32a6,6,0,0,1-5.71,6.1l-13.32.56c-5.3.23-9.76-3.23-9.85-7.65l-.43-20C92.72,363.59,97,360,102.22,359.91Z"/><path id="Trazado_194" data-name="Trazado 194" class="cls-7" d="M333.25,349.64h-6.63a6.35,6.35,0,0,1-6.35-6.19l-.48-22.84a6.34,6.34,0,0,1,6.11-6.45l6.68-.23c5.26-.17,9.65,3.28,9.74,7.66l.42,20C342.86,346,338.56,349.64,333.25,349.64Z"/><path id="Trazado_195" data-name="Trazado 195" class="cls-7" d="M332.69,305.89l-8.35.28a4.78,4.78,0,0,1-4.93-4.62v-.06l-.36-16.5a4.78,4.78,0,0,1,4.68-4.88h8.55c5.11,0,9.25,3.4,9.35,7.65l.21,10.06C341.93,302.13,337.85,305.73,332.69,305.89Z"/><path id="Trazado_196" data-name="Trazado 196" class="cls-4" d="M100.08,234.92l13.4.48A5.72,5.72,0,0,1,119,241l.49,23a5.71,5.71,0,0,1-5.61,5.82h-.06l-13.8.08c-5.15,0-9.34-3.38-9.43-7.66L90.16,243C90.06,238.43,94.62,234.73,100.08,234.92Z"/><path id="Trazado_197" data-name="Trazado 197" class="cls-7" d="M211.35,358.85l19.55-.19a6,6,0,0,1,6,5.85l.42,19.56a6,6,0,0,1-5.71,6.1L212.1,391a6,6,0,0,1-6.23-5.7v-.14l-.45-20.21a6,6,0,0,1,5.86-6.1h.07Z"/><path id="Trazado_198" data-name="Trazado 198" class="cls-7" d="M100.65,279.7h13.58a5.71,5.71,0,0,1,5.71,5.58l.47,21.9A5.71,5.71,0,0,1,114.9,313l-13.64.44c-5.26.17-9.65-3.27-9.74-7.66l-.38-18C91,283.34,95.35,279.69,100.65,279.7Z"/><path id="Trazado_199" data-name="Trazado 199" class="cls-7" d="M101.14,321.5l14.18-.46a5.3,5.3,0,0,1,5.47,5.12v.06l.38,18a5.3,5.3,0,0,1-5.19,5.4H101.63c-5.12,0-9.27-3.4-9.37-7.66L92,329.55C91.9,325.26,96,321.67,101.14,321.5Z"/><path id="Trazado_200" data-name="Trazado 200" class="cls-7" d="M159.21,325l.41,19.3a5.3,5.3,0,0,1-5.18,5.41h-21a5.31,5.31,0,0,1-5.3-5.19l-.42-18.63a5.29,5.29,0,0,1,5.12-5.39l20.9-.69a5.31,5.31,0,0,1,5.48,5.11V325Z"/><path id="Trazado_201" data-name="Trazado 201" class="cls-7" d="M134.48,359.6l19.54-.19a6,6,0,0,1,6,5.85l.47,22.06a6,6,0,0,1-5.71,6.1l-19.52.83a6,6,0,0,1-6.24-5.72v-.14l-.48-22.69a6,6,0,0,1,5.85-6.1Z"/><path id="Trazado_202" data-name="Trazado 202" class="cls-7" d="M331.6,268.59l-8.18.05a4.79,4.79,0,0,1-4.81-4.68l-.34-16.14a4.77,4.77,0,0,1,4.68-4.88h.27l8.66.31c5,.18,8.89,3.52,9,7.65l.21,9.63C341.14,264.93,336.88,268.56,331.6,268.59Z"/><path id="Trazado_203" data-name="Trazado 203" class="cls-7" d="M172.91,359.24l19.22-.19a6.34,6.34,0,0,1,6.37,6.18l.43,20.48a6,6,0,0,1-5.71,6.1l-19.52.82a6,6,0,0,1-6.23-5.71.61.61,0,0,1,0-.14L167,365.35a6,6,0,0,1,5.86-6.11Z"/><path id="Trazado_204" data-name="Trazado 204" class="cls-7" d="M157.46,242.36l.45,21.43a5.71,5.71,0,0,1-5.6,5.81h-.07l-20.12.12a5.72,5.72,0,0,1-5.71-5.58l-.49-22.29a5.72,5.72,0,0,1,5.6-5.82h.3l20.14.75A5.72,5.72,0,0,1,157.46,242.36Z"/><path id="Trazado_205" data-name="Trazado 205" class="cls-7" d="M158.36,285.37l.44,20.57a5.7,5.7,0,0,1-5.51,5.81l-20.1.64a5.71,5.71,0,0,1-5.88-5.53v0l-.45-21.28a5.71,5.71,0,0,1,5.6-5.81h.11l20.11,0a5.72,5.72,0,0,1,5.69,5.61Z"/><path id="Trazado_206" data-name="Trazado 206" class="cls-2" d="M333.83,225.89l-.93,6.78a4.45,4.45,0,0,1-4.32,3.86h-.32a4.44,4.44,0,0,1-4.55-4.33v0l-.15-6.94a4.45,4.45,0,0,1,4.33-4.56l.62,0,1.39.16a4.45,4.45,0,0,1,4,4.89.77.77,0,0,0,0,.15Z"/><path id="Trazado_207" data-name="Trazado 207" class="cls-2" d="M302.33,224.14l-.92,6.79a4.45,4.45,0,0,1-4.32,3.85h-.33a4.44,4.44,0,0,1-4.55-4.33v0l-.16-7a4.44,4.44,0,0,1,4.33-4.55,4.16,4.16,0,0,1,.61,0l1.39.15a4.44,4.44,0,0,1,4,4.86,1.5,1.5,0,0,0,0,.2Z"/><path id="Trazado_208" data-name="Trazado 208" class="cls-2" d="M263.58,224.68l-.93,6.78a4.44,4.44,0,0,1-4.32,3.85H258a4.44,4.44,0,0,1-4.54-4.33v0l-.13-6.94a4.44,4.44,0,0,1,4.33-4.55,3.22,3.22,0,0,1,.62,0l1.4.15a4.43,4.43,0,0,1,3.91,4.91s0,.08,0,.13Z"/><path id="Trazado_209" data-name="Trazado 209" class="cls-2" d="M225.83,223l-.93,6.82a4.45,4.45,0,0,1-4.32,3.85h-.33a4.44,4.44,0,0,1-4.54-4.33v0l-.14-7a4.44,4.44,0,0,1,4.33-4.55,4.15,4.15,0,0,1,.61,0l1.4.16a4.44,4.44,0,0,1,3.95,4.88c0,.05,0,.11,0,.16Z"/><path id="Trazado_210" data-name="Trazado 210" class="cls-2" d="M187.05,218.05l-.93,6.78a4.45,4.45,0,0,1-4.32,3.86h-.32a4.44,4.44,0,0,1-4.55-4.33v0l-.15-7a4.44,4.44,0,0,1,4.33-4.55l.62,0,1.39.15a4.45,4.45,0,0,1,3.95,4.89s0,.1,0,.15Z"/><path id="Trazado_211" data-name="Trazado 211" class="cls-2" d="M146,218.92l-.92,6.79a4.44,4.44,0,0,1-4.32,3.85h-.32a4.43,4.43,0,0,1-4.55-4.32v0l-.14-6.94A4.45,4.45,0,0,1,140,213.7c.2,0,.41,0,.61,0l1.4.15a4.45,4.45,0,0,1,4,4.89s0,.1,0,.15Z"/><path id="Trazado_212" data-name="Trazado 212" class="cls-2" d="M111.29,218.2l-.92,6.78a4.45,4.45,0,0,1-4.32,3.86h-.33a4.44,4.44,0,0,1-4.54-4.33v0l-.12-6.93a4.45,4.45,0,0,1,4.32-4.56,4.22,4.22,0,0,1,.62,0l1.39.16a4.44,4.44,0,0,1,3.92,4.91s0,.08,0,.12Z"/><circle id="Elipse_8" data-name="Elipse 8" class="cls-5" cx="326.07" cy="207.12" r="7.8"/><circle id="Elipse_9" data-name="Elipse 9" class="cls-5" cx="262.14" cy="206.47" r="7.8"/><circle id="Elipse_10" data-name="Elipse 10" class="cls-5" cx="197.62" cy="204.4" r="7.8"/><circle id="Elipse_11" data-name="Elipse 11" class="cls-5" cx="133.7" cy="201.39" r="7.8"/><path id="Trazado_213" data-name="Trazado 213" class="cls-8" d="M127.78,147.31c13.13,2.87,11.89,37.4,10.83,51.4a6.34,6.34,0,0,1-6.3,5.84,3.23,3.23,0,0,1-3.24-3.23c0-.12,0-.24,0-.36,1.14-10.6,3.55-41.11-6.11-42.75,0,0-6.94-1.22-8.1,12.2h-7.47S111.28,143.72,127.78,147.31Z"/><path id="Trazado_214" data-name="Trazado 214" class="cls-8" d="M191.71,149.1c13.12,2.86,11.88,37.44,10.83,51.43a6.35,6.35,0,0,1-6.3,5.85,3.23,3.23,0,0,1-3.23-3.23c0-.12,0-.24,0-.35,1.14-10.6,3.55-41.14-6.11-42.77,0,0-6.93-1-8.1,12.17H171.3S175.2,145.5,191.71,149.1Z"/><path id="Trazado_215" data-name="Trazado 215" class="cls-8" d="M255.61,150.88c13.13,2.87,11.9,37.44,10.84,51.45a6.34,6.34,0,0,1-6.31,5.85,3.23,3.23,0,0,1-3.23-3.23c0-.12,0-.23,0-.35,1.13-10.6,3.54-41.15-6.12-42.79,0,0-6.93-.78-8.1,12.42L235.2,174S239.11,147.31,255.61,150.88Z"/><path id="Trazado_216" data-name="Trazado 216" class="cls-8" d="M319.54,153c13.12,2.87,11.89,37.44,10.83,51.46a6.35,6.35,0,0,1-6.31,5.87,3.24,3.24,0,0,1-3.24-3.23c0-.11,0-.23,0-.35,1.14-10.6,3.55-41.19-6.11-42.83,0,0-6.93-1-8.1,12.14h-7.5S303,149.35,319.54,153Z"/><path id="Trazado_217" data-name="Trazado 217" class="cls-9" d="M306.74,286l-7.19,22.8s-8.34,6.14-19,.27a26.21,26.21,0,0,1-5-3.6c-12.92-11.52-4.35-28.28-4.35-28.28s-9.85-4-5.48-12.34a.71.71,0,0,1,1-.31.71.71,0,0,1,.36.45c.64,2.3,2.2,6.35,5.46,7.78.17.06.33.14.47.2a1.7,1.7,0,0,0-.2-1.5c-1-1.54.82-3.66.82-3.66a4.68,4.68,0,0,0,1.53,3,4.56,4.56,0,0,1,1,5.08c-1.77,6.85-4.41,15.91,5.88,22.54a8.4,8.4,0,0,0,3.27,1.27C295.06,301.38,306.74,286,306.74,286Z"/><path id="Trazado_218" data-name="Trazado 218" class="cls-10" d="M306.74,286l-7.19,22.8s-8.34,6.14-19,.27l4.66-9.31C295.06,301.38,306.74,286,306.74,286Z"/><path id="Trazado_219" data-name="Trazado 219" class="cls-11" d="M308.89,258s-4.07-14.18,11.16-10.28c0,0,7.46-1,7.67,6a22.81,22.81,0,0,1,3.37,10.85s14.66,3.8,17,9.67,1.06,15.56-5,17.21a5.94,5.94,0,0,1,2.36,8c-2.42,5.45-14.12,9.05-20.83,2.2,0,0-19.58,2.12-18.86-11.66,0,0-8.94-6.07.86-17.24S308.89,258,308.89,258Z"/><path id="Trazado_220" data-name="Trazado 220" class="cls-10" d="M307.7,283.46c3.08-.92,12.06-2.62,20.57,5.24a5.32,5.32,0,0,1,1.52,5.27c-2.29,8.43-8.33,33.34-3,44.11,0,0-9.34,10.29-19.53,2,0,0-4.57-19.92-10.55-28.66-4.14-6,6.59-22.67,9.3-26.69A3.23,3.23,0,0,1,307.7,283.46Z"/><path id="Trazado_221" data-name="Trazado 221" class="cls-9" d="M316.2,266.72s4.55,12.87,4.9,18.56a9.77,9.77,0,0,1-9.78-1.55s-.49-12.87-1.21-15.17Z"/><path id="Trazado_222" data-name="Trazado 222" class="cls-9" d="M308.9,254s-12.3,16.37-5.3,21.38,15.73-6.63,15.73-6.63,3-9.06.17-12.22S308.9,254,308.9,254Z"/><path id="Trazado_223" data-name="Trazado 223" class="cls-11" d="M314.5,250.15s-5.5,1.16-6.34,3.62,7.64,5,10,5.12l1.69,10s5.9-9.26,3.81-14.74S314.5,250.15,314.5,250.15Z"/><path id="Trazado_224" data-name="Trazado 224" class="cls-9" d="M317.08,267.47s4.76-5.26,6.52-1.72-4.31,6-6.34,4.26Z"/><path id="Trazado_225" data-name="Trazado 225" class="cls-9" d="M295.34,381.89c0,.91-1.55,8.08-2.41,11.9a6.3,6.3,0,0,0,.67,4.52l29.93,50.39a7,7,0,0,1,.79,2,43.69,43.69,0,0,1,1.09,13.43l-1.55,3.21,6.69-1.51,1.48-18-1.9-1.16a9.08,9.08,0,0,1-3.65-4.26c-2.71-6.57-9.43-23.31-11.15-31.45-2-9.27-12.27-16.77-12.27-16.77l1.81-4.28Z"/><path id="Trazado_226" data-name="Trazado 226" class="cls-11" d="M338,459.57s-3.61-5.71-4-8-1.61-6.16-3.81-5c0,0-1.05,10.83-.69,15.07s-4.78,4.1-4.78,4.1a4.82,4.82,0,0,0-2.46,1.27,1.2,1.2,0,0,0,.06,1.71,1.17,1.17,0,0,0,.75.31,28.24,28.24,0,0,0,7.17-.4,2.19,2.19,0,0,0,1.77-2l.7-12.5,4.56,5.76Z"/><path id="Trazado_227" data-name="Trazado 227" class="cls-9" d="M313.22,389.92s1.06,45.05,1.2,51.44-1,20.57-7.43,24.81l2.79,2.07a37.12,37.12,0,0,0,6.9-8.68c3.81-6.4,5-7.57,5-7.57l-1.27-2.6a5.74,5.74,0,0,1-.47-3.67c1.39-6.7,6-29,7.27-33.82,1.49-5.67,1.6-13.25-3.58-19.58S313.22,389.92,313.22,389.92Z"/><path id="Trazado_228" data-name="Trazado 228" class="cls-11" d="M319.14,470.28a.42.42,0,0,0,.4-.35c.21-1.5,1.09-7.52,1.82-9.08.84-1.78,3.56-9.3,0-9.93,0,0-8.84,12.91-10.53,14.65a3.32,3.32,0,0,1-3.84.63,6.5,6.5,0,0,0-2.9,2.08,1.18,1.18,0,0,0,.18,1.65,1.12,1.12,0,0,0,.75.25l6,.06a4.18,4.18,0,0,0,3.92-2.7c1.05-2.61,2.85-6.45,4.95-8.15l-1.09,10.44a.39.39,0,0,0,.35.44h0Z"/><path id="Trazado_229" data-name="Trazado 229" class="cls-4" d="M305.82,335.22s1.35,4.28-.71,11.32l-12.79,44.64a1.38,1.38,0,0,0,.87,1.68c3.8,1.38,16.4,5.25,33.55,4.07a1.94,1.94,0,0,0,1.77-1.51c1.13-5.08,5-22.46,5.79-26,3-13.6,6.4-28.25-8.46-37.12C319,335.21,312.59,336.94,305.82,335.22Z"/><path id="Trazado_230" data-name="Trazado 230" class="cls-10" d="M347.15,318h.1c-1.61-1.27-10.15-1.31-10.15-1.31s-6.21-9-8.32-11.22l-.2-.21a1.07,1.07,0,0,0-.16-.14c-.77-.72-1.59-1.43-2.47-2.17a7.64,7.64,0,0,1-2.23-3c-3.29-8.28-.69-13.7,5.29-10.23,0,0,12.64,10.5,17.55,25.38.05.19.1.36.16.53.2.7.39,1.35.57,2,0,0,0,.11,0,.16S347.12,317.86,347.15,318Z"/><path id="Trazado_231" data-name="Trazado 231" class="cls-9" d="M315.89,323.37s14.69,8.3,19.67,1.21c1-1.47,1.8-6.53,1.55-7.93,4.4-2.22,7.72,1.05,10.19.86.64,3.4,1,6.71-1,10.36C337.58,343.73,314,327,314,327Z"/><path id="Trazado_232" data-name="Trazado 232" class="cls-12" d="M315.23,333.34,310,308.86a.74.74,0,0,0-.45-.51c-1.44-.67-4.21-.22-6.65.08-3.81.47-4.84.42-7.48.72-.38,0-.6.58-.44,1,1.5,4.08,4.09,18.5,7.19,23.94a.51.51,0,0,0,.43.28l12.11-.15C315.08,334.24,315.33,333.79,315.23,333.34Z"/><path id="Trazado_233" data-name="Trazado 233" class="cls-13" d="M304.1,318.46a1.36,1.36,0,0,1,.21-.37.34.34,0,0,1,.47,0,.36.36,0,0,1,.12.31,2,2,0,0,1-.09.33l0,.06a.37.37,0,0,1-.5.15.36.36,0,0,1-.18-.42Z"/><path id="Trazado_234" data-name="Trazado 234" class="cls-13" d="M304.62,319.45c.18-.05.45-.42.9-.55a1.34,1.34,0,0,1,.84,0,.35.35,0,0,1,.22.45.08.08,0,0,1,0,0,1.25,1.25,0,0,0-.08,1,1.21,1.21,0,0,0,.79.81.36.36,0,0,1,.24.39c-.05.48-.24,1.35-.74,1.51-.32.1-.63-.05-1,.05s-.64.43-.84.5c-.64.2-1.87-.94-2.2-2.05a1.52,1.52,0,0,1,.73-2l.09,0A7.18,7.18,0,0,1,304.62,319.45Z"/><path id="Trazado_235" data-name="Trazado 235" class="cls-14" d="M315.72,327.11s1.11-4.59.66-6.22-1.32-3.73-4.23-3.26a41.71,41.71,0,0,0-6.34,1.69,1.66,1.66,0,0,0,1.73,1.6,1.64,1.64,0,0,0,.65-.16l-1.36,1s.2,1.7,2.06.79L307.62,324a1.48,1.48,0,0,0,2,.6l.17-.1C311.16,323.62,311.83,327.66,315.72,327.11Z"/><path id="Trazado_236" data-name="Trazado 236" class="cls-15" d="M386.79,146.54c8.34-14.87,25.89-13.65,26.82-7.82S403,148.08,403,148.08s22.95,5.24,16.41,19.31-22.78-10.32-22.78-10.32,10.2,16-1,17.77S380.25,158.21,386.79,146.54Z"/><path id="Trazado_237" data-name="Trazado 237" class="cls-16" d="M394.44,126c10.2,9.52-9.66,34.44-21.78,32.8s-53.94-43-48.4-56.17S382.57,114.9,394.44,126Z"/><path id="Trazado_238" data-name="Trazado 238" class="cls-17" d="M366.18,149.16c8-1.9,16.2-12.94,17-20.87a.84.84,0,0,0-1.58-.47c-2.23,3.78-3.84,7.62-6.77,11a29.7,29.7,0,0,1-10.25,7.42,1,1,0,0,0-.55,1.36,1.18,1.18,0,0,0,.11.19l.42.7A1.64,1.64,0,0,0,366.18,149.16Z"/><path id="Trazado_239" data-name="Trazado 239" class="cls-17" d="M351.3,135.45c3-.9,6-4.3,8-6.72a21.3,21.3,0,0,0,4.44-9.1c.28-1.31-1.66-1.53-2-.31a20.55,20.55,0,0,1-5.67,8.88c-2,2-4.66,3.47-6.1,5.85C349.48,134.93,350.55,135.67,351.3,135.45Z"/><path id="Trazado_240" data-name="Trazado 240" class="cls-17" d="M337.17,120.81c3.49-.64,6.34-4.61,8.08-7.45.77-1.27-1.27-2.45-2.17-1.33a21.07,21.07,0,0,1-3.5,3.5c-1.24,1-2.74,1.61-3.81,2.79a1.57,1.57,0,0,0,1.4,2.49Z"/><path id="Trazado_241" data-name="Trazado 241" class="cls-18" d="M392.78,132.72c.84.34,2-.12,1.76-1.27-.63-3.35-4.44-5.95-7-7.92-2.13-1.63-6.18-5.3-9-3.81a1.13,1.13,0,0,0-.68,1.15c.44,2.89,4.44,4.06,6.62,5.56,2.64,1.84,5.21,5.39,8.25,6.35C392.76,132.72,392.77,132.72,392.78,132.72Z"/><path id="Trazado_242" data-name="Trazado 242" class="cls-18" d="M375.22,117.82a14.53,14.53,0,0,1-3.47-2.22,1.9,1.9,0,0,0-2.7,2.57c1.14,1.7,3.26,2.58,5.16,3.1S377.14,118.52,375.22,117.82Z"/><path id="Trazado_243" data-name="Trazado 243" class="cls-19" d="M408.9,139.73c1.34,0,1.4-2.33,0-2.39a2.84,2.84,0,0,1-1.7-.58c-1.32-1-3,1.08-1.61,2A5.36,5.36,0,0,0,408.9,139.73Z"/><path id="Trazado_244" data-name="Trazado 244" class="cls-19" d="M417.14,162.94a2.85,2.85,0,0,0,0-2.42c-.24-.63-.54-1.32-.84-2-.63-1.39-1.69-2.66-3.38-2.5a1.7,1.7,0,0,0-1.43,1.4,1.63,1.63,0,0,0,1,1.76l.2.06.16.11c.11.2.26.37.36.58.68,1.33,1,3,2.6,3.5A1.05,1.05,0,0,0,417.14,162.94Z"/><path id="Trazado_245" data-name="Trazado 245" class="cls-19" d="M411.22,154a7.8,7.8,0,0,0-1.69-1,1.3,1.3,0,0,0-1.34,2.2,7.32,7.32,0,0,0,1.66,1C411.17,156.83,412.47,154.8,411.22,154Z"/><path id="Trazado_246" data-name="Trazado 246" class="cls-19" d="M397.64,171.21a1.61,1.61,0,0,0,.7-2,5.26,5.26,0,0,0-.74-1.74,1.73,1.73,0,0,0-2-.56,1.68,1.68,0,0,0-1,1.76,5.69,5.69,0,0,0,1,2.08,1.57,1.57,0,0,0,2,.42Z"/><path id="Trazado_247" data-name="Trazado 247" class="cls-20" d="M393.36,157.46a26.92,26.92,0,0,1,0-3.81c.7.48,1.43.93,2.17,1.35,1.27.71,2.44,1.47,4,1a1.83,1.83,0,0,0,1-2.37,1.87,1.87,0,0,0-.94-1,8.93,8.93,0,0,1-.78-.85c-.45-.45-.9-.91-1.37-1.34-.11-.11-.24-.2-.36-.3,1.08-.64,2.14-1.27,3.17-2a1.71,1.71,0,0,0,.48-2.2,1.78,1.78,0,0,0-2.13-.77,35.76,35.76,0,0,0-5.4,1.83,2.57,2.57,0,0,0-1.05.88,3,3,0,0,0-1.69,2.09h0a20.13,20.13,0,0,0-1.35,8C389.17,160.76,393.57,160.28,393.36,157.46Z"/><path id="Trazado_248" data-name="Trazado 248" class="cls-21" d="M405.45,433.47s.46,14.1-1.71,25.1,13.61,14.53,22.52,2.85-3-25.38-8.15-30.78S406.54,430.23,405.45,433.47Z"/><path id="Trazado_249" data-name="Trazado 249" class="cls-22" d="M413.57,437c-27.85,7.44-45.05-.95-33.63-25.68s40.79-24.67,51.92-9.52S443,429.14,413.57,437Z"/><path id="Trazado_250" data-name="Trazado 250" class="cls-23" d="M437.44,411.55A10.32,10.32,0,0,1,426.3,417c-5.65-1-4.28.32-7.44,4.8s-10.35,3.23-16.46.32-5.28,1.47-14.13,5.22c-5.39,2.28-9.41-1.56-11.74-4.92-1.9,16,13.87,20.79,37,14.59C436.38,430.94,441.49,422.21,437.44,411.55Z"/><path id="Trazado_251" data-name="Trazado 251" class="cls-24" d="M419.43,451.81c-1.57,2.54-3.74,8.88-7.24,9.38-1.27.16-1.9,2.23-.47,2.7,6.1,2,11.17-4.45,12.91-9.63a2.88,2.88,0,0,0-5.2-2.45Z"/><path id="Trazado_253" data-name="Trazado 253" class="cls-23" d="M400.82,399.31a2.23,2.23,0,0,0-2.4-2c-1.41.1-2.44,1.1-3.42,2a24.36,24.36,0,0,0-2.33,2.54,2.85,2.85,0,1,0,4.32,3.71l0,0C398.65,404,400.9,401.75,400.82,399.31Z"/><path id="Trazado_254" data-name="Trazado 254" class="cls-23" d="M405.23,404.38a.46.46,0,0,0-.08-.19,1.69,1.69,0,1,0-3.14,1.24,1.63,1.63,0,0,0,.47.66l.15.14a1.66,1.66,0,0,0,2.34-.29A1.68,1.68,0,0,0,405.23,404.38Z"/><path id="Trazado_255" data-name="Trazado 255" class="cls-23" d="M409.48,397.94l-.88-.55a1.76,1.76,0,0,0-1.9,2.93l.8.68a1.84,1.84,0,0,0,2.34-2.85,2.21,2.21,0,0,0-.36-.23Z"/><path id="Trazado_256" data-name="Trazado 256" class="cls-23" d="M420.64,395.4c-1.43-1.37-3.81-1.45-5.71-1.33-2.18.14-2.93,3.59-.76,4.37,1.41.52,2.7,1.55,4.19,1.8a2.8,2.8,0,0,0,3-1.54,2.88,2.88,0,0,0-.69-3.29Z"/><path id="Trazado_257" data-name="Trazado 257" class="cls-22" d="M390.18,431.4a2.71,2.71,0,0,0-1.27-1.36c-1.2-.75-2.72.64-2.43,1.9a3.42,3.42,0,0,0,0,.64,1.9,1.9,0,0,0,1.31,1.6,1.83,1.83,0,0,0,2-.57,2.27,2.27,0,0,0,.39-2.21Z"/><path id="Trazado_258" data-name="Trazado 258" class="cls-22" d="M400.33,427.19a2.12,2.12,0,1,0-4.17-.73,8.21,8.21,0,0,0-.48,3.18,2.14,2.14,0,0,0,2.42,1.83,2.12,2.12,0,0,0,1.61-1.13A7.6,7.6,0,0,0,400.33,427.19Z"/><path id="Trazado_259" data-name="Trazado 259" class="cls-22" d="M406.79,430.52l-.41-.14a1.57,1.57,0,0,0-1.79.39,1.53,1.53,0,0,0-.08,1.83l.25.33a1.63,1.63,0,1,0,2.67-1.88,1.72,1.72,0,0,0-.64-.53Z"/><path id="Trazado_262" data-name="Trazado 262" class="cls-25" d="M64.31,70.12S31,39.45,16.09,47.83s.48,48.55,7.61,59.55,45.21,23,45.21,23L85,115.21,79.91,85.77Z"/><path id="Trazado_263" data-name="Trazado 263" class="cls-26" d="M86.53,127.13s7.52,4.72,10.07,8.52-12.95,15.79-16.75,13-5.43-11.59-5.43-11.59Z"/><path id="Trazado_264" data-name="Trazado 264" class="cls-27" d="M76.23,116.81S37,95.58,16.64,102.63c0,0,21,54.42,64.69,37.85Z"/><path id="Trazado_265" data-name="Trazado 265" class="cls-28" d="M81.33,140.48s-26.09-40.17-20.85-79C60.48,61.52,124.42,101.22,81.33,140.48Z"/><path id="Trazado_266" data-name="Trazado 266" class="cls-28" d="M68,132.53c-5.26-2.57-11.93-1.67-17.61-3.8A42.49,42.49,0,0,1,31,113.5c-.63-.86-2-.08-1.43.84a44.89,44.89,0,0,0,17.89,16.3c5.46,2.7,14.75,6.56,20.58,3.44a.9.9,0,0,0,.32-1.23,1,1,0,0,0-.32-.32Z"/><path id="Trazado_267" data-name="Trazado 267" class="cls-28" d="M64.87,118.48c-2.94-2.16-7.52-1.9-11.05-2.61a46.62,46.62,0,0,1-12.93-4.74c-.63-.37-1.48.58-.84,1.09a34.27,34.27,0,0,0,11.47,6c3.81,1.22,9.21,3.35,13.12,2a1,1,0,0,0,.23-1.82Z"/><path id="Trazado_268" data-name="Trazado 268" class="cls-27" d="M75.54,104.67c-.84-3.93-1.83-7.81-2.92-11.68a.8.8,0,0,0-1-.56.82.82,0,0,0-.57,1c.83,3.66,1.58,7.35,2.18,11s.56,7.61,2,11a.89.89,0,0,0,1.74-.23C77.41,111.79,76.27,108.09,75.54,104.67Z"/><path id="Trazado_269" data-name="Trazado 269" class="cls-27" d="M76.46,82.37a.82.82,0,0,0-1.12-.23.81.81,0,0,0-.27,1c7.38,13.87,13.8,27.68,9.7,43.61a1.26,1.26,0,0,0,2.43.68C93.12,111.65,84.28,95.71,76.46,82.37Z"/><path id="Trazado_270" data-name="Trazado 270" class="cls-29" d="M23.9,62.16c-1,.41-1.66,1.19-2.66,1.57a4.74,4.74,0,0,1-3,.23,1.16,1.16,0,0,0-1.37.89,1.14,1.14,0,0,0,.49,1.2C20,67.68,24.68,67.51,26,64.21a1.67,1.67,0,0,0-1.19-2A1.61,1.61,0,0,0,23.9,62.16Z"/><path id="Trazado_271" data-name="Trazado 271" class="cls-29" d="M27.71,57.26c-.27-.63-1.1-.63-1.64-.42-.85.35-1.08,1.4-2,1.65-1.38.37-1.16,2.73.35,2.58C26.19,60.88,28.63,59.39,27.71,57.26Z"/><path id="Trazado_272" data-name="Trazado 272" class="cls-29" d="M37.33,56.67a1.22,1.22,0,0,0-1.53-.81,1.2,1.2,0,0,0-.69.52c-.32.47-.41,1.07-.7,1.56a2.2,2.2,0,0,1-1.13.93,1,1,0,0,0-.41,1.24,1,1,0,0,0,1.18.57C35.74,60.45,38,58.61,37.33,56.67Z"/><path id="Trazado_273" data-name="Trazado 273" class="cls-29" d="M31.13,68a1.55,1.55,0,0,0-1.78-.24c-1.27.56-2.2,1.9-3.13,2.92a1.21,1.21,0,0,0,1.46,1.9c1.2-.74,2.8-1.5,3.68-2.79A1.47,1.47,0,0,0,31.13,68Z"/><path id="Trazado_274" data-name="Trazado 274" class="cls-29" d="M27.56,79a8.36,8.36,0,0,1-4.65.09c-1-.33-1.55,1.13-.7,1.67a6.62,6.62,0,0,0,6.34.63C30,80.73,28.94,78.67,27.56,79Z"/><path id="Trazado_275" data-name="Trazado 275" class="cls-29" d="M40.26,72.59a1.12,1.12,0,0,0-1-.57c-1.5.07-2.17,1.73-3.71,1.81a1.47,1.47,0,0,0,0,2.94C37.61,76.84,41.44,75.23,40.26,72.59Z"/><path id="Trazado_276" data-name="Trazado 276" class="cls-29" d="M43.93,63.13a4.53,4.53,0,0,1-1.67,1.16c-1.68.52-.94,3.18.73,2.64a5.25,5.25,0,0,0,3-2.23,1.31,1.31,0,0,0-2.07-1.57Z"/><path id="Trazado_277" data-name="Trazado 277" class="cls-29" d="M46.59,72.29a15.93,15.93,0,0,1-2.33,1.27,1.48,1.48,0,0,0,.79,2.85,6.7,6.7,0,0,0,3.52-1.58C50,73.61,48.17,71.38,46.59,72.29Z"/><path id="Trazado_278" data-name="Trazado 278" class="cls-29" d="M40.13,83.82c-.82-.3-1.44.11-2.18.37a3.74,3.74,0,0,1-1.69.21,1.57,1.57,0,0,0-1.9,1.07,1.55,1.55,0,0,0,1.06,1.9c1.63.42,5.35.49,5.71-1.77A1.47,1.47,0,0,0,40.13,83.82Z"/><path id="Trazado_279" data-name="Trazado 279" class="cls-29" d="M48.92,86.35A1.48,1.48,0,0,0,47,86a2.27,2.27,0,0,1-1.76.68c-1.49-.14-1.76,2.22-.35,2.58a4.13,4.13,0,0,0,3.89-1A1.5,1.5,0,0,0,48.92,86.35Z"/><path id="Trazado_280" data-name="Trazado 280" class="cls-29" d="M32.3,95.29l-2.92.46c-1.22.2-.93,2.22.3,2.15l3-.12a1.29,1.29,0,0,0,1.3-1.25,1.27,1.27,0,0,0-1.25-1.29A1.24,1.24,0,0,0,32.3,95.29Z"/><path id="Trazado_281" data-name="Trazado 281" class="cls-29" d="M43.53,98.41a1.76,1.76,0,0,1-.91,0c-1.37-.17-1.69,2.16-.33,2.42a4.12,4.12,0,0,0,2.23-.11,1.28,1.28,0,1,0-1-2.35Z"/><path id="Trazado_282" data-name="Trazado 282" class="cls-29" d="M56.6,96.34c-1.05,0-1.61.78-2.4,1.36a5.59,5.59,0,0,1-1.71.85,1.53,1.53,0,0,0-1.1,1.67,1.5,1.5,0,0,0,1.5,1.33,9.1,9.1,0,0,0,3.1-.92c1-.51,2.24-1.55,2.14-2.75A1.56,1.56,0,0,0,56.6,96.34Z"/><path id="Trazado_283" data-name="Trazado 283" class="cls-29" d="M56.69,81.22a1.14,1.14,0,0,0-1.1-.84,3.11,3.11,0,0,0-2.24,1.53A1.57,1.57,0,0,0,53.91,84,1.6,1.6,0,0,0,56,83.48a2.78,2.78,0,0,0,.66-2.26Z"/><path id="Trazado_284" data-name="Trazado 284" class="cls-29" d="M55.49,67.49a14,14,0,0,0-2.7,2.73,1.39,1.39,0,1,0,1.94,2l0,0a14.91,14.91,0,0,0,2.74-2.7,1.47,1.47,0,0,0-.6-2,1.51,1.51,0,0,0-1.4,0Z"/><path id="Trazado_285" data-name="Trazado 285" class="cls-30" d="M22.41,49.31c-1.33-2-4.44-.43-5.83.71-1.66,1.36-2.94,3.81-2.32,6a1.54,1.54,0,0,0,2.94,0A7.13,7.13,0,0,1,19,52.47c1-.9,2.67-.89,3.39-2A1.11,1.11,0,0,0,22.41,49.31Z"/><path id="Trazado_286" data-name="Trazado 286" class="cls-30" d="M14.42,59.83c-.5,1-1.18,3.74.55,4a1.07,1.07,0,0,0,1.19-.94.67.67,0,0,0,0-.2c0-.34-.1-.67-.1-1a2.91,2.91,0,0,1,.23-1.05C16.71,59.55,15,58.81,14.42,59.83Z"/><path id="Trazado_287" data-name="Trazado 287" class="cls-30" d="M18.79,75.14a1.22,1.22,0,0,0-1.64.43,3.9,3.9,0,0,0,.82,4,1.38,1.38,0,0,0,2,0,1.36,1.36,0,0,0,.35-.6A3.93,3.93,0,0,0,18.79,75.14Z"/><path id="Trazado_288" data-name="Trazado 288" class="cls-30" d="M35.55,51.36A23.27,23.27,0,0,0,32.82,50a1,1,0,0,0-1.27.76,1.1,1.1,0,0,0,0,.51,4.36,4.36,0,0,0,2.93,2.66,1.41,1.41,0,0,0,1.68-1A1.43,1.43,0,0,0,35.55,51.36Z"/><path id="Trazado_289" data-name="Trazado 289" class="cls-30" d="M51.09,60.56a1.09,1.09,0,0,0-1.5.39A1.11,1.11,0,0,0,50,62.46h0c.94.63,2.18,1.9,3.37,1.3A.9.9,0,0,0,53.8,63C53.81,61.71,52,61.1,51.09,60.56Z"/><path id="Trazado_290" data-name="Trazado 290" class="cls-15" d="M189.47,98.21c-8.5,3.11-14.29,2.25-16.11-1a7.19,7.19,0,0,1,7-2.72s-3.87-3.62-2.83-6.64a19.22,19.22,0,0,1,7.74.21s-2.53-5,1.84-8.66c0,0,5.89,1.27,7.9,5.91,0,0,1.52-5.43,5.4-3.95,0,0,1,4,.4,5.57,0,0,3-2.29,6-.64C206.84,86.28,203.37,93.12,189.47,98.21Z"/><path id="Trazado_291" data-name="Trazado 291" class="cls-31" d="M177.15,106.8c-.49-10.89,21.69-20.24,31.23-13.51s9,31.55-3.27,35.44S177.5,114.53,177.15,106.8Z"/><path id="Trazado_292" data-name="Trazado 292" class="cls-19" d="M179.29,95.55a5.05,5.05,0,0,0-1.54.24c-1.49.35-.84,2.54.64,2.27a4.52,4.52,0,0,0,1.48-.4,1.15,1.15,0,0,0,.35-1.58A1.13,1.13,0,0,0,179.29,95.55Z"/><path id="Trazado_293" data-name="Trazado 293" class="cls-19" d="M184.91,92.49a4.08,4.08,0,0,0-1.31-1.17c-1-.71-2.31,1-1.33,1.73a4.2,4.2,0,0,0,1.49,1,1,1,0,0,0,1.15-1.52Z"/><path id="Trazado_294" data-name="Trazado 294" class="cls-19" d="M191.83,87.34a2.39,2.39,0,0,0-1.13-1.68c-1.23-.86-2.47,1.22-1.18,2,.11.07.06.06.1.25a1.15,1.15,0,0,0,1.41.8A1.17,1.17,0,0,0,191.83,87.34Z"/><path id="Trazado_295" data-name="Trazado 295" class="cls-19" d="M198.06,86.05a5.18,5.18,0,0,1-.2.63c-.43,1.49,1.76,2,2.28.64l.25-.64C200.93,85.25,198.51,84.54,198.06,86.05Z"/><path id="Trazado_296" data-name="Trazado 296" class="cls-19" d="M201.59,88.34a3.24,3.24,0,0,0-.27.71c-.26,1.15,1.22,2.24,2.1,1.23a3.16,3.16,0,0,0,.44-.64C204.62,88.15,202.35,86.83,201.59,88.34Z"/><path id="Trazado_297" data-name="Trazado 297" class="cls-32" d="M200.84,122.77c-3.56-.78-6.86-2.07-9.38-4.81-.73-.8-2.14.26-1.51,1.16,2.4,3.49,5.67,6.35,9.9,7.27C202.19,126.91,203.22,123.29,200.84,122.77Z"/><path id="Trazado_298" data-name="Trazado 298" class="cls-32" d="M207.71,120c-1-.35-1.9.59-2.67,1.15a1.28,1.28,0,0,0,1.57,2c.7-.64,1.83-1.27,1.73-2.35A.9.9,0,0,0,207.71,120Z"/><path id="Trazado_299" data-name="Trazado 299" class="cls-33" d="M208.71,97a19.93,19.93,0,0,0-5-3.31C202.4,93,200.59,94.85,202,96a17.31,17.31,0,0,1,3.58,3.72c1,1.42,1.71,3.66,3.5,4.13a2,2,0,0,0,2.45-1.38C212.18,100.43,210.08,98.22,208.71,97Z"/><path id="Trazado_300" data-name="Trazado 300" class="cls-33" d="M212.16,106.83l-.51-.91a1.43,1.43,0,0,0-1.94-.51,1.45,1.45,0,0,0-.52,1.94c.15.32.29.63.43,1a1.47,1.47,0,0,0,2.61-1.36l-.07-.13Z"/><path id="Trazado_301" data-name="Trazado 301" class="cls-34" d="M184.28,104.94a1.88,1.88,0,0,0-1.8-1.33,1.26,1.26,0,0,0-1.27,1.26h0a1.23,1.23,0,0,0,.85,1.2C182.87,107,184.82,106.3,184.28,104.94Z"/><path id="Trazado_302" data-name="Trazado 302" class="cls-34" d="M192.25,108.21a4.69,4.69,0,0,0-.63-.7,1.28,1.28,0,1,0-1.82,1.81,5.24,5.24,0,0,0,.7.63C191.49,110.72,193,109.19,192.25,108.21Z"/><path id="Trazado_303" data-name="Trazado 303" class="cls-34" d="M195.14,98.45c-.38-1.13-2.2-.63-1.81.5a3,3,0,0,0,.54,1c.47.6,1.41.07,1.42-.59A2.38,2.38,0,0,0,195.14,98.45Z"/><path id="Trazado_304" data-name="Trazado 304" class="cls-34" d="M201.82,105.26l-.48-.64c-.77-1.06-2.53-.1-1.8,1.06l.44.66C200.72,107.51,202.62,106.36,201.82,105.26Z"/><path id="Trazado_305" data-name="Trazado 305" class="cls-34" d="M207.28,98.24c-.15-.57-.32-1.16-.48-1.74a.59.59,0,0,0-1.15.16c0,.6,0,1.2,0,1.8a.83.83,0,0,0,.59.77.66.66,0,0,0,.64-.07A.85.85,0,0,0,207.28,98.24Z"/><path id="Trazado_306" data-name="Trazado 306" class="cls-34" d="M207.9,110.76c-.1-.35-.45-.54-.56-.88a1.07,1.07,0,1,0-2.07.57,1.84,1.84,0,0,0,1.45,1.49,1,1,0,0,0,1.18-.68A1.06,1.06,0,0,0,207.9,110.76Z"/><path id="Trazado_307" data-name="Trazado 307" class="cls-34" d="M199.93,115.48c-.57-1.43-2.69-.45-1.9.81a2.41,2.41,0,0,0,1.33,1.22.63.63,0,0,0,.72-.42A2.15,2.15,0,0,0,199.93,115.48Z"/><path id="Trazado_308" data-name="Trazado 308" class="cls-34" d="M191.55,118.65a.89.89,0,0,0,0,1.26.86.86,0,0,0,.61.25h.29a.59.59,0,0,0,.57-.56v-.3a.89.89,0,0,0-.87-.89A.87.87,0,0,0,191.55,118.65Z"/><path id="Trazado_309" data-name="Trazado 309" class="cls-34" d="M202.33,122.28c-.24-.22-.5-.43-.75-.63a1.23,1.23,0,0,0-1.7,1.77,1.1,1.1,0,0,0,.5.29c.34.08.67.15,1,.21C202.27,124.05,203.08,123,202.33,122.28Z"/><path id="Trazado_310" data-name="Trazado 310" class="cls-34" d="M207.83,119.39a1.77,1.77,0,0,0-.15-.46,1.24,1.24,0,0,0-.25-.26,1.12,1.12,0,0,0-1.15-1.11h-.12a1.11,1.11,0,0,0-1,1.25.45.45,0,0,0,0,.16c.4,1,1.41,2,2.43,1.1A.7.7,0,0,0,207.83,119.39Z"/><path id="Trazado_311" data-name="Trazado 311" class="cls-34" d="M184.5,111.58c-1.08-.82-2.23,1.06-1.08,1.85.53.37,2.15,1.56,2.71.59S185.09,112,184.5,111.58Z"/><path id="Trazado_312" data-name="Trazado 312" class="cls-34" d="M213,103.4c-.42-1.11-2.28-1.06-2.22.3a3.46,3.46,0,0,0,.36,1.82c.5.78,2,.79,2.17-.28A3.25,3.25,0,0,0,213,103.4Z"/><path id="Trazado_313" data-name="Trazado 313" class="cls-35" d="M91.83,441s-113.54-3.23-116.9-1,7,26.65,7.62,27.66S8,484.5,8,484.5l22.77,7.61,30-6.25,28.8-28.55,7.1-11.87Z"/><path id="Trazado_314" data-name="Trazado 314" class="cls-15" d="M91.83,441c.64-2.49,8.37-2.61,9.24,1.62s-17.18,53.55-66.18,56.47-67.8-50.6-66.21-55.48,7.62-6,8.7-1.39,20.71,45.46,52.82,41.67S88.63,453.66,91.83,441Z"/><path id="Trazado_315" data-name="Trazado 315" class="cls-36" d="M91.83,441c-3.19,12.69-29.54,39.1-61.63,42.89S-21.54,446.8-22.63,442.2a3.46,3.46,0,0,0-3.9-2.88c.26,3.38,1.9,7.4,2.54,9.36a56.49,56.49,0,0,0,11.13,21.2c11.23,13.06,30.46,23.33,48,22.09,8.56-.63,17.14-4.44,25.19-7.24,8.64-3,14-7.39,19.71-14.4,5.9-7.2,11.66-14.63,15.42-23.2a72,72,0,0,0,2.93-7.37C95.81,438.72,92.25,439.33,91.83,441Z"/><path id="Trazado_317" data-name="Trazado 317" class="cls-37" d="M3.8,459.57a1.73,1.73,0,0,0-1.46,1.68c-.09,1.38-.43,3.06,1,3.91a1.6,1.6,0,0,0,1.61,0,2.39,2.39,0,0,0,1-2.42c-.07-.63-.19-1.26-.28-1.95A1.68,1.68,0,0,0,3.8,459.57Z"/><path id="Trazado_318" data-name="Trazado 318" class="cls-37" d="M13.19,447.53a2,2,0,0,0-2,2.05,2.13,2.13,0,0,0,.06.45l.1.41a1.85,1.85,0,0,0,2.28,1.3A1.83,1.83,0,0,0,15,450.42c.06-.14.1-.28.15-.41a2,2,0,0,0-1.43-2.41A1.79,1.79,0,0,0,13.19,447.53Z"/><path id="Trazado_319" data-name="Trazado 319" class="cls-37" d="M19.49,461.94a3.27,3.27,0,0,0-.26,3.33,1.9,1.9,0,0,0,3.47-1.57,2.23,2.23,0,0,0-.2-.33,5.69,5.69,0,0,0-.6-.7v-.12a1.27,1.27,0,0,0-2.42-.6Z"/><path id="Trazado_320" data-name="Trazado 320" class="cls-37" d="M27.05,471.63a2,2,0,0,0-.89,2.14c0-.26-.05.36-.05.35a4.2,4.2,0,0,0,.2.92,2,2,0,0,0,1.9,1.45,2,2,0,0,0,1.9-1.47,3,3,0,0,0-.78-3.08,1.91,1.91,0,0,0-2.3-.31Z"/><path id="Trazado_321" data-name="Trazado 321" class="cls-37" d="M31.4,450.31a2.61,2.61,0,0,0,.73,1.73,1.91,1.91,0,0,0,2.69,0,1.78,1.78,0,0,0,.52-.91,2.51,2.51,0,0,0-.24-1.86C34.3,447.53,31.19,448.36,31.4,450.31Z"/><path id="Trazado_322" data-name="Trazado 322" class="cls-37" d="M43.87,460.36a2.14,2.14,0,0,0-1.47,2.54c.21,1.18.42,2.22,1.56,2.86a1.63,1.63,0,0,0,1.95-.25,2.75,2.75,0,0,0,.77-1.9,11.9,11.9,0,0,0-.24-1.78A2.11,2.11,0,0,0,43.87,460.36Z"/><path id="Trazado_323" data-name="Trazado 323" class="cls-37" d="M55.05,447.54a2,2,0,0,0-1.4,2.43,2.72,2.72,0,0,0,1.34,1.9,1.75,1.75,0,0,0,2.29-.63,2.71,2.71,0,0,0,.2-2.32,2,2,0,0,0-2.43-1.38Z"/><path id="Trazado_324" data-name="Trazado 324" class="cls-37" d="M64,457.38a1.81,1.81,0,0,0-1.07,2.15,10.57,10.57,0,0,0,1.34,2.94,1.89,1.89,0,0,0,2.32.32,2,2,0,0,0,.89-2.16,9.51,9.51,0,0,0-1.21-2.48,1.82,1.82,0,0,0-2.27-.77Z"/><path id="Trazado_325" data-name="Trazado 325" class="cls-37" d="M77.52,448.86A2.36,2.36,0,0,0,76.25,452a2.56,2.56,0,0,0,.11.24,3.84,3.84,0,0,0,1.57,1.67,2,2,0,0,0,2.73-.78,1.85,1.85,0,0,0,.18-.44,3.81,3.81,0,0,0-.15-2.24,2.37,2.37,0,0,0-2.93-1.62l-.24.08Z"/><path id="Trazado_326" data-name="Trazado 326" class="cls-38" d="M191.37,427.1a1,1,0,0,0,0,.24c.22,1.71,1.58,12.16,1.6,18.11,0,6.5-3.38,13.57-3.1,15.28s3.74,2.36,6,3,7.33-9.28,11.28-10.92,12.75-5.19,12.75-5.19l-4.71-2.47s-9,2.72-9.81,2.86,1.81-7.17,1.81-7.17l-3.83-6.63-4.12,9.46s-2.81-10.6-3.16-12.13"/><path id="Trazado_327" data-name="Trazado 327" class="cls-39" d="M183.56,418.2s-3.82,4.5.13,11.4S194.81,433,194.81,433s-1.43,7.26,9.28,4.08c0,0,0,11.77,11.39,10.41,0,0,2.33,5.59,9,3.6,0,0,8.65,8.76,17.52-.27S243.8,436,243.8,436s5.34-8.09-1.32-10.17c0,0,3.34-9.51-1.93-14.79s-9.14-3.23-9.14-3.23,1-5.78-3.5-8.4-10.4.85-10.4.85-5.53-5.75-12.57-2.65-6.08,7.86-6.08,7.86-4.52-5.05-7.17-3a4.13,4.13,0,0,0-1.49,4.81s-6.81-2.91-9.28,1.19S183.56,418.2,183.56,418.2Z"/><path id="Trazado_328" data-name="Trazado 328" class="cls-40" d="M199.53,423.72a3.56,3.56,0,0,1-2.13-.28,2.3,2.3,0,0,1-.8-2.16c.08-1-1.35-.95-1.64-.16a4.07,4.07,0,0,0-.14,2.13,3.33,3.33,0,0,1-3.09-.35c-1.35-1.1-.84-2.65-.06-3.87.62-1-.64-1.77-1.47-1.37-2.48,1.15-2.28,4.95-.73,6.75a5.82,5.82,0,0,0,6.63,1.32,3.59,3.59,0,0,0,3.94,1.06,1.57,1.57,0,0,0-.51-3.07Z"/><path id="Trazado_329" data-name="Trazado 329" class="cls-40" d="M228.53,443.17a1.14,1.14,0,0,0-.91-2.06,6.6,6.6,0,0,1-3.54.44,4.5,4.5,0,0,1-.7-.25,1.3,1.3,0,0,0-.78-.45,5.5,5.5,0,0,1-1.73-2c-.37-.7-1.38-.16-1.21.54a5.87,5.87,0,0,0,1.11,2.27,2.66,2.66,0,0,1-2.17-.16c-1-.4-4.28-1.77-2.92-3.38a.4.4,0,0,0-.06-.56.38.38,0,0,0-.43,0c-2.73,1.5-.22,4.41,1.32,5.65,1.77,1.42,5.12,2.53,6.74.47A5,5,0,0,0,228.53,443.17Z"/><path id="Trazado_330" data-name="Trazado 330" class="cls-40" d="M240.61,442.55a.88.88,0,0,0-1.14-.27c-.83.38-.9,1.56-1.79,2a2.5,2.5,0,0,1-2.69-.48.36.36,0,0,0-.5.05.37.37,0,0,0,0,.39,3.35,3.35,0,0,0,3.62,1.84C239.33,445.83,241.77,444,240.61,442.55Z"/><path id="Trazado_331" data-name="Trazado 331" class="cls-41" d="M226.44,413.21c.25-2.65-1.7-4-3.92-4.94l-.24-.09a5.13,5.13,0,0,0-3.95-4.95c-2-.53-5.68.22-6.21,2.6a1,1,0,0,0,.77,1.19l.22,0c1.38-.05,2.43-1.1,3.87-1a2.72,2.72,0,0,1,2.27,1.57,3.69,3.69,0,0,0-2.58,1.44c-.61.77.29,2.17,1.18,1.46,1.06-.85,2.32-.5,3.44,0,1,.44,2.5,1.11,2.52,2.36C223.83,414.43,226.29,414.73,226.44,413.21Z"/><path id="Trazado_332" data-name="Trazado 332" class="cls-41" d="M238.87,420.52c-.82-1.47-3.51-3.31-5.13-2a.92.92,0,0,0-.27,1.27.51.51,0,0,0,.13.16c.88.7,2.07.68,2.77,1.69s.33,2.21-.31,3.23c-.8,1.3,1.08,2.47,2.09,1.49A5,5,0,0,0,238.87,420.52Z"/><path id="Trazado_333" data-name="Trazado 333" class="cls-41" d="M204,410.5c.88-2.49-3.18-2.67-4.61-2.34s-5,2.39-3.09,4.2a1,1,0,0,0,1.42-.06.9.9,0,0,0,.14-.2,2.67,2.67,0,0,1,1.73-1.64,4,4,0,0,1,1.45-.24,3,3,0,0,1,.66.07.93.93,0,0,1,.4.12,1,1,0,0,0,1.16.76,1,1,0,0,0,.73-.67Z"/><path id="Trazado_334" data-name="Trazado 334" class="cls-41" d="M224.61,428.12c.13-1.58-2.05-3-3.48-3.64a5,5,0,0,0-3.83-5,5.09,5.09,0,0,0-5.8,2.53c-.53.92.72,1.63,1.43,1a4,4,0,0,1,3.78-.77,3.59,3.59,0,0,1,1.67,1.62,5,5,0,0,0-2.21.74c-.72.44-.22,1.7.62,1.39a4.5,4.5,0,0,1,4.13.84c1,.7,1.71,2,3,1.91A.69.69,0,0,0,224.61,428.12Z"/><path id="Trazado_335" data-name="Trazado 335" class="cls-40" d="M208.33,432.75c-.44,0-1,.16-1.41-.06a1.17,1.17,0,0,1-.55-1.14c0-1-1.32-1-1.6-.15a3,3,0,0,0,.86,3.18,2.66,2.66,0,0,0,3.6.14C210,433.93,209.26,432.82,208.33,432.75Z"/><path id="Trazado_337" data-name="Trazado 337" class="cls-42" d="M16.21,271.94s-2.3,17.5,7.29,30.95S52.79,338,27.1,353.15s-44.7-8.07-49.91-33.64,2.45-43.67,6.18-47.9S.64,264,.64,264Z"/><path id="Trazado_338" data-name="Trazado 338" class="cls-39" d="M-4.46,259.76c19.23-4.32,24,12.1,23,15.65a18.35,18.35,0,0,1-10.78-3.23A25.14,25.14,0,0,1,.57,281.7s-8.64-.81-11.92-6.62c0,0-6,7-10.93,6.38C-22.28,281.47-20.85,263.42-4.46,259.76Z"/><path id="Trazado_339" data-name="Trazado 339" class="cls-43" d="M11.85,266.18a6.46,6.46,0,0,0-6.73-4.67,1.94,1.94,0,0,0-1.24,3.1A16.87,16.87,0,0,0,6,266.66a12.92,12.92,0,0,0,2,1.84,2.48,2.48,0,0,0,2.69.12,2.43,2.43,0,0,0,1.19-2.43Z"/><path id="Trazado_340" data-name="Trazado 340" class="cls-43" d="M14.43,271l0-.19a1.4,1.4,0,0,0-.56-1.27l-.4-.32a1.26,1.26,0,0,0-1.76.32,1.24,1.24,0,0,0-.14,1.19c.08.16.15.32.22.47a1.4,1.4,0,0,0,1.12.84h.19a1.22,1.22,0,0,0,1.29-1Z"/><path id="Trazado_341" data-name="Trazado 341" class="cls-44" d="M3.54,343.42c-5.82-9.92-17-17.18-16.95-30,0-1.85-3-3.07-3.52-.87a29.21,29.21,0,0,0,1.82,19.9c2.78,6,7.74,15.36,15.14,15.61C2.24,348.17,5,345.82,3.54,343.42Z"/><path id="Trazado_342" data-name="Trazado 342" class="cls-44" d="M15.31,350.83a2.87,2.87,0,0,0-2.48-3.17,12.88,12.88,0,0,1-4.33-.94c-2.46-1.07-4.5,2.6-2.27,4.13a13.4,13.4,0,0,0,5.94,2.43A2.87,2.87,0,0,0,15.31,350.83Z"/><path id="Trazado_343" data-name="Trazado 343" class="cls-45" d="M35.21,335.82c2.3-4.12-.47-8.53-2.49-12.4A45.48,45.48,0,0,0,23.3,311c-1.19-1.12-3.39.64-2.54,2a117.43,117.43,0,0,1,6.6,12.69c1.5,3.51,1.81,8.53,5.33,10.52A1.81,1.81,0,0,0,35.21,335.82Z"/><path id="Trazado_344" data-name="Trazado 344" class="cls-45" d="M18.91,304.87c0-.87-.69-1.27-1.15-1.94a9.59,9.59,0,0,1-1-1.95c-.29-.78-.48-1.64-1.34-2a1.48,1.48,0,0,0-1.45.21c-1.27,1-.49,3.17.18,4.3s2.28,3.07,3.76,2.65A1.19,1.19,0,0,0,18.91,304.87Z"/><path id="Trazado_345" data-name="Trazado 345" class="cls-15" d="M366.29,289s-5.71-26.6,16.14-29C382.4,260.06,396.65,282.86,366.29,289Z"/><path id="Trazado_346" data-name="Trazado 346" class="cls-46" d="M379,261.57a12.41,12.41,0,0,0-3.72,1.74c-1.06.59-2.39,1.06-3.05,2.12a.46.46,0,0,0,.19.63.46.46,0,0,0,.2.05c1.24,0,2.36-.92,3.41-1.52a13,13,0,0,0,3.41-2.27.47.47,0,0,0,0-.65.52.52,0,0,0-.43-.11Z"/><path id="Trazado_347" data-name="Trazado 347" class="cls-46" d="M371.07,267.72a4.8,4.8,0,0,0-1.11,1.73.65.65,0,0,0,.28.69.61.61,0,0,0,.3.08.63.63,0,0,0,.58-.44,3.37,3.37,0,0,1,.8-1.2.62.62,0,0,0-.27-.86.6.6,0,0,0-.58,0Z"/><path id="Trazado_348" data-name="Trazado 348" class="cls-46" d="M383.84,272.49a.52.52,0,0,0-.64.35.48.48,0,0,0,0,.29,1.33,1.33,0,0,1-.14,1.08c-.81.82.48,2.1,1.27,1.27a2.28,2.28,0,0,0,.63-1.68,1.48,1.48,0,0,0-1.12-1.3Z"/><path id="Trazado_349" data-name="Trazado 349" class="cls-47" d="M383.82,269.54a9.92,9.92,0,0,0-2.32,1,12.31,12.31,0,0,1-2,.55c.33-.73.63-1.46.93-2.2a.36.36,0,0,0,.27-.41l0-.08,0-.06c.22-.59.44-1.19.63-1.78a.37.37,0,0,0,.21-.09,4.78,4.78,0,0,1,1-.71,9.63,9.63,0,0,0,1-.5c.16-.12.2-.47-.06-.51a2.45,2.45,0,0,0-1.85.7c.09-.29.18-.57.26-.85.13-.48-.63-.71-.81-.27-.4.82-.8,1.64-1.19,2.46l-.27-.55c-.29-.56-.52-1.32-1.11-1.6-.12-.05-.3,0-.32.13a3,3,0,0,0,.64,1.76c.2.37.43.74.63,1.1-.91,1.9-1.83,3.81-2.8,5.66v-.17a5.93,5.93,0,0,0-.74-3,.26.26,0,0,0-.37-.09.28.28,0,0,0-.12.16,6,6,0,0,0,.08,3c.08.58.14,1.17.25,1.74-.5.9-1,1.78-1.54,2.66-1,1.62-2.09,3.17-3.22,4.74a12.51,12.51,0,0,0-.13-1.36,46.35,46.35,0,0,1-.42-6.34.44.44,0,0,0-.44-.44.43.43,0,0,0-.38.22c-1.86,2.53,0,6.17.39,9.3-.17.22-.33.45-.5.68-1.36,1.75-3.07,3.34-4.15,5.29-.28.51.38,1,.84.72,3-2,5.43-5.57,7.49-8.88a50.54,50.54,0,0,0,7.24-1.16.42.42,0,0,0,.28-.52.44.44,0,0,0-.38-.3,18.69,18.69,0,0,0-3.94.54c-.87.16-1.76.28-2.62.5l1.16-1.9c.42-.68.83-1.39,1.27-2.09a.26.26,0,0,0,.15-.17v-.13c.85-1.5,1.65-3,2.38-4.59a10.55,10.55,0,0,0,2.72-.57,4.09,4.09,0,0,0,2.18-1.3.26.26,0,0,0-.1-.34.41.41,0,0,0-.16,0Z"/><path id="Trazado_350" data-name="Trazado 350" class="cls-15" d="M114.63,111.82s-26-7.93-17.49-28.19C97.14,83.63,124,82.24,114.63,111.82Z"/><path id="Trazado_351" data-name="Trazado 351" class="cls-46" d="M96.83,87.35a12.3,12.3,0,0,0-.28,4.1c0,1.21-.24,2.61.38,3.69a.46.46,0,0,0,.62.17.44.44,0,0,0,.16-.17c.6-1.08.34-2.53.33-3.71a11.69,11.69,0,0,0-.33-4.08.47.47,0,0,0-.57-.31.46.46,0,0,0-.31.31Z"/><path id="Trazado_352" data-name="Trazado 352" class="cls-46" d="M98.34,97.26a4.86,4.86,0,0,0,1,1.82.65.65,0,0,0,.74.09.66.66,0,0,0,.21-.23.62.62,0,0,0-.1-.73,3.52,3.52,0,0,1-.63-1.27.64.64,0,0,0-1.19.32Z"/><path id="Trazado_353" data-name="Trazado 353" class="cls-46" d="M108.71,88.42a.54.54,0,0,0,0,.77.44.44,0,0,0,.24.13,1.35,1.35,0,0,1,.87.64c.33,1.1,2.07.6,1.71-.49a2.32,2.32,0,0,0-1.16-1.37,1.5,1.5,0,0,0-1.68.32Z"/><path id="Trazado_354" data-name="Trazado 354" class="cls-47" d="M106.12,87a10.29,10.29,0,0,0-.26,2.54,11.8,11.8,0,0,1-.5,2c-.48-.63-1-1.26-1.48-1.9a.33.33,0,0,0-.2-.42l-.1,0h-.08c-.4-.48-.82-1-1.27-1.43a.31.31,0,0,0,0-.23,5,5,0,0,1-.14-1.23,8.47,8.47,0,0,0,.07-1.13c0-.2-.32-.4-.48-.19a2.44,2.44,0,0,0-.29,2c-.21-.22-.4-.43-.63-.63s-.92.18-.64.57l1.59,2.24h-.64c-.63,0-1.4-.19-1.94.2a.21.21,0,0,0-.07.3l0,0A3,3,0,0,0,101,90h1.27c1.21,1.72,2.43,3.43,3.58,5.2l-.17-.07a6.1,6.1,0,0,0-3-.8.28.28,0,0,0-.26.29.25.25,0,0,0,.08.18,6,6,0,0,0,2.71,1.41c.53.2,1.08.45,1.64.64.54.86,1.07,1.73,1.57,2.62.94,1.68,1.79,3.39,2.59,5.12-.41-.2-.84-.38-1.27-.54a44.67,44.67,0,0,1-5.77-2.73.44.44,0,0,0-.6.64c1.3,2.84,5.39,3,8.32,4.17.11.25.24.51.35.77.87,2,1.43,4.31,2.61,6.19a.57.57,0,0,0,1-.38c-.31-3.59-2.23-7.45-4.14-10.86a19.31,19.31,0,0,0,1.23-2.93A19.19,19.19,0,0,0,114.09,95a.42.42,0,0,0-.77-.3,17.74,17.74,0,0,0-1.44,3.7,26,26,0,0,0-.83,2.54L110,99c-.35-.62-.81-1.4-1.23-2.1a.25.25,0,0,0-.08-.22l-.1-.07c-.89-1.47-1.84-2.92-2.85-4.32a11,11,0,0,0,.93-2.75,4.09,4.09,0,0,0-.07-2.54.25.25,0,0,0-.34-.09.2.2,0,0,0-.09.09Z"/><path id="Trazado_355" data-name="Trazado 355" class="cls-15" d="M52.55,222.82s-16.13-21.92,2.83-33.06C55.37,189.76,77.73,204.69,52.55,222.82Z"/><path id="Trazado_356" data-name="Trazado 356" class="cls-46" d="M52.88,192.54a11.77,11.77,0,0,0-2.68,3.12c-.78,1.05-1.75,2-1.9,3.17a.45.45,0,0,0,.63.46c1.13-.51,1.78-1.81,2.49-2.78A11.92,11.92,0,0,0,53.59,193a.46.46,0,0,0-.3-.57.46.46,0,0,0-.41.07Z"/><path id="Trazado_357" data-name="Trazado 357" class="cls-46" d="M48.19,201.41a4.69,4.69,0,0,0-.3,2,.62.62,0,0,0,.54.51.84.84,0,0,0,.31,0,.66.66,0,0,0,.35-.63,3.27,3.27,0,0,1,.24-1.42.64.64,0,0,0-1.14-.44Z"/><path id="Trazado_358" data-name="Trazado 358" class="cls-46" d="M61.79,200.51a.55.55,0,0,0-.45.63.66.66,0,0,0,.11.26,1.34,1.34,0,0,1,.32,1c-.4,1.08,1.3,1.71,1.65.63a2.28,2.28,0,0,0-.11-1.79A1.5,1.5,0,0,0,61.79,200.51Z"/><path id="Trazado_359" data-name="Trazado 359" class="cls-47" d="M60.55,197.82c-.71.42-1.12,1.27-1.7,1.86A12.3,12.3,0,0,1,57.22,201c0-.8,0-1.6-.06-2.39a.35.35,0,0,0,.07-.48l-.07-.06-.06,0c0-.63-.09-1.27-.15-1.9a.31.31,0,0,0,.16-.16,5,5,0,0,1,.63-1.07,7.48,7.48,0,0,0,.73-.87c.1-.18,0-.51-.27-.44a2.42,2.42,0,0,0-1.4,1.4c0-.3-.06-.59-.11-.89a.43.43,0,0,0-.54-.29.45.45,0,0,0-.32.38c0,.91,0,1.82-.06,2.74l-.47-.4c-.5-.39-1-1-1.68-1-.12,0-.28.1-.23.25.17.63.81,1,1.32,1.34l1,.74c0,2.11-.11,4.21-.24,6.31l-.1-.15a6,6,0,0,0-1.9-2.4.27.27,0,0,0-.38.08.26.26,0,0,0-.05.19,6.18,6.18,0,0,0,1.34,2.74l.94,1.48c-.08,1-.17,2-.31,3.05-.25,1.9-.6,3.81-1,5.65a11.51,11.51,0,0,0-.67-1.18,43.53,43.53,0,0,1-3-5.64.45.45,0,0,0-.59-.22.47.47,0,0,0-.26.35c-.63,3.06,2.54,5.65,4.18,8.32-.06.27-.11.55-.18.82-.52,2.17-1.42,4.31-1.61,6.53a.59.59,0,0,0,.57.59.6.6,0,0,0,.5-.27c1.9-3.07,2.66-7.31,3.17-11.19a17.79,17.79,0,0,0,2.73-1.61A18.92,18.92,0,0,0,62.29,209a.41.41,0,0,0,0-.59.4.4,0,0,0-.45-.11,17.41,17.41,0,0,0-3.31,2.12c-.72.5-1.49,1-2.18,1.53l.28-2.2c.1-.8.19-1.61.26-2.41a.27.27,0,0,0,.07-.23.56.56,0,0,0,0-.12c.16-1.71.26-3.44.29-5.17a10.28,10.28,0,0,0,2.24-1.63,4.08,4.08,0,0,0,1.45-2.08C60.92,197.9,60.72,197.72,60.55,197.82Z"/><path id="Trazado_360" data-name="Trazado 360" class="cls-27" d="M392,258.79a8.38,8.38,0,0,0-.67-1.34l-.06-.1a.88.88,0,0,0,0-.15c0-.07-.12-.71-.08-.33a1.75,1.75,0,1,0-3.49,0h0c0,1.35.55,3.17,1.9,3.8a1.7,1.7,0,0,0,1.86-.13A1.64,1.64,0,0,0,392,258.79Z"/><path id="Trazado_361" data-name="Trazado 361" class="cls-2" d="M229.22,139.14a1.57,1.57,0,1,0,1.5,1.51A1.57,1.57,0,0,0,229.22,139.14Z"/><path id="Trazado_362" data-name="Trazado 362" class="cls-2" d="M121,125.69a2.81,2.81,0,0,0-3.85-1,2.69,2.69,0,0,0-.5.39l-.43.56c-.36.84-.37.89-.06.14a2.71,2.71,0,0,0,0,2.51c-.31-.74-.3-.68.06.15a2.76,2.76,0,0,0,1,1,2.93,2.93,0,0,0,2.13.28,2.8,2.8,0,0,0,1.91-3.46,2.63,2.63,0,0,0-.25-.6Z"/></g><circle id="Elipse_6" data-name="Elipse 6" class="cls-48" cx="287.89" cy="82.91" r="6.62"/><path id="Trazado_103" data-name="Trazado 103" class="cls-49" d="M25.21,200.16a5.74,5.74,0,1,1-5.74-5.74,5.74,5.74,0,0,1,5.74,5.74Z"/><path id="Trazado_106" data-name="Trazado 106" class="cls-49" d="M389.18,67.18a4.39,4.39,0,1,1-4.38-4.38,4.39,4.39,0,0,1,4.38,4.38Z"/></g></svg>