<?xml version="1.0" encoding="utf-8"?>
<!-- Generator: Adobe Illustrator 23.1.1, SVG Export Plug-In . SVG Version: 6.00 Build 0)  -->
<svg version="1.1" xmlns="http://www.w3.org/2000/svg" xmlns:xlink="http://www.w3.org/1999/xlink" x="0px" y="0px"
	 viewBox="0 0 2891.18 3089.36" style="enable-background:new 0 0 2891.18 3089.36;" xml:space="preserve">
<style type="text/css">
	.st0{fill:#EAF1EE;}
	.st1{fill:#59A491;}
	.st2{fill:#FFFFFF;}
	.st3{opacity:0.65;fill:#EAF1EE;}
	.st4{opacity:0.75;fill:#565656;}
	.st5{opacity:0.75;}
	.st6{fill:#565656;}
	.st7{fill:#2C3A64;}
	.st8{fill:#913C39;}
	.st9{fill:#903C38;}
	.st10{fill:#007CFF;}
	.st11{fill:#2C3B64;}
	.st12{fill:#5AA190;}
	.st13{fill:#1A2E35;}
	.st14{fill:#FDC560;}
	.st15{opacity:0.5;fill:#2C3B64;}
</style>
<g id="Background">
</g>
<g id="Illustration">
	<g>
		<path class="st0" d="M360.25,2464.94c58.78,61.14,114.41,100.56,158.35,131.71c516.57,366.16,1127.81,259.42,1257.71,233.36
			c191.83-38.49,562.63-112.89,830.71-424.33c405.59-471.19,342.43-1213.53,27.83-1703.56c-57.55-89.63-361.52-587.13-979.34-666.91
			c-373.9-48.28-809.75,49.1-1125.37,310.33C-132.38,893.89-85.22,2001.65,360.25,2464.94z"/>
		<g>
			<path class="st1" d="M626.29,170.41c-9.28,438.04-39.39,1949.02-25.02,2484.46c1.52,56.72,40.39,102.25,88.88,104.11
				c239.82,9.18,1118.98,32.45,1511.24,13.2c81.7-4.01,146.67-81.43,148.37-177.07c8.15-459.78,26.14-1752.97-16.61-2345.39
				c-5.12-70.98-52.74-127.5-113.33-134.59c-261.17-30.57-1144.11-105.28-1483-79.55C675.7,40.21,627.81,98.78,626.29,170.41z"/>
			<path class="st2" d="M733.3,304.8c-12.91,353.57-53.63,1529.8-40.7,1964.74c1.89,63.57,44.72,114.98,99,118.69
				c223.5,15.3,986.02,49.04,1313.84,18.33c59.03-5.53,105.35-61.38,108.54-130.55c16.61-360.71,64.31-1455.95,51.92-1886.02
				c-1.98-68.61-47.41-124.64-105.85-130.78c-241.79-25.4-1052.06-85.83-1330.63-68.05C777.12,194.51,735.53,243.59,733.3,304.8z"/>
			<path class="st2" d="M1332.81,122.46L1332.81,122.46c0,13.44,8.95,24.53,20.43,25.23c56.64,3.47,216.21,13.29,287.52,18.13
				c14.06,0.96,25.1-13.83,22.43-30.01l-0.45-2.76c-1.82-11.04-9.65-19.35-19.22-20.37c-48.2-5.17-193.66-19.5-290.03-15.47
				C1341.92,97.69,1332.81,108.91,1332.81,122.46z"/>
			<g>
				<g>
					<circle class="st1" cx="1444.27" cy="711.86" r="334.5"/>
					<path class="st2" d="M1546.68,585.46c0,56.64-45.92,117.79-102.56,117.79c-56.64,0-102.56-61.15-102.56-117.79
						c0-56.64,45.92-96.82,102.56-96.82C1500.77,488.64,1546.68,528.82,1546.68,585.46z"/>
					<path class="st2" d="M1316.85,921.32h250.36c26.35,0,49.69-17.03,57.72-42.13l13.47-42.11c9.86-30.83-6.17-64.21-36.57-75.32
						c-101.89-37.25-207.24-32.47-315.16,3.44c-30.23,10.06-47.01,42.4-38.67,73.15l10.37,38.24
						C1265.53,902.99,1289.5,921.32,1316.85,921.32z"/>
				</g>
				<g>
					<path class="st3" d="M2085.85,1580.57H865.02c-3.73,0-6.75-3.02-6.75-6.75v-176.4c0-3.73,3.02-6.75,6.75-6.75h1220.82
						c3.73,0,6.75,3.02,6.75,6.75v176.4C2092.6,1577.55,2089.57,1580.57,2085.85,1580.57z"/>
					<path class="st3" d="M2079.19,1890.4H858.36c-3.73,0-6.75-3.02-6.75-6.75v-176.4c0-3.73,3.02-6.75,6.75-6.75h1220.82
						c3.73,0,6.75,3.02,6.75,6.75v176.4C2085.93,1887.38,2082.91,1890.4,2079.19,1890.4z"/>
					<path class="st3" d="M1840.83,2259.94h-780.72c-4.6,0-8.33-3.73-8.33-8.33v-225.44c0-4.6,3.73-8.33,8.33-8.33h780.72
						c4.6,0,8.33,3.73,8.33,8.33v225.44C1849.16,2256.21,1845.43,2259.94,1840.83,2259.94z"/>
				</g>
				<path class="st4" d="M1636.14,1539.19H924.95c-6.63,0-12-5.37-12-12v-81.5c0-6.63,5.37-12,12-12h711.19c6.63,0,12,5.37,12,12
					v81.5C1648.14,1533.82,1642.77,1539.19,1636.14,1539.19z"/>
				<g class="st5">
					
						<ellipse transform="matrix(0.9239 -0.3827 0.3827 0.9239 -613.6304 495.4117)" class="st6" cx="938.49" cy="1790.17" rx="43.31" ry="43.31"/>
					<circle class="st6" cx="1057.32" cy="1792.39" r="43.31"/>
					
						<ellipse transform="matrix(0.2298 -0.9732 0.9732 0.2298 -847.3494 2525.2144)" class="st6" cx="1171.7" cy="1797.94" rx="43.31" ry="43.31"/>
					<circle class="st6" cx="1290.54" cy="1800.17" r="43.31"/>
					<circle class="st6" cx="1409.36" cy="1799.05" r="43.31"/>
					<circle class="st6" cx="1528.2" cy="1801.27" r="43.31"/>
				</g>
			</g>
		</g>
		<g>
			<g>
				<path class="st7" d="M516.4,257.65C516.4,115.33,395.85-0.02,251.19,0C110.8,0.02,0,109.3,0,244.08
					c0,134.78,110.8,249.88,251.19,257.28C395.85,508.98,516.4,399.96,516.4,257.65z"/>
			</g>
			<g>
				<path class="st2" d="M337.11,241.51h23.77v-94.72c0-37.2-27.85-68.64-64.78-73.13l-48.6-5.91
					c-20.92-2.54-41.96,4.01-57.73,17.99c-15.77,13.97-24.82,34.07-24.82,55.14v82.69h23.77v-82.69c0-14.27,6.13-27.89,16.81-37.35
					c10.68-9.46,24.94-13.91,39.11-12.18l48.6,5.91c25.02,3.04,43.88,24.34,43.88,49.53V241.51z"/>
				<path class="st2" d="M367.9,220.24L159.55,208.7c-8.46-0.47-15.58,6.27-15.58,14.74V388.5c0,8.15,6.61,14.76,14.76,14.76h203.34
					c7.97,0,14.5-6.32,14.76-14.28l5.01-153.51C382.11,227.45,375.92,220.69,367.9,220.24z"/>
				<path class="st7" d="M228.95,355.98l12.61-36.26c1.52-4.36,0.48-9.23-2.76-12.52c-6.46-6.55-10.31-15.68-9.86-25.71
					c0.8-17.69,15.25-32.02,32.94-32.7c19.58-0.75,35.69,14.9,35.69,34.31c0,10.77-4.96,20.37-12.72,26.67
					c-4.02,3.26-5.68,8.63-3.98,13.52l11.37,32.69c2.77,7.95-3.14,16.25-11.55,16.25H240.5
					C232.08,372.23,226.18,363.93,228.95,355.98z"/>
			</g>
		</g>
		<g>
			<g>
				<g>
					<path class="st7" d="M1894.77,2360.37c0.92,2.13,3.02,3.41,5.24,3.19l63.26-6.32c18.06,24.68,40.01,46.49,65.36,64.3
						l-1.83,66.66c-0.06,2.34,1.29,4.46,3.38,5.28l71.3,28.08c2.08,0.82,4.44,0.16,5.86-1.64l40.56-51.41
						c30.27,4.11,60.51,2.84,89.62-3.25l43.61,48.41c1.53,1.7,3.92,2.19,5.95,1.22l69.44-33.14c2.03-0.97,3.25-3.18,3.05-5.51
						l-5.87-66.43c23.54-19.03,44.36-42.13,61.38-68.81l63.46,1.76c2.23,0.06,4.25-1.37,5.03-3.56l26.91-74.95
						c0.79-2.19,0.16-4.66-1.55-6.15l-48.85-42.48c3.98-31.8,2.85-63.56-2.88-94.12l46.2-45.92c1.62-1.61,2.09-4.12,1.17-6.25
						l-31.39-72.86c-0.92-2.13-3.02-3.41-5.24-3.19l-63.26,6.32c-18.06-24.68-40.01-46.49-65.36-64.3l1.83-66.66
						c0.07-2.34-1.29-4.46-3.37-5.28l-71.3-28.08c-2.08-0.82-4.44-0.16-5.86,1.64l-40.56,51.41c-30.27-4.11-60.51-2.84-89.62,3.25
						l-43.61-48.41c-1.53-1.7-3.92-2.19-5.95-1.22l-69.44,33.14c-2.03,0.97-3.25,3.18-3.05,5.51l5.87,66.43
						c-23.54,19.03-44.36,42.13-61.38,68.81l-63.46-1.76c-2.22-0.06-4.25,1.37-5.03,3.56l-26.91,74.95
						c-0.79,2.19-0.16,4.66,1.55,6.15l48.85,42.47c-3.98,31.8-2.85,63.56,2.88,94.12l-46.2,45.92c-1.62,1.61-2.09,4.12-1.17,6.25
						L1894.77,2360.37z"/>
					<path class="st2" d="M2121.11,2132.62c24.13-36.47,71.97-45.59,106.63-20.33c16.79,12.23,28.03,30.62,31.63,51.76
						c3.61,21.14-0.84,42.52-12.54,60.18c-24.13,36.47-71.97,45.59-106.63,20.33c-31.54-22.98-41.47-66.62-24.84-101.77
						C2117.02,2139.31,2118.93,2135.91,2121.11,2132.62z"/>
				</g>
			</g>
			<g>
				<g>
					<path class="st7" d="M1516.31,2680.54c0.61,1.42,2.02,2.28,3.51,2.13l42.33-4.23c12.09,16.51,26.77,31.11,43.74,43.02
						l-1.22,44.61c-0.04,1.56,0.86,2.98,2.26,3.53l47.71,18.79c1.39,0.55,2.97,0.11,3.92-1.1l27.14-34.4
						c20.26,2.75,40.49,1.9,59.97-2.18l29.18,32.4c1.02,1.14,2.62,1.46,3.98,0.81l46.47-22.18c1.36-0.65,2.18-2.13,2.04-3.69
						l-3.93-44.45c15.75-12.73,29.69-28.19,41.07-46.04l42.47,1.18c1.49,0.04,2.84-0.91,3.37-2.38l18.01-50.15
						c0.53-1.47,0.11-3.12-1.04-4.11l-32.69-28.42c2.66-21.28,1.91-42.53-1.93-62.98l30.92-30.73c1.08-1.08,1.4-2.76,0.78-4.18
						l-21-48.75c-0.61-1.42-2.02-2.28-3.5-2.13l-42.33,4.23c-12.09-16.51-26.77-31.11-43.74-43.02l1.22-44.61
						c0.04-1.56-0.86-2.98-2.26-3.53l-47.71-18.79c-1.39-0.55-2.97-0.11-3.92,1.1l-27.14,34.4c-20.26-2.75-40.49-1.9-59.97,2.18
						l-29.18-32.4c-1.02-1.14-2.62-1.46-3.98-0.81l-46.47,22.18c-1.36,0.65-2.18,2.13-2.04,3.69l3.93,44.45
						c-15.75,12.73-29.68,28.19-41.07,46.04l-42.47-1.18c-1.49-0.04-2.84,0.91-3.37,2.38l-18.01,50.15
						c-0.53,1.47-0.11,3.12,1.04,4.11l32.69,28.42c-2.66,21.28-1.91,42.53,1.93,62.98l-30.91,30.73c-1.08,1.08-1.4,2.76-0.78,4.18
						L1516.31,2680.54z"/>
					<path class="st2" d="M1667,2527.59c7.96-12.04,19.9-20.11,33.63-22.72c13.72-2.62,27.57,0.53,39.01,8.87
						c23.61,17.2,29.43,51.35,13.01,76.26c-16.45,24.84-49.03,31.05-72.63,13.84c-11.44-8.33-19.09-20.86-21.55-35.26
						c-2-11.71-0.37-23.52,4.59-34C1664.2,2532.18,1665.52,2529.84,1667,2527.59z"/>
				</g>
			</g>
		</g>
		<g>
			<g>
				<path class="st8" d="M432.58,1245.25c-1.93,2.85-2.91,4.42-4.18,6.48l-3.44,5.75c-2.23,3.81-4.19,7.61-6.15,11.41
					c-3.85,7.61-7.48,15.22-10.74,22.92c-6.59,15.38-12,31.1-16.67,46.91c-9.48,31.62-15.27,64.02-18.25,96.44l-0.6,6.07
					c-0.11,0.87-0.19,2.24-0.25,3.67l-0.17,4.14c-0.1,5.47,0.17,10.88,0.93,15.99c1.45,10.32,4.22,19.84,7.63,28.65
					c6.92,17.54,16.42,32.45,26.61,46.01c20.86,27.01,44.56,48.63,71.62,67.8l21.19-24.82c-19.01-21.99-37.44-46.36-51.09-70.7
					c-6.96-12.13-12.29-24.65-15.6-36.31c-1.55-5.83-2.39-11.44-2.52-16.5c-0.18-2.56,0.01-4.91,0.26-7.15l0.23-1.65
					c0.06-0.5,0.11-1.06,0.32-2.1l0.97-5.42c5.03-28.88,11.9-57.25,20.91-84.66c4.42-13.74,9.89-27.02,15.44-40.06
					c2.74-6.55,5.78-12.9,8.89-19.09l4.78-9.04l2.37-4.28l1.96-3.36L432.58,1245.25z"/>
				<path class="st9" d="M504.4,1608l-27.86,58.82l-22.09-49.74c0,0,19.58-43.09,46.08-39.14L504.4,1608z"/>
				<polygon class="st9" points="456.58,1669.73 434.46,1633.46 454.45,1617.08 476.54,1666.82 				"/>
				<path class="st10" d="M594.09,3023.67c2.16-1.97,3.01-4.7,2.53-8.11c-0.36-2.57-1.85-3.75-3.04-4.29
					c-7.5-3.4-27.07,9.24-29.27,10.69c-0.51,0.33-0.77,0.94-0.67,1.54c0.11,0.6,0.56,1.08,1.15,1.22
					c4.55,1.08,11.06,2.31,17.02,2.31C586.77,3027.03,591.35,3026.17,594.09,3023.67z M592.33,3014.05c0.5,0.22,1.09,0.65,1.27,1.93
					c0.34,2.39-0.17,4.16-1.56,5.43c-3.26,2.98-11.7,3.37-22.92,1.12C577.09,3017.71,588.37,3012.23,592.33,3014.05z"/>
				<path class="st10" d="M565.9,3024.56c6.15-3.48,17.86-17.39,16.41-24.65c-0.28-1.39-1.31-3.79-5.14-4.26
					c-2.42-0.3-4.6,0.39-6.46,2.04c-7.01,6.2-7.09,24.75-7.09,25.54c0,0.54,0.29,1.04,0.76,1.32c0.24,0.14,0.5,0.21,0.77,0.21
					C565.41,3024.76,565.67,3024.69,565.9,3024.56z M576.81,2998.68c1.95,0.24,2.37,1.1,2.51,1.83c0.88,4.43-6.42,14.87-12.55,19.76
					c0.35-6.18,1.79-16.59,5.97-20.29c1.01-0.9,2.12-1.34,3.38-1.34C576.34,2998.64,576.57,2998.65,576.81,2998.68z"/>
				<path class="st9" d="M569.77,1019.87c7.5,38.24,24.34,121.66-2.42,147.18c0,0,10.45,38.79,81.51,38.79
					c78.13,0,37.34-38.79,37.34-38.79c-42.64-10.18-41.54-41.82-34.11-71.53L569.77,1019.87z"/>
				<polygon class="st9" points="586.57,2981.02 649.33,2995.67 687.46,2851.33 624.71,2836.67 				"/>
				<polygon class="st9" points="490.21,3023.24 554.65,3023.24 549.6,2874 485.16,2874 				"/>
				<path class="st11" d="M559.76,3015.77h-72.4c-2.64,0-4.77,1.83-5.14,4.4l-8.25,57.28c-0.86,5.94,4.25,11.56,10.33,11.46
					c25.24-0.43,37.41-1.92,69.24-1.92c19.59,0,48.2,2.03,75.25,2.03c26.46,0,28.49-26.75,17.23-29.17
					c-50.5-10.86-58.48-25.84-75.49-40.13C567.46,3017.16,563.61,3015.77,559.76,3015.77z"/>
				<path class="st11" d="M654.89,2986.06l-65.77-30.26c-2.39-1.1-5.1-0.33-6.51,1.85l-31.43,48.59c-3.26,5.04-0.97,12.28,4.6,14.73
					c23.11,10.15,34.78,13.89,63.71,27.2c17.79,8.19,53.75,26.97,78.33,38.27c24.03,11.06,37.06-12.39,27.84-19.3
					c-41.34-30.97-53.14-52.89-62.62-72.98C661.31,2990.54,658.39,2987.67,654.89,2986.06z"/>
				<path class="st12" d="M456.21,1181.69c-26.77,5.87-55.37,102.18-55.37,102.18l75.69,80.48c0,0,62.8-90.45,50.01-123.71
					C513.23,1206,487.85,1174.76,456.21,1181.69z"/>
				<path class="st12" d="M498.65,1242.99c13.54-12.39,22.7-8.69,28.93,1.15c6.16,28.62-30.31,88.55-45.01,111.25
					C475.8,1328.31,468.03,1271.15,498.65,1242.99z"/>
				<path class="st12" d="M795.14,1183.56c0,0,30.7,10.81-30.8,388.95c-103.86,0-211.19,0-261.73,0
					c4.39-106.52,4.52-172.21-46.4-390.82c0,0,54.84-11.93,111.14-14.64c44.04-2.12,80.13-3.53,118.85,0
					C737.25,1171.71,795.14,1183.56,795.14,1183.56z"/>
				<path class="st12" d="M797.46,1328.69c-1.69,18.39-3.92,39.08-6.85,62.47c-21.43-19.31-38.95-74.21-32.54-106.24
					C773.08,1296.07,786.92,1313.3,797.46,1328.69z"/>
				<path class="st8" d="M769.53,1271.36c14.24,35.97,29.93,70.15,47.57,104.29c17.62,34.09,36.43,67.59,61.44,99.98l4.92,6.06
					l2.46,3.02c0.84,1.02,1.5,1.91,2.87,3.31c4.76,5.25,9.91,9.75,15.2,13.52c10.6,7.56,21.55,12.37,32.16,16.07
					c21.27,7.16,41.82,9.69,61.86,10.9c40.21,1.63,78.26-2.1,116.63-10.35l-4.27-32.36c-17.68,0.09-36.23-0.3-54.11-1.43
					c-17.97-0.94-35.76-2.86-52.83-5.9c-17.03-2.86-33.49-7.19-47.23-13.17c-6.78-3.04-12.67-6.68-17-10.36
					c-2.18-1.83-3.89-3.71-5.26-5.51c-0.29-0.26-0.98-1.27-1.56-2.1l-1.8-2.54l-3.6-5.06c-18.95-28.04-35.6-60.63-51.49-93.19
					c-15.61-32.72-30.68-66.64-44.81-99.75L769.53,1271.36z"/>
				<path class="st12" d="M795.14,1183.56c32.03,7.81,71.45,95.75,71.45,95.75l-66.48,97.67c0,0-88.51-111.43-77.99-145.48
					C733.07,1196.04,756.28,1174.08,795.14,1183.56z"/>
				<path class="st9" d="M1091.92,1490.58l55.45-25.6l5.58,55.13c0,0-46.35,13.64-69.2-0.34L1091.92,1490.58z"/>
				<polygon class="st9" points="1180.59,1459.41 1185.88,1501.39 1152.95,1520.11 1147.38,1464.98 				"/>
				<path class="st9" d="M541.93,958.56c11.73,62.87,15.35,89.74,51.37,118.3c54.18,42.96,128.84,14.8,136.14-50.31
					c6.56-58.61-13.72-151.58-78.85-169.12C586.41,840.15,530.2,895.69,541.93,958.56z"/>
				<path class="st13" d="M680.03,971.81c3.6,32.06,4.98,115.35-65.45,117.97c-86.31,3.21-112.15-70.52-104.45-100.02
					c-44.88-36.54-51.37-99.37-0.91-147.46c50.46-48.09,161.57-21.21,192.61,25.64C740.3,926.01,680.03,971.81,680.03,971.81z"/>
				<path class="st14" d="M593.61,860.98c4.17-33.81,0.93-57.15-30.7-57.15c-31.63,0-74.9,11.49-90.77,43.89
					c-15.87,32.4-17.15,83.05,27.09,77.92C543.47,920.52,588.62,901.46,593.61,860.98z"/>
				<path class="st13" d="M544.55,852.86c7.54-40.34-28.4-153.84-116.06-161.22c-40.61-3.42-59.41,40.28-38.15,47.48
					c-38.36-0.47-63.08,50.38-27.21,58.04c-28.37,18.12-21.3,55.4,19.09,73.67C412,884.3,534.13,908.68,544.55,852.86z"/>
				<path class="st9" d="M699.66,963.31c7.73,10.7,9.95,24.01,8.24,34.73c-2.56,16.14-18.29,17.21-29.68,6.86
					c-10.25-9.31-21.27-28.93-12.88-42.3C673.62,949.43,690.83,951.08,699.66,963.31z"/>
				<path class="st14" d="M695.22,1572.51c0,0-37.4,442.31-76.2,691.59c-31.34,201.34-56.06,671.97-56.06,671.97h-87.88
					c0,0-31.26-456.57-15.35-655.7c40.26-503.91-49.52-544.96,42.88-707.85H695.22z"/>
				<path class="st14" d="M584.59,1739.68c35.47,36.24,62.47,79.55,83.01,125.25c-10.23,99.4-22.39,209.73-35.31,306.36
					C592.29,2070.27,558.05,1914.86,584.59,1739.68z"/>
				<path class="st14" d="M756.73,1569.71c0,0,81.13,483.07,93.95,700.82c-31.87,201.35-162.21,626.92-162.21,626.92l-79.94-28.96
					c0,0,44.22-464.07,92.58-591.12c-108.25-364.46-187.8-456.57-164.65-704.86C591.67,1572.51,756.73,1569.71,756.73,1569.71z"/>
				<polygon class="st11" points="699.2,2918.71 591.19,2889.39 597.31,2846.33 712.96,2877.6 				"/>
				<polygon class="st11" points="574.98,2937.81 463.05,2937.81 457.18,2898.54 575.63,2894.53 				"/>
				<g>
					<path class="st11" d="M498.69,1557.15l-11.8,23.43c-0.92,1.82,1.24,3.67,4.26,3.67h274.48c2.36,0,4.31-1.16,4.46-2.64
						l2.36-23.43c0.16-1.62-1.88-3-4.46-3H502.95C501.01,1555.18,499.28,1555.98,498.69,1557.15z"/>
					<path class="st15" d="M498.69,1557.15l-11.8,23.43c-0.92,1.82,1.24,3.67,4.26,3.67h274.48c2.36,0,4.31-1.16,4.46-2.64
						l2.36-23.43c0.16-1.62-1.88-3-4.46-3H502.95C501.01,1555.18,499.28,1555.98,498.69,1557.15z"/>
				</g>
			</g>
		</g>
	</g>
</g>
</svg>
