<svg id="Capa_1" data-name="Capa 1" xmlns="http://www.w3.org/2000/svg" viewBox="0 0 414 578.1"><defs><style>.cls-1,.cls-11,.cls-14,.cls-15,.cls-16,.cls-18,.cls-21,.cls-22,.cls-3,.cls-5,.cls-8{fill:none;}.cls-2{fill:#fff;}.cls-3{stroke:#eaf1ee;stroke-width:300.16px;}.cls-11,.cls-21,.cls-3,.cls-5{stroke-linecap:round;stroke-linejoin:round;}.cls-4{fill:#74a190;}.cls-5,.cls-8{stroke:#fdfcff;}.cls-5{stroke-width:1.94px;}.cls-6{fill:#acd1c2;}.cls-7{fill:#fafafa;}.cls-14,.cls-15,.cls-16,.cls-18,.cls-22,.cls-8{stroke-miterlimit:10;}.cls-8{stroke-width:1.78px;}.cls-9{fill:#3a1616;}.cls-10{fill:#d6906e;}.cls-11,.cls-21{stroke:#161311;}.cls-11{stroke-width:1.02px;}.cls-12{fill:#1a1a1a;}.cls-13{fill:#efc571;}.cls-14{stroke:#dea65f;}.cls-14,.cls-16,.cls-22{stroke-width:1.99px;}.cls-15{stroke:#bf704f;}.cls-16{stroke:#547466;}.cls-17{fill:#e8aba2;}.cls-18{stroke:#d8857d;}.cls-19{fill:#dea65f;}.cls-20{fill:#2f1118;}.cls-21{stroke-width:1.1px;}.cls-22{stroke:#74a190;}</style></defs><title>onboarding_illustration_1</title><rect class="cls-1" width="414" height="896"/><rect class="cls-2" width="414" height="896"/><g id="Grupo_1" data-name="Grupo 1"><g id="Componente_1_1" data-name="Componente 1 1"><path id="Trazado_95" data-name="Trazado 95" class="cls-3" d="M203.82,424s183.73-267.8,509-197.88,424.54,331.19,954.24,85.9"/></g></g><g id="onboarding_1-01" data-name="onboarding 1-01"><rect id="Rectángulo_1" data-name="Rectángulo 1" class="cls-4" x="42.13" y="129.55" width="77.56" height="25.2" rx="2.55"/><line id="Línea_1" data-name="Línea 1" class="cls-5" x1="53.65" y1="138.2" x2="103.39" y2="138.2"/><line id="Línea_2" data-name="Línea 2" class="cls-5" x1="53.65" y1="144.95" x2="72.04" y2="144.95"/><path id="Trazado_96" data-name="Trazado 96" class="cls-4" d="M107.38,152v8.8a.32.32,0,0,1-.5.25l-11.43-9Z"/><path id="Trazado_97" data-name="Trazado 97" class="cls-4" d="M273.29,56.31h51.8a6.62,6.62,0,0,1,6.62,6.62v48.3a6.62,6.62,0,0,1-6.62,6.62H275.4a8.74,8.74,0,0,1-8.77-8.71h0V62.94a6.62,6.62,0,0,1,6.61-6.63Z"/><path id="Trazado_98" data-name="Trazado 98" class="cls-2" d="M309.17,79.91a6.21,6.21,0,0,0-8.78.09h0l-1.58,1.62L297.18,80a6.22,6.22,0,0,0-8.72,8.85l6.05,6h0a6.23,6.23,0,0,0,8.78-.09l5.95-6.07A6.2,6.2,0,0,0,309.17,79.91Z"/><path id="Trazado_99" data-name="Trazado 99" class="cls-6" d="M337.15,338.76h44.74a5.72,5.72,0,0,1,5.72,5.72v41.73a5.72,5.72,0,0,1-5.72,5.72H339a7.55,7.55,0,0,1-7.55-7.55V344.51a5.72,5.72,0,0,1,5.69-5.75Z"/><path id="Trazado_100" data-name="Trazado 100" class="cls-7" d="M356.39,373.43c4,.06,8,.12,11.6-.13,1.15-.08,2.17-1.91.72-2.49a2.56,2.56,0,0,0,1.45-1.27,1.23,1.23,0,0,0-.67-1.61l-.05,0c1.38.34,1.92-1.84.85-2.55a3.23,3.23,0,0,0,1.16-1.85,1.87,1.87,0,0,0-.84-1.93,3.16,3.16,0,0,0-1.45-.25l-5,0c.45-2.59.59-5.4-.72-7.67-.4-.68-1.45-1.5-2.3-1s-.57,1.72-.54,2.49a8.68,8.68,0,0,1-4.49,8S356.43,369.91,356.39,373.43Z"/><rect id="Rectángulo_2" data-name="Rectángulo 2" class="cls-7" x="348.96" y="363.08" width="5.99" height="10.32"/><circle id="Elipse_6" data-name="Elipse 6" class="cls-8" cx="381.89" cy="145.91" r="6.62"/><circle id="Elipse_7" data-name="Elipse 7" class="cls-8" cx="10.04" cy="483.94" r="6.62"/><path id="Trazado_103" data-name="Trazado 103" class="cls-6" d="M39.21,352.16a5.74,5.74,0,1,1-5.74-5.74,5.74,5.74,0,0,1,5.74,5.74Z"/><path id="Trazado_104" data-name="Trazado 104" class="cls-4" d="M418.79,207.47a5.74,5.74,0,1,1-5.75-5.73h0A5.74,5.74,0,0,1,418.79,207.47Z"/><path id="Trazado_105" data-name="Trazado 105" class="cls-2" d="M374.51,432.52a4.39,4.39,0,1,1-4.4-4.38h0A4.39,4.39,0,0,1,374.51,432.52Z"/><path id="Trazado_106" data-name="Trazado 106" class="cls-6" d="M169.18,129.18a4.39,4.39,0,1,1-4.38-4.38,4.39,4.39,0,0,1,4.38,4.38Z"/><line id="Línea_3" data-name="Línea 3" class="cls-5" x1="395.42" y1="298.86" x2="433.45" y2="298.86"/><line id="Línea_5" data-name="Línea 5" class="cls-5" x1="202.38" y1="129.18" x2="242.75" y2="129.18"/><path id="Trazado_107" data-name="Trazado 107" class="cls-9" d="M122.61,201.28S120,220.51,97.25,232.51c-24.21,12.8-7,51.3,35.13,52.59,45.77,1.41,70.75-39.81,36.51-91.46Z"/><path id="Trazado_108" data-name="Trazado 108" class="cls-10" d="M136.78,261.17,137,228h20.27l.43,33.56Z"/><path id="Trazado_109" data-name="Trazado 109" class="cls-9" d="M134.45,237.71c-1.07-2.94,7,13.61,15.43,12.53,7.21-.94,8.45-13.9,8.45-13.9s-3.34,4.94-10.94,4.95C138.87,241.3,134.45,237.71,134.45,237.71Z"/><path id="Trazado_110" data-name="Trazado 110" class="cls-9" d="M122.37,209.69c2.58,14.79,11.18,27.23,25,27.23s23.26-12.3,25-27.23c1.93-16.95-11.17-26.95-25-26.95S119.72,194.49,122.37,209.69Z"/><path id="Trazado_111" data-name="Trazado 111" class="cls-10" d="M125.76,217.4a4.45,4.45,0,0,0-5.51-1.45c-3.76,1.4-2,10.4,3.53,11.55a4.33,4.33,0,0,0,3.56-.94S126,219.92,125.76,217.4Z"/><path id="Trazado_112" data-name="Trazado 112" class="cls-11" d="M121,219.13s3.1-1,5.31,3.54"/><path id="Trazado_113" data-name="Trazado 113" class="cls-10" d="M168.34,217.4a4.44,4.44,0,0,1,5.5-1.45c3.71,1.4,2,10.4-3.53,11.55a4.33,4.33,0,0,1-3.56-.94S168.12,219.92,168.34,217.4Z"/><path id="Trazado_114" data-name="Trazado 114" class="cls-11" d="M173.11,219.13s-3.1-1-5.31,3.54"/><path id="Trazado_115" data-name="Trazado 115" class="cls-10" d="M125.4,209.64c0,5.77.6,16.62,4.34,23.79,3.51,6.73,9.77,10.15,17.38,10.15s14.39-5.11,17.4-10.88c4.54-8.74,4.33-23,4.33-23s0-20.61-21.49-20.61C124.74,189.13,125.4,209.64,125.4,209.64Z"/><path id="Trazado_116" data-name="Trazado 116" class="cls-12" d="M142.29,208.65l-11.78,3s.54-3.31,5.36-4.51S142.29,208.65,142.29,208.65Z"/><path id="Trazado_117" data-name="Trazado 117" class="cls-12" d="M149.78,208.65l11.78,3s-.54-3.31-5.35-4.51S149.78,208.65,149.78,208.65Z"/><path id="Trazado_118" data-name="Trazado 118" class="cls-11" d="M145.36,218.4l-.54,4.21h3.06"/><path id="Trazado_119" data-name="Trazado 119" class="cls-2" d="M155.41,226.22H138.24s.49,6.31,8.54,6.32C154.2,232.53,155.41,226.22,155.41,226.22Z"/><path id="Trazado_120" data-name="Trazado 120" class="cls-11" d="M139.85,215.41s-3.25-1.66-6,0"/><path id="Trazado_121" data-name="Trazado 121" class="cls-11" d="M158.59,215.41s-3.25-1.66-6,0"/><path id="Trazado_122" data-name="Trazado 122" class="cls-9" d="M168.34,217.4s-5.73-11.34-1.75-21.42c0,0,4,.06,3.84,15.8Z"/><path id="Trazado_123" data-name="Trazado 123" class="cls-9" d="M125.76,217.4s5.7-12.05,1.73-21.42c0,0-4,.06-3.84,15.8Z"/><path id="Trazado_124" data-name="Trazado 124" class="cls-9" d="M172.49,204.74s-31-1.88-40-14.4c0,0,2.93-7.81,16.74-5.63S172.49,204.74,172.49,204.74Z"/><path id="Trazado_125" data-name="Trazado 125" class="cls-9" d="M145.23,187.12s-8.77,18.21-21.31,17.6C123.92,204.72,130.8,187.3,145.23,187.12Z"/><path id="Trazado_126" data-name="Trazado 126" class="cls-13" d="M127.29,469.06s9.19-45.61,14.6-58.05a1.3,1.3,0,0,1,2.45.21c1.3,4.74,3,18.71,2.26,59.81v16.8h36.09l5.63-40.44c.28-3.1,11.87-53.77-17.24-92.85H114.61s-22.83,39.29-26,87.33c-.7,10.7-.94,27-2.41,45.95h37.07Z"/><line id="Línea_6" data-name="Línea 6" class="cls-14" x1="126.3" y1="403.64" x2="144.84" y2="411.22"/><path id="Trazado_127" data-name="Trazado 127" class="cls-4" d="M99.7,267s-11.83,1.68-20.49,31.32l23.31,13.34,13.77-18.92Z"/><path id="Trazado_128" data-name="Trazado 128" class="cls-10" d="M102.52,311.67S87,336,83.37,340.32s-9.56,6.75-14.56,3.63h0a10.43,10.43,0,0,1-3.88-13.36L81,299.21Z"/><path id="Trazado_129" data-name="Trazado 129" class="cls-10" d="M65.13,267.05l18.54,60.32L63.91,336,52,268Z"/><path id="Trazado_130" data-name="Trazado 130" class="cls-10" d="M63.86,270.05l2.89-2.82a12.27,12.27,0,0,0,3.71-7.71l.74-8.19s.47-4.3-8.09-3.22-9.08,1.13-9,3.68c0,0,1.57,3.52,7.09,4.24Z"/><path id="Trazado_131" data-name="Trazado 131" class="cls-10" d="M53,271.29s-8.45-4.7-8.85-19.51a5,5,0,0,1,2.22-4.27c2.2-1.44,8.53-5.08,11.92-2.75l5.94,7.67L63.86,270Z"/><path id="Trazado_132" data-name="Trazado 132" class="cls-10" d="M65.48,249.85,70.18,226a2.65,2.65,0,0,0-2-3.11h0a2.68,2.68,0,0,0-3.15,2l-4.17,18.06-2,.39L51.89,225a2.4,2.4,0,0,0-3.11-1.4l-.1,0h0a2.41,2.41,0,0,0-1.38,2.81l6.8,25.3Z"/><path id="Trazado_133" data-name="Trazado 133" class="cls-15" d="M65.86,248s-11.64-1.11-11.73,3.86c0,0-.26,3.75,7.09,4.24a6.89,6.89,0,0,0-4.77,6.4"/><line id="Línea_7" data-name="Línea 7" class="cls-15" x1="77.27" y1="306.52" x2="82.19" y2="322.54"/><path id="Trazado_134" data-name="Trazado 134" class="cls-10" d="M179.17,301.62s18.42,64.8,25.47,119.05l11.87-2.24s-1.82-79.54-13.78-128.74Z"/><path id="Trazado_135" data-name="Trazado 135" class="cls-10" d="M216.41,415.7s17.84,26.36-3.57,38.21a3.4,3.4,0,0,1-4.24-.76l-.13-.17a3.41,3.41,0,0,1,.22-4.61c3-3.08,7.14-9.48.61-17.84,0,0-3.43.87-2.82,7.67a2.82,2.82,0,0,1-2.55,3.06,2.09,2.09,0,0,1-.5,0h0a2.82,2.82,0,0,1-2.46-2.13c-1.13-4.48-3-15.6,4.18-21.6Z"/><path id="Trazado_136" data-name="Trazado 136" class="cls-4" d="M190.52,272.41s16.9,5.57,19.92,32.26L182.9,315.11l-6.2-16.9Z"/><path id="Trazado_137" data-name="Trazado 137" class="cls-4" d="M174.26,266.23l16.53,6.24-19.67,74.42h-56.5L99.7,267l19.59-4.55Z"/><rect id="Rectángulo_3" data-name="Rectángulo 3" class="cls-12" x="114.61" y="346.89" width="56.49" height="7.65"/><line id="Línea_8" data-name="Línea 8" class="cls-16" x1="106.91" y1="305.65" x2="102.52" y2="285.76"/><line id="Línea_9" data-name="Línea 9" class="cls-16" x1="180.94" y1="309.74" x2="186.88" y2="287.57"/><path id="Trazado_138" data-name="Trazado 138" class="cls-10" d="M152.5,257.56l21.74,8.67s-2.52,8.55-28.05,8.56c-22.22,0-26.91-12.33-26.91-12.33l21.12-4.9Z"/><path id="Trazado_139" data-name="Trazado 139" class="cls-4" d="M295,367.4l23.65,121H272.8l-17.58-79.93-4.05-.25,0,80.18H205.4l2.34-121Z"/><line id="Línea_10" data-name="Línea 10" class="cls-16" x1="243.44" y1="407.61" x2="269.53" y2="407.61"/><path id="Trazado_140" data-name="Trazado 140" class="cls-17" d="M316.05,282.5l43.14-11a16.38,16.38,0,0,0,11.43-19.9h0a16.38,16.38,0,0,0-20-11.74l-.36.09-43.2,12.27Z"/><path id="Trazado_141" data-name="Trazado 141" class="cls-13" d="M320.81,244.34l-42.13,5.54,12.05,43L331,284.5Z"/><path id="Trazado_142" data-name="Trazado 142" class="cls-17" d="M340.93,190.79c1.07-6.76-1.55-15.4-1.55-15.4l.94-15.17a2.82,2.82,0,0,0-2.14-3.13h0a2.81,2.81,0,0,0-3.43,2v0l-1.25,9.78h-1.33l-1.83-15.74a3.23,3.23,0,0,0-3.46-3l-.3,0h0a3.25,3.25,0,0,0-2.67,3.26l1.2,17.05-1.4.26-4.84-17a3.57,3.57,0,0,0-4.37-2.54l-.15,0h0a3.57,3.57,0,0,0-2.41,4.23l5,19.45-1.75.48-6.57-13.66a3,3,0,0,0-4-1.39l-.26.14h0a3,3,0,0,0-1.26,3.53l6.64,18.17-5.49-.13a4.36,4.36,0,0,0-4.34,4.37,3,3,0,0,0,0,.42h0a4.35,4.35,0,0,0,3.22,3.75l7.24,1.75a30.48,30.48,0,0,0,13,9.74S340.1,196,340.93,190.79Z"/><path id="Trazado_143" data-name="Trazado 143" class="cls-18" d="M309.78,182.28s10.49-.61,16.72,5.3"/><path id="Trazado_144" data-name="Trazado 144" class="cls-17" d="M370.05,249.79l-29.13-59-18.38,7.73,18.52,64.91Z"/><line id="Línea_11" data-name="Línea 11" class="cls-18" x1="335.55" y1="244.11" x2="338.4" y2="254.11"/><path id="Trazado_145" data-name="Trazado 145" class="cls-13" d="M241,247.54l-34.49,7.14,1.21,112.72H295l2.73-115.81-32.82-2.84Z"/><line id="Línea_12" data-name="Línea 12" class="cls-14" x1="296.76" y1="291.66" x2="296.76" y2="277.1"/><path id="Trazado_146" data-name="Trazado 146" class="cls-19" d="M219.18,281.19h21.36v10.69a10.68,10.68,0,0,1-10.68,10.68h0a10.68,10.68,0,0,1-10.68-10.68Z"/><path id="Trazado_147" data-name="Trazado 147" class="cls-17" d="M181.52,283.32,156.65,328.4a16.52,16.52,0,0,0,6.18,22.28h0a16.53,16.53,0,0,0,22.27-5.54l25.83-41.21Z"/><path id="Trazado_148" data-name="Trazado 148" class="cls-13" d="M173.81,289.59l35.69,22.9,5.73-27.35c6-9.76,13.71-21.52,4.05-27.71h0a21,21,0,0,0-29,6.35l0,0Z"/><line id="Línea_13" data-name="Línea 13" class="cls-14" x1="207.15" y1="310.99" x2="207.15" y2="280.34"/><path id="Trazado_149" data-name="Trazado 149" class="cls-17" d="M168.88,352.75l65.3-1.8,4.5-21.1-73.82-9.33Z"/><line id="Línea_14" data-name="Línea 14" class="cls-18" x1="197.95" y1="324.68" x2="180.94" y2="322.55"/><path id="Trazado_150" data-name="Trazado 150" class="cls-17" d="M234.34,330.72s8.36-11.27,18.19-.05l-3.91,7.77Z"/><path id="Trazado_151" data-name="Trazado 151" class="cls-12" d="M244.18,318.74l-2.59,15.8,19.93,2.22,3.17-15.19a2.82,2.82,0,0,0-2.13-3.36l-.32-.06-14.89-1.78a2.81,2.81,0,0,0-3.17,2.37Z"/><path id="Trazado_152" data-name="Trazado 152" class="cls-17" d="M238.55,329.36l23.58.59a5,5,0,0,1,4.91,5h0a5,5,0,0,1-2.81,4.53l-1.27.61s2.41,17.84-11.76,20-22.1-9.07-22.1-9.07Z"/><path id="Trazado_153" data-name="Trazado 153" class="cls-17" d="M266.21,248.8l-.33-35.6H240l-.59,34.67Z"/><path id="Trazado_154" data-name="Trazado 154" class="cls-9" d="M237.9,223.6c-1.34-3.08,9,17,19.52,15.9,9-.94,9.39-17.34,9.39-17.34s-3.21,5.17-12.74,5.18C243.44,227.35,237.9,223.6,237.9,223.6Z"/><path id="Trazado_155" data-name="Trazado 155" class="cls-20" d="M279.64,193.56c-2.76,15.87-12,29.24-26.79,29.24s-25-13.2-26.78-29.24c-2.06-18.18,12-30.26,26.78-30.26S282.48,177.27,279.64,193.56Z"/><path id="Trazado_156" data-name="Trazado 156" class="cls-17" d="M276,201.8a4.78,4.78,0,0,1,5.91-1.56c4,1.51,2.18,11.18-3.76,12.41a4.72,4.72,0,0,1-3.81-1S275.78,204.55,276,201.8Z"/><path id="Trazado_157" data-name="Trazado 157" class="cls-21" d="M281.16,203.68s-3.34-1.11-5.7,3.75"/><path id="Trazado_158" data-name="Trazado 158" class="cls-17" d="M230.33,201.8a4.78,4.78,0,0,0-5.91-1.56c-4,1.51-2.18,11.18,3.76,12.41a4.73,4.73,0,0,0,3.81-1S230.56,204.55,230.33,201.8Z"/><path id="Trazado_159" data-name="Trazado 159" class="cls-21" d="M225.21,203.68s3.33-1.11,5.7,3.75"/><path id="Trazado_160" data-name="Trazado 160" class="cls-17" d="M276.39,193.52c0,6.19-.64,19.14-4.7,26.83a20,20,0,0,1-18.16,11.33c-6.53.19-15.91-5.92-19.14-12.12-4.89-9.39-4.65-25.93-4.65-25.93s0-22.11,23-22.11C277.11,171.52,276.39,193.52,276.39,193.52Z"/><path id="Trazado_161" data-name="Trazado 161" class="cls-12" d="M245,201a1.78,1.78,0,1,1-1.79-1.77h0A1.78,1.78,0,0,1,245,201Z"/><path id="Trazado_162" data-name="Trazado 162" class="cls-12" d="M263.44,201a1.79,1.79,0,1,1-1.79-1.77h0A1.78,1.78,0,0,1,263.44,201Z"/><path id="Trazado_163" data-name="Trazado 163" class="cls-12" d="M248.08,193.76,235.43,197s.58-3.55,5.74-4.84S248.08,193.76,248.08,193.76Z"/><path id="Trazado_164" data-name="Trazado 164" class="cls-12" d="M256.1,193.76,268.74,197s-.57-3.55-5.74-4.84S256.1,193.76,256.1,193.76Z"/><path id="Trazado_165" data-name="Trazado 165" class="cls-21" d="M250.79,205.54v4.52h3.28"/><path id="Trazado_166" data-name="Trazado 166" class="cls-2" d="M262.76,213.86H243.41s.54,5.08,9.17,5.1C260.5,219,262.76,213.86,262.76,213.86Z"/><path id="Trazado_167" data-name="Trazado 167" class="cls-20" d="M230.33,201.8s8.63-13.24,1.87-23c0,0-4.26.07-4.11,16.9Z"/><path id="Trazado_168" data-name="Trazado 168" class="cls-20" d="M276,201.8s-8.62-13.24-1.88-23c0,0,4.28.07,4.13,16.9Z"/><path id="Trazado_169" data-name="Trazado 169" class="cls-20" d="M229.88,178.22S241,190.82,264,188.36c20.5-2.21,22.28-16.6,17.4-22.24-7-8.12-22.36-5.11-30.59,4Z"/><path id="Trazado_170" data-name="Trazado 170" class="cls-17" d="M239.45,247.87l13.64,17.52,13.12-16.59Z"/><path id="Trazado_171" data-name="Trazado 171" class="cls-19" d="M239.45,245.4l-8,4.13,9.08,18.22,9.09-6.85Z"/><path id="Trazado_172" data-name="Trazado 172" class="cls-19" d="M266.27,245.4l9.06,4.25-9.57,18.1-9-7.05Z"/><line id="Línea_15" data-name="Línea 15" class="cls-22" x1="40.5" y1="488.5" x2="371.5" y2="488.5"/></g></svg>