<?xml version="1.0" encoding="utf-8"?>
<!-- Generator: Adobe Illustrator 23.1.1, SVG Export Plug-In . SVG Version: 6.00 Build 0)  -->
<svg version="1.1" id="Capa_1" xmlns="http://www.w3.org/2000/svg" xmlns:xlink="http://www.w3.org/1999/xlink" x="0px" y="0px"
	 viewBox="0 0 414 521.8" style="enable-background:new 0 0 414 521.8;" xml:space="preserve">
<style type="text/css">
	.st0{fill:none;}
	.st1{fill:#FFFFFF;}
	.st2{fill:none;stroke:#EAF1EE;stroke-width:300.16;stroke-linecap:round;stroke-linejoin:round;}
	.st3{fill:#74A190;}
	.st4{fill:none;stroke:#FDFCFF;stroke-width:1.94;stroke-linecap:round;stroke-linejoin:round;}
	.st5{fill:#ACD1C2;}
	.st6{fill:#FAFAFA;}
	.st7{fill:none;stroke:#FDFCFF;stroke-width:1.78;stroke-miterlimit:10;}
	.st8{fill:#3A1616;}
	.st9{fill:#D6906E;}
	.st10{fill:none;stroke:#161311;stroke-width:1.02;stroke-linecap:round;stroke-linejoin:round;}
	.st11{fill:#1A1A1A;}
	.st12{fill:#EFC571;}
	.st13{fill:none;stroke:#DEA65F;stroke-width:1.99;stroke-miterlimit:10;}
	.st14{fill:none;stroke:#BF704F;stroke-miterlimit:10;}
	.st15{fill:none;stroke:#547466;stroke-width:1.99;stroke-miterlimit:10;}
	.st16{fill:#E8ABA2;}
	.st17{fill:none;stroke:#D8857D;stroke-miterlimit:10;}
	.st18{fill:#DEA65F;}
	.st19{fill:#2F1118;}
	.st20{fill:none;stroke:#161311;stroke-width:1.1;stroke-linecap:round;stroke-linejoin:round;}
	.st21{fill:none;stroke:#74A190;stroke-width:1.99;stroke-miterlimit:10;}
</style>
<title>onboarding_illustration_1</title>
<rect y="-56.3" class="st0" width="414" height="896"/>
<rect y="-56.3" class="st1" width="414" height="896"/>
<g id="Grupo_1">
	<g id="Componente_1_1">
		<path id="Trazado_95_2_" class="st2" d="M1667.1,255.7"/>
		<path id="Trazado_95_1_" class="st2" d="M203.8,367.7c0,0-24.1-264.8,27.6-174.5"/>
	</g>
</g>
<g id="onboarding_1-01">
	<path id="Rectángulo_1" class="st3" d="M44.7,73.2h72.5c1.4,0,2.6,1.1,2.6,2.6v20.1c0,1.4-1.1,2.6-2.6,2.6H44.7
		c-1.4,0-2.5-1.1-2.5-2.6V75.8C42.1,74.4,43.3,73.2,44.7,73.2z"/>
	<line id="Línea_1" class="st4" x1="53.7" y1="81.9" x2="103.4" y2="81.9"/>
	<line id="Línea_2" class="st4" x1="53.7" y1="88.6" x2="72" y2="88.6"/>
	<path id="Trazado_96" class="st3" d="M107.4,95.7v8.8c0,0.2-0.2,0.3-0.3,0.3c-0.1,0-0.1,0-0.2-0.1l-11.4-9L107.4,95.7z"/>
	<path id="Trazado_99" class="st5" d="M337.1,282.5h44.7c3.2,0,5.7,2.6,5.7,5.7l0,0v41.7c0,3.2-2.6,5.7-5.7,5.7l0,0H339
		c-4.2,0-7.5-3.4-7.5-7.5v-39.9C331.4,285,334,282.5,337.1,282.5C337.1,282.5,337.1,282.5,337.1,282.5L337.1,282.5z"/>
	<path id="Trazado_100" class="st6" d="M356.4,317.1c4,0.1,8,0.1,11.6-0.1c1.1-0.1,2.2-1.9,0.7-2.5c0.6-0.2,1.2-0.7,1.5-1.3
		c0.3-0.6,0-1.3-0.7-1.6c0,0,0,0,0,0h0c1.4,0.3,1.9-1.8,0.9-2.5c0.6-0.5,1-1.1,1.2-1.9c0.1-0.8-0.2-1.5-0.8-1.9
		c-0.5-0.2-1-0.3-1.5-0.2h-5c0.5-2.6,0.6-5.4-0.7-7.7c-0.4-0.7-1.5-1.5-2.3-1s-0.6,1.7-0.5,2.5c0.1,3.3-1.6,6.4-4.5,8
		C356.1,306.9,356.4,313.6,356.4,317.1z"/>
	<rect id="Rectángulo_2" x="349" y="306.8" class="st6" width="6" height="10.3"/>
	<circle id="Elipse_6" class="st7" cx="381.9" cy="89.6" r="6.6"/>
	<circle id="Elipse_7" class="st7" cx="10" cy="427.6" r="6.6"/>
	<path id="Trazado_103" class="st5" d="M39.2,295.9c0,3.2-2.6,5.7-5.7,5.7c-3.2,0-5.7-2.6-5.7-5.7c0-3.2,2.6-5.7,5.7-5.7
		c0,0,0,0,0,0C36.6,290.1,39.2,292.7,39.2,295.9z"/>
	<path id="Trazado_104" class="st3" d="M418.8,151.2c0,3.2-2.6,5.7-5.7,5.7c-3.2,0-5.7-2.6-5.7-5.7s2.6-5.7,5.7-5.7l0,0
		C416.2,145.4,418.8,148,418.8,151.2L418.8,151.2z"/>
	<path id="Trazado_105" class="st1" d="M374.5,376.2c0,2.4-2,4.4-4.4,4.4c-2.4,0-4.4-2-4.4-4.4c0-2.4,2-4.4,4.4-4.4l0,0
		C372.5,371.8,374.5,373.8,374.5,376.2C374.5,376.2,374.5,376.2,374.5,376.2z"/>
	<path id="Trazado_106" class="st5" d="M169.2,72.9c0,2.4-2,4.4-4.4,4.4c-2.4,0-4.4-2-4.4-4.4c0-2.4,2-4.4,4.4-4.4c0,0,0,0,0,0
		C167.2,68.5,169.2,70.5,169.2,72.9z"/>
	<line id="Línea_3" class="st4" x1="395.4" y1="242.5" x2="433.5" y2="242.5"/>
	<line id="Línea_5" class="st4" x1="202.4" y1="72.9" x2="242.8" y2="72.9"/>
	<path id="Trazado_107" class="st8" d="M122.6,145c0,0-2.6,19.2-25.4,31.2c-24.2,12.8-7,51.3,35.1,52.6
		c45.8,1.4,70.8-39.8,36.5-91.5L122.6,145z"/>
	<path id="Trazado_108" class="st9" d="M136.8,204.9l0.2-33.2h20.3l0.4,33.6L136.8,204.9z"/>
	<path id="Trazado_109" class="st8" d="M134.4,181.4c-1.1-2.9,7,13.6,15.4,12.5c7.2-0.9,8.4-13.9,8.4-13.9s-3.3,4.9-10.9,4.9
		C138.9,185,134.4,181.4,134.4,181.4z"/>
	<path id="Trazado_110" class="st8" d="M122.4,153.4c2.6,14.8,11.2,27.2,25,27.2s23.3-12.3,25-27.2c1.9-16.9-11.2-26.9-25-26.9
		S119.7,138.2,122.4,153.4z"/>
	<path id="Trazado_111" class="st9" d="M125.8,161.1c-1.2-1.7-3.6-2.4-5.5-1.4c-3.8,1.4-2,10.4,3.5,11.6c1.3,0.2,2.6-0.1,3.6-0.9
		C127.3,170.2,126,163.6,125.8,161.1z"/>
	<path id="Trazado_112" class="st10" d="M121,162.8c0,0,3.1-1,5.3,3.5"/>
	<path id="Trazado_113" class="st9" d="M168.3,161.1c1.2-1.7,3.6-2.4,5.5-1.4c3.7,1.4,2,10.4-3.5,11.6c-1.3,0.2-2.6-0.1-3.6-0.9
		C166.8,170.2,168.1,163.6,168.3,161.1z"/>
	<path id="Trazado_114" class="st10" d="M173.1,162.8c0,0-3.1-1-5.3,3.5"/>
	<path id="Trazado_115" class="st9" d="M125.4,153.3c0,5.8,0.6,16.6,4.3,23.8c3.5,6.7,9.8,10.1,17.4,10.1s14.4-5.1,17.4-10.9
		c4.5-8.7,4.3-23,4.3-23s0-20.6-21.5-20.6C124.7,132.8,125.4,153.3,125.4,153.3z"/>
	<path id="Trazado_116" class="st11" d="M142.3,152.3l-11.8,3c0,0,0.5-3.3,5.4-4.5S142.3,152.3,142.3,152.3z"/>
	<path id="Trazado_117" class="st11" d="M149.8,152.3l11.8,3c0,0-0.5-3.3-5.4-4.5S149.8,152.3,149.8,152.3z"/>
	<path id="Trazado_118" class="st10" d="M145.4,162.1l-0.5,4.2h3.1"/>
	<path id="Trazado_119" class="st1" d="M155.4,169.9h-17.2c0,0,0.5,6.3,8.5,6.3C154.2,176.2,155.4,169.9,155.4,169.9z"/>
	<path id="Trazado_120" class="st10" d="M139.9,159.1c0,0-3.2-1.7-6,0"/>
	<path id="Trazado_121" class="st10" d="M158.6,159.1c0,0-3.2-1.7-6,0"/>
	<path id="Trazado_122" class="st8" d="M168.3,161.1c0,0-5.7-11.3-1.8-21.4c0,0,4,0.1,3.8,15.8L168.3,161.1z"/>
	<path id="Trazado_123" class="st8" d="M125.8,161.1c0,0,5.7-12.1,1.7-21.4c0,0-4,0.1-3.8,15.8L125.8,161.1z"/>
	<path id="Trazado_124" class="st8" d="M172.5,148.4c0,0-31-1.9-40-14.4c0,0,2.9-7.8,16.7-5.6S172.5,148.4,172.5,148.4z"/>
	<path id="Trazado_125" class="st8" d="M145.2,130.8c0,0-8.8,18.2-21.3,17.6C123.9,148.4,130.8,131,145.2,130.8z"/>
	<path id="Trazado_126" class="st12" d="M127.3,412.8c0,0,9.2-45.6,14.6-58c0.3-0.7,1.1-1,1.7-0.7c0.4,0.2,0.6,0.5,0.7,0.9
		c1.3,4.7,3,18.7,2.3,59.8v16.8h36.1l5.6-40.4c0.3-3.1,11.9-53.8-17.2-92.9h-56.5c0,0-22.8,39.3-26,87.3c-0.7,10.7-0.9,27-2.4,46
		h37.1L127.3,412.8z"/>
	<line id="Línea_6" class="st13" x1="126.3" y1="347.3" x2="144.8" y2="354.9"/>
	<path id="Trazado_127" class="st3" d="M99.7,210.7c0,0-11.8,1.7-20.5,31.3l23.3,13.3l13.8-18.9L99.7,210.7z"/>
	<path id="Trazado_128" class="st9" d="M102.5,255.4c0,0-15.5,24.3-19.1,28.6s-9.6,6.8-14.6,3.6l0,0c-4.5-2.8-6.2-8.6-3.9-13.4
		L81,242.9L102.5,255.4z"/>
	<path id="Trazado_129" class="st9" d="M65.1,210.7l18.5,60.3l-19.8,8.6l-11.9-68L65.1,210.7z"/>
	<path id="Trazado_130" class="st9" d="M63.9,213.7l2.9-2.8c2.1-2,3.4-4.8,3.7-7.7l0.7-8.2c0,0,0.5-4.3-8.1-3.2s-9.1,1.1-9,3.7
		c0,0,1.6,3.5,7.1,4.2L63.9,213.7z"/>
	<path id="Trazado_131" class="st9" d="M53,215c0,0-8.5-4.7-8.8-19.5c0-1.7,0.8-3.3,2.2-4.3c2.2-1.4,8.5-5.1,11.9-2.8l5.9,7.7
		l-0.4,17.6L53,215z"/>
	<path id="Trazado_132" class="st9" d="M65.5,193.5l4.7-23.9c0.3-1.4-0.6-2.8-2-3.1l0,0c-1.4-0.3-2.8,0.6-3.2,2l-4.2,18.1l-2,0.4
		l-7-18.3c-0.5-1.2-1.8-1.9-3.1-1.4c0,0,0,0,0,0h-0.1l0,0c-1.1,0.5-1.7,1.7-1.4,2.8l6.8,25.3L65.5,193.5z"/>
	<path id="Trazado_133" class="st14" d="M65.9,191.7c0,0-11.6-1.1-11.7,3.9c0,0-0.3,3.8,7.1,4.2c-2.8,0.9-4.7,3.5-4.8,6.4"/>
	<line id="Línea_7" class="st14" x1="77.3" y1="250.2" x2="82.2" y2="266.2"/>
	<path id="Trazado_134" class="st9" d="M179.2,245.3c0,0,18.4,64.8,25.5,119l11.9-2.2c0,0-1.8-79.5-13.8-128.7L179.2,245.3z"/>
	<path id="Trazado_135" class="st9" d="M216.4,359.4c0,0,17.8,26.4-3.6,38.2c-1.4,0.8-3.2,0.5-4.2-0.8l-0.1-0.2
		c-1.1-1.4-1-3.4,0.2-4.6c3-3.1,7.1-9.5,0.6-17.8c0,0-3.4,0.9-2.8,7.7c0.1,1.5-1,2.9-2.6,3.1c-0.2,0-0.3,0-0.5,0l0,0
		c-1.2-0.1-2.2-1-2.5-2.1c-1.1-4.5-3-15.6,4.2-21.6L216.4,359.4z"/>
	<path id="Trazado_136" class="st3" d="M190.5,216.1c0,0,16.9,5.6,19.9,32.3l-27.5,10.4l-6.2-16.9L190.5,216.1z"/>
	<path id="Trazado_137" class="st3" d="M174.3,209.9l16.5,6.2l-19.7,74.4h-56.5l-14.9-79.9l19.6-4.5L174.3,209.9z"/>
	<rect id="Rectángulo_3" x="114.6" y="290.6" class="st11" width="56.5" height="7.6"/>
	<line id="Línea_8" class="st15" x1="106.9" y1="249.3" x2="102.5" y2="229.5"/>
	<line id="Línea_9" class="st15" x1="180.9" y1="253.4" x2="186.9" y2="231.3"/>
	<path id="Trazado_138" class="st9" d="M152.5,201.2l21.7,8.7c0,0-2.5,8.5-28.1,8.6c-22.2,0-26.9-12.3-26.9-12.3l21.1-4.9
		L152.5,201.2z"/>
	<path id="Trazado_139" class="st3" d="M295,311.1l23.6,121h-45.9l-17.6-79.9l-4.1-0.2v80.2h-45.8l2.3-121H295z"/>
	<line id="Línea_10" class="st15" x1="243.4" y1="351.3" x2="269.5" y2="351.3"/>
	<path id="Trazado_140" class="st16" d="M316,226.2l43.1-11c8.6-2.4,13.7-11.3,11.4-19.9l0,0c-2.3-8.8-11.2-14-20-11.7c0,0,0,0,0,0
		l-0.4,0.1l-43.2,12.3L316,226.2z"/>
	<path id="Trazado_141" class="st12" d="M320.8,188l-42.1,5.5l12,43l40.3-8.4L320.8,188z"/>
	<path id="Trazado_142" class="st16" d="M340.9,134.5c1.1-6.8-1.5-15.4-1.5-15.4l0.9-15.2c0.2-1.4-0.7-2.8-2.1-3.1l0,0
		c-1.5-0.4-3,0.5-3.4,2l0,0l-1.2,9.8h-1.3l-1.8-15.7c-0.1-1.8-1.7-3.1-3.4-3c0,0,0,0,0,0h-0.3l0,0c-1.6,0.3-2.7,1.7-2.7,3.3
		l1.2,17.1l-1.4,0.3l-4.8-17c-0.5-1.9-2.5-3-4.4-2.5c0,0,0,0,0,0h-0.1l0,0c-1.8,0.6-2.8,2.4-2.4,4.2l5,19.4l-1.8,0.5l-6.6-13.7
		c-0.7-1.5-2.5-2.1-4-1.4l-0.3,0.1l0,0c-1.2,0.7-1.7,2.2-1.3,3.5l6.6,18.2l-5.5-0.1c-2.4,0-4.3,2-4.3,4.4c0,0.1,0,0.3,0,0.4l0,0
		c0.2,1.8,1.5,3.3,3.2,3.8l7.2,1.8c3.4,4.4,7.9,7.7,13,9.7C323.4,145.7,340.1,139.7,340.9,134.5z"/>
	<path id="Trazado_143" class="st17" d="M309.8,126c0,0,10.5-0.6,16.7,5.3"/>
	<path id="Trazado_144" class="st16" d="M370,193.5l-29.1-59l-18.4,7.7l18.5,64.9L370,193.5z"/>
	<line id="Línea_11" class="st17" x1="335.5" y1="187.8" x2="338.4" y2="197.8"/>
	<path id="Trazado_145" class="st12" d="M241,191.2l-34.5,7.1l1.2,112.7H295l2.7-115.8l-32.8-2.8L241,191.2z"/>
	<line id="Línea_12" class="st13" x1="296.8" y1="235.4" x2="296.8" y2="220.8"/>
	<path id="Trazado_146" class="st18" d="M219.2,224.9h21.4v10.7c0,5.9-4.8,10.7-10.7,10.7l0,0c-5.9,0-10.7-4.8-10.7-10.7V224.9z"/>
	<path id="Trazado_147" class="st16" d="M181.5,227l-24.9,45.1c-4.3,7.9-1.6,17.8,6.2,22.3l0,0c7.7,4.4,17.5,2,22.3-5.5l25.8-41.2
		L181.5,227z"/>
	<path id="Trazado_148" class="st12" d="M173.8,233.3l35.7,22.9l5.7-27.4c6-9.8,13.7-21.5,4.1-27.7l0,0c-9.8-6.2-22.7-3.4-29,6.4
		l0,0L173.8,233.3z"/>
	<line id="Línea_13" class="st13" x1="207.1" y1="254.7" x2="207.1" y2="224"/>
	<path id="Trazado_149" class="st16" d="M168.9,296.4l65.3-1.8l4.5-21.1l-73.8-9.3L168.9,296.4z"/>
	<line id="Línea_14" class="st17" x1="197.9" y1="268.4" x2="180.9" y2="266.2"/>
	<path id="Trazado_150" class="st16" d="M234.3,274.4c0,0,8.4-11.3,18.2,0l-3.9,7.8L234.3,274.4z"/>
	<path id="Trazado_151" class="st11" d="M244.2,262.4l-2.6,15.8l19.9,2.2l3.2-15.2c0.3-1.5-0.6-3-2.1-3.4l-0.3-0.1l-14.9-1.8
		C245.8,259.8,244.4,260.9,244.2,262.4z"/>
	<path id="Trazado_152" class="st16" d="M238.6,273l23.6,0.6c2.7,0,4.9,2.3,4.9,5l0,0c0,1.9-1.1,3.7-2.8,4.5l-1.3,0.6
		c0,0,2.4,17.8-11.8,20s-22.1-9.1-22.1-9.1L238.6,273z"/>
	<path id="Trazado_153" class="st16" d="M266.2,192.5l-0.3-35.6H240l-0.6,34.7L266.2,192.5z"/>
	<path id="Trazado_154" class="st8" d="M237.9,167.3c-1.3-3.1,9,17,19.5,15.9c9-0.9,9.4-17.3,9.4-17.3s-3.2,5.2-12.7,5.2
		C243.4,171,237.9,167.3,237.9,167.3z"/>
	<path id="Trazado_155" class="st19" d="M279.6,137.2c-2.8,15.9-12,29.2-26.8,29.2s-25-13.2-26.8-29.2c-2.1-18.2,12-30.3,26.8-30.3
		S282.5,121,279.6,137.2z"/>
	<path id="Trazado_156" class="st16" d="M276,145.5c1.3-1.9,3.8-2.5,5.9-1.6c4,1.5,2.2,11.2-3.8,12.4c-1.4,0.2-2.7-0.1-3.8-1
		C274.3,155.3,275.8,148.2,276,145.5z"/>
	<path id="Trazado_157" class="st20" d="M281.2,147.4c0,0-3.3-1.1-5.7,3.8"/>
	<path id="Trazado_158" class="st16" d="M230.3,145.5c-1.3-1.9-3.8-2.5-5.9-1.6c-4,1.5-2.2,11.2,3.8,12.4c1.4,0.2,2.7-0.1,3.8-1
		C232,155.3,230.6,148.2,230.3,145.5z"/>
	<path id="Trazado_159" class="st20" d="M225.2,147.4c0,0,3.3-1.1,5.7,3.8"/>
	<path id="Trazado_160" class="st16" d="M276.4,137.2c0,6.2-0.6,19.1-4.7,26.8c-3.4,7-10.4,11.4-18.2,11.3
		c-6.5,0.2-15.9-5.9-19.1-12.1c-4.9-9.4-4.6-25.9-4.6-25.9s0-22.1,23-22.1C277.1,115.2,276.4,137.2,276.4,137.2z"/>
	<path id="Trazado_161" class="st11" d="M245,144.7c0,1-0.8,1.8-1.8,1.8c-1,0-1.8-0.8-1.8-1.8c0-1,0.8-1.8,1.8-1.8l0,0
		C244.2,142.9,245,143.7,245,144.7C245,144.7,245,144.7,245,144.7z"/>
	<path id="Trazado_162" class="st11" d="M263.4,144.7c0,1-0.8,1.8-1.8,1.8c-1,0-1.8-0.8-1.8-1.8s0.8-1.8,1.8-1.8c0,0,0,0,0,0l0,0
		C262.6,142.9,263.4,143.7,263.4,144.7C263.4,144.7,263.4,144.7,263.4,144.7z"/>
	<path id="Trazado_163" class="st11" d="M248.1,137.4l-12.7,3.2c0,0,0.6-3.6,5.7-4.8S248.1,137.4,248.1,137.4z"/>
	<path id="Trazado_164" class="st11" d="M256.1,137.4l12.6,3.2c0,0-0.6-3.6-5.7-4.8S256.1,137.4,256.1,137.4z"/>
	<path id="Trazado_165" class="st20" d="M250.8,149.2v4.5h3.3"/>
	<path id="Trazado_166" class="st1" d="M262.8,157.6h-19.4c0,0,0.5,5.1,9.2,5.1C260.5,162.7,262.8,157.6,262.8,157.6z"/>
	<path id="Trazado_167" class="st19" d="M230.3,145.5c0,0,8.6-13.2,1.9-23c0,0-4.3,0.1-4.1,16.9L230.3,145.5z"/>
	<path id="Trazado_168" class="st19" d="M276,145.5c0,0-8.6-13.2-1.9-23c0,0,4.3,0.1,4.1,16.9L276,145.5z"/>
	<path class="st3" d="M325.6,68.5h-49c-4.3,0-7.9-3.5-7.9-7.9V33.2c0-4.3,3.5-7.9,7.9-7.9h49c4.3,0,7.9,3.5,7.9,7.9v27.5
		C333.4,65,329.9,68.5,325.6,68.5z"/>
	<path id="Trazado_169" class="st19" d="M229.9,121.9c0,0,11.1,12.6,34.1,10.1c20.5-2.2,22.3-16.6,17.4-22.2c-7-8.1-22.4-5.1-30.6,4
		L229.9,121.9z"/>
	<path id="Trazado_170" class="st16" d="M239.4,191.6l13.6,17.5l13.1-16.6L239.4,191.6z"/>
	<path id="Trazado_171" class="st18" d="M239.4,189.1l-8,4.1l9.1,18.2l9.1-6.9L239.4,189.1z"/>
	<path id="Trazado_172" class="st18" d="M266.3,189.1l9.1,4.2l-9.6,18.1l-9-7L266.3,189.1z"/>
	<line id="Línea_15" class="st21" x1="40.5" y1="432.2" x2="371.5" y2="432.2"/>
	<path id="Trazado_98" class="st1" d="M311.3,39.4c-2.4-2.4-6.4-2.4-8.8,0.1l0,0l-1.6,1.6l-1.6-1.6c-2.6-2.3-6.5-2.1-8.8,0.5
		c-2.1,2.4-2.1,6,0.1,8.3l6,6l0,0c2.5,2.4,6.4,2.3,8.8-0.1l6-6.1C313.8,45.8,313.8,41.9,311.3,39.4
		C311.3,39.4,311.3,39.4,311.3,39.4z"/>
</g>
</svg>
