<svg id="Capa_1" data-name="Capa 1" xmlns="http://www.w3.org/2000/svg" viewBox="0 0 478.74 319.16"><defs><style>.cls-1{fill:#ffb27d;}.cls-2{fill:#f99746;}.cls-3{fill:#efa26f;}.cls-4{fill:#ffc197;}.cls-5{fill:#ffd3b6;}.cls-6{fill:#ed7d2b;}.cls-7{fill:#fff;}.cls-8{fill:#f2f7ff;}.cls-9{fill:#eaf0ed;}.cls-10{fill:#74a190;}</style></defs><title>new_recipe_illustration_2</title><path class="cls-1" d="M284,183.07s-23.62,47.25-47.61,79.87c-9.55,13-19.16,23.64-27.35,28.09-8,4.35-14.82,11.11-20.44,18.6-14.56,19.4-21.28,43.68-21.28,43.68L106,260.5s2.09-90.73,9.46-105.91c10.73-22.11,15.92-66.8,20-75.7,3.06-6.6,11.8-40.69,12.64-43.19.36-1.08,3.27-2.74,7-2.73,3,0,8.17,2.93,9.47,8.94,6.56,30.42-1.34,50.49-1.25,51.38,2.31,23.38-4.64,40.73.24,45.33.18.17.51.09,1-.22,8.46-5.43,60.95-82,67.42-83.61C238.9,53.05,284,183.07,284,183.07Z"/><path class="cls-2" d="M185.81,334.94s-.83,41.25-3.22,96.8H27.84C63.21,356.31,94,292.82,94,292.82S182.08,295.51,185.81,334.94Z"/><path class="cls-1" d="M337.68,23.16,318.68,51,300,78.34a4.26,4.26,0,0,1-3.87,1.72c-4.48-.43-10-6.88-14.32-10.45l-.44-.36a13.47,13.47,0,0,1-1.79-18.9l28.5-34.44h0l8.45-10.21A13.46,13.46,0,0,1,335.45,3.9l.44.36A13.47,13.47,0,0,1,337.68,23.16Z"/><path class="cls-3" d="M318.68,51,300,78.34a4.26,4.26,0,0,1-3.87,1.72l11.95-64.15C308.13,16.27,310.16,45.05,318.68,51Z"/><path class="cls-3" d="M236.43,262.94c-9.55,13-19.16,23.64-27.35,28.09-8,4.35-14.82,11.11-20.44,18.6-6.47-3-13.84-6.55-21-10.05a12,12,0,0,1-.51-21.34l.24-.13c8.06-4.61,16.31-20.88,16.31-20.88Z"/><path class="cls-4" d="M147.72,37.11l-5,20.07s4.35,1.78,7.14.4S155,38.19,147.72,37.11Z"/><path class="cls-1" d="M328.22,128.34l-2.83,1.07-19.06,7.24a10.59,10.59,0,0,1-1.35.43,13,13,0,0,1-15.38-8l-.28-.73a13,13,0,0,1,7.52-16.74l17.76-6.75,1.29-.49,2.83-1.07a13,13,0,0,1,16.74,7.52l.28.73A13,13,0,0,1,328.22,128.34Z"/><path class="cls-5" d="M312.75,128.78c-3.18,1.2-8.94,3.34-12,3.78-.87.13-2.47-.35-4-2a11.73,11.73,0,0,1-2.4-4.32,14,14,0,0,1-.65-2.76,11.65,11.65,0,0,1,.11-3.28,3.26,3.26,0,0,1,1.81-2.34h0a76.07,76.07,0,0,1,11.55-4.53,5,5,0,0,1,6.23,2.79l.4,1.09,2,5.6A4.79,4.79,0,0,1,312.75,128.78Z"/><path class="cls-4" d="M312.75,128.78c-3.18,1.2-8.94,3.34-12,3.78-.87.13-2.47-.35-4-2-.16-.37-.31-.76-.45-1.19a14.08,14.08,0,0,1-.65-2.75,11.62,11.62,0,0,1,.11-3.28,3.26,3.26,0,0,1,1.81-2.34h0a75,75,0,0,1,11.55-4.53,5.47,5.47,0,0,1,4.68.74l2,5.6A4.79,4.79,0,0,1,312.75,128.78Z"/><rect class="cls-1" x="293.77" y="138.9" width="32.05" height="18.55" rx="8.41" transform="translate(-28.04 86.58) rotate(-15.23)"/><path class="cls-5" d="M311.63,154.4a66.62,66.62,0,0,1-10.13,2.13c-.93.06-2.8-.73-4-3.18a9.24,9.24,0,0,1-.75-2.07,9.42,9.42,0,0,1-.33-2.16,8.21,8.21,0,0,1,.33-2.51,2.59,2.59,0,0,1,1.66-1.68h0a64.68,64.68,0,0,1,9.81-2.73c2.25-.4,4.38.68,4.91,2.53l.38,1.33,1.13,4C315.16,151.86,313.83,153.82,311.63,154.4Z"/><path class="cls-4" d="M311.63,154.4a66.62,66.62,0,0,1-10.13,2.13c-.93.06-2.8-.73-4-3.18a9.31,9.31,0,0,1-.3-2,8.28,8.28,0,0,1,.33-2.52,2.62,2.62,0,0,1,1.66-1.68h0a65.66,65.66,0,0,1,9.82-2.74,4.45,4.45,0,0,1,4.5,1.66l1.13,4C315.16,151.86,313.83,153.82,311.63,154.4Z"/><path class="cls-6" d="M78.9,324.11s30.24,29,50.62,40.15L145,353.31v16.15s30.35,5.37,39.93,0v-44L99.63,282.68Z"/><path class="cls-7" d="M191.33,366c-11.75,2.41-37.06-6.82-37.06-6.82l4.08-39.44-28.6,32.76c-14.56-5.41-37.33-19.55-50.85-28.35-6.74-4.38-11.18-7.43-11.18-7.43C86.81,286,106,257.23,106,257.23c5.63,11.27,19,21.06,33.43,28.89,24,13,51.15,20.62,51.15,20.62C190.59,330.18,191.33,366,191.33,366Z"/><path class="cls-1" d="M327.76,100.18l-.32.11-19.26,4.94c-8.47,2.18-17.23-2.4-19.47-10.18l-1.14-4c-2.15-7.47,2.47-15.28,10.34-17.81l6.36-1.63,12.9-3.31c8.47-2.18,17.23,2.4,19.46,10.18l1.15,4C339.9,89.85,335.43,97.54,327.76,100.18Z"/><path class="cls-5" d="M318.93,94.8,309.57,99h-.06a8.73,8.73,0,0,1-1.13.24l-.47.06h-.2a1.48,1.48,0,0,1-1.29-2.1,9.38,9.38,0,0,0,.53-6.35l-.23-.81v0L306,87.39a10,10,0,0,0-3.39-5.18l-.59-.44a2.69,2.69,0,0,1,.78-4.78l.06,0,10.27-1.55c2.54-.69,5,1.26,5.68,3.8l.83,3,1.75,6.45C322.07,91.24,321.47,94.11,318.93,94.8Z"/><path class="cls-4" d="M318.93,94.8,309.57,99h-.06c-.22,0-.9.16-1.8.3a1.48,1.48,0,0,1-1.29-2.1,9.38,9.38,0,0,0,.53-6.35l-.23-.81v0L306,87.39a10,10,0,0,0-3.39-5.18,2.63,2.63,0,0,1,1.47-1l.06,0L314.4,79.6a4.66,4.66,0,0,1,5.23,2.65l1.75,6.45C322.07,91.24,321.47,94.11,318.93,94.8Z"/><path class="cls-3" d="M164.67,200.37s-4.2-36.68-8.08-43.83-7.16-21.48-1.19-32.13,8-31.12,8-31.12c2.31,23.38-4.64,40.73.24,45.33.18.17.51.09,1-.22Z"/><path class="cls-7" d="M191.65,20.36l-1.46,1.05-1.47-1a1.79,1.79,0,0,1,2.93,0Z"/><path class="cls-7" d="M190.19,17.06a4.35,4.35,0,0,0-3.56,1.85l.93.65a3.21,3.21,0,0,1,5.25,0l.92-.67A4.34,4.34,0,0,0,190.19,17.06Z"/><path class="cls-7" d="M190.19,12.19a9.2,9.2,0,0,0-7.53,3.92l.93.65a8.07,8.07,0,0,1,13.17-.05l.92-.66A9.18,9.18,0,0,0,190.19,12.19Z"/><path class="cls-7" d="M190.19,14.86a6.59,6.59,0,0,0-5.37,2.77l.93.65a5.45,5.45,0,0,1,8.86,0l.92-.66A6.56,6.56,0,0,0,190.19,14.86Z"/><path class="cls-8" d="M191.33,366c-11.75,2.41-37.06-6.82-37.06-6.82l4.08-39.44-28.6,32.76c-14.56-5.41-37.33-19.55-50.85-28.35,34.66-3.77,60.54-38,60.54-38,24,13,51.15,20.62,51.15,20.62C190.59,330.18,191.33,366,191.33,366Z"/><g id="Onboarding_3" data-name="Onboarding 3"><g id="onboarding_3-01" data-name="onboarding 3-01"><g id="OBJECTS"><g id="Rectángulo_6" data-name="Rectángulo 6"><rect class="cls-9" x="167.85" y="3.88" width="150.95" height="276.85" rx="19.2"/></g><g id="Trazado_367" data-name="Trazado 367"><path class="cls-10" d="M321,263.47V112.71a1.8,1.8,0,0,0,1.14-1.65V77.89A1.79,1.79,0,0,0,321,76.22V21.1A19.34,19.34,0,0,0,301.67,1.76H184.06A19.36,19.36,0,0,0,164.71,21.1V45.4a1.78,1.78,0,0,0-1.13,1.65v9.07a1.79,1.79,0,0,0,1.13,1.65V67a1.82,1.82,0,0,0-1.13,1.66V88.49a1.79,1.79,0,0,0,1.13,1.65v6.48a1.82,1.82,0,0,0-1.13,1.66v19.88a1.79,1.79,0,0,0,1.13,1.65V263.47a19.37,19.37,0,0,0,19.35,19.35H301.65A19.36,19.36,0,0,0,321,263.47ZM184.06,277.24a13.77,13.77,0,0,1-13.76-13.77V21.1A13.77,13.77,0,0,1,184.06,7.33h22l2.21,7.32A8.11,8.11,0,0,0,216,20.4h53.67a8.12,8.12,0,0,0,7.75-5.75l2.21-7.32h22A13.78,13.78,0,0,1,315.42,21.1V263.47a13.79,13.79,0,0,1-13.77,13.77Z"/></g></g></g></g><rect class="cls-10" x="182.24" y="35.55" width="91.98" height="14.01"/><rect class="cls-10" x="182.82" y="137.26" width="91.98" height="14.01"/><rect class="cls-7" x="182.24" y="60.7" width="121.01" height="14.01" rx="7.01"/><rect class="cls-7" x="182.24" y="83.39" width="121.01" height="14.01" rx="7.01"/><rect class="cls-7" x="182.24" y="106.08" width="121.01" height="14.01" rx="7.01"/><rect class="cls-7" x="182.82" y="161.11" width="121.01" height="31" rx="8.03"/><rect class="cls-10" x="182.24" y="209.28" width="91.98" height="14.01"/><rect class="cls-7" x="182.24" y="233.14" width="121.01" height="31" rx="8.03"/><path class="cls-1" d="M115.47,154.59c10.73-22.11,15.92-66.8,20-75.7,3.06-6.6,11.8-40.69,12.64-43.19.36-1.08,3.27-2.74,7-2.73,3,0,8.17,2.93,9.47,8.94,6.56,30.42-1.34,50.49-1.25,51.38,2.31,23.38-4.64,40.73.24,45.33.18.17.51.09,1-.22"/><path class="cls-2" d="M185.81,334.94s-.83,41.25-3.22,96.8H27.84C63.21,356.31,94,292.82,94,292.82S182.08,295.51,185.81,334.94Z"/><path class="cls-4" d="M147.72,37.11l-5,20.07s4.35,1.78,7.14.4S155,38.19,147.72,37.11Z"/><path class="cls-1" d="M328.22,128.34l-2.83,1.07-19.06,7.24a10.59,10.59,0,0,1-1.35.43,13,13,0,0,1-15.38-8l-.28-.73a13,13,0,0,1,7.52-16.74l17.76-6.75,1.29-.49,2.83-1.07a13,13,0,0,1,16.74,7.52l.28.73A13,13,0,0,1,328.22,128.34Z"/><path class="cls-5" d="M312.75,128.78c-3.18,1.2-8.94,3.34-12,3.78-.87.13-2.47-.35-4-2a11.73,11.73,0,0,1-2.4-4.32,14,14,0,0,1-.65-2.76,11.65,11.65,0,0,1,.11-3.28,3.26,3.26,0,0,1,1.81-2.34h0a76.07,76.07,0,0,1,11.55-4.53,5,5,0,0,1,6.23,2.79l.4,1.09,2,5.6A4.79,4.79,0,0,1,312.75,128.78Z"/><path class="cls-4" d="M312.75,128.78c-3.18,1.2-8.94,3.34-12,3.78-.87.13-2.47-.35-4-2-.16-.37-.31-.76-.45-1.19a14.08,14.08,0,0,1-.65-2.75,11.62,11.62,0,0,1,.11-3.28,3.26,3.26,0,0,1,1.81-2.34h0a75,75,0,0,1,11.55-4.53,5.47,5.47,0,0,1,4.68.74l2,5.6A4.79,4.79,0,0,1,312.75,128.78Z"/><rect class="cls-1" x="293.77" y="138.9" width="32.05" height="18.55" rx="8.41" transform="translate(-28.04 86.58) rotate(-15.23)"/><path class="cls-5" d="M311.63,154.4a66.62,66.62,0,0,1-10.13,2.13c-.93.06-2.8-.73-4-3.18a9.24,9.24,0,0,1-.75-2.07,9.42,9.42,0,0,1-.33-2.16,8.21,8.21,0,0,1,.33-2.51,2.59,2.59,0,0,1,1.66-1.68h0a64.68,64.68,0,0,1,9.81-2.73c2.25-.4,4.38.68,4.91,2.53l.38,1.33,1.13,4C315.16,151.86,313.83,153.82,311.63,154.4Z"/><path class="cls-4" d="M311.63,154.4a66.62,66.62,0,0,1-10.13,2.13c-.93.06-2.8-.73-4-3.18a9.31,9.31,0,0,1-.3-2,8.28,8.28,0,0,1,.33-2.52,2.62,2.62,0,0,1,1.66-1.68h0a65.66,65.66,0,0,1,9.82-2.74,4.45,4.45,0,0,1,4.5,1.66l1.13,4C315.16,151.86,313.83,153.82,311.63,154.4Z"/><path class="cls-6" d="M78.9,324.11s30.24,29,50.62,40.15L145,353.31v16.15s30.35,5.37,39.93,0v-44L99.63,282.68Z"/><path class="cls-7" d="M191.33,366c-11.75,2.41-37.06-6.82-37.06-6.82l4.08-39.44-28.6,32.76c-14.56-5.41-37.33-19.55-50.85-28.35-6.74-4.38-11.18-7.43-11.18-7.43C86.81,286,106,257.23,106,257.23c5.63,11.27,19,21.06,33.43,28.89,24,13,51.15,20.62,51.15,20.62C190.59,330.18,191.33,366,191.33,366Z"/><path class="cls-1" d="M327.76,100.18l-.32.11-19.26,4.94c-8.47,2.18-17.23-2.4-19.47-10.18l-1.14-4c-2.15-7.47,2.47-15.28,10.34-17.81l6.36-1.63,12.9-3.31c8.47-2.18,17.23,2.4,19.46,10.18l1.15,4C339.9,89.85,335.43,97.54,327.76,100.18Z"/><path class="cls-5" d="M318.93,94.8,309.57,99h-.06a8.73,8.73,0,0,1-1.13.24l-.47.06h-.2a1.48,1.48,0,0,1-1.29-2.1,9.38,9.38,0,0,0,.53-6.35l-.23-.81v0L306,87.39a10,10,0,0,0-3.39-5.18l-.59-.44a2.69,2.69,0,0,1,.78-4.78l.06,0,10.27-1.55c2.54-.69,5,1.26,5.68,3.8l.83,3,1.75,6.45C322.07,91.24,321.47,94.11,318.93,94.8Z"/><path class="cls-4" d="M318.93,94.8,309.57,99h-.06c-.22,0-.9.16-1.8.3a1.48,1.48,0,0,1-1.29-2.1,9.38,9.38,0,0,0,.53-6.35l-.23-.81v0L306,87.39a10,10,0,0,0-3.39-5.18,2.63,2.63,0,0,1,1.47-1l.06,0L314.4,79.6a4.66,4.66,0,0,1,5.23,2.65l1.75,6.45C322.07,91.24,321.47,94.11,318.93,94.8Z"/><path class="cls-3" d="M164.67,200.37s-4.2-36.68-8.08-43.83-7.16-21.48-1.19-32.13,8-31.12,8-31.12c2.31,23.38-4.64,40.73.24,45.33.18.17.51.09,1-.22Z"/><path class="cls-8" d="M191.33,366c-11.75,2.41-37.06-6.82-37.06-6.82l4.08-39.44-28.6,32.76c-14.56-5.41-37.33-19.55-50.85-28.35,34.66-3.77,60.54-38,60.54-38,24,13,51.15,20.62,51.15,20.62C190.59,330.18,191.33,366,191.33,366Z"/><path class="cls-1" d="M439.71,438.32H326.21c-5.44-3.65-33.7-22.93-45.4-37.3-2.47-3-11.54-29.3-18.51-50.61-4.34-13.31-7.88-24.7-8.47-27.31a33.33,33.33,0,0,1-.43-5.16v0c-.3-8.71.1-25.52.52-38.87v-.24l.06-1.73v-.19c.08-2.32.15-4.51.22-6.5.18-5,.33-8.7.39-10.17l0-.68h0c.18-.1,5.64-3,12.93,2.24,1.76,1.27,3.39,4.34,4.88,8.35.95,2.55,1.84,5.49,2.67,8.58,3.18,11.9,5.47,26.12,6.69,29.93,2,6.16,25.17,33.22,26.63,34.91l.06.08V300.88L291,254l-7.19-19.24-3.62-9.67A174.52,174.52,0,0,1,270,205a94.65,94.65,0,0,1-5.06-14.82c-.27-1.16-.51-2.32-.69-3.44h0a24.87,24.87,0,0,1,.22-11.08c1.69-5.56,5.51-6.61,8.44-6.49.31,0,.6,0,.88.06a6.09,6.09,0,0,1,.85.17,5.76,5.76,0,0,1,1.45.6h0a6,6,0,0,1,1.91,1.78l5.8,7.58,7.19,9.43c4.36,5.74,8.42,11.09,9.53,12.66,6,8.49,22.26,36.13,22.26,36.13l19,.8a12.56,12.56,0,0,1,8.08,3.38c6.75,6.31,21.31,20,23.1,22,0,.66,11.32,6.1,20.06,10.95,6.25,2.64,18.13,12,18.13,12a20.91,20.91,0,0,1,5.29,6.4c4.07,8.86,15.12,86,20.4,124.06C438.52,429.46,439.62,437.68,439.71,438.32Z"/><path class="cls-3" d="M322.77,237.62s17.6,28.73,19.92,30,11.39,3.1,12.43,0S322.77,237.62,322.77,237.62Z"/><path class="cls-3" d="M411.22,286.82l-.09-.07s-11.88-9.37-18.13-12c-8-4.45-18.22-9.4-19.84-10.7,1.86,2.13,15,17,20,18.08C397.6,283.09,407.66,285.84,411.22,286.82Z"/><path class="cls-3" d="M308.49,343.62V300.87s10.16,17,10.93,26.31S315.21,351.57,308.49,343.62Z"/><path class="cls-5" d="M271.65,186.77a78.81,78.81,0,0,1-5.06-9.75,4.91,4.91,0,0,1,.67-3.75,9.77,9.77,0,0,1,4.54-3.77,7.22,7.22,0,0,1,2.39-.44,2.54,2.54,0,0,1,2.05,1.19h0a73.18,73.18,0,0,1,5.51,9.22c1.05,2.19.72,4.71-.81,5.82l-.71.53-3.66,2.66C275.05,189.6,272.86,188.85,271.65,186.77Z"/><path class="cls-4" d="M271.65,186.77a78.81,78.81,0,0,1-5.06-9.75,4.91,4.91,0,0,1,.67-3.75,7.83,7.83,0,0,1,.78-.57,8.49,8.49,0,0,1,1.87-1,7.22,7.22,0,0,1,2.39-.44,2.55,2.55,0,0,1,2.05,1.18v0a72.47,72.47,0,0,1,5.51,9.22,5.67,5.67,0,0,1,.37,4.16l-3.66,2.66C275.05,189.6,272.86,188.85,271.65,186.77Z"/><path class="cls-3" d="M254,276.87h0c2.06-.75,4.95-1.25,6.36,1.1,2.19,3.65-6,35.91-7,40Z"/><path class="cls-4" d="M254.62,259.53l-.7,19.51s4.11.67,6.44-1.07S261.46,259.3,254.62,259.53Z"/></svg>