<svg id="Capa_1" data-name="Capa 1" xmlns="http://www.w3.org/2000/svg" viewBox="0 0 370.22 74.22"><defs><style>.cls-1{fill:#59a591;}</style></defs><title>obento_logo</title><path class="cls-1" d="M28.14,14.58A13.57,13.57,0,0,1,41.69,28.14v18a13.56,13.56,0,0,1-27.11,0V28.81c0-7.59,5.85-14,13.05-14.22h.51M28.14,0l-1,0C11.86.56,0,13.55,0,28.81V46.09A28.13,28.13,0,0,0,28.14,74.22h0A28.13,28.13,0,0,0,56.27,46.09v-18A28.14,28.14,0,0,0,28.14,0Z"/><path class="cls-1" d="M244.64,48.85V46.09h0A28.13,28.13,0,0,0,216.5,18h0a28.12,28.12,0,0,0-28.13,28.13h0v4.67h0V60.89h0V74.22H203V49.8h0V46.09a13.56,13.56,0,1,1,27.11,0V60.85h0V74.22h14.58V48.85Z"/><path class="cls-1" d="M292.85,46.09a13.56,13.56,0,0,1-27.11,0h27.11V31.51H265.74V0H251.16V46.09a28.12,28.12,0,0,0,28.13,28.13h0a28.13,28.13,0,0,0,28.14-28.13Z"/><path class="cls-1" d="M90.92,17.9h0a28,28,0,0,0-13.55,3.49V.05H62.79V46h0A28.13,28.13,0,0,0,90.92,74.17h0a28.14,28.14,0,1,0,0-56.27Zm0,41.7A13.56,13.56,0,1,1,104.48,46,13.58,13.58,0,0,1,90.92,59.6Z"/><path class="cls-1" d="M181.82,45.06a28.13,28.13,0,0,0-28.11-27.62h0a28.13,28.13,0,0,0-28.13,28.14h0a28.12,28.12,0,0,0,28.13,28.13h0V59.64h28.14V45.06ZM153.71,32a13.56,13.56,0,0,1,13.53,13H140.18A13.57,13.57,0,0,1,153.71,32Z"/><path class="cls-1" d="M342.08,18h0a28.14,28.14,0,0,0,0,56.27h0a28.14,28.14,0,1,0,0-56.27Zm0,41.69a13.56,13.56,0,1,1,13.56-13.55A13.58,13.58,0,0,1,342.08,59.64Z"/></svg>