<?xml version="1.0" encoding="utf-8"?>
<!-- Generator: Adobe Illustrator 23.1.1, SVG Export Plug-In . SVG Version: 6.00 Build 0)  -->
<svg version="1.1" id="Capa_1" xmlns="http://www.w3.org/2000/svg" xmlns:xlink="http://www.w3.org/1999/xlink" x="0px" y="0px"
	 viewBox="0 0 370.2 74.2" style="enable-background:new 0 0 370.2 74.2;" xml:space="preserve">
<style type="text/css">
	.st0{fill:#338D76;}
</style>
<title>obento_logo</title>
<path class="st0" d="M28.1,14.6c7.5,0,13.5,6.1,13.5,13.6v18c-0.2,7.5-6.4,13.4-13.9,13.2c-7.2-0.2-13-6-13.2-13.2V28.8
	c0-7.6,5.9-14,13-14.2L28.1,14.6 M28.1,0h-1C11.9,0.6,0,13.6,0,28.8v17.3c0,15.5,12.6,28.1,28.1,28.1c0,0,0,0,0,0l0,0
	c15.5,0,28.1-12.6,28.1-28.1l0,0v-18C56.2,12.6,43.7,0,28.1,0z"/>
<path class="st0" d="M244.6,48.8v-2.8l0,0c0-15.5-12.6-28.1-28.1-28.1l0,0c-15.5,0-28.1,12.6-28.1,28.1c0,0,0,0,0,0l0,0v4.7l0,0
	v10.1l0,0v13.3H203V49.8l0,0v-3.7c-0.2-7.5,5.7-13.7,13.2-13.9c7.5-0.2,13.7,5.7,13.9,13.2c0,0.2,0,0.5,0,0.7v14.8l0,0v13.4h14.6
	L244.6,48.8L244.6,48.8z"/>
<path class="st0" d="M292.9,46.1c-0.2,7.5-6.4,13.4-13.9,13.2c-7.2-0.2-13-6-13.2-13.2H292.9l0-14.6h-27.1V0h-14.6v46.1
	c0,15.5,12.6,28.1,28.1,28.1c0,0,0,0,0,0l0,0c15.5,0,28.1-12.6,28.1-28.1c0,0,0,0,0,0L292.9,46.1z"/>
<path class="st0" d="M90.9,17.9L90.9,17.9c-4.7,0-9.4,1.2-13.6,3.5V0.1H62.8v46l0,0c0,15.5,12.6,28.1,28.1,28.2c0,0,0,0,0,0l0,0
	c15.5,0.3,28.4-12.1,28.7-27.6S107.5,18.2,92,17.9C91.6,17.9,91.3,17.9,90.9,17.9z M90.9,59.6c-7.5,0-13.6-6.1-13.6-13.6
	s6.1-13.6,13.6-13.6c7.5,0,13.5,6,13.6,13.5C104.5,53.5,98.4,59.6,90.9,59.6C90.9,59.6,90.9,59.6,90.9,59.6z"/>
<path class="st0" d="M181.8,45.1c-0.3-15.3-12.8-27.6-28.1-27.6l0,0c-15.5,0-28.1,12.6-28.1,28.1c0,0,0,0,0,0l0,0
	c0,15.5,12.6,28.1,28.1,28.1c0,0,0,0,0,0l0,0V59.6h28.1L181.8,45.1L181.8,45.1z M153.7,32c7.3,0,13.2,5.7,13.5,13h-27.1
	C140.5,37.7,146.4,32,153.7,32z"/>
<path class="st0" d="M342.1,18L342.1,18c-15.5,0.3-27.9,13.1-27.6,28.7c0.3,15.1,12.5,27.3,27.6,27.6l0,0
	c15.5,0.3,28.4-12.1,28.7-27.6c0.3-15.5-12.1-28.4-27.6-28.7C342.8,18,342.4,18,342.1,18z M342.1,59.7c-7.5,0-13.6-6.1-13.6-13.6
	s6.1-13.6,13.6-13.6s13.6,6.1,13.6,13.6c0,0,0,0,0,0C355.6,53.6,349.5,59.6,342.1,59.7L342.1,59.7z"/>
</svg>
