<svg id="Capa_1" data-name="Capa 1" xmlns="http://www.w3.org/2000/svg" viewBox="0 0 45.08 45.1"><defs><style>.cls-1{fill:#f8f7f7;}</style></defs><title>obento_icon</title><path class="cls-1" d="M44.69,16.08h0A19.54,19.54,0,0,0,40,5.2l-.07-.07A19.47,19.47,0,0,0,29,.4,41.5,41.5,0,0,0,22.54,0,41.44,41.44,0,0,0,16.08.4,19.41,19.41,0,0,0,5.21,5.13l-.07.07A19.38,19.38,0,0,0,.4,16.08,41.39,41.39,0,0,0,0,22.54,41.5,41.5,0,0,0,.4,29,19.47,19.47,0,0,0,5.13,39.89L5.2,40A19.48,19.48,0,0,0,16.07,44.7a44.78,44.78,0,0,0,5.7.4h.77A42.84,42.84,0,0,0,29,44.7,19.42,19.42,0,0,0,39.88,40l.06-.06A19.33,19.33,0,0,0,44.67,29a39.92,39.92,0,0,0,.39-6.46A40.12,40.12,0,0,0,44.69,16.08ZM14.13,7.73a9,9,0,0,0-5.76,4.93,1.52,1.52,0,0,1-2,.76,1.52,1.52,0,0,1-.76-2,12,12,0,0,1,7.71-6.6,1.52,1.52,0,1,1,.81,2.92ZM6.43,19.27a1.52,1.52,0,0,1,1.94.92,8.94,8.94,0,0,0,5.38,5.39,1.52,1.52,0,0,1-.52,2.94,1.54,1.54,0,0,1-.52-.09,12,12,0,0,1-7.19-7.22A1.52,1.52,0,0,1,6.43,19.27Zm8.21-.21a2,2,0,0,1-1.19-.36,1.42,1.42,0,0,1-.58-1.19,1,1,0,0,1,1-1,.83.83,0,0,1,.8.42.41.41,0,0,1,.05.09,1.79,1.79,0,0,0,.38-.1,6.06,6.06,0,0,0,.77-.38,6.91,6.91,0,0,0,.82-.55,5.72,5.72,0,0,0,.51-.42,7.83,7.83,0,0,1,.44-2.26c.32-.82.78-1.23,1.37-1.23a1.36,1.36,0,0,1,1,.38,6.44,6.44,0,0,1,.58-1.39,4.31,4.31,0,0,1,1.07-1.3,2.43,2.43,0,0,1,1.57-.58A3.29,3.29,0,0,1,25,9.65a4.07,4.07,0,0,1,1.29,1.29,6.05,6.05,0,0,1,.77,1.9,10.29,10.29,0,0,1,.25,2.38,12.88,12.88,0,0,1-.18,2.17,11.21,11.21,0,0,1-.25,1.18,7.29,7.29,0,0,0,1.54-.45,6.5,6.5,0,0,0,2.08-1.35,1,1,0,0,1,.7-.3,1,1,0,0,1,.74.3,1,1,0,0,1,.3.74.92.92,0,0,1-.34.74A8.78,8.78,0,0,1,29.18,20a9.37,9.37,0,0,1-3.1.69,6.7,6.7,0,0,1-1.58,2.17,3.63,3.63,0,0,1-2.43,1,4.39,4.39,0,0,1-2.34-.64,4.61,4.61,0,0,1-1.65-1.9,6.26,6.26,0,0,1-.47-1.16c-.11-.38-.2-.77-.27-1.14s-.09-.59-.12-.87a5.84,5.84,0,0,1-.53.33,5.42,5.42,0,0,1-1,.43A3.47,3.47,0,0,1,14.64,19.06ZM31.3,25.58a9,9,0,0,0,5.38-5.39,1.51,1.51,0,0,1,1.94-.91,1.52,1.52,0,0,1,.91,1.94,12,12,0,0,1-7.19,7.21,1.58,1.58,0,0,1-.52.09,1.51,1.51,0,0,1-1.42-1A1.52,1.52,0,0,1,31.3,25.58ZM39,13.07a1.5,1.5,0,0,1-.64.15A1.52,1.52,0,0,1,37,12.35a8.9,8.9,0,0,0-5.83-4.84A1.52,1.52,0,0,1,32,4.57a12,12,0,0,1,7.81,6.48A1.52,1.52,0,0,1,39,13.07ZM37.76,37.78a16.46,16.46,0,0,1-9.15,3.91,36.16,36.16,0,0,1-6,.36h-.15a37.52,37.52,0,0,1-6-.36,16.52,16.52,0,0,1-9.16-3.91,16.45,16.45,0,0,1-3.9-9.17A43.42,43.42,0,0,1,3,23.41,15.48,15.48,0,0,0,6.2,28.67,17.89,17.89,0,0,0,16.25,33a38.62,38.62,0,0,0,6.28.38A38.62,38.62,0,0,0,28.81,33a17.8,17.8,0,0,0,10.05-4.35A15.51,15.51,0,0,0,42,23.41a43.55,43.55,0,0,1-.38,5.21A16.31,16.31,0,0,1,37.76,37.78Z"/><path class="cls-1" d="M19,35.45a.89.89,0,0,0-.89.88v2.08a.89.89,0,1,0,1.77,0V36.33A.89.89,0,0,0,19,35.45Z"/><path class="cls-1" d="M26.09,35.45a.88.88,0,0,0-.88.88v2.08a.88.88,0,1,0,1.76,0V36.33A.88.88,0,0,0,26.09,35.45Z"/><path class="cls-1" d="M22.65,17.31a3.64,3.64,0,0,0,1.09.88,3.5,3.5,0,0,0,1,.33,11.09,11.09,0,0,0,.32-1.35,10.72,10.72,0,0,0,.18-2,9.24,9.24,0,0,0-.13-1.57,4.91,4.91,0,0,0-.4-1.31,2.39,2.39,0,0,0-.66-.85,1.25,1.25,0,0,0-.82-.27.59.59,0,0,0-.33.17,2.8,2.8,0,0,0-.54.71,5.4,5.4,0,0,0-.45,1.16,5.67,5.67,0,0,0-.17,1.38A4.68,4.68,0,0,0,22,16.09,3.75,3.75,0,0,0,22.65,17.31Z"/><path class="cls-1" d="M19.72,19.93a2.4,2.4,0,0,0,2.35,1.85,1.31,1.31,0,0,0,.69-.19,3.05,3.05,0,0,0,.69-.54,4.59,4.59,0,0,0,.48-.61A5.34,5.34,0,0,1,22.74,20a5.12,5.12,0,0,1-1.63-1.29,6,6,0,0,1-1.06-1.83,6.26,6.26,0,0,1-.29-1.17,7.88,7.88,0,0,1-.55.74v.41a12.33,12.33,0,0,0,.11,1.51A6.79,6.79,0,0,0,19.72,19.93Z"/></svg>