<?xml version="1.0" encoding="utf-8"?>
<!-- Generator: Adobe Illustrator 23.1.1, SVG Export Plug-In . SVG Version: 6.00 Build 0)  -->
<svg version="1.1" id="Capa_1" xmlns="http://www.w3.org/2000/svg" xmlns:xlink="http://www.w3.org/1999/xlink" x="0px" y="0px"
	 viewBox="0 0 45.1 45.1" style="enable-background:new 0 0 45.1 45.1;" xml:space="preserve">
<style type="text/css">
	.st0{fill:#111111;}
</style>
<title>obento_icon_dark</title>
<path class="st0" d="M44.7,16.1L44.7,16.1c-0.4-4-2-7.8-4.7-10.9l-0.1-0.1C36.9,2.5,33,0.8,29,0.4C26.9,0.1,24.7,0,22.5,0
	c-2.2,0-4.3,0.1-6.5,0.4c-4,0.4-7.8,2.1-10.9,4.7L5.1,5.2c-2.7,3-4.3,6.8-4.7,10.9C0.1,18.2,0,20.4,0,22.5c0,2.2,0.1,4.3,0.4,6.5
	c0.4,4,2.1,7.8,4.7,10.9L5.2,40c3,2.7,6.8,4.3,10.9,4.7c1.9,0.3,3.8,0.4,5.7,0.4h0.8c2.2,0,4.3-0.1,6.5-0.4c4-0.4,7.8-2,10.9-4.7
	l0.1-0.1c2.7-3.1,4.3-6.9,4.7-10.9c0.3-2.1,0.4-4.3,0.4-6.5C45.1,20.4,45,18.2,44.7,16.1z M14.1,7.7c-2.6,0.7-4.7,2.5-5.8,4.9
	c-0.3,0.8-1.2,1.1-2,0.8c-0.8-0.3-1.1-1.2-0.8-2c1.5-3.2,4.3-5.6,7.7-6.6c0.8-0.3,1.7,0.1,1.9,0.9s-0.1,1.7-0.9,1.9
	C14.3,7.7,14.2,7.7,14.1,7.7L14.1,7.7z M6.4,19.3c0.8-0.3,1.7,0.1,1.9,0.9c0.9,2.5,2.9,4.5,5.4,5.4c0.8,0.3,1.2,1.2,0.9,2
	c-0.2,0.6-0.8,1-1.4,1c-0.2,0-0.4,0-0.5-0.1c-3.4-1.2-6-3.9-7.2-7.2C5.2,20.4,5.6,19.6,6.4,19.3z M14.6,19.1c-0.4,0-0.8-0.1-1.2-0.4
	c-0.4-0.3-0.6-0.7-0.6-1.2c0-0.6,0.4-1,1-1c0.3,0,0.6,0.1,0.8,0.4c0,0,0,0.1,0.1,0.1c0.1,0,0.3-0.1,0.4-0.1c0.3-0.1,0.5-0.2,0.8-0.4
	c0.3-0.2,0.6-0.3,0.8-0.6c0.2-0.1,0.3-0.3,0.5-0.4c0-0.8,0.2-1.5,0.4-2.3c0.3-0.8,0.8-1.2,1.4-1.2c0.4,0,0.7,0.1,1,0.4
	c0.1-0.5,0.3-1,0.6-1.4c0.3-0.5,0.6-0.9,1.1-1.3c0.4-0.4,1-0.6,1.6-0.6c0.6,0,1.2,0.1,1.8,0.5c0.5,0.3,1,0.8,1.3,1.3
	c0.4,0.6,0.6,1.2,0.8,1.9c0.2,0.8,0.3,1.6,0.2,2.4c0,0.7-0.1,1.5-0.2,2.2c-0.1,0.4-0.1,0.8-0.2,1.2c0.5-0.1,1-0.2,1.5-0.5
	c0.8-0.3,1.5-0.8,2.1-1.4c0.2-0.2,0.4-0.3,0.7-0.3c0.3,0,0.5,0.1,0.7,0.3c0.2,0.2,0.3,0.5,0.3,0.7c0,0.3-0.1,0.6-0.3,0.7
	c-0.8,0.7-1.7,1.3-2.7,1.8c-1,0.4-2,0.6-3.1,0.7c-0.4,0.8-0.9,1.6-1.6,2.2c-0.7,0.6-1.5,1-2.4,1c-0.8,0-1.6-0.2-2.3-0.6
	c-0.7-0.5-1.3-1.1-1.6-1.9c-0.2-0.4-0.4-0.8-0.5-1.2c-0.1-0.4-0.2-0.8-0.3-1.1s-0.1-0.6-0.1-0.9c-0.2,0.1-0.3,0.2-0.5,0.3
	c-0.3,0.2-0.7,0.3-1,0.4C15.3,19,15,19.1,14.6,19.1z M31.3,25.6c2.5-0.9,4.5-2.9,5.4-5.4c0.3-0.8,1.1-1.2,1.9-0.9c0,0,0,0,0,0
	c0.8,0.3,1.2,1.2,0.9,1.9c-1.2,3.4-3.8,6-7.2,7.2c-0.2,0.1-0.3,0.1-0.5,0.1c-0.6,0-1.2-0.4-1.4-1C30.1,26.7,30.5,25.9,31.3,25.6z
	 M39,13.1c-0.2,0.1-0.4,0.1-0.6,0.1c-0.6,0-1.1-0.3-1.4-0.9c-1.1-2.4-3.3-4.2-5.8-4.8c-0.8-0.2-1.3-1.1-1.1-1.9s1.1-1.3,1.9-1.1
	c3.4,0.9,6.3,3.3,7.8,6.5C40.1,11.8,39.8,12.7,39,13.1C39,13.1,39,13.1,39,13.1z M37.8,37.8c-2.6,2.2-5.8,3.6-9.1,3.9
	c-2,0.3-4,0.4-6,0.4h-0.1c-2,0-4-0.1-6-0.4c-3.4-0.3-6.6-1.7-9.2-3.9c-2.2-2.6-3.6-5.8-3.9-9.2C3.2,26.9,3,25.1,3,23.4
	c0.7,1.9,1.8,3.7,3.2,5.3c2.8,2.5,6.3,4,10.1,4.3c2.1,0.3,4.2,0.4,6.3,0.4c2.1,0,4.2-0.1,6.3-0.4c3.7-0.4,7.2-1.9,10.1-4.4
	c1.4-1.5,2.5-3.3,3.1-5.2c0,1.7-0.1,3.5-0.4,5.2C41.3,32,40,35.2,37.8,37.8z"/>
<path class="st0" d="M19,35.5c-0.5,0-0.9,0.4-0.9,0.9v2.1c-0.1,0.5,0.3,0.9,0.8,1c0.5,0.1,0.9-0.3,1-0.8c0-0.1,0-0.1,0-0.2v-2.1
	C19.9,35.8,19.5,35.5,19,35.5z"/>
<path class="st0" d="M26.1,35.5c-0.5,0-0.9,0.4-0.9,0.9l0,0v2.1c0,0.5,0.4,0.9,0.9,0.9c0.5,0,0.9-0.4,0.9-0.9v-2.1
	C27,35.8,26.6,35.5,26.1,35.5L26.1,35.5z"/>
<path class="st0" d="M22.6,17.3c0.3,0.4,0.7,0.7,1.1,0.9c0.3,0.2,0.7,0.3,1,0.3c0.1-0.4,0.2-0.9,0.3-1.4c0.1-0.7,0.2-1.3,0.2-2
	c0-0.5,0-1.1-0.1-1.6c-0.1-0.5-0.2-0.9-0.4-1.3c-0.2-0.3-0.4-0.6-0.7-0.9c-0.2-0.2-0.5-0.3-0.8-0.3c-0.1,0-0.2,0.1-0.3,0.2
	c-0.2,0.2-0.4,0.4-0.5,0.7c-0.2,0.4-0.3,0.8-0.5,1.2c-0.1,0.5-0.2,0.9-0.2,1.4c0,0.5,0.1,1,0.3,1.5C22.1,16.5,22.4,16.9,22.6,17.3z"
	/>
<path class="st0" d="M19.7,19.9c0.3,1.1,1.2,1.9,2.4,1.9c0.2,0,0.5-0.1,0.7-0.2c0.3-0.1,0.5-0.3,0.7-0.5c0.2-0.2,0.3-0.4,0.5-0.6
	c-0.4-0.1-0.8-0.2-1.2-0.4c-0.6-0.3-1.2-0.8-1.6-1.3c-0.5-0.5-0.8-1.2-1.1-1.8c-0.1-0.4-0.2-0.8-0.3-1.2c-0.2,0.3-0.4,0.5-0.5,0.7
	v0.4c0,0.5,0,1,0.1,1.5C19.4,18.9,19.5,19.4,19.7,19.9z"/>
</svg>
