<svg id="Capa_1" data-name="Capa 1" xmlns="http://www.w3.org/2000/svg" viewBox="0 0 400 300"><defs><style>.cls-1{fill:#68a390;}.cls-1,.cls-10,.cls-11,.cls-12,.cls-13,.cls-14,.cls-15,.cls-16,.cls-17,.cls-18,.cls-19,.cls-2,.cls-20,.cls-21,.cls-22,.cls-3,.cls-4,.cls-5,.cls-6,.cls-7,.cls-8,.cls-9{fill-rule:evenodd;}.cls-2{fill:#e9f1ed;}.cls-3{fill:#c98b75;}.cls-4{fill:#e4ae91;}.cls-5{fill:#59afe3;}.cls-6{fill:#3e3d3c;}.cls-7{fill:#b67a65;}.cls-8{fill:#492413;}.cls-9{fill:#fff;}.cls-10{fill:#ceb9a7;}.cls-11{fill:#734434;}.cls-12{fill:#b9a083;}.cls-13{fill:#dab418;}.cls-14{fill:#fae104;}.cls-15{fill:#fdea7a;}.cls-16{fill:#9cb4c3;}.cls-17{fill:#e3a419;}.cls-18{fill:#c78a25;}.cls-19{fill:#ae8153;}.cls-20{fill:#c19262;}.cls-21{fill:#cba476;}.cls-22{fill:#a0783d;}</style></defs><title>new_recipe_final_illustration_2</title><path class="cls-1" d="M49.76,299H342.63a6.87,6.87,0,0,0,6.84-6.85h0a6.86,6.86,0,0,0-6.84-6.85h-7.78a3.15,3.15,0,0,1-3.14-3.14h0a3.15,3.15,0,0,1,3.14-3.15h34.68a6.86,6.86,0,0,0,6.85-6.84h0a6.87,6.87,0,0,0-6.85-6.85H29.77a6.87,6.87,0,0,0-6.85,6.85h0A6.86,6.86,0,0,0,29.77,279H54.3a3.16,3.16,0,0,1,3.14,3.15h0a3.16,3.16,0,0,1-3.14,3.14H49.76a6.86,6.86,0,0,0-6.84,6.85h0A6.87,6.87,0,0,0,49.76,299Z"/><path class="cls-1" d="M357.65,278.06A6.38,6.38,0,0,0,364,271.7h0a6.38,6.38,0,0,0-6.37-6.36H65.25a6.38,6.38,0,0,0-6.37,6.36h0a6.38,6.38,0,0,0,6.37,6.36Z"/><path class="cls-2" d="M330.39,265.34a46.83,46.83,0,0,0,46.69-46.69h0A46.83,46.83,0,0,0,330.39,172h0a19.79,19.79,0,0,1-19.74-19.74h0a19.8,19.8,0,0,1,19.74-19.74h2.35A20.58,20.58,0,0,0,353.27,112h0a20.58,20.58,0,0,0-20.53-20.52h-43a8,8,0,0,1-8-8h0a8,8,0,0,1,8-8H295a5.53,5.53,0,0,0,5.51-5.51h0A5.53,5.53,0,0,0,295,64.43H260.28c-7.32,0-8.14,8.64-26.63,8.64H98.94a7.21,7.21,0,0,0-7.19,7.2h0a7.21,7.21,0,0,0,7.19,7.19h6.91a10.46,10.46,0,0,1,10.43,10.43h0a10.46,10.46,0,0,1-10.43,10.43H69A26.87,26.87,0,0,0,42.17,135.1h0A26.87,26.87,0,0,0,69,161.88h.85a25.83,25.83,0,0,1,25.76,25.75h0a25.83,25.83,0,0,1-25.76,25.76H59.15a26.05,26.05,0,0,0-26,26h0a26.05,26.05,0,0,0,26,26ZM310.5,75.45A5.51,5.51,0,1,1,316,69.94,5.51,5.51,0,0,1,310.5,75.45Z"/><path class="cls-3" d="M58.12,88.86a48.46,48.46,0,0,1,8.23,19.87s12,.32,12.52,0,1.62-14.86,1-16.24S58.12,88.86,58.12,88.86Z"/><path class="cls-4" d="M73.29,99c3.86-1.64,7.93-3.46,10.66-4.78,6.15-2.94-.6-6.62-.6-6.47,3.75-3.11,2.62-7.41-1.83-8.54,2.79-5.17-2.07-7.76-3.73-6.79,2.94-3.12-.12-8.09-3.21-6.78L63,70.53s-2.57-6.59-4.94-9.8c-2.56-3.46-5.39,8.53-4.9,15.75C54,87.74,63.21,99.38,73.29,99Z"/><path class="cls-3" d="M78.19,72.9a.77.77,0,0,0,.39-1,.75.75,0,0,0-1-.38L68.92,75.4a.77.77,0,0,0-.39,1,.76.76,0,0,0,1,.38Z"/><path class="cls-3" d="M81.51,80.26a.76.76,0,0,0,.38-1,.77.77,0,0,0-1-.38l-8.65,3.9a.76.76,0,0,0,.63,1.39Z"/><path class="cls-3" d="M83.45,88.25a.77.77,0,0,0,.38-1,.75.75,0,0,0-1-.38l-7.27,3.27a.76.76,0,1,0,.62,1.39Z"/><path class="cls-3" d="M329.4,49.21a167.11,167.11,0,0,0,1,29.39L315.68,77s-5-3.56-5-6S329.4,49.21,329.4,49.21Z"/><path class="cls-5" d="M231,159.81c18.27,4.58,45.5,5,61.93.12,43.12-12.73,49.3-57.34,37.85-96.16l-27.15,8.72c5.86,19.87,2.78,51.72-19.4,58.26-11.08,3.27-39-4.89-55.53-8.22Z"/><path class="cls-5" d="M168.76,118.76c-22.31,4.23-38.6,14-48.48,14.49a25.39,25.39,0,0,1-11.94-2,20.91,20.91,0,0,1-8.4-7.26c-4-5.83-6.6-14.39-7.15-25.72L62.41,99.72c.85,17.34,5.32,31.25,12.53,41.64a50.68,50.68,0,0,0,20.5,17.43,55.51,55.51,0,0,0,26.33,4.83c15.52-.75,27-8.44,52.12-12.75Z"/><path class="cls-5" d="M155.67,248.71c-.1-.24,1.69-36.48,3.86-60.91.66-7.42,2.76-36.27-.33-41.34-8.53-14,6.3-11.47,7-12.43,17.92-26.42,51.09-23.51,65.91-3.69.63.85,9.83,5.41,8.81,11.54-1.81,10.89-3.9,23.35-2.25,38.87,1.44,13.64-9.92-1.61.17,52.21,1.94,10.34,4.11,15.94,3.24,16.69C241.86,249.79,156.48,250.74,155.67,248.71Z"/><path class="cls-3" d="M216.19,119.45c0,.07-.63,4.92-.88,6.91-1.53,12-10.77,17.48-16.16,18.07-10.76,1.18-18.27-22.94-20.7-32.3Z"/><path class="cls-6" d="M164.63,120.11c3.49,16.8,4.5,40.23,1.56,49.6s-9.53,9.9-9.53,9.9l-6.58,71.53h98.64l-11.11-72.5s-5.61-.64-8.55-10,1.62-29.89,5.11-46.69l-10.67-3.06-7,30.56c-1.48,6.86-9.35,7.13-17.08,7.19s-15.6-2.16-17.08-9l-7-30.57Z"/><path class="cls-4" d="M199.4,131.44a34.48,34.48,0,0,0,6.85-.68c7.87-1.67,30.94-10.73,34-30.52,2-12.9,3.94-38.5,3.34-54.73C241.91-1,156.88-.4,155.18,45.15c-.61,16.21,1.91,42.09,3.94,55.09,3.1,19.79,25.56,28.85,33.42,30.52A34.67,34.67,0,0,0,199.4,131.44Z"/><path class="cls-7" d="M157.25,34.72a32.62,32.62,0,0,0-2.07,10.43c-.13,3.29-.12,7,0,10.87a42.86,42.86,0,0,0,2.69,6.24A39.41,39.41,0,0,1,166.41,53l-.24-5.65c2.86,1.18,56.75,2.44,63.31-2.26l.41,7.91a39.41,39.41,0,0,1,8.56,9.29c12.68-24.31-6.7-34.33-6.7-34.33l-33.6,6.14-33.6-6.14A22.57,22.57,0,0,0,157.25,34.72Z"/><path class="cls-8" d="M182.78,57.35C173,55.63,167.5,58,167.5,58l17.64,6.64S187.4,57.67,182.78,57.35Z"/><path class="cls-8" d="M216.93,56.36c9.2-.4,13.91,2.68,13.91,2.68l-17.06,4.27S212.66,56.07,216.93,56.36Z"/><path class="cls-8" d="M177.79,68.65c3.26,0,5.9,3.4,5.9,7.59s-2.64,7.59-5.9,7.59-5.9-3.4-5.9-7.59S174.53,68.65,177.79,68.65Z"/><path class="cls-9" d="M179.26,71a1.72,1.72,0,1,1-1.72,1.72A1.72,1.72,0,0,1,179.26,71Z"/><path class="cls-8" d="M220.7,68.65c3.26,0,5.9,3.4,5.9,7.59s-2.64,7.59-5.9,7.59-5.9-3.4-5.9-7.59S217.44,68.65,220.7,68.65Z"/><path class="cls-9" d="M222.7,70.73A1.72,1.72,0,1,1,221,72.45,1.72,1.72,0,0,1,222.7,70.73Z"/><path class="cls-4" d="M155.57,74.26c-2.06-3.25-4.71-5.67-7.15-6.24-6.25-1.46-8.65,4.17-7.1,10.52,2.26,9.22,12,18.29,17.71,11C162.36,85.22,155.57,74.26,155.57,74.26Z"/><path class="cls-7" d="M153.54,76.51c-1.25-2-2.86-3.44-4.33-3.79-3.8-.88-5.26,2.53-4.32,6.38,1.37,5.6,7.3,11.11,10.75,6.67C157.67,83.17,153.54,76.51,153.54,76.51Z"/><path class="cls-4" d="M242.26,74.18A15,15,0,0,1,250.37,68c6.26-1.46,8.66,4.17,7.1,10.52-2.26,9.22-12,18.29-17.7,11C236.43,85.22,242.26,74.18,242.26,74.18Z"/><path class="cls-7" d="M246.05,76.69c1.25-2,2.86-3.44,4.34-3.79,3.8-.88,5.25,2.53,4.31,6.38-1.37,5.6-7.3,11.11-10.75,6.67C241.93,83.34,246.05,76.69,246.05,76.69Z"/><path class="cls-7" d="M192.13,94.85h14.54S200,104.54,192.13,94.85Z"/><path class="cls-8" d="M187.6,125.42h23.6S200.38,141.56,187.6,125.42Z"/><path class="cls-9" d="M184,103.31c7.59,1.13,29.88.32,29.88.32s-3.62,13.46-18,11.59A14.69,14.69,0,0,1,184,103.31Z"/><path class="cls-8" d="M157.17,88.64C153,75.16,144.89,46.52,153.62,24c5.25-13.55,23-22.26,42-23,12.53-.47,25.58,2.56,35.86,10,25.85,18.7,10.66,79.75,10.66,79.75s-.24-16.24-3.65-28.7c-.76-2.76-6.89-4.73-7.33-7a45.61,45.61,0,0,1-.55-13.23c-3.41,2.24-61.84,5-66.7,1.85l.7,8.9-5.39,7Z"/><path class="cls-10" d="M67.74,79.39a1.52,1.52,0,0,1,2.9-.92c5.41,17,28.18,54.18,59.8,78.52,20.53,15.8,44.75,26.13,70.3,21.88,64.87-10.82,102.07-102.73,113.11-130l.1-.24a1.52,1.52,0,1,1,2.82,1.15l-.1.24C305.49,77.64,267.8,170.78,201.24,181.87c-26.51,4.42-51.53-6.21-72.65-22.47C96.45,134.67,73.27,96.76,67.74,79.39Z"/><path class="cls-10" d="M67.73,81.1a1.52,1.52,0,0,1,2.92-.87c5.42,18,28.19,57.4,59.82,83.17,20.52,16.71,44.73,27.65,70.27,23.15C265.59,175.1,302.8,77.79,313.84,48.92l.09-.26a1.53,1.53,0,0,1,2.85,1.09l-.1.25c-11.17,29.24-48.86,127.81-115.42,139.55-26.54,4.68-51.57-6.57-72.71-23.79C96.42,139.58,73.25,99.48,67.73,81.1Z"/><path class="cls-10" d="M67.4,68.83A1.53,1.53,0,0,1,70.33,68c5.42,18,28.19,57.39,59.82,83.16,20.52,16.71,44.73,27.65,70.26,23.15,64.86-11.44,102.06-108.76,113.1-137.63l.1-.25a1.52,1.52,0,1,1,2.85,1.08l-.1.26C305.18,67,267.5,165.53,200.93,177.28c-26.54,4.68-51.57-6.58-72.7-23.79C96.1,127.3,72.93,87.21,67.4,68.83Z"/><path class="cls-10" d="M67.39,74a1.52,1.52,0,0,1,3-.75c5.43,21.06,28.23,67,59.9,97.14,20.49,19.47,44.67,32.22,70.13,27C265.21,184,302.44,70.45,313.49,36.76l.1-.3a1.52,1.52,0,1,1,2.89.94l-.09.3c-11.18,34.07-48.84,149-115.41,162.65-26.62,5.48-51.68-7.66-72.84-27.76C96,142.1,72.91,95.4,67.39,74Z"/><path class="cls-10" d="M71.19,82a1.17,1.17,0,0,1,1-1.5,1.55,1.55,0,0,1,1.85.77c5.26,13.39,27.4,42.62,58.15,61.77,20,12.42,43.5,20.54,68.34,17.2,63.07-8.51,99.24-80.8,110-102.24l.09-.19a1.62,1.62,0,0,1,1.93-.66,1.13,1.13,0,0,1,.82,1.56l-.1.19c-10.87,21.73-47.52,95-112.22,103.7-25.78,3.48-50.1-4.89-70.64-17.67C99.1,125.46,76.57,95.65,71.19,82Z"/><path class="cls-10" d="M71.18,83.34a1.19,1.19,0,0,1,1-1.5,1.56,1.56,0,0,1,1.84.81c5.27,14.18,27.41,45.14,58.17,65.41,19.94,13.15,43.48,21.75,68.3,18.21,63.06-9,99.23-85.54,110-108.25l.1-.2a1.6,1.6,0,0,1,1.91-.69,1.14,1.14,0,0,1,.86,1.54l-.09.21C302.36,81.87,265.72,159.4,201,168.63c-25.8,3.68-50.13-5.17-70.68-18.71C99.08,129.33,76.55,97.79,71.18,83.34Z"/><path class="cls-10" d="M70.87,73.68a1.17,1.17,0,0,1,1-1.49,1.57,1.57,0,0,1,1.85.81c5.26,14.18,27.41,45.14,58.17,65.41,19.93,13.14,43.48,21.74,68.3,18.2,63.05-9,99.23-85.54,110-108.24l.09-.2a1.63,1.63,0,0,1,1.92-.7A1.15,1.15,0,0,1,313,49l-.1.2C302,72.22,265.4,149.74,200.69,159c-25.8,3.69-50.14-5.16-70.68-18.7C98.76,119.67,76.24,88.14,70.87,73.68Z"/><path class="cls-10" d="M70.85,77.75a1.21,1.21,0,0,1,1.07-1.45,1.53,1.53,0,0,1,1.8.86C79,93.72,101.17,129.89,132,153.56c19.92,15.31,43.43,25.34,68.18,21.22,63-10.49,99.24-99.82,110-126.32l.09-.24a1.58,1.58,0,0,1,1.87-.77A1.17,1.17,0,0,1,313,49l-.1.24C302.07,76,265.46,166.35,200.73,177.12c-25.87,4.31-50.25-6-70.81-21.83C98.71,131.31,76.22,94.58,70.85,77.75Z"/><path class="cls-4" d="M309.35,70.63c-3.73-1.92-7.66-4-10.29-5.54-5.91-3.39,1.08-6.56,1.07-6.42-3.51-3.37-2.08-7.58,2.45-8.37-2.41-5.37,2.63-7.6,4.21-6.5-2.71-3.33.71-8.07,3.7-6.54L321.64,43s3-6.39,5.64-9.42c2.8-3.26,4.75,8.9,3.74,16.07C329.43,60.79,319.37,71.73,309.35,70.63Z"/><path class="cls-3" d="M306.35,44.23a.76.76,0,0,1-.31-1,.78.78,0,0,1,1-.32l8.35,4.52a.76.76,0,0,1-.73,1.34Z"/><path class="cls-3" d="M302.51,51.33a.76.76,0,0,1-.31-1,.77.77,0,0,1,1-.31l8.34,4.51a.77.77,0,0,1,.31,1,.76.76,0,0,1-1,.31Z"/><path class="cls-3" d="M300,59.16a.77.77,0,0,1-.31-1,.76.76,0,0,1,1-.3l7,3.79a.76.76,0,0,1,.31,1,.77.77,0,0,1-1,.31Z"/><path class="cls-11" d="M162.2,29.5c16.14,7.38,35.13,8.14,53.2,5.21a151,151,0,0,0,19.71-4.38c1.35-.41,2.55-.8,3.62-1.18,1.69-.6,3.05-1.15,4.14-1.63-2.17-6.28-5.48-11.77-10.33-15.68a86.44,86.44,0,0,1-8.86,4.28c-17.31,7.22-38.63,9.91-55.79,4.5a48.7,48.7,0,0,1-9.65-4.21A26,26,0,0,0,153.62,24c-.08.2-.16.4-.23.6a63.11,63.11,0,0,0,7,4Q161.27,29.08,162.2,29.5Z"/><path class="cls-9" d="M212.78,161.63a2.43,2.43,0,1,0,2.42,2.42A2.42,2.42,0,0,0,212.78,161.63Z"/><path class="cls-9" d="M218,170.68a1.62,1.62,0,1,0,1.61,1.61A1.62,1.62,0,0,0,218,170.68Z"/><path class="cls-9" d="M219.73,176.65a2.1,2.1,0,1,1-2.1,2.1A2.1,2.1,0,0,1,219.73,176.65Z"/><path class="cls-9" d="M194.77,163.57a1.54,1.54,0,1,1-1.53,1.53A1.52,1.52,0,0,1,194.77,163.57Z"/><path class="cls-9" d="M183.87,164.7a1.29,1.29,0,1,1-1.29,1.29A1.29,1.29,0,0,1,183.87,164.7Z"/><path class="cls-9" d="M200,177.62a1.78,1.78,0,1,1-1.78,1.78A1.78,1.78,0,0,1,200,177.62Z"/><path class="cls-9" d="M202.85,166.48a1.21,1.21,0,1,1-1.22,1.21A1.21,1.21,0,0,1,202.85,166.48Z"/><path class="cls-9" d="M232.73,175.36a2.34,2.34,0,1,0,2.34,2.34A2.34,2.34,0,0,0,232.73,175.36Z"/><path class="cls-9" d="M147,166.64a1.94,1.94,0,1,1-1.94,1.93A1.92,1.92,0,0,1,147,166.64Z"/><path class="cls-9" d="M284.9,114.28a.89.89,0,1,1,.39,1.2A.88.88,0,0,1,284.9,114.28Z"/><path class="cls-9" d="M287,120.37a1.49,1.49,0,1,1,.65,2A1.49,1.49,0,0,1,287,120.37Z"/><path class="cls-9" d="M291.28,109.38a1.46,1.46,0,1,1,.64,2A1.46,1.46,0,0,1,291.28,109.38Z"/><path class="cls-9" d="M270.73,112.75A1.65,1.65,0,1,0,273,112,1.66,1.66,0,0,0,270.73,112.75Z"/><path class="cls-9" d="M264.28,123.83a.73.73,0,1,1,.32,1A.73.73,0,0,1,264.28,123.83Z"/><path class="cls-9" d="M265.17,134.56a1.33,1.33,0,0,1,2.37,1.21,1.33,1.33,0,1,1-2.37-1.21Z"/><path class="cls-9" d="M267.07,141a1.33,1.33,0,1,1,.59,1.79A1.34,1.34,0,0,1,267.07,141Z"/><path class="cls-9" d="M269.66,126.61a1.25,1.25,0,1,1,.55,1.68A1.25,1.25,0,0,1,269.66,126.61Z"/><path class="cls-9" d="M285.79,93.45a1.29,1.29,0,0,1,2.31,1.17,1.29,1.29,0,1,1-2.31-1.17Z"/><path class="cls-9" d="M281.87,124.16a.57.57,0,0,1,1,.52.58.58,0,0,1-.76.24A.56.56,0,0,1,281.87,124.16Z"/><path class="cls-9" d="M107,137.22a.89.89,0,1,0-.39,1.2A.9.9,0,0,0,107,137.22Z"/><path class="cls-9" d="M104.89,143.31a1.49,1.49,0,1,0-.65,2A1.47,1.47,0,0,0,104.89,143.31Z"/><path class="cls-9" d="M100.58,132.32A1.45,1.45,0,1,0,98,133.64a1.45,1.45,0,0,0,2.59-1.32Z"/><path class="cls-9" d="M121.13,135.68a1.66,1.66,0,1,1-2.22-.72A1.65,1.65,0,0,1,121.13,135.68Z"/><path class="cls-9" d="M127.58,146.76a.72.72,0,1,0-.32,1A.73.73,0,0,0,127.58,146.76Z"/><path class="cls-9" d="M126.7,157.5a1.33,1.33,0,1,0-.59,1.79A1.34,1.34,0,0,0,126.7,157.5Z"/><path class="cls-9" d="M124.79,163.91a1.33,1.33,0,1,0-.58,1.79A1.33,1.33,0,0,0,124.79,163.91Z"/><path class="cls-9" d="M122.2,149.55a1.25,1.25,0,1,0-.55,1.68A1.25,1.25,0,0,0,122.2,149.55Z"/><path class="cls-9" d="M106.07,116.39a1.29,1.29,0,1,0-.56,1.74A1.29,1.29,0,0,0,106.07,116.39Z"/><path class="cls-9" d="M110,147.1a.56.56,0,1,0-.24.76A.55.55,0,0,0,110,147.1Z"/><path class="cls-12" d="M252,230.68c-10.66-1.61-29.72-.32-54.92,4.53s-36.18,4.84-36.18,4.84,94.33,6.14,99.83,1.3S252,230.68,252,230.68Z"/><path class="cls-10" d="M117,243.61c21-18.42,12.59-13.9,51.36-9.05s56.54,5.82,70.75,1,13.89-8.4,26.17,3.55,14.21,12.6,12.27,12S94.06,254.59,117,243.61Z"/><path class="cls-9" d="M130,237a.57.57,0,0,1,.56.57.56.56,0,0,1-.56.56.57.57,0,0,1-.57-.56A.58.58,0,0,1,130,237Zm29.15-10.42a1.3,1.3,0,1,1-1.29,1.3,1.29,1.29,0,0,1,1.29-1.3Zm38.93-.48a1.94,1.94,0,1,1-1.94,1.94,1.94,1.94,0,0,1,1.94-1.94Zm85.69,8.72a2.35,2.35,0,1,0,2.35,2.34,2.34,2.34,0,0,0-2.35-2.34Zm-29.88-8.88a1.21,1.21,0,1,1-1.21,1.21,1.21,1.21,0,0,1,1.21-1.21Zm-2.83,11.14a1.78,1.78,0,1,1-1.77,1.78,1.78,1.78,0,0,1,1.77-1.78Zm-16.15-12.92a1.3,1.3,0,1,1-1.29,1.29,1.29,1.29,0,0,1,1.29-1.29Zm10.9-1.13a1.54,1.54,0,1,1-1.53,1.54,1.54,1.54,0,0,1,1.53-1.54Zm25,13.08a2.1,2.1,0,1,1-2.1,2.1,2.11,2.11,0,0,1,2.1-2.1Zm-1.78-6a1.62,1.62,0,1,0,1.62,1.61,1.61,1.61,0,0,0-1.62-1.61Zm-5.17-9.05a2.43,2.43,0,1,0,2.43,2.43,2.43,2.43,0,0,0-2.43-2.43Zm-141.53,6.14a1.25,1.25,0,1,1-1.26,1.25,1.25,1.25,0,0,1,1.26-1.25Zm-14,4.2a1.34,1.34,0,1,1-1.33,1.33,1.34,1.34,0,0,1,1.33-1.33Zm4.85-4.6a1.33,1.33,0,1,1,0,2.66,1.33,1.33,0,1,1,0-2.66Zm9.17-5.66a.73.73,0,1,1-.73.73.73.73,0,0,1,.73-.73Zm12.79.73a1.66,1.66,0,1,0,1.66,1.66,1.65,1.65,0,0,0-1.66-1.66Zm12.32,16.8a1.46,1.46,0,1,1-1.45,1.45,1.45,1.45,0,0,1,1.45-1.45Zm-11.75,1.13a1.5,1.5,0,1,1-1.49,1.49,1.5,1.5,0,0,1,1.49-1.49Zm4.48-4.6a.89.89,0,1,1-.88.88A.88.88,0,0,1,140.17,235.21Z"/><path class="cls-9" d="M324,257c6.79,0,12.32-2.65,12.32-5.89s-5.53-5.9-12.32-5.9-12.32,2.65-12.32,5.9S317.19,257,324,257Z"/><path class="cls-9" d="M314.38,183l14.9,2.86v17.62c0,8.24-.17,8,6.61,11.73,6.11,3.37,10.16,9.24,10.16,15.93,0,10.44-9.88,18.91-22.07,18.91s-22.06-8.47-22.06-18.91c0-7.14,4.61-13.35,11.42-16.57C323.27,209.91,320,190.16,314.38,183Z"/><path class="cls-13" d="M305.07,224.73a15.35,15.35,0,0,0-1.43,6.45c0,9.63,9.11,17.44,20.34,17.44s20.35-7.81,20.35-17.44a15.21,15.21,0,0,0-1.44-6.45Z"/><path class="cls-14" d="M305.07,224.73a15.35,15.35,0,0,0-1.43,6.45c0,8.45,7,15.49,16.3,17.09a20.71,20.71,0,0,0,16.65-20.5,21.86,21.86,0,0,0-.21-3Z"/><path class="cls-9" d="M326.21,202a9.57,9.57,0,0,1,6-5.15,8,8,0,0,1,3.1-.18,8.53,8.53,0,0,1,2.84.92,8.28,8.28,0,0,1,4.2,5.17,10.17,10.17,0,0,1,.22,1,14.72,14.72,0,0,1-1.14,8.4,9.51,9.51,0,0,1-6.07,5.52,6,6,0,0,1-.66.14l-.47-2.8.42-.08a6.76,6.76,0,0,0,4.2-4,11.88,11.88,0,0,0,.93-6.75c-.05-.28-.11-.55-.17-.79a5.42,5.42,0,0,0-2.79-3.37,5.53,5.53,0,0,0-1.89-.62,5.2,5.2,0,0,0-2,.11,6.8,6.8,0,0,0-4.19,3.73Z"/><path class="cls-15" d="M324,227.91c10.38,0,18.84-1.42,18.84-3.18s-8.46-3.18-18.84-3.18-18.84,1.43-18.84,3.18S313.61,227.91,324,227.91Z"/><path class="cls-16" d="M321.94,183.49c4.13.81,7.49,1.92,7.49,2.5s-3.36.4-7.49-.4-7.49-1.92-7.49-2.5S317.81,182.69,321.94,183.49Z"/><path class="cls-9" d="M318,186.3c2.44,3.94,3.8,14.18,2.65,19.7a13.89,13.89,0,0,1-4.94,8.16s5.94.08,7.16-8.16a79.57,79.57,0,0,0,.07-17.91Z"/><path class="cls-9" d="M307,227.72c-1.44,7-.15,11.66,3.87,15.41a18.73,18.73,0,0,0,4.78,3.26,14.75,14.75,0,0,0,3.51,1.22,11.14,11.14,0,0,1-1.72-1.65A13.57,13.57,0,0,1,314,237.9a30.77,30.77,0,0,1,.66-9.1,43.33,43.33,0,0,1-7-1.09Z"/><path class="cls-11" d="M341.82,251.14H58.18a7.13,7.13,0,0,0-7.11,7.11h0a7.13,7.13,0,0,0,7.11,7.11H341.82a7.13,7.13,0,0,0,7.11-7.11h0A7.13,7.13,0,0,0,341.82,251.14Z"/><path class="cls-17" d="M296.3,230c-12,0-17.95,15.88-5.05,18.17h10.1C315.75,246.64,308.29,230,296.3,230Z"/><path class="cls-18" d="M284.42,238.29a8.28,8.28,0,0,0-.35,1.61c2.27,1.29,6.17,2.38,12.63,1.53,6.16-.81,9.5-2.72,11.32-4.49a13.63,13.63,0,0,0-4.38-4.72c-5.3,6-13.11,7.86-17.71,6.52l-1.51-.45Zm1.86,7.66c2.52.18,6.07.3,11,.26,7-.05,10.23-3.54,11.68-6.89,1.06,4.09-.89,8.11-7.63,8.81h-10.1A10.09,10.09,0,0,1,286.28,246Z"/><path class="cls-19" d="M261.55,221.54c-4.51.36-9.14,8.91-8.53,16.44,1.09,13.5,20.67,11.79,19.59-1.59C272,228.87,266.06,221.17,261.55,221.54Z"/><path class="cls-20" d="M261.55,221.54c-4.51.36-9.14,8.91-8.53,16.44a9.67,9.67,0,0,0,4.8,8.07c4.75.13,9.59-2.9,10.07-9.37.44-5.93-2.37-12.46-5.78-15.15A3.47,3.47,0,0,0,261.55,221.54Z"/><path class="cls-21" d="M261.44,223.6c-2-.48-5.42,3.72-6.49,8.13-1.93,7.92,6.62,9.92,8.52,2.08C264.55,229.4,263.4,224.07,261.44,223.6Z"/><path class="cls-19" d="M292,230.1c-2.28-3.51-11.28-3.52-17.15.28-10.52,6.83-.51,22,9.91,15.27C290.62,241.84,294.28,233.61,292,230.1Z"/><path class="cls-20" d="M292,230.1c-2.28-3.51-11.28-3.52-17.15.28a9.07,9.07,0,0,0-4.45,7c.93,8.34,7.71,9.2,14,5.11,4.3-2.79,7.41-8,7.86-11.91A3.1,3.1,0,0,0,292,230.1Z"/><path class="cls-21" d="M287.39,230.25c-.74-1.71-5.78-1.93-9.63-.27-6.94,3-3.66,10.42,3.21,7.46C284.83,235.78,288.13,232,287.39,230.25Z"/><path class="cls-22" d="M91.12,251.14H308.88a2.65,2.65,0,0,0,2.5-2.77h0a2.65,2.65,0,0,0-2.5-2.76H91.12a2.65,2.65,0,0,0-2.5,2.76h0A2.65,2.65,0,0,0,91.12,251.14Z"/></svg>