<svg id="Capa_1" data-name="Capa 1" xmlns="http://www.w3.org/2000/svg" viewBox="0 0 400 300"><defs><style>.cls-1{fill:#68a390;}.cls-1,.cls-10,.cls-11,.cls-12,.cls-13,.cls-14,.cls-15,.cls-16,.cls-17,.cls-18,.cls-2,.cls-20,.cls-21,.cls-22,.cls-23,.cls-24,.cls-26,.cls-3,.cls-4,.cls-5,.cls-6,.cls-7,.cls-8,.cls-9{fill-rule:evenodd;}.cls-2{fill:#e9f1ed;}.cls-3{fill:#663323;}.cls-4{fill:#cb581b;}.cls-5,.cls-8{fill:#e4ae91;}.cls-6{fill:#974780;}.cls-7{fill:#c98b75;}.cls-8{stroke:#e4ae91;stroke-miterlimit:22.93;stroke-width:0.22px;}.cls-9{fill:#b67a65;}.cls-10{fill:#492413;}.cls-11{fill:#813e2c;}.cls-12{fill:#f4e1d4;}.cls-13{fill:#d17f7d;}.cls-14{fill:#858685;}.cls-15{fill:#afb0b0;}.cls-16{fill:#78849c;}.cls-17{fill:#67738c;}.cls-18{fill:#9b604c;}.cls-19{fill:#734434;}.cls-20{fill:#d8d8d8;}.cls-21{fill:#89611e;}.cls-22{fill:#b1d6f3;}.cls-23{fill:#fff;}.cls-24{fill:#d27522;}.cls-25{fill:#833f13;}.cls-26{fill:#555553;}</style></defs><title>new_recipe_final_illustration_3</title><path class="cls-1" d="M56.67,300H343.38a6.73,6.73,0,0,0,6.71-6.7h0a6.73,6.73,0,0,0-6.71-6.71h-7.61a3.08,3.08,0,0,1-3.07-3.07h0a3.08,3.08,0,0,1,3.07-3.08h34a6.73,6.73,0,0,0,6.7-6.71h0a6.73,6.73,0,0,0-6.7-6.7H37.1a6.73,6.73,0,0,0-6.71,6.7h0a6.73,6.73,0,0,0,6.71,6.71h24a3.08,3.08,0,0,1,3.07,3.08h0a3.08,3.08,0,0,1-3.07,3.07H56.67A6.72,6.72,0,0,0,50,293.3h0A6.72,6.72,0,0,0,56.67,300Z"/><path class="cls-1" d="M358.1,279.49a6.25,6.25,0,0,0,6.22-6.23h0A6.24,6.24,0,0,0,358.1,267H71.83a6.24,6.24,0,0,0-6.23,6.23h0a6.25,6.25,0,0,0,6.23,6.23Z"/><path class="cls-2" d="M69.28,267H334.82a25.5,25.5,0,0,0,25.42-25.43h0a25.5,25.5,0,0,0-25.42-25.42H324.38A25.3,25.3,0,0,1,299.16,191h0a25.3,25.3,0,0,1,25.22-25.22h.84a26.3,26.3,0,0,0,26.22-26.22h0a26.3,26.3,0,0,0-26.22-26.22H289.1a10.24,10.24,0,0,1-10.21-10.2h0A10.24,10.24,0,0,1,289.1,92.89h6.77a7.06,7.06,0,0,0,7-7h0a7.07,7.07,0,0,0-7-7H164c-18.1,0-18.89-8.46-26.06-8.46h-34a5.42,5.42,0,0,0-5.4,5.4h0a5.41,5.41,0,0,0,5.4,5.39h5.18A7.85,7.85,0,0,1,116.91,89h0a7.85,7.85,0,0,1-7.83,7.82H67a20.16,20.16,0,0,0-20.1,20.09h0A20.16,20.16,0,0,0,67,137h2.3A19.38,19.38,0,0,1,88.6,156.29h0a19.38,19.38,0,0,1-19.32,19.33h0a45.84,45.84,0,0,0-45.71,45.7h0A45.85,45.85,0,0,0,69.28,267ZM83.35,75.74a5.4,5.4,0,1,1,5.4,5.39A5.4,5.4,0,0,1,83.35,75.74Z"/><path class="cls-3" d="M171,13.9C150.71-9.51,104.53-3.18,102,31.61s17.71,39.22,10.12,58.82-14.55,19-13.92,34.79,17.64,54.41,57.53,33.21,64.55-30,61.39-49S201.31,58.18,195,44.89,171,13.9,171,13.9Z"/><path class="cls-4" d="M155.45,14.83a15.82,15.82,0,1,0,15.81,15.82A15.82,15.82,0,0,0,155.45,14.83Z"/><path class="cls-5" d="M296.19,126.33c16.06,8.52,14.76,18.78,9.65,32.42l-10.28,27.36-10.12-5.69Z"/><path class="cls-6" d="M218.24,146.37c18,1.82,30.09,21.19,41.41,39.3,16,28.08,13.53,2.66,16.83-17l29.41,4.91c-8.26,49.41-21.75,64-38.45,61.17-13.76-2.3-23.14-17.32-33.12-33.28-7.57-12.12-15.67-25.08-19-25.41Z"/><path class="cls-6" d="M241.38,261.27c.12-.29-13-63.29-13.58-74.22-.4-7.23-4.05-38.64-10.73-41.85-19-9.11-45.11-6.17-56.54,3.12-2.38,1.94,1.29,37.46-2.23,66.53-1.09,9-2.74,22.56-4.62,31.85s-4,14.44-3.17,15.13C153.86,264.52,240.24,263.89,241.38,261.27Z"/><path class="cls-7" d="M209.27,134.33c0,.06-.52,4.81-.73,6.76-.75,6.92-3.92,21.75-16.13,16.12-7.44-3.42-12.31-10-15-14.58-1.75-3-5.21-15.47-5.21-15.47Z"/><path class="cls-3" d="M224.94,45.66c25.63,6,20.87,33.41,11.26,49.93l-9.61,16.52Z"/><path class="cls-8" d="M230.93,52.43c4.93,24.48,15.29,58.08-7.12,76.76-23.16,19.3-54.9,8.57-69.88-15.91-10.58,1.46-21.72-4.48-23.79-15.38-2.37-12.47,9.33-8.54,9.33-8.54a119,119,0,0,1,5.17-42C154.08,17.11,228,37.87,230.93,52.43Z"/><path class="cls-9" d="M231.62,57.42c-12.76,9.94-55.13,15.09-70.84,13.32a83.07,83.07,0,0,1-2,22c-.94,3.76-3.21,4.68-4.79,8.87-6.12,16.2-5.11-48.3-5.11-48.3s5.06-5.7,6.84-6.07c7.75-1.61,30.46,4.54,37.25,3.91,5.68-.53,21.5-10.14,32.12-7.92,1,.22,3.93,6.56,4.82,6.9C231.47,52.49,231.09,54.77,231.62,57.42Z"/><path class="cls-10" d="M225.28,72l-15.92.82c.78-4.24,5-6.47,8.44-6.2C223.16,67.09,228,71.9,225.28,72Z"/><path class="cls-10" d="M170.59,78.75l15.55-3.3C179,64.67,168.92,79.1,170.59,78.75Z"/><path class="cls-9" d="M137.18,94.5c-2.91.58-3.25,4.18-.76,8s6.85,6.54,9.76,6,3.24-4.19.75-8.06S140.08,93.92,137.18,94.5Z"/><path class="cls-11" d="M157.78,67.47l-.23.12c2.1,4.27,3.81,16.22,2.25,27.49s-6.39,21.92-10.33,23.49c-2.43,1,2.25-2.62.12-14.36-2.27-12.5-4-15.18-15.51-15.53,0,0-10-34.25-4.94-43.76s16.62-11.56,16.62-11.56c46.86-93.85,189.34,62.28,18.1,32C158.45,64.44,156.15,60.08,157.78,67.47Z"/><path class="cls-9" d="M201.15,102.89l10.45-1.78S208,108.89,201.15,102.89Z"/><path class="cls-12" d="M163.47,144c3.41,16.44,7.62,29.25,4.74,38.43A27.54,27.54,0,0,1,159,196l-11.62,63.88h94.88l-21.88-113-9.92-5.61s7.48,26.57,1.76,31.94c-2.76,2.6-27.58,7.37-30.42-5.81L173.91,141Z"/><path class="cls-13" d="M180.23,103.4c-3.52.61-6.1,2.72-5.75,4.7s3.48,3.08,7,2.46,6.1-2.72,5.76-4.7S183.76,102.78,180.23,103.4Z"/><path class="cls-13" d="M223.39,96.19c-3.49.81-5.94,3.06-5.49,5s3.66,2.88,7.15,2.06,5.94-3.06,5.48-5S226.88,95.37,223.39,96.19Z"/><path class="cls-7" d="M147.39,113.46c-4.74,7.75-14.87,19.29-12.34,25,1.58,3.55,10.42,7.88,16.1,2.62,3.35-3.12,11.72-4.47,15.25-6.1,4-1.87,2.11-3.85,2.65-5.06,2.69-6-5.06-14.86-5.06-14.86Z"/><path class="cls-6" d="M166.37,174.75c-3.47.35-11.82,13.88-18.75,25.11-2.23,3.61-4.36,7.06-5.85,9.31-4.55,6.89-10.06,10.53-15.7,11.32-8.63,1.22-15-2.64-18.61-10.93a31.87,31.87,0,0,1-2.2-13.1c.24-14,7.33-39.53,26.75-67.68l24.52,16.93c-.34.48-.66,1-1,1.44a27.45,27.45,0,0,1,7.91-2.05Z"/><path class="cls-14" d="M143.4,126.34c-5.78.54-5.84-6.23-1.42-6.43l52.85-2.34c2.19-3.63,24-4.26,23.11-1.58-3,9-16.17,12.29-24,5.34l-48.45,4.8Z"/><path class="cls-5" d="M164.91,135.15c-1.37-1.87,0-4.49,0-4.49a16.13,16.13,0,0,1-7.28,1.09c-2.85-.19-5.7.4-6.87-.83-1-1.06-2.72-2-2.94-4.78,0-.31,3.75.33,3.74,0-.07-2.45-3.39-6.36-4.52-8.44-3.44-6.32,14.15-12.7,24.11-6C185.51,121.33,169.42,141.32,164.91,135.15Z"/><path class="cls-7" d="M167.3,124.25c.13-.41-.13-.66-.58-.57a1.45,1.45,0,0,0-1.05.88l-2.31,7.15,1.46-.26C165.42,129.27,166.32,127.05,167.3,124.25Z"/><path class="cls-7" d="M158.06,132l1.88-6.28c.13-.4-.13-.66-.58-.57a1.51,1.51,0,0,0-1.05.89l-1.8,6C157,132,157.54,132,158.06,132Z"/><path class="cls-7" d="M151.6,111a.75.75,0,1,1-.27-1.47,70.36,70.36,0,0,1,12.66-.79c3.36.11,6.39.54,7.82,1.55a15.71,15.71,0,0,1,4.89,6.52,12.34,12.34,0,0,1,1,7.38c-1.15,4.93-7.58,12.32-7.6,12.34a.74.74,0,0,1-1.05.08.76.76,0,0,1-.07-1.06s6.2-7.13,7.26-11.7a10.79,10.79,0,0,0-.86-6.46A14.27,14.27,0,0,0,171,111.5c-1.17-.82-3.91-1.18-7-1.28A67.9,67.9,0,0,0,151.6,111Z"/><path class="cls-9" d="M200.52,129.14,211,127.36S207.36,135.14,200.52,129.14Z"/><path class="cls-15" d="M215.93,118c-3.79,4.13-12.83,8.23-17.31,4.12A15.21,15.21,0,0,0,214,116.7a1.14,1.14,0,1,1,1.9,1.25Z"/><path class="cls-16" d="M297.16,103.13l-13.27,71.72h0c18.22,3.37,31.49-68.35,13.27-71.72Z"/><path class="cls-17" d="M296.82,102.93c-2.88,0-8.05,16-11.54,35.74s-4,35.74-1.11,35.74,8.05-16,11.55-35.74S299.7,102.93,296.82,102.93Z"/><path class="cls-10" d="M225.23,82.41a9.52,9.52,0,0,1-.65,6.07,5.87,5.87,0,0,1-9.47,2,9.49,9.49,0,0,1-3.05-5.29l1-.21,1-.35v0l0,.09a7.37,7.37,0,0,0,2.36,4.13,4.06,4.06,0,0,0,3.48,1,4.12,4.12,0,0,0,2.77-2.36,7.43,7.43,0,0,0,.47-4.73Z"/><path class="cls-10" d="M187.75,87a9.54,9.54,0,0,1-.65,6.07,5.87,5.87,0,0,1-9.47,2,9.49,9.49,0,0,1-3-5.29l1-.22,1-.35,0,.05,0,.09A7.36,7.36,0,0,0,179,93.48a4.1,4.1,0,0,0,3.48,1,4.15,4.15,0,0,0,2.77-2.36,7.43,7.43,0,0,0,.48-4.73Z"/><path class="cls-18" d="M231.3,20.1c-33,14.43-52.23,11.76-80.47,4.61a72.19,72.19,0,0,0-5.07,8.65l-.45.09c1.79,1.23,9.17,6.07,23.39,8.34,22.26,3.56,55,3.12,73.4-8.35A52.86,52.86,0,0,0,231.3,20.1Z"/><rect class="cls-19" x="60.27" y="253.13" width="286.96" height="13.92" rx="6.96"/><path class="cls-20" d="M112.48,232.89H116c1.39,0,2.09,1.21,2.53,2.53l5.06,15.18c.44,1.32-1.14,2.53-2.53,2.53h-13.6c-1.39,0-3-1.21-2.53-2.53L110,235.42C110.39,234.1,111.09,232.89,112.48,232.89Z"/><path class="cls-21" d="M110.34,230.52h7.75a2.37,2.37,0,0,1,2.37,2.37h0a2.38,2.38,0,0,1-2.37,2.37h-7.75a2.38,2.38,0,0,1-2.37-2.37h0A2.38,2.38,0,0,1,110.34,230.52Z"/><path class="cls-15" d="M115.16,235.26c.13.91,2.14,11.24,1.14,12.9-.79,1.32-3.27,2.09-11.13,1.6l-.28.84c-.44,1.32,1.14,2.53,2.53,2.53H121c1.39,0,3-1.21,2.53-2.53l-5.06-15.18a1.34,1.34,0,0,0-.07-.18l-.33,0Z"/><path class="cls-20" d="M135.93,232.89h3.48c1.4,0,2.09,1.21,2.53,2.53L147,250.6c.44,1.32-1.13,2.53-2.53,2.53h-13.6c-1.39,0-3-1.21-2.53-2.53l5.06-15.18C133.85,234.1,134.54,232.89,135.93,232.89Z"/><path class="cls-21" d="M133.8,230.52h7.75a2.38,2.38,0,0,1,2.37,2.37h0a2.38,2.38,0,0,1-2.37,2.37H133.8a2.38,2.38,0,0,1-2.37-2.37h0A2.38,2.38,0,0,1,133.8,230.52Z"/><path class="cls-15" d="M138.62,235.26c.12.91,2.14,11.24,1.14,12.9-.8,1.32-3.27,2.09-11.14,1.6l-.28.84c-.44,1.32,1.14,2.53,2.53,2.53h13.6c1.4,0,3-1.21,2.53-2.53l-5.06-15.18-.06-.18-.33,0Z"/><path class="cls-22" d="M171.56,192.17a5.46,5.46,0,1,0,0,10.91,5.65,5.65,0,0,0,1.7-.26,7.55,7.55,0,0,0,13.78.64l.52-.25a7.54,7.54,0,0,0,7.12,5,8.25,8.25,0,0,0,1.22-.09,7.78,7.78,0,0,0,5.72,0,8.23,8.23,0,0,0,1.13.08,7.51,7.51,0,0,0,4.61-1.57,7.65,7.65,0,0,0,9.84,1.52,7.65,7.65,0,1,0,4-14.16,6.63,6.63,0,0,0-1.1.08v-.3a7.65,7.65,0,0,0-11.68-6.51,7.66,7.66,0,0,0-11.12,3.6,7.65,7.65,0,0,0-14.09-1.27,5.53,5.53,0,0,0-10.17,2.74A5.79,5.79,0,0,0,171.56,192.17Z"/><path class="cls-23" d="M209.67,192.64a1.74,1.74,0,1,0-1.74-1.73A1.74,1.74,0,0,0,209.67,192.64Z"/><path class="cls-23" d="M203.82,193.28a1.27,1.27,0,1,0-1.27-1.27A1.27,1.27,0,0,0,203.82,193.28Z"/><path class="cls-23" d="M178.36,191.7a1.27,1.27,0,1,0-1.27-1.27A1.26,1.26,0,0,0,178.36,191.7Z"/><path class="cls-23" d="M174.09,195.73a1,1,0,1,0-1-1A1,1,0,0,0,174.09,195.73Z"/><path class="cls-24" d="M178.8,247.43a1.07,1.07,0,0,1,0-2.14h38.69a1.07,1.07,0,0,1,0,2.14Z"/><rect class="cls-25" x="154.02" y="197.4" width="8.54" height="6.83" rx="1.95"/><rect class="cls-25" x="232.3" y="197.4" width="8.54" height="6.83" rx="1.95"/><path class="cls-16" d="M160.74,197.4h73.37v27a14.86,14.86,0,0,1-14.82,14.82H175.56a14.86,14.86,0,0,1-14.82-14.82Z"/><path class="cls-26" d="M160.25,247.72H234.6a2.59,2.59,0,0,1,2.45,2.7h0a2.6,2.6,0,0,1-2.45,2.71H160.25a2.59,2.59,0,0,1-2.44-2.71h0A2.59,2.59,0,0,1,160.25,247.72Z"/><path class="cls-26" d="M174.66,249.17a1.5,1.5,0,0,1-3,0v-6.64a1.5,1.5,0,0,1,1.49-1.5h7.59a1.5,1.5,0,1,1,0,3h-6.09Z"/><path class="cls-26" d="M220.2,249.17a1.5,1.5,0,0,0,3,0v-6.64a1.5,1.5,0,0,0-1.5-1.5H214.1a1.5,1.5,0,0,0,0,3h6.1Z"/><path class="cls-26" d="M196.72,242.53a1.49,1.49,0,1,1,3,0v6.64a1.49,1.49,0,0,1-1.49,1.49h-7.59a1.5,1.5,0,0,1,0-3h6.1Z"/><path class="cls-17" d="M221.15,197.4v18.83a14.87,14.87,0,0,1-14.83,14.82h-44a14.88,14.88,0,0,0,13.26,8.22h43.73a14.86,14.86,0,0,0,14.82-14.82v-27h-13Z"/></svg>