<svg id="Capa_1" data-name="Capa 1" xmlns="http://www.w3.org/2000/svg" viewBox="0 0 400 300"><defs><style>.cls-1{fill:#68a390;}.cls-1,.cls-10,.cls-11,.cls-12,.cls-13,.cls-14,.cls-15,.cls-16,.cls-17,.cls-18,.cls-19,.cls-2,.cls-20,.cls-21,.cls-22,.cls-23,.cls-24,.cls-25,.cls-26,.cls-27,.cls-28,.cls-4,.cls-5,.cls-6,.cls-7,.cls-9{fill-rule:evenodd;}.cls-2{fill:#e9f1ed;}.cls-3,.cls-5{fill:#555553;}.cls-4{fill:#6f6f6e;}.cls-6{fill:#fffbde;}.cls-7{fill:#d3cfab;}.cls-8{fill:#4b4b4a;}.cls-9{fill:#8b5830;}.cls-10{fill:#9f6e40;}.cls-11{fill:#ae7f47;}.cls-12{fill:#b0804f;}.cls-13{fill:#20201e;}.cls-14{fill:#808181;}.cls-15{fill:#a67e5a;}.cls-16{fill:#b9926c;}.cls-17{fill:#c29d73;}.cls-18{fill:#c3a078;}.cls-19{fill:#696968;}.cls-20{fill:#cd5a40;}.cls-21{fill:#c98b75;}.cls-22{fill:#e4ae91;}.cls-23{fill:#fff;}.cls-24{fill:#492413;}.cls-25{fill:#b67a65;}.cls-26{fill:#d17f7d;}.cls-27{fill:#734434;}.cls-28{fill:#b84331;}</style></defs><title>new_recipe_final_illustration_1</title><path class="cls-1" d="M353.88,299.93H63.82A6.8,6.8,0,0,1,57,293.15h0a6.8,6.8,0,0,1,6.78-6.78h7.7a3.12,3.12,0,0,0,3.11-3.11h0a3.11,3.11,0,0,0-3.11-3.11H37.17a6.81,6.81,0,0,1-6.78-6.79h0a6.8,6.8,0,0,1,6.78-6.78H373.68a6.8,6.8,0,0,1,6.78,6.78h0a6.81,6.81,0,0,1-6.78,6.79H349.39a3.11,3.11,0,0,0-3.11,3.11h0a3.12,3.12,0,0,0,3.11,3.11h4.49a6.8,6.8,0,0,1,6.78,6.78h0A6.8,6.8,0,0,1,353.88,299.93Z"/><path class="cls-1" d="M48.94,279.18a6.31,6.31,0,0,1-6.3-6.3h0a6.31,6.31,0,0,1,6.3-6.3h289.6a6.32,6.32,0,0,1,6.31,6.3h0a6.32,6.32,0,0,1-6.31,6.3Z"/><path class="cls-2" d="M61.86,266.58a46.38,46.38,0,0,1-46.24-46.24h0A46.38,46.38,0,0,1,61.86,174.1h0a19.61,19.61,0,0,0,19.55-19.55h0A19.61,19.61,0,0,0,61.86,135H59.53a20.37,20.37,0,0,1-20.32-20.32h0A20.38,20.38,0,0,1,59.53,94.34h42.6A7.93,7.93,0,0,0,110,86.43h0a7.94,7.94,0,0,0-7.91-7.92H96.89a5.48,5.48,0,0,1-5.47-5.46h0a5.48,5.48,0,0,1,5.47-5.46H131.3c7.25,0,8.06,8.56,26.37,8.56H319.25a7.15,7.15,0,0,1,7.13,7.13h0a7.15,7.15,0,0,1-7.13,7.13h-6.84a10.35,10.35,0,0,0-10.33,10.32h0a10.36,10.36,0,0,0,10.33,10.33H349a26.59,26.59,0,0,1,26.52,26.52h0A26.6,26.6,0,0,1,349,164.11h-.85a25.59,25.59,0,0,0-25.51,25.51h0a25.59,25.59,0,0,0,25.51,25.51h10.56a25.81,25.81,0,0,1,25.72,25.73h0a25.8,25.8,0,0,1-25.72,25.72ZM81.56,78.51a5.46,5.46,0,1,0-5.46-5.46A5.45,5.45,0,0,0,81.56,78.51Z"/><rect class="cls-3" x="220.45" y="171.57" width="129.27" height="82.85" rx="8.57"/><path class="cls-4" d="M229,171.57H341.14a8.59,8.59,0,0,1,2.34.33,8.53,8.53,0,0,1,1.43,4.73v65.7a8.59,8.59,0,0,1-8.57,8.57H224.22a8.17,8.17,0,0,1-2.34-.33,8.42,8.42,0,0,1-1.43-4.72v-65.7A8.6,8.6,0,0,1,229,171.57Z"/><path class="cls-5" d="M333.55,202.28a5.92,5.92,0,1,0-5.92-5.92A5.93,5.93,0,0,0,333.55,202.28Z"/><path class="cls-5" d="M333.55,220.19a5.92,5.92,0,1,0-5.92-5.91A5.92,5.92,0,0,0,333.55,220.19Z"/><path class="cls-5" d="M333.55,238.11a5.92,5.92,0,1,0-5.92-5.92A5.93,5.93,0,0,0,333.55,238.11Z"/><path class="cls-6" d="M332.11,201.48a5.92,5.92,0,1,0-5.92-5.92A5.93,5.93,0,0,0,332.11,201.48Z"/><path class="cls-6" d="M332.11,219.39a5.92,5.92,0,1,0-5.92-5.91A5.92,5.92,0,0,0,332.11,219.39Z"/><path class="cls-6" d="M332.11,237.31a5.92,5.92,0,1,0-5.92-5.92A5.93,5.93,0,0,0,332.11,237.31Z"/><path class="cls-7" d="M332.11,235.78a4.39,4.39,0,1,0-4.38-4.39A4.4,4.4,0,0,0,332.11,235.78Z"/><path class="cls-7" d="M332.11,217.86a4.39,4.39,0,1,0-4.38-4.38A4.39,4.39,0,0,0,332.11,217.86Z"/><path class="cls-7" d="M332.11,199.94a4.39,4.39,0,1,0-4.38-4.38A4.39,4.39,0,0,0,332.11,199.94Z"/><rect class="cls-8" x="230.8" y="184.33" width="87.84" height="57.33" rx="0.54"/><path class="cls-9" d="M289.49,196.44c-28.81-5-60.21,6-54.89,13.88a8.66,8.66,0,0,0,2.94,2.41h75.77a15.83,15.83,0,0,0,1.75-1.36C321.86,205.23,304.27,198.27,289.49,196.44Z"/><path class="cls-10" d="M289.49,196.44c-24.46-4.25-50.78,3.06-54.92,10.17a3.73,3.73,0,0,0,.33.62c1.53,2.27,6,4.12,12,5.5h58.31c5.83-1.58,9.71-3.82,10.2-6.81C311.82,201.59,300,197.73,289.49,196.44Z"/><path class="cls-11" d="M242.06,203c7.44-6.14,27.55-7.83,37.24-7.29,7.12.39,21.09,2.68,27.25,6.57a3.06,3.06,0,0,1,.93.71c-1.17-.51-2.06-1-3.33-1.5-12.81-5-30.71-5.58-44-3.76C253.16,198.67,248.26,199.88,242.06,203Z"/><path class="cls-9" d="M267.24,200.69c.86,3.73,1.78,7.07,2.33,8.92s.17,2.55.43,2.78c2.64,2.32-.57-15.49-3.77-14.63C265.73,197.9,267.16,200.36,267.24,200.69Z"/><path class="cls-9" d="M277.76,200.13c1.33,7.88,2.88,12,3.71,12.6h.34c.22-.2.32-.89.26-2.06s-2.82-15.24-5.1-13.52C276.52,197.5,277.7,199.82,277.76,200.13Z"/><path class="cls-9" d="M287.6,201.29c2.57,11.11,3.85,12.9,3.61,8.06-.19-3.84-1.91-9.73-3.09-10.72S287.52,200.9,287.6,201.29Z"/><path class="cls-9" d="M300,207.6c1.44,5.32,2,5,1.79,1.41s-2.24-8.16-3.34-9.09S299.76,206.85,300,207.6Z"/><path class="cls-9" d="M258,202.13c1.43,6.21,1.89,9.37,2.42,9.9,1.32,1.34.69-9.85-2.07-12.17-.27-.23-.94-.7-1.06-.57C256.89,199.7,257.89,201.86,258,202.13Z"/><path class="cls-12" d="M257.15,202.1c2.4,10.42,3.6,12.09,3.38,7.56-.18-3.6-1.8-9.13-2.9-10.06S257.06,201.74,257.15,202.1Z"/><path class="cls-12" d="M266.43,200.65c.86,3.73,1.78,7.08,2.33,8.93,1.22,4.08,1.7,3.81,1.52.22-.2-4.13-2.43-10.79-3.7-11.85S266.33,200.24,266.43,200.65Z"/><path class="cls-12" d="M276.94,200.1c1.37,8.07,3,12.24,3.78,12.63H281c.25-.15.37-.85.31-2.1-.19-3.84-2.62-12.2-3.8-13.19S276.87,199.71,276.94,200.1Z"/><path class="cls-12" d="M286.79,201.25c2.57,11.11,3.85,12.9,3.61,8.07-.19-3.84-1.92-9.74-3.09-10.73S286.7,200.87,286.79,201.25Z"/><path class="cls-12" d="M299.15,207.57c1.44,5.31,2,5,1.79,1.4s-2.24-8.15-3.35-9.08S298.94,206.81,299.15,207.57Z"/><path class="cls-9" d="M248.79,203.89c1,4.42,1.35,6.67,1.72,7.05.94,1,.5-7-1.47-8.67-.2-.16-.67-.49-.75-.41C248,202.16,248.74,203.7,248.79,203.89Z"/><path class="cls-12" d="M248.21,203.87c1.71,7.42,2.57,8.61,2.41,5.39-.13-2.57-1.28-6.51-2.07-7.17S248.15,203.61,248.21,203.87Z"/><path class="cls-13" d="M232,215.47a1.52,1.52,0,0,1,0-3h85.92a1.52,1.52,0,0,1,0,3Z"/><path class="cls-9" d="M289.49,225.37c-28.81-5-60.21,6-54.89,13.88a8.66,8.66,0,0,0,2.94,2.41h75.77a17.1,17.1,0,0,0,1.75-1.35C321.86,234.16,304.27,227.2,289.49,225.37Z"/><path class="cls-10" d="M289.49,225.37c-24.46-4.25-50.78,3.06-54.92,10.17a3.38,3.38,0,0,0,.33.62c1.53,2.27,6,4.12,12,5.5h58.31c5.83-1.57,9.71-3.82,10.2-6.81C311.82,230.53,300,226.66,289.49,225.37Z"/><path class="cls-11" d="M242.06,231.9c7.44-6.13,27.55-7.83,37.24-7.29,7.12.4,21.09,2.69,27.25,6.58a2.78,2.78,0,0,1,.93.71c-1.17-.51-2.06-1-3.33-1.51-12.81-5-30.71-5.58-44-3.75C253.16,227.6,248.26,228.81,242.06,231.9Z"/><path class="cls-9" d="M267.24,229.62c.86,3.73,1.78,7.08,2.33,8.93s.17,2.54.43,2.77c2.64,2.33-.57-15.49-3.77-14.62C265.73,226.83,267.16,229.29,267.24,229.62Z"/><path class="cls-9" d="M277.76,229.06c1.33,7.88,2.88,12,3.71,12.6h.34c.22-.2.32-.89.26-2.06s-2.82-15.24-5.1-13.52C276.52,226.43,277.7,228.76,277.76,229.06Z"/><path class="cls-9" d="M287.6,230.22c2.57,11.11,3.85,12.9,3.61,8.07-.19-3.84-1.91-9.74-3.09-10.73S287.52,229.84,287.6,230.22Z"/><path class="cls-9" d="M300,236.53c1.44,5.32,2,5,1.79,1.41s-2.24-8.16-3.34-9.08S299.76,235.78,300,236.53Z"/><path class="cls-9" d="M258,231.06c1.43,6.21,1.89,9.37,2.42,9.91,1.32,1.33.69-9.86-2.07-12.18-.27-.22-.94-.69-1.06-.57C256.89,228.63,257.89,230.79,258,231.06Z"/><path class="cls-12" d="M257.15,231c2.4,10.42,3.6,12.1,3.38,7.57-.18-3.61-1.8-9.13-2.9-10.06S257.06,230.67,257.15,231Z"/><path class="cls-12" d="M266.43,229.58c.86,3.74,1.78,7.08,2.33,8.93,1.22,4.08,1.7,3.81,1.52.23-.2-4.14-2.43-10.8-3.7-11.86S266.33,229.18,266.43,229.58Z"/><path class="cls-12" d="M276.94,229c1.37,8.07,3,12.24,3.78,12.63H281c.25-.15.37-.84.31-2.09-.19-3.84-2.62-12.21-3.8-13.2S276.87,228.65,276.94,229Z"/><path class="cls-12" d="M286.79,230.18c2.57,11.12,3.85,12.91,3.61,8.07-.19-3.84-1.92-9.74-3.09-10.72S286.7,229.8,286.79,230.18Z"/><path class="cls-12" d="M299.15,236.5c1.44,5.32,2,5,1.79,1.41s-2.24-8.16-3.35-9.09S298.94,235.75,299.15,236.5Z"/><path class="cls-9" d="M248.79,232.82c1,4.42,1.35,6.67,1.72,7.06.94,1,.5-7-1.47-8.67-.2-.17-.67-.5-.75-.41C248,231.09,248.74,232.63,248.79,232.82Z"/><path class="cls-12" d="M248.21,232.8c1.71,7.42,2.57,8.62,2.41,5.39-.13-2.57-1.28-6.51-2.07-7.16S248.15,232.55,248.21,232.8Z"/><path class="cls-14" d="M302.34,184.33H281L230.8,234.5v6.62a.55.55,0,0,0,.55.54H245Z"/><path class="cls-15" d="M289.49,196.44A89.8,89.8,0,0,0,270,195.28l-17.45,17.45H274l16.21-16.21Z"/><path class="cls-16" d="M289.49,196.44A89.8,89.8,0,0,0,270,195.28l-17.45,17.45H274l16.21-16.21Z"/><path class="cls-17" d="M269.52,195.78a85.9,85.9,0,0,1,9.78-.1A91,91,0,0,1,289.72,197l-.76.76a109.08,109.08,0,0,0-20.59-.79Z"/><path class="cls-15" d="M267.24,200.69c.86,3.73,1.78,7.07,2.33,8.92s.17,2.55.43,2.78c2.36,2.08,0-12-2.77-14.32l-.83.82C266.72,199.64,267.2,200.5,267.24,200.69Z"/><path class="cls-15" d="M277.76,200.13c.49,2.93,1,5.35,1.53,7.26l1.79-1.79c-1-4.29-2.66-9.54-4.11-8.45C276.52,197.5,277.7,199.82,277.76,200.13Z"/><path class="cls-15" d="M288.08,198.6c-.57-.46-.73,0-.73.72Z"/><path class="cls-15" d="M258.9,206.39c.73,3.42,1.09,5.25,1.48,5.64.85.86.89-3.41.09-7.21Z"/><path class="cls-18" d="M258.34,207c1.6,6,2.37,6.41,2.19,2.71a26,26,0,0,0-.64-4.25Z"/><path class="cls-18" d="M266.43,200.65c.86,3.73,1.78,7.08,2.33,8.93,1.22,4.08,1.7,3.81,1.52.22-.18-3.77-2-9.62-3.34-11.44l-.88.88C266.2,199.87,266.39,200.49,266.43,200.65Z"/><path class="cls-18" d="M276.94,200.1a76.82,76.82,0,0,0,1.72,7.92l1.88-1.89c-.85-3.8-2.27-8-3.08-8.69C276.19,196.38,276.87,199.71,276.94,200.1Z"/><path class="cls-18" d="M287.66,199a2.28,2.28,0,0,0-.35-.42c-.82-.69-.83.48-.71,1.49Z"/><polygon class="cls-19" points="252.85 212.44 274.23 212.44 271.2 215.47 249.83 215.47 252.85 212.44"/><path class="cls-15" d="M261.74,224.94c-17.69,2.31-30.72,9-27.14,14.31a8.66,8.66,0,0,0,2.94,2.41H245Z"/><path class="cls-16" d="M261.74,224.94c-13.72,1.79-24.63,6.23-27.17,10.6a3.38,3.38,0,0,0,.33.62c1.4,2.07,5.22,3.79,10.49,5.13Z"/><path class="cls-17" d="M242.06,231.9c3.94-3.25,11.43-5.25,19.05-6.34l-1.09,1.1C253.09,227.62,248.22,228.83,242.06,231.9Z"/><path class="cls-15" d="M258.07,228.61c-.31-.23-.73-.49-.82-.39s-.07.62.08,1.12Z"/><path class="cls-18" d="M257.87,228.8a1.23,1.23,0,0,0-.24-.26c-.72-.6-.77.3-.69,1.19Z"/><path class="cls-15" d="M248.79,232.82c.39,1.7.68,3.08.91,4.15l1.09-1.08c-.29-1.92-.87-3.94-1.75-4.68-.2-.17-.67-.5-.75-.41C248,231.09,248.74,232.63,248.79,232.82Z"/><path class="cls-18" d="M248.21,232.8c.44,1.91.83,3.4,1.15,4.51l1-1c-.4-2.28-1.23-4.74-1.84-5.25C247.71,230.32,248.15,232.55,248.21,232.8Z"/><path class="cls-14" d="M318.1,184.33h-8.73l-57.56,57.33H262l56.66-56.44v-.34A.55.55,0,0,0,318.1,184.33Z"/><path class="cls-15" d="M280.86,212.73H291l13.06-13a74.71,74.71,0,0,0-8-2.17Z"/><path class="cls-16" d="M280.86,212.73H291l13.06-13a74.71,74.71,0,0,0-8-2.17Z"/><path class="cls-17" d="M295.49,198.16a55.08,55.08,0,0,1,7.73,2.42l-.39.39a64.42,64.42,0,0,0-7.94-2.22Z"/><path class="cls-15" d="M281.18,212.42a1.26,1.26,0,0,0,.29.31h.34a2,2,0,0,0,.27-1.22Z"/><path class="cls-15" d="M288.52,205.09c2,7.66,2.9,8.48,2.69,4.26a30.1,30.1,0,0,0-1-5.91Z"/><path class="cls-15" d="M300.4,203.39a10.53,10.53,0,0,0-2-3.47c-.72-.6,0,2.33.7,4.76Z"/><path class="cls-18" d="M280.86,212.73H281a.59.59,0,0,0,.19-.28Z"/><path class="cls-18" d="M287.88,205.73c1.84,7,2.72,7.68,2.52,3.59a28.41,28.41,0,0,0-.86-5.24Z"/><path class="cls-18" d="M299.82,204a11.54,11.54,0,0,0-2.23-4.08c-.78-.65.17,2.9.89,5.41Z"/><polygon class="cls-19" points="281.14 212.44 291.31 212.44 288.27 215.47 278.11 215.47 281.14 212.44"/><path class="cls-15" d="M279.46,224.25a93.06,93.06,0,0,0-10.16,0l-17.49,17.41H262Z"/><path class="cls-16" d="M279.46,224.25a93.06,93.06,0,0,0-10.16,0l-17.49,17.41H262Z"/><path class="cls-17" d="M268.78,224.76a90,90,0,0,1,10.32-.16L278,225.75c-3.52-.11-7-.05-10.33.16Z"/><path class="cls-15" d="M267.24,229.62c.46,2,.93,3.85,1.36,5.45l1.48-1.48c-.79-3.25-2-6.36-3.28-6.85l-.59.58C266.47,228.11,267.19,229.39,267.24,229.62Z"/><path class="cls-15" d="M277.68,226a.64.64,0,0,0-.71.06c-.13.11-.12.37-.05.7Z"/><path class="cls-15" d="M258.78,234.73c.82,3.8,1.19,5.82,1.6,6.24.89.9.9-3.88,0-7.8Z"/><path class="cls-18" d="M258.19,235.31c1.71,6.51,2.53,7.11,2.34,3.29a26.25,26.25,0,0,0-.78-4.84Z"/><path class="cls-18" d="M266.43,229.58c.52,2.27,1.06,4.39,1.53,6.12l1.57-1.56c-.8-3.25-2.06-6.44-2.91-7.22l-.68.66A20,20,0,0,0,266.43,229.58Z"/><path class="cls-18" d="M277.39,226.32c-.53-.4-.69,0-.69.68Z"/><path class="cls-20" d="M173.39,260.73c.13-.28-13.13-64-13.74-75.09-.83-15-1.06-27.07-1.71-27.95-14.18-19.36-43-27.23-58.53-18.67-3.9,2.16-.07,9.24-3,12.89-1.3,1.6-4.34,14.19-6,32-.83,8.92.12,20.09-1.07,29.92-1.1,9.1-2.76,22.81-4.67,32.21s-4.07,14.62-3.21,15.31C84.2,263.5,172.55,262.68,173.39,260.73Z"/><path class="cls-20" d="M133.62,135.29c29.77,1,42.5,24.53,56.1,46.43,11.92,19.19,11.91,26.35,22.91-6.88l27.42,9.76c-16.47,49.77-43.45,62.43-72.12,16.27-9.79-15.78-21.72-35-35.25-35.46Z"/><path class="cls-21" d="M142.59,137.22c.12.3-.42,26.89-16.36,18.74-14.36-7.36-16.12-23.8-19.92-38.39Z"/><path class="cls-22" d="M253.06,180.62c11.48-2.5,6.36-6.54,2.17-7.1s-21.09,1.54-21.09,1.54,5.6-2.08,7.81-4.24c1.39-1.36,1.11-4.6-1-4.51-3.76.16-14.14,2.19-21,3.6-9.37,1.92-7,2.19-9.93,10.75-1.56,4.58,12.47,6.5,22.28,5.63C243.85,185.26,251.77,180.9,253.06,180.62Z"/><path class="cls-9" d="M220.29,149.33C183.87,143,144.18,157,150.9,166.89a11.08,11.08,0,0,0,3.72,3H250.4a20.1,20.1,0,0,0,2.21-1.71C261.22,160.44,239,151.65,220.29,149.33Z"/><path class="cls-10" d="M220.29,149.33c-30.92-5.37-64.2,3.87-69.43,12.87a5,5,0,0,0,.43.78c1.93,2.87,7.55,5.2,15.21,7h73.71c7.37-2,12.28-4.83,12.89-8.6C248.51,155.86,233.51,151,220.29,149.33Z"/><path class="cls-11" d="M160.33,157.59c9.41-7.75,34.83-9.89,47.08-9.21,9,.5,26.66,3.39,34.45,8.31a3.8,3.8,0,0,1,1.17.89c-1.48-.64-2.61-1.27-4.21-1.9-16.2-6.29-38.82-7.05-55.6-4.74C174.37,152.16,168.17,153.68,160.33,157.59Z"/><path class="cls-9" d="M192.16,154.71c1.09,4.72,2.25,8.94,3,11.28s.22,3.22.54,3.51c3.34,2.94-.72-19.58-4.77-18.49C190.26,151.18,192.07,154.3,192.16,154.71Z"/><path class="cls-9" d="M205.45,154c1.7,10,3.65,15.23,4.71,15.93h.42c.27-.26.41-1.12.33-2.6s-3.56-19.27-6.44-17.09C203.89,150.68,205.39,153.62,205.45,154Z"/><path class="cls-9" d="M217.9,155.47c3.25,14,4.87,16.3,4.57,10.2-.24-4.86-2.42-12.32-3.92-13.57S217.79,155,217.9,155.47Z"/><path class="cls-9" d="M233.53,163.45c1.82,6.72,2.48,6.35,2.26,1.78s-2.83-10.31-4.23-11.49S233.27,162.5,233.53,163.45Z"/><path class="cls-9" d="M180.43,156.54c1.81,7.84,2.39,11.83,3.06,12.51,1.67,1.69.88-12.46-2.62-15.39-.34-.28-1.19-.88-1.33-.72C179.08,153.46,180.35,156.19,180.43,156.54Z"/><path class="cls-12" d="M179.41,156.49c3,13.18,4.56,15.29,4.27,9.56-.22-4.55-2.27-11.54-3.67-12.71S179.3,156,179.41,156.49Z"/><path class="cls-12" d="M191.14,154.66c1.09,4.72,2.24,9,3,11.29,1.53,5.16,2.14,4.81,1.92.28-.26-5.23-3.08-13.64-4.68-15S191,154.15,191.14,154.66Z"/><path class="cls-12" d="M204.43,154c1.73,10.21,3.74,15.48,4.78,16h.28c.32-.19.47-1.07.4-2.65-.24-4.85-3.32-15.43-4.81-16.68S204.35,153.48,204.43,154Z"/><path class="cls-12" d="M216.88,155.42c3.24,14.05,4.86,16.31,4.56,10.2-.24-4.85-2.42-12.31-3.91-13.56S216.77,154.94,216.88,155.42Z"/><path class="cls-12" d="M232.5,163.41c1.82,6.72,2.49,6.34,2.26,1.78s-2.83-10.32-4.23-11.49S232.24,162.45,232.5,163.41Z"/><path class="cls-9" d="M168.84,158.76c1.29,5.59,1.7,8.43,2.18,8.92,1.19,1.2.62-8.88-1.87-11-.24-.2-.85-.62-.94-.51C167.87,156.57,168.78,158.51,168.84,158.76Z"/><path class="cls-12" d="M168.11,158.73c2.17,9.38,3.25,10.89,3,6.81-.16-3.24-1.61-8.22-2.61-9.06S168,158.41,168.11,158.73Z"/><path class="cls-5" d="M149.42,168.65H254.25a3.66,3.66,0,0,1,3.45,3.82h0a3.66,3.66,0,0,1-3.45,3.81H149.42a3.64,3.64,0,0,1-3.44-3.81h0A3.65,3.65,0,0,1,149.42,168.65Z"/><path class="cls-22" d="M163.67,196.54c2-.5,21-12.78,32.44-15.28s6.36-6.54,2.16-7.09-21.09,1.53-21.09,1.53,5.61-2.07,7.82-4.24c1.39-1.36,1.1-4.6-1-4.51-3.77.16-14.15,2.19-21,3.6-10.38,2.13-8,5.11-12.67,16.67Z"/><path class="cls-20" d="M96.63,172.72c.09,3.63-5.33,7.25-5.16,14.84.22,9.86,10.86,15.5,19.55,16.2,12.94,1,23.14.64,37-21.15l25.51,16.18c-20.9,32.92-42.12,36.9-64.84,35.08-52.1-4.16-64.8-61.49-18.23-93.75.49-.34,10.93-1.38,12.89-1.93,1.13-.31-4.12,6.7-3.92,12.5C99.73,160.53,96.61,171.68,96.63,172.72Z"/><path class="cls-23" d="M206.57,135.42a1.13,1.13,0,1,1-1.74,1.45c-5.23-6.24-6.56-11.12-5.26-15.93s5-9.12,10.09-14.67c9.14-10-8.17-24.9-8.22-24.94a1.13,1.13,0,0,1,1.49-1.71s19.11,16.43,8.41,28.17c-4.85,5.32-8.45,9.54-9.59,13.73S201.88,129.83,206.57,135.42Z"/><path class="cls-23" d="M219.37,135.42a1.13,1.13,0,1,1-1.74,1.45c-5.23-6.24-6.56-11.12-5.26-15.93s5-9.12,10.09-14.67c9.13-10-8.18-24.9-8.22-24.94a1.14,1.14,0,0,1-.11-1.6,1.13,1.13,0,0,1,1.59-.11c.06,0,19.12,16.43,8.42,28.17-4.86,5.32-8.45,9.54-9.59,13.73S214.68,129.83,219.37,135.42Z"/><path class="cls-5" d="M109.55,133.11c-1.76,5.6.16,11.68,7.68,20.64s9.44,5.92,9.76,1.12-9.6-11.68-13-17.12S110.35,132,109.55,133.11Z"/><path class="cls-5" d="M144.54,133.11c3.23,5.6,3.55,9.44-1.61,18.4s-8.52,8.16-10.11,3.36,6.53-11.68,8.46-17.12S143.44,132,144.54,133.11Z"/><path class="cls-24" d="M168.25,46.14a23,23,0,1,0-23-23A23.08,23.08,0,0,0,168.25,46.14Z"/><path class="cls-20" d="M172,41.55a19.8,19.8,0,0,1-27.85-18.07,20.33,20.33,0,0,1,.36-3.77,18.13,18.13,0,0,1,29,14.48A18.24,18.24,0,0,1,172,41.55Z"/><path class="cls-24" d="M159.18,37.76c6.62,1,11.44,2.93,14.19,6.39,14,17.64,12,37.58,7.77,53.53C177.36,111.91,169,125,178,140.92c6.18,11-20.64-12.28-24.08-26.13C147.83,90.31,157.26,65.85,159.18,37.76Z"/><path class="cls-22" d="M171.13,52.28c2.53,17.54,5,34.07,4.4,45.36-.24,4.57-.66,8.76-1.24,12.66-4,27.5-42.61,33.85-67.29,19.44-7.49-4.37-16.18-14.78-22.34-19.15,0,0-16.2-5.33-17.89-18s9.9-8.09,9.9-8.09a120.44,120.44,0,0,1,7.58-42.1C95.49,12.29,169,37.4,171.13,52.28Z"/><path class="cls-25" d="M171.13,52.28c.36,2.53.73,5,1.08,7.52-13.45,9.32-57.89,7.79-73.66,5.12,0,0,9.67,34.63-.57,49.67S93.35,54,93.35,54s.28-10.89,2.1-11.16c7.92-1.2,30.52,6.3,37.41,6,5.77-.22,22.28-9,32.89-6.19,1,.27,3.6,6.84,4.48,7.23A6.64,6.64,0,0,1,171.13,52.28Z"/><path class="cls-24" d="M165.61,69.52l-16.13,0c1-4.25,5.36-6.29,8.84-5.85C163.71,64.41,168.36,69.51,165.61,69.52Z"/><path class="cls-24" d="M110,73.59,125.89,71C119.16,59.78,108.31,73.87,110,73.59Z"/><path class="cls-25" d="M74.07,89.5c-3,.43-3.51,4-1.22,8.1s6.55,7,9.52,6.56,3.51-4,1.22-8.09S77,89.08,74.07,89.5Z"/><path class="cls-24" d="M96.23,49.7A27.53,27.53,0,0,0,95,63.28a1.39,1.39,0,0,0-.25.11s10.94,38.93,2,56.44-7.32,28.62-7.32,28.62a39.69,39.69,0,0,1-7-19.23c-.31-4.36,3.36-17.51,1.79-29.31-1.7-12.76-3.33-15.56-15.56-16.6,0,0-4.07-31.09,1.8-40.4s12.05-8.48,12.05-8.48C105.64-11.69,178,8.36,181.58,56.6c.38,5.22-7.36-6-9.34-1.43-.41.95-6.23-11.37-5.93-10.26s2.18,6,3.66,12.2c2.07,8.6,3.79,18.84,3.25,18.29C155.37,57.14,100.93,75.89,96.23,49.7Z"/><path class="cls-21" d="M136.43,119.94a66.83,66.83,0,0,0,9.91-.16S140.23,129.06,136.43,119.94Z"/><path class="cls-21" d="M138,100.1a67.73,67.73,0,0,0,9.91-.15S141.83,109.22,138,100.1Z"/><path class="cls-26" d="M119,98.94c3.62,0,6.55,1.65,6.55,3.68s-2.93,3.68-6.55,3.68-6.57-1.64-6.57-3.68S115.36,98.94,119,98.94Z"/><path class="cls-26" d="M161.78,97c3.62-.07,6.59,1.51,6.64,3.54s-2.86,3.74-6.48,3.82-6.59-1.51-6.64-3.54S158.16,97.1,161.78,97Z"/><path class="cls-24" d="M70,53.28a23,23,0,1,0-23-23A23.08,23.08,0,0,0,70,53.28Z"/><path class="cls-20" d="M68.78,47.4c.34.11.69.2,1,.29,0-.11,0-.21,0-.31A20,20,0,0,1,87.36,25.2c.52-.06,1-.1,1.57-.12A15.76,15.76,0,0,0,68.78,47.4Z"/><path class="cls-27" d="M93,28.48c-2.19-.65-4.09-1.24-5.73-1.78-1-.34-2-.65-2.79-.95a19.92,19.92,0,0,0-9.4,5.61,41.38,41.38,0,0,0,4,3.64,51.38,51.38,0,0,0,6.52,4.37c1.36.76,2.83,1.52,4.42,2.25s3,1.31,4.67,1.91c7.81,2.83,17.94,4.8,30.8,4.37l1.6-.06a135.41,135.41,0,0,0,15-1.54A112.68,112.68,0,0,0,156.69,43c.6-.17,1.18-.35,1.75-.53l.35-.11.82-.27,1.23-.42c2-.7,3.91-1.42,5.66-2.16,2.6-1.09,4.89-2.2,6.89-3.27.51-.27,1-.54,1.48-.81-.44-.74-.9-1.47-1.38-2.18A52.7,52.7,0,0,0,164.35,23a87.92,87.92,0,0,1-17.94,7.47l-.93.27c-2.19.63-4.46,1.19-6.8,1.66-9.94,2-21.06,2.51-32-.23-3-.75-5.71-1.46-8.15-2.12C96.51,29.49,94.68,29,93,28.48Z"/><path class="cls-24" d="M165.72,81.45a9.63,9.63,0,0,1-1.14,6.07,6,6,0,0,1-9.72,1.26,9.57,9.57,0,0,1-2.64-5.58l1-.13,1-.28v.14a7.43,7.43,0,0,0,2,4.35,3.85,3.85,0,0,0,6.41-.82,7.43,7.43,0,0,0,.86-4.74Z"/><path class="cls-24" d="M127.55,83.07a9.58,9.58,0,0,1-1.14,6.07,5.94,5.94,0,0,1-9.71,1.25,9.64,9.64,0,0,1-2.65-5.58l1-.13,1-.28v0l0,.09a7.46,7.46,0,0,0,2,4.36,4.09,4.09,0,0,0,3.43,1.32,4.17,4.17,0,0,0,3-2.15,7.55,7.55,0,0,0,.86-4.73Z"/><path class="cls-23" d="M193.45,135.42a1.13,1.13,0,1,1-1.74,1.45c-5.23-6.24-6.56-11.12-5.26-15.93s5-9.12,10.1-14.67c9.13-10-8.18-24.9-8.23-24.94a1.13,1.13,0,0,1,1.49-1.71c.05,0,19.11,16.43,8.41,28.17-4.85,5.32-8.45,9.54-9.58,13.73S188.76,129.83,193.45,135.42Z"/><path class="cls-28" d="M84.47,226.51c14.06,7.58,30.47,7.61,45.72,2.75,16.66-5.31,31.92-16.47,41.2-30.07l-4.5-3.38-17.12-11.2c-7.53,6.51-19,14.45-30.38,17.66-8.39,2.37-16.74,2.19-23.51-3l-.47-.33c-3-2-11.27-7.65,1.47-32.31l1.34.69c-12.13,23.47-4.64,28.56-2,30.38l.54.37c6.33,4.8,14.23,4.95,22.2,2.7,11.35-3.21,22.83-11.25,30.22-17.73l.43-.37,18.07,11.83c1.89,1.45,3.83,2.87,5.74,4.3l-.4.59c-9.42,14.13-25.18,25.77-42.41,31.26C116.13,235.33,96.91,237.17,84.47,226.51Z"/><path class="cls-5" d="M141.06,190.38c22.4,20,22.56,20,22.56,20l8.64-10.88L149.54,183Z"/><path class="cls-5" d="M207.79,188.62a33.68,33.68,0,0,0,26.07,6.08l2.7-.5c1.15-2.88,2.27-5.92,3.33-9.12a57,57,0,0,1-7.63,1.21c-8.55.76-20.31-.6-22.15-4C209.27,184.71,208.5,186.81,207.79,188.62Z"/><path class="cls-24" d="M131,107.35c6.61,5.23,20.87.75,20.71,1,0,0-2.7,10.48-10.85,10.56S131,107.35,131,107.35Z"/><path class="cls-28" d="M143.52,149.6a.75.75,0,0,1,1-.44.76.76,0,0,1,.44,1c-2.42,6.3-7.66,9.64-14.27,11.39s-14.26,1.89-22,1.89a.76.76,0,0,1,0-1.51c7.6,0,15.27-.18,21.57-1.84S141.31,155.37,143.52,149.6Z"/><path class="cls-27" d="M60.78,252.5h288.6a7.06,7.06,0,0,1,7,7h0a7.06,7.06,0,0,1-7,7H60.78a7.06,7.06,0,0,1-7-7h0A7.06,7.06,0,0,1,60.78,252.5Z"/></svg>